<svg xmlns="http://www.w3.org/2000/svg" width="66.77" height="53.847" viewBox="0 0 66.77 53.847"><g transform="translate(-1 -7)" style="isolation:isolate"><path d="M53.846,21H45.231A3.231,3.231,0,0,0,42,24.231v4.308a1.077,1.077,0,0,0,1.077,1.077H56a1.077,1.077,0,0,0,1.077-1.077V24.231A3.231,3.231,0,0,0,53.846,21Zm1.077,6.462H44.154V24.231a1.077,1.077,0,0,1,1.077-1.077h8.616a1.077,1.077,0,0,1,1.077,1.077Z" transform="translate(3.155 1.077)" fill="#fff"/><path d="M53.616,17.462V15.308a4.308,4.308,0,1,0-8.616,0v2.154a4.308,4.308,0,0,0,8.616,0Zm-2.154,0a2.154,2.154,0,1,1-4.308,0V15.308a2.154,2.154,0,1,1,4.308,0Z" transform="translate(3.385 0.308)" fill="#fff"/><path d="M67.77,22.077a15.077,15.077,0,0,0-30.154,0H2.077A1.077,1.077,0,0,0,1,23.154V54.385a6.468,6.468,0,0,0,6.462,6.462H54.847a6.468,6.468,0,0,0,6.462-6.462V34.433A15.062,15.062,0,0,0,67.77,22.077ZM54.847,58.693H7.462a4.308,4.308,0,0,1-4.308-4.308V52.232h56v2.154A4.308,4.308,0,0,1,54.847,58.693Zm4.308-8.616h-56V24.231H37.788A15.021,15.021,0,0,0,59.155,35.679ZM52.693,35A12.923,12.923,0,1,1,65.616,22.077,12.923,12.923,0,0,1,52.693,35Z" transform="translate(0 0)" fill="#fff"/><path d="M12.231,38.692a1.077,1.077,0,0,1-1.077-1.077H9a3.231,3.231,0,0,0,2.154,3.033v1.275h2.154V40.648a3.223,3.223,0,0,0-1.077-6.263,1.077,1.077,0,1,1,1.077-1.077h2.154a3.231,3.231,0,0,0-2.154-3.033V29H11.154v1.275a3.223,3.223,0,0,0,1.077,6.263,1.077,1.077,0,0,1,0,2.154Z" transform="translate(0.616 1.693)" fill="#fff"/><path d="M20.231,38.692a1.077,1.077,0,0,1-1.077-1.077H17a3.231,3.231,0,0,0,2.154,3.033v1.275h2.154V40.648a3.223,3.223,0,0,0-1.077-6.263,1.077,1.077,0,1,1,1.077-1.077h2.154a3.231,3.231,0,0,0-2.154-3.033V29H19.154v1.275a3.223,3.223,0,0,0,1.077,6.263,1.077,1.077,0,0,1,0,2.154Z" transform="translate(1.231 1.693)" fill="#fff"/><path d="M28.231,38.692a1.077,1.077,0,0,1-1.077-1.077H25a3.231,3.231,0,0,0,2.154,3.033v1.275h2.154V40.648a3.223,3.223,0,0,0-1.077-6.263,1.077,1.077,0,1,1,1.077-1.077h2.154a3.231,3.231,0,0,0-2.154-3.033V29H27.154v1.275a3.223,3.223,0,0,0,1.077,6.263,1.077,1.077,0,1,1,0,2.154Z" transform="translate(1.847 1.693)" fill="#fff"/><path d="M36.231,25H6.077A1.077,1.077,0,0,0,5,26.077V45.462a1.077,1.077,0,0,0,1.077,1.077H36.231a1.077,1.077,0,0,0,1.077-1.077V26.077A1.077,1.077,0,0,0,36.231,25ZM35.154,44.385h-28V27.154h28Z" transform="translate(0.308 1.385)" fill="#fff"/><path d="M37,43H54.231v2.154H37Z" transform="translate(2.77 2.77)" fill="#fff"/><path d="M37,39h7.539v2.154H37Z" transform="translate(2.77 2.462)" fill="#fff"/><path d="M46,39h7.539v2.154H46Z" transform="translate(3.462 2.462)" fill="#fff"/></g></svg>