<svg xmlns="http://www.w3.org/2000/svg" width="47.395" height="61.847" viewBox="0 0 47.395 61.847"><g transform="translate(-0.01)" style="isolation:isolate"><g transform="translate(0.01 0)"><path d="M.524,53.342a11.245,11.245,0,0,0,10.989,8.5H35.9A11.245,11.245,0,0,0,46.891,53.34C49.2,43.884,43.372,32,36.771,23.488a3.523,3.523,0,0,0,2.339-2.773,5.457,5.457,0,0,1,4.257,3.377,1.031,1.031,0,1,0,1.913-.769,7.456,7.456,0,0,0-5.533-4.575,7.937,7.937,0,0,0,3.546-6.379,1.031,1.031,0,1,0-2.062,0,6.2,6.2,0,0,1-3.222,5.1,3.584,3.584,0,0,0-2.447-.973h-.7l3.187-5a4.123,4.123,0,0,0-3.488-6.335h-1.2A4.117,4.117,0,0,0,29.377,0H18.038A4.117,4.117,0,0,0,14.05,5.154h-1.2A4.123,4.123,0,0,0,9.366,11.49l3.186,5h-.7a3.6,3.6,0,0,0-1.207,6.993C4.044,32-1.784,43.883.524,53.342ZM11.038,8.287a2.045,2.045,0,0,1,1.815-1.072H14.86L17.6,13.8a1.031,1.031,0,0,0,1.9-.794l-3.37-8.087a2.062,2.062,0,0,1,1.9-2.854H29.377a2.062,2.062,0,0,1,1.9,2.854L27.91,13a1.031,1.031,0,1,0,1.9.794l2.742-6.582h2.007a2.062,2.062,0,0,1,1.752,3.168l-3.9,6.109H15l-3.891-6.108a2.035,2.035,0,0,1-.069-2.1ZM13.1,23.708h3.392a1.031,1.031,0,1,0,0-2.062H11.854a1.546,1.546,0,1,1,0-3.092H35.562a1.546,1.546,0,1,1,0,3.092H22.677a1.031,1.031,0,0,0,0,2.062H34.312c6.629,8.182,12.805,20.011,10.577,29.141A9.188,9.188,0,0,1,35.9,59.785H11.513a9.185,9.185,0,0,1-8.986-6.934C.3,43.718,6.474,31.89,13.1,23.708Z" transform="translate(-0.01 0)" fill="#fff"/><path d="M8.031,41.062h3.092v8.246a1.031,1.031,0,1,0,2.062,0V41.062h3.092a1.031,1.031,0,1,0,0-2.062H8.031a1.031,1.031,0,1,0,0,2.062Z" transform="translate(0.205 1.2)" fill="#fff"/><path d="M30.459,50.165a1.031,1.031,0,0,0,1.43-.286l2.235-3.355,2.235,3.352a1.031,1.031,0,0,0,1.715-1.144L35.36,44.669,38.071,40.6a1.031,1.031,0,0,0-1.715-1.144l-2.233,3.355-2.235-3.352a1.031,1.031,0,1,0-1.715,1.144l2.713,4.063-2.711,4.066a1.031,1.031,0,0,0,.283,1.43Z" transform="translate(0.913 1.2)" fill="#fff"/><path d="M18.612,50.25a1.031,1.031,0,0,0,1.361-.524l1.1-2.48h4.158l1.1,2.48a1.031,1.031,0,1,0,1.884-.837l-1.361-3.06-.013-.03L24.1,39.614a1.031,1.031,0,0,0-1.884,0L19.463,45.8l-.013.03-1.361,3.06a1.031,1.031,0,0,0,.524,1.361Zm4.542-7.681,1.163,2.616H21.991Z" transform="translate(0.544 1.2)" fill="#fff"/></g></g></svg>