<svg xmlns="http://www.w3.org/2000/svg" width="55.249" height="59.498" viewBox="0 0 55.249 59.498"><g transform="translate(-18.282 -0.001)" style="isolation:isolate"><path d="M75.916,151.912a.871.871,0,0,0,1.125-.5l.421-1.105h2.892l.416,1.1a.872.872,0,1,0,1.631-.615L79.875,144.1l-.009-.024a1.025,1.025,0,0,0-1.9,0l-.008.02-2.549,6.693A.872.872,0,0,0,75.916,151.912Zm3-5.424.782,2.071H78.125Z" transform="translate(-50.44 -126.769)" fill="#fff"/><path d="M293.383,151.969a.872.872,0,0,0,.872-.872V144.31a.872.872,0,0,0-1.743,0V151.1A.872.872,0,0,0,293.383,151.969Z" transform="translate(-242.362 -126.769)" fill="#fff"/><path d="M220.121,151.1a.871.871,0,0,0,.872.868h0c.058,0,1.429-.005,1.977-.015,2.052-.036,3.541-1.823,3.541-4.251,0-2.551-1.452-4.266-3.613-4.266h-1.923a.872.872,0,0,0-.872.873S220.121,151.1,220.121,151.1Zm2.78-5.92c.312,0,1.87.122,1.87,2.523,0,1.232-.565,2.486-1.829,2.508-.249,0-.684.008-1.081.01,0-.8-.008-4.207-.009-5.041Z" transform="translate(-178.371 -126.769)" fill="#fff"/><path d="M149.815,151.475a3.15,3.15,0,0,0,1.719.495h.005a3.323,3.323,0,0,0,1.509-.35,2.855,2.855,0,0,0,1.759-2.644v-4.666a.872.872,0,1,0-1.743,0v4.666c0,.319-.091.73-.8,1.087a1.587,1.587,0,0,1-.728.163,1.414,1.414,0,0,1-.783-.221,1.122,1.122,0,0,1-.663-1.025v-4.671a.872.872,0,1,0-1.743,0v4.671A2.857,2.857,0,0,0,149.815,151.475Z" transform="translate(-114.951 -126.769)" fill="#fff"/><path d="M324.35,145.181h1V151.1a.872.872,0,1,0,1.743,0v-5.917h1.01a.872.872,0,0,0,0-1.743H324.35a.872.872,0,1,0,0,1.743Z" transform="translate(-269.73 -126.769)" fill="#fff"/><path d="M70.954,51.273v-.779a8.434,8.434,0,0,0-.619-3.186.872.872,0,1,0-1.615.656,6.7,6.7,0,0,1,.491,2.531v.42H47.074v-.42a6.755,6.755,0,0,1,6.747-6.747h1.518a.872.872,0,1,0,0-1.743H53.534a6.754,6.754,0,0,1-6.747-6.746v-.421H68.924v.421A6.754,6.754,0,0,1,62.183,42H60.659a.872.872,0,1,0,0,1.743h1.8a6.735,6.735,0,0,1,4.487,1.708.872.872,0,1,0,1.16-1.3,8.48,8.48,0,0,0-2.047-1.35,8.5,8.5,0,0,0,4.6-7.546v-.666a4.292,4.292,0,0,0-1.428-8.34H65.8V5.52A5.526,5.526,0,0,0,60.278,0H34.431a6.727,6.727,0,0,0-4.724,1.957l-9.467,9.467a6.727,6.727,0,0,0-1.957,4.724v.968c0,.008,0,.016,0,.025s0,.008,0,.012V48.719a5.526,5.526,0,0,0,5.52,5.519H42.579A4.289,4.289,0,0,0,46.759,59.5h22.48a4.292,4.292,0,0,0,1.715-8.226Zm.834-20.728a2.552,2.552,0,0,1-2.549,2.549H46.759a2.549,2.549,0,1,1,0-5.1h22.48A2.552,2.552,0,0,1,71.788,30.545ZM23.8,52.494a3.78,3.78,0,0,1-3.777-3.776v-31.6a2.53,2.53,0,0,1,2.527-2.5h4.824a5.519,5.519,0,0,0,5.509-5.2.872.872,0,1,0-1.74-.1,3.775,3.775,0,0,1-3.769,3.558H22.553a4.25,4.25,0,0,0-1.506.275,4.858,4.858,0,0,1,.425-.489L30.939,3.19a4.863,4.863,0,0,1,.488-.425,4.248,4.248,0,0,0-.275,1.506V5.879a.872.872,0,1,0,1.743,0V4.271A2.53,2.53,0,0,1,35.42,1.744H60.278A3.78,3.78,0,0,1,64.055,5.52V26.252h-17.3a4.3,4.3,0,0,0-4.288,4.1H25.321a.872.872,0,1,0,0,1.743H42.758a4.316,4.316,0,0,0,2.286,2.382v.761H25.321a.872.872,0,1,0,0,1.743h19.9a8.448,8.448,0,0,0,1.36,3.142H25.321a.872.872,0,1,0,0,1.743H48.214a8.512,8.512,0,0,0,1.722,1.078,8.543,8.543,0,0,0-2.59,2.064H25.321a.872.872,0,0,0,0,1.743H46.2a8.439,8.439,0,0,0-.869,3.74v.666a4.309,4.309,0,0,0-1.9,1.335Zm45.436,5.262H46.759a2.549,2.549,0,0,1,0-5.1h22.48a2.549,2.549,0,1,1,0,5.1Z" fill="#fff"/></g></svg>