<svg xmlns="http://www.w3.org/2000/svg" width="60.003" height="60" viewBox="0 0 60.003 60"><g style="isolation:isolate"><circle cx="1" cy="1" r="1" transform="translate(5 6)" fill="#fff"/><circle cx="1" cy="1" r="1" transform="translate(9 6)" fill="#fff"/><circle cx="1" cy="1" r="1" transform="translate(13 6)" fill="#fff"/><path d="M36,9a1,1,0,0,0,1-1V6a1,1,0,0,0-2,0V8A1,1,0,0,0,36,9Z" fill="#fff"/><path d="M32,9a1,1,0,0,0,1-1V6a1,1,0,0,0-2,0V8A1,1,0,0,0,32,9Z" fill="#fff"/><path d="M28,9a1,1,0,0,0,1-1V6a1,1,0,0,0-2,0V8A1,1,0,0,0,28,9Z" fill="#fff"/><circle cx="1" cy="1" r="1" transform="translate(5 23)" fill="#fff"/><circle cx="1" cy="1" r="1" transform="translate(9 23)" fill="#fff"/><circle cx="1" cy="1" r="1" transform="translate(13 23)" fill="#fff"/><path d="M36,26a1,1,0,0,0,1-1V23a1,1,0,0,0-2,0v2A1,1,0,0,0,36,26Z" fill="#fff"/><path d="M32,26a1,1,0,0,0,1-1V23a1,1,0,0,0-2,0v2A1,1,0,0,0,32,26Z" fill="#fff"/><path d="M28,26a1,1,0,0,0,1-1V23a1,1,0,0,0-2,0v2A1,1,0,0,0,28,26Z" fill="#fff"/><circle cx="1" cy="1" r="1" transform="translate(5 40)" fill="#fff"/><circle cx="1" cy="1" r="1" transform="translate(9 40)" fill="#fff"/><circle cx="1" cy="1" r="1" transform="translate(13 40)" fill="#fff"/><path d="M58.056,27.689a3.026,3.026,0,0,0-2.378-.357c-2.615.7-7.508,1.489-10.9-1.063A2.97,2.97,0,0,0,42,25.857V20a3,3,0,0,0-2-2.816V13.816A3,3,0,0,0,42,11V3a3,3,0,0,0-3-3H3A3,3,0,0,0,0,3v8a3,3,0,0,0,2,2.816v3.368A3,3,0,0,0,0,20v8a3,3,0,0,0,2,2.816v3.368A3,3,0,0,0,0,37v8a3,3,0,0,0,3,3H28.841A25.032,25.032,0,0,0,42.65,59.937a1,1,0,0,0,.7,0A24.856,24.856,0,0,0,60,37.221a41.26,41.26,0,0,0-.6-7.567A2.989,2.989,0,0,0,58.056,27.689ZM4,14H38v3H4ZM2,3A1,1,0,0,1,3,2H39a1,1,0,0,1,1,1v8a1,1,0,0,1-1,1H3a1,1,0,0,1-1-1ZM2,20a1,1,0,0,1,1-1H39a1,1,0,0,1,1,1v7.016c-3.264,1.621-7.362.935-9.677.316a3.018,3.018,0,0,0-2.38.358A2.974,2.974,0,0,0,26.818,29H3a1,1,0,0,1-1-1ZM26.1,34H4V31H26.387C26.273,31.819,26.169,32.823,26.1,34ZM3,46a1,1,0,0,1-1-1V37a1,1,0,0,1,1-1H26.014Q26,36.59,26,37.221A23.516,23.516,0,0,0,27.891,46ZM43,57.93A22.815,22.815,0,0,1,28,37.221a39.286,39.286,0,0,1,.57-7.2.964.964,0,0,1,.438-.642.994.994,0,0,1,.532-.154,1.027,1.027,0,0,1,.267.036c2.966.793,8.549,1.665,12.618-1.4a.96.96,0,0,1,1.15,0c4.07,3.062,9.654,2.189,12.618,1.4a1,1,0,0,1,.8.118.962.962,0,0,1,.439.642,39.378,39.378,0,0,1,.57,7.2A22.817,22.817,0,0,1,43,57.93Z" fill="#fff"/><path d="M50.231,34.36l-9.3,11.159L37.7,42.293a1,1,0,1,0-1.414,1.414l4,4A1,1,0,0,0,41,48h.045a1,1,0,0,0,.723-.359l10-12a1,1,0,0,0-1.538-1.28Z" fill="#fff"/></g></svg>