<svg xmlns="http://www.w3.org/2000/svg" width="58.395" height="52.3" viewBox="0 0 58.395 52.3"><g transform="translate(0 -26.72)" style="isolation:isolate"><g transform="translate(0 26.72)"><g transform="translate(0 0)"><path d="M57.511,69.242,34.842,29.979a6.519,6.519,0,0,0-11.29,0L.883,69.242A6.518,6.518,0,0,0,6.529,79.02H51.866a6.518,6.518,0,0,0,5.645-9.778Zm-2.965,4.806a3.063,3.063,0,0,1-2.68,1.547H6.529a3.094,3.094,0,0,1-2.68-4.641L26.517,31.691a3.094,3.094,0,0,1,5.36,0L54.546,70.954A3.063,3.063,0,0,1,54.546,74.049Z" transform="translate(0 -26.72)" fill="#fff"/></g></g><g transform="translate(26.914 64.182)"><path d="M238.267,355.183a2.283,2.283,0,1,0,2.283,2.283A2.285,2.285,0,0,0,238.267,355.183Z" transform="translate(-235.984 -355.183)" fill="#fff"/></g><g transform="translate(27.485 43.066)"><g transform="translate(0 0)"><rect width="3.424" height="17.691" fill="#fff"/></g></g></g></svg>