<svg xmlns="http://www.w3.org/2000/svg" width="59.918" height="53.498" viewBox="0 0 59.918 53.498"><g transform="translate(-4 -7)"><path d="M48.808,31.321a8.562,8.562,0,1,1,1.513-1.513l2.334,2.334.848-.848a1.069,1.069,0,0,1,1.513,0l6.42,6.42a1.069,1.069,0,0,1,0,1.513l-3.21,3.21a1.069,1.069,0,0,1-1.513,0l-6.42-6.42a1.069,1.069,0,0,1,0-1.513l.848-.848Zm3.754,3.939,4.907,4.907,1.7-1.7-4.907-4.907Zm-9-17.119a6.42,6.42,0,1,1-6.42,6.42A6.423,6.423,0,0,1,43.56,18.14Z" transform="translate(2.169 0.63)" fill="#fff" fill-rule="evenodd"/><path d="M41.14,12.07A1.07,1.07,0,1,1,40.07,11,1.07,1.07,0,0,1,41.14,12.07Z" transform="translate(2.449 0.28)" fill="#fff" fill-rule="evenodd"/><path d="M32.07,13.139h4.28a1.07,1.07,0,0,0,0-2.14H32.07a1.07,1.07,0,0,0,0,2.14Z" transform="translate(1.889 0.28)" fill="#fff" fill-rule="evenodd"/><path d="M48.938,47.658h11.77a1.07,1.07,0,0,1,1.07,1.07v5.35a6.419,6.419,0,0,1-6.42,6.42H21.119a6.408,6.408,0,0,1-6.42-6.407V19.84H5.07A1.07,1.07,0,0,1,4,18.77V13.407A6.407,6.407,0,0,1,10.407,7H42.519a6.418,6.418,0,0,1,6.42,6.42,1.07,1.07,0,1,1-2.14,0,4.281,4.281,0,0,0-4.28-4.28H15.212a6.406,6.406,0,0,1,1.627,4.267V54.091a4.267,4.267,0,0,0,4.267,4.267h.026A4.267,4.267,0,0,0,25.4,54.091V48.728a1.07,1.07,0,0,1,1.07-1.07H46.8v-10.7a1.07,1.07,0,1,1,2.14,0Zm10.7,2.14h-32.1v4.293a6.406,6.406,0,0,1-1.627,4.267H55.358a4.28,4.28,0,0,0,4.28-4.28ZM14.7,17.7V13.407A4.267,4.267,0,0,0,10.433,9.14h-.026A4.267,4.267,0,0,0,6.14,13.407V17.7Z" fill="#fff" fill-rule="evenodd"/><path d="M25.42,16.069A1.07,1.07,0,0,0,24.35,15H20.07A1.07,1.07,0,0,0,19,16.069V43.888a1.07,1.07,0,0,0,1.07,1.07h4.28a1.07,1.07,0,0,0,1.07-1.07Zm-4.28,1.069V42.818h2.14V17.139Z" transform="translate(1.049 0.56)" fill="#fff" fill-rule="evenodd"/><path d="M33.42,26.07A1.07,1.07,0,0,0,32.35,25H28.07A1.07,1.07,0,0,0,27,26.07V43.189a1.07,1.07,0,0,0,1.07,1.07h4.28a1.07,1.07,0,0,0,1.07-1.07Zm-4.28,1.07V42.119h2.14V27.14Z" transform="translate(1.609 1.259)" fill="#fff" fill-rule="evenodd"/><path d="M41.42,36.07A1.07,1.07,0,0,0,40.35,35H36.07A1.07,1.07,0,0,0,35,36.07v6.42a1.07,1.07,0,0,0,1.07,1.07h4.28a1.07,1.07,0,0,0,1.07-1.07Zm-4.28,1.07v4.28h2.14V37.14Z" transform="translate(2.169 1.959)" fill="#fff" fill-rule="evenodd"/></g></svg>