<svg id="Capa_1" enable-background="new 0 0 511.989 511.989" height="512" viewBox="0 0 511.989 511.989" width="512" xmlns="http://www.w3.org/2000/svg"><path d="m511.053 92.133c-2.346-7.843-8.784-13.744-16.8-15.403l-40.308-8.339c1.845-2.901 1.507-6.79-1.025-9.322-2.532-2.531-6.422-2.869-9.322-1.024l-8.339-40.309c-1.658-8.017-7.561-14.454-15.403-16.8s-16.31-.208-22.099 5.58c-4.926 4.927-7.224 11.79-6.318 18.627-6.79-.898-13.682 1.374-18.622 6.314v.001c-4.926 4.925-7.224 11.789-6.318 18.626-4.536-.6-9.111.22-13.126 2.302-29.113-14.869-60.448-23.578-93.216-25.858-4.123-.301-7.715 2.829-8.003 6.961s2.829 7.715 6.961 8.002c29.384 2.046 57.538 9.599 83.814 22.441-1.576 3.971-2.001 8.368-1.105 12.697l7.156 34.593c-31.162-20.921-68.124-32.284-105.942-32.284-104.775 0-190.017 85.24-190.017 190.016s85.238 190.016 190.014 190.016c47.724 0 93.35-17.765 128.476-50.022 34.907-32.057 56.479-75.605 60.743-122.625.374-4.126-2.667-7.773-6.792-8.147-4.122-.372-7.772 2.667-8.146 6.792-3.926 43.298-23.796 83.404-55.95 112.933-32.35 29.709-74.374 46.07-118.33 46.07-96.504 0-175.017-78.512-175.017-175.017 0-96.504 78.512-175.016 175.017-175.016 40.224 0 79.395 13.952 110.497 39.305l2.504 12.103-21.627 21.627c-24.261-21.76-56.296-35.018-91.374-35.018-75.541 0-136.998 61.457-136.998 136.999 0 75.541 61.457 136.998 136.998 136.998s136.998-61.457 136.998-136.998c0-35.078-13.257-67.114-35.017-91.375l21.627-21.627 12.102 2.503c22.097 27.105 35.431 59.758 38.574 94.539.352 3.896 3.624 6.825 7.461 6.825.226 0 .455-.01.684-.03 4.125-.373 7.167-4.02 6.794-8.145-2.887-31.948-13.69-62.238-31.467-88.629l34.568 7.151c1.509.312 3.025.465 4.531.465 2.816 0 5.585-.547 8.174-1.576 15.064 30.905 23.004 65.272 23.004 99.896 0 60.91-23.72 118.175-66.79 161.245s-100.334 66.79-161.245 66.79-118.175-23.72-161.245-66.79c-43.069-43.068-66.789-100.332-66.789-161.242 0-58.087 21.851-113.416 61.526-155.796 39.489-42.179 92.869-67.628 150.308-71.658 4.132-.29 7.247-3.874 6.957-8.007-.29-4.132-3.876-7.26-8.006-6.956-61.229 4.296-118.125 31.418-160.208 76.369-42.288 45.17-65.577 104.139-65.577 166.048 0 64.917 25.28 125.949 71.183 171.852s106.935 71.184 171.852 71.184 125.948-25.28 171.852-71.184c45.903-45.902 71.183-106.935 71.183-171.852 0-38.354-9.137-76.424-26.453-110.364 2.071-4.008 2.885-8.573 2.287-13.098.978.129 1.956.201 2.928.201 5.832 0 11.478-2.296 15.699-6.518v-.001c4.941-4.941 7.211-11.833 6.314-18.624.978.129 1.955.201 2.929.201 5.832 0 11.477-2.296 15.699-6.518v-.001c5.788-5.788 7.926-14.256 5.58-22.099zm-102.69-75.009c1.694-1.694 3.552-2.133 5.022-2.133.922 0 1.691.172 2.171.315 1.245.372 4.224 1.65 5.014 5.469l10.291 49.746-12.249 12.25-12.219-59.063c-.496-2.394.241-4.856 1.97-6.584zm-24.942 24.941c1.695-1.694 3.553-2.133 5.022-2.133.922 0 1.691.172 2.171.315 1.243.372 4.218 1.648 5.011 5.458l10.294 49.758-12.249 12.249-12.219-59.063c-.495-2.395.241-4.856 1.97-6.584zm-17.748 23.124c1.243.372 4.218 1.648 5.011 5.458l10.294 49.758-12.25 12.25-12.218-59.065c-.495-2.395.241-4.855 1.97-6.584 0 0 0 0 0-.001 1.694-1.693 3.552-2.132 5.022-2.132.922.001 1.691.172 2.171.316zm-.64 203.766c0 67.27-54.728 121.998-121.998 121.998s-121.998-54.729-121.998-121.998c0-67.271 54.728-121.999 121.998-121.999 30.942 0 59.225 11.585 80.754 30.638l-27.341 27.341c-14.482-12.103-33.108-19.402-53.413-19.402-45.999 0-83.422 37.423-83.422 83.422 0 15.77 4.441 31.142 12.844 44.457 2.21 3.501 6.841 4.551 10.346 2.34 3.503-2.211 4.55-6.843 2.34-10.346-6.889-10.915-10.53-23.52-10.53-36.451 0-37.728 30.694-68.422 68.422-68.422 16.168 0 31.033 5.649 42.755 15.06l-23.767 23.767c-5.482-3.53-11.998-5.588-18.989-5.588-19.4 0-35.183 15.783-35.183 35.184 0 19.399 15.783 35.183 35.183 35.183s35.183-15.783 35.183-35.183c0-6.991-2.058-13.506-5.588-18.989l23.767-23.767c9.411 11.722 15.06 26.587 15.06 42.754 0 37.728-30.694 68.422-68.422 68.422-13.031 0-25.718-3.694-36.69-10.684-3.496-2.225-8.13-1.198-10.355 2.297-2.226 3.493-1.197 8.13 2.296 10.354 13.384 8.526 28.858 13.032 44.749 13.032 45.999 0 83.422-37.423 83.422-83.422 0-20.304-7.299-38.931-19.402-53.413l27.341-27.341c19.053 21.531 30.638 49.814 30.638 80.756zm-101.815 0c0 11.129-9.054 20.183-20.183 20.183s-20.183-9.054-20.183-20.183 9.054-20.184 20.183-20.184c2.819 0 5.503.585 7.943 1.634l-13.246 13.246c-2.929 2.93-2.929 7.678 0 10.607 1.464 1.464 3.384 2.196 5.303 2.196s3.839-.732 5.303-2.196l13.246-13.246c1.049 2.44 1.634 5.123 1.634 7.943zm175.18-113.476-59.063-12.219 12.249-12.249 49.754 10.293c3.812.793 5.088 3.768 5.46 5.011.372 1.244.94 4.437-1.816 7.192-1.728 1.732-4.191 2.467-6.584 1.972zm31.526-26.912c-1.729 1.73-4.189 2.468-6.585 1.971l-59.062-12.219 12.249-12.249 49.753 10.292c3.813.792 5.09 3.769 5.462 5.012.372 1.245.94 4.436-1.817 7.193zm24.942-24.942c-1.729 1.73-4.192 2.466-6.584 1.971l-59.063-12.219 12.25-12.25 49.746 10.292c3.818.79 5.096 3.769 5.468 5.014.371 1.244.94 4.436-1.817 7.192z"/></svg>