<svg xmlns="http://www.w3.org/2000/svg" width="58.658" height="55.509" viewBox="0 0 58.658 55.509"><path d="M53.91.187H4.749A4.754,4.754,0,0,0,0,4.936V39.653A4.754,4.754,0,0,0,4.749,44.4H20.983V54.08H17.219a.808.808,0,1,0,0,1.617h24.93a.808.808,0,0,0,0-1.617H37.676V44.4H53.91a4.754,4.754,0,0,0,4.749-4.749V4.936A4.754,4.754,0,0,0,53.91.187ZM4.749,1.8H53.91a3.135,3.135,0,0,1,3.132,3.132V35.248H1.617V4.936A3.136,3.136,0,0,1,4.749,1.8ZM36.059,54.08H22.6V44.4h13.46ZM53.91,42.785H4.749a3.135,3.135,0,0,1-3.132-3.132V36.864H57.042v2.789a3.135,3.135,0,0,1-3.132,3.132Zm0,0" transform="translate(0 -0.187)" fill="#fff"/><path d="M180.517,105.562c.273,0,.483-.087.545-.322l.471-1.649h2.839l.471,1.649c.062.235.273.322.545.322.434,0,1.017-.285,1.017-.669a.561.561,0,0,0-.025-.124l-2.393-7.8c-.111-.372-.57-.545-1.041-.545a1.008,1.008,0,0,0-1.029.545l-2.394,7.8a.728.728,0,0,0-.025.124C179.5,105.29,180.083,105.562,180.517,105.562Zm2.43-7.041,1.079,3.806h-2.157Zm0,0" transform="translate(-155.235 -83.396)" fill="#fff"/><path d="M239.349,106.058c.4,0,.806-.174.806-.508V97.492c0-.347-.409-.5-.806-.5s-.806.149-.806.5v8.057C238.543,105.884,238.939,106.058,239.349,106.058Zm0,0" transform="translate(-206.381 -83.889)" fill="#fff"/><path d="M35.084,53.989a3.374,3.374,0,0,0,3.295-2.509H44.57a11.554,11.554,0,0,0,.6,2.969h-.442a3.4,3.4,0,0,0-3.441,3.344,1.8,1.8,0,0,1-1.818,1.766H38.96a3.392,3.392,0,0,0-3.706-2.487,3.289,3.289,0,0,0,0,6.551,3.392,3.392,0,0,0,3.706-2.487h.507a3.4,3.4,0,0,0,3.442-3.344,1.8,1.8,0,0,1,1.818-1.767h1.115a12.3,12.3,0,0,0,9.789,6.552q.618.059,1.229.059a12.352,12.352,0,0,0,10.98-6.611h1.143A1.8,1.8,0,0,1,70.8,57.793a3.4,3.4,0,0,0,3.442,3.344h.507a3.391,3.391,0,0,0,3.706,2.486,3.289,3.289,0,0,0,0-6.55,3.391,3.391,0,0,0-3.706,2.487h-.507a1.8,1.8,0,0,1-1.818-1.767,3.4,3.4,0,0,0-3.441-3.344h-.476a11.725,11.725,0,0,0,.564-2.585c.013-.128.023-.256.032-.384H75.33a3.391,3.391,0,0,0,3.706,2.487,3.289,3.289,0,0,0,0-6.551A3.392,3.392,0,0,0,75.33,49.9H69.1a11.526,11.526,0,0,0-.6-2.968h.477a3.4,3.4,0,0,0,3.441-3.344,1.8,1.8,0,0,1,1.818-1.767h.507a3.256,3.256,0,0,0,.895,1.543,3.47,3.47,0,0,0,4.114.518,3.259,3.259,0,0,0,1.56-3.735,3.422,3.422,0,0,0-6.568.1h-.507A3.4,3.4,0,0,0,70.8,43.59a1.8,1.8,0,0,1-1.819,1.767h-1.15a12.453,12.453,0,0,0-21.995,0H44.727a1.8,1.8,0,0,1-1.818-1.767,3.4,3.4,0,0,0-3.442-3.344h-.507a3.417,3.417,0,0,0-6.558-.093,3.254,3.254,0,0,0,1.556,3.728,3.465,3.465,0,0,0,4.107-.514,3.256,3.256,0,0,0,.895-1.543h.507a1.8,1.8,0,0,1,1.818,1.767,3.4,3.4,0,0,0,3.441,3.344h.44A11.628,11.628,0,0,0,44.6,49.52c-.014.128-.023.256-.032.383H38.379a3.393,3.393,0,0,0-3.839-2.465A3.317,3.317,0,0,0,31.7,50.957a3.355,3.355,0,0,0,3.382,3.031Zm1.832,7.575a1.807,1.807,0,0,1-2.5,0,1.685,1.685,0,0,1,0-2.431,1.807,1.807,0,0,1,2.5,0A1.687,1.687,0,0,1,36.916,61.564Zm39.876-2.432a1.807,1.807,0,0,1,2.5,0,1.686,1.686,0,0,1,0,2.433,1.807,1.807,0,0,1-2.5,0,1.687,1.687,0,0,1,0-2.433Zm.58-9.657a1.808,1.808,0,0,1,2.5,0,1.685,1.685,0,0,1,0,2.433,1.807,1.807,0,0,1-2.5,0,1.674,1.674,0,0,1,0-2.433Zm-.58-9.656a1.808,1.808,0,0,1,2.5,0,1.686,1.686,0,0,1,0,2.433,1.808,1.808,0,0,1-2.5,0,1.688,1.688,0,0,1,0-2.433ZM36.916,42.251a1.806,1.806,0,0,1-2.5,0,1.685,1.685,0,0,1,0-2.431,1.806,1.806,0,0,1,2.5,0,1.688,1.688,0,0,1,0,2.433Zm20.967-1.877a10.45,10.45,0,0,1,9.572,11.334,10.594,10.594,0,0,1-11.666,9.3,10.451,10.451,0,0,1-9.572-11.334,10.216,10.216,0,0,1,3.832-7.02,10.817,10.817,0,0,1,7.834-2.28Zm-24.052,9.1a1.807,1.807,0,0,1,2.5,0,1.685,1.685,0,0,1,0,2.433,1.807,1.807,0,0,1-2.5,0,1.675,1.675,0,0,1,0-2.432Zm0,0" transform="translate(-27.525 -32.8)" fill="#fff"/></svg>