<svg id="Capa_1" enable-background="new 0 0 511.986 511.986" height="512" viewBox="0 0 511.986 511.986" width="512" xmlns="http://www.w3.org/2000/svg"><g><path d="m479.819 89.307c-3.316-14.541-14.783-26.119-29.449-29.442-3.318-14.604-14.836-26.126-29.436-29.444-3.961-17.476-19.649-30.421-38.103-30.421h-175.65c-12.547 0-24.342 4.885-33.213 13.757-.077.076-.151.155-.225.234l-64.12 64.1c-8.868 8.881-13.752 20.683-13.752 33.23v148.047c-17.688 36.509-15.576 80.271 6.34 115.045l-12.433 12.433c-8.698-2.974-18.719-1.028-25.64 5.893l-55.119 55.127c-4.691 4.691-7.275 10.928-7.275 17.563s2.584 12.873 7.274 17.563l21.73 21.73c4.843 4.843 11.202 7.263 17.563 7.263 6.359 0 12.721-2.421 17.562-7.262l25.97-25.96c2.929-2.928 2.93-7.677.002-10.606-2.929-2.93-7.677-2.93-10.607-.002l-25.97 25.961c-3.836 3.835-10.078 3.837-13.914 0l-21.73-21.73c-1.857-1.858-2.881-4.328-2.881-6.957s1.023-5.099 2.882-6.957l55.12-55.129c3.834-3.835 10.083-3.834 13.923 0l21.727 21.726c3.838 3.844 3.84 10.091.003 13.927l-7.95 7.95c-2.929 2.929-2.929 7.678 0 10.607 2.929 2.928 7.677 2.929 10.607 0l7.949-7.95c6.922-6.921 8.867-16.942 5.892-25.641l12.433-12.433c11.948 7.53 24.956 12.722 38.368 15.577 2.424 1.1 4.922 1.956 7.486 2.535 3.97 17.47 19.657 30.408 38.108 30.408h247.87c21.549 0 39.08-17.536 39.08-39.09v-293.549c.001-18.452-12.944-34.138-30.422-38.103zm-57.908 243.323v-286.158c8.031 3.526 13.794 11.314 14.39 20.528.033.465.05.965.05 1.53v293.55c0 13.278-10.803 24.08-24.08 24.08h-117.802c3.766-4.609 7.132-9.438 10.1-14.44h78.262c21.549 0 39.08-17.536 39.08-39.09zm-238.072-307.522c-.324 1.782-.503 3.615-.503 5.49v32.779c0 13.278-10.803 24.08-24.08 24.08h-32.779c-1.883 0-3.723.18-5.513.507zm-72.968 93.12c.001-.058.009-.115.009-.174 0-8.6 6.997-15.597 15.597-15.597h32.779c21.549 0 39.08-17.531 39.08-39.08v-32.779c0-8.6 6.997-15.597 15.597-15.597.01 0 .019-.001.029-.001h168.869c12.661 0 23.214 9.879 24.03 22.558.033.462.05.96.05 1.522v293.55c0 13.283-10.803 24.09-24.08 24.09h-70.758c17.827-43.023 9.286-94.486-25.639-129.412-46.247-46.245-121.492-46.244-167.737 0-2.777 2.777-5.383 5.661-7.826 8.635zm18.434 119.687c20.2-20.201 46.727-30.297 73.262-30.297 26.528 0 53.065 10.102 73.261 30.297 40.396 40.396 40.396 106.126 0 146.522s-106.127 40.396-146.522 0c-40.398-40.396-40.398-106.125-.001-146.522zm-11.213 173.638-15.906-15.906 8.937-8.936c2.371 2.866 4.891 5.65 7.574 8.333 2.682 2.682 5.466 5.202 8.332 7.572zm377.15 9.407c0 13.283-10.803 24.09-24.08 24.09h-247.87c-9.803 0-18.34-5.923-22.075-14.45h240.495c21.555 0 39.09-17.531 39.09-39.08v-216.79c0-4.142-3.357-7.5-7.5-7.5s-7.5 3.358-7.5 7.5v216.79c0 13.278-10.807 24.08-24.09 24.08h-182.895c7.39-3.976 14.447-8.785 21.023-14.44h132.43c21.549 0 39.08-17.531 39.08-39.08v-286.177c8.527 3.734 14.451 12.267 14.451 22.067v46.82c0 4.142 3.357 7.5 7.5 7.5s7.5-3.358 7.5-7.5v-39.442c8.521 3.737 14.44 12.267 14.44 22.062v293.55z"/><path d="m202.565 397.222c22.984 0 44.593-8.95 60.845-25.202 33.549-33.549 33.549-88.138 0-121.687-16.252-16.252-37.86-25.202-60.845-25.202-22.983 0-44.592 8.95-60.844 25.202-33.549 33.549-33.549 88.138 0 121.687 16.253 16.252 37.861 25.202 60.844 25.202zm-50.236-136.283c13.418-13.419 31.26-20.809 50.236-20.809 18.978 0 36.819 7.39 50.237 20.809 27.701 27.701 27.701 72.773 0 100.474-13.418 13.419-31.26 20.809-50.237 20.809s-36.818-7.39-50.236-20.809c-27.701-27.701-27.701-72.773 0-100.474z"/><path d="m140.131 179.521c3.871 1.474 8.204-.468 9.679-4.339l2.824-7.415h19.736l2.791 7.394c1.133 3.003 3.987 4.854 7.018 4.854.88 0 1.775-.156 2.647-.485 3.875-1.462 5.831-5.79 4.368-9.665l-18.557-49.172c-.025-.069-.053-.138-.081-.207-1.337-3.248-4.469-5.346-7.98-5.346-.003 0-.007 0-.01 0-3.516.004-6.647 2.109-7.979 5.363-.023.056-.046.113-.067.17l-18.728 49.169c-1.475 3.872.469 8.205 4.339 9.679zm26.577-26.755h-8.362l4.2-11.027z"/><path d="m321.006 180.012c4.143 0 7.5-3.358 7.5-7.5v-49.872c0-4.142-3.357-7.5-7.5-7.5s-7.5 3.358-7.5 7.5v49.872c0 4.142 3.357 7.5 7.5 7.5z"/><path d="m255.666 172.539c.007 1.99.805 3.894 2.217 5.296 1.404 1.395 3.304 2.177 5.283 2.177h.028c.427-.002 10.507-.04 14.539-.111 15.7-.274 27.096-13.869 27.096-32.325 0-19.401-11.107-32.436-27.64-32.436h-14.125c-1.991 0-3.901.792-5.309 2.202-1.406 1.41-2.195 3.321-2.191 5.312 0 .001.036 19.182.036 24.867 0 6.935.066 25.018.066 25.018zm21.523-42.399c11.729 0 12.64 13.346 12.64 17.436 0 8.517-3.821 17.178-12.358 17.327-1.596.028-4.242.051-6.83.069-.019-5.793-.04-13.467-.04-17.451 0-3.343-.013-11.345-.022-17.381z"/><path d="m207.244 176.203c3.945 2.521 8.394 3.802 13.221 3.809h.038c4.147 0 8.044-.904 11.583-2.687 8.723-4.393 13.526-11.639 13.526-20.404v-34.281c0-4.142-3.357-7.5-7.5-7.5s-7.5 3.358-7.5 7.5v34.281c0 2.152-.626 4.667-5.273 7.007-1.447.729-3.029 1.083-4.835 1.083-.007 0-.013 0-.02 0-1.952-.003-3.642-.477-5.164-1.449-3.633-2.321-4.362-4.248-4.362-6.605v-34.317c0-4.142-3.357-7.5-7.5-7.5s-7.5 3.358-7.5 7.5v34.318c0 7.985 3.797 14.46 11.286 19.245z"/><path d="m347.444 130.14h6.216v42.372c0 4.142 3.357 7.5 7.5 7.5s7.5-3.358 7.5-7.5v-42.372h6.327c4.143 0 7.5-3.358 7.5-7.5s-3.357-7.5-7.5-7.5h-27.543c-4.143 0-7.5 3.358-7.5 7.5s3.358 7.5 7.5 7.5z"/><path d="m195.902 371.811c.566 0 1.134-.021 1.701-.062 7.83-.57 14.811-4.992 18.67-11.828l35.033-62.033c6.344-11.231 2.367-25.529-8.865-31.873-11.228-6.34-25.527-2.366-31.872 8.866l-17.732 31.399-5.019-6.473c-3.828-4.938-9.351-8.09-15.55-8.875-6.199-.786-12.333.892-17.271 4.72-10.193 7.903-12.057 22.626-4.154 32.82l26.574 34.279c4.398 5.673 11.309 9.06 18.485 9.06zm-31.715-64.304c1.487-1.152 3.275-1.761 5.126-1.761.355 0 .713.022 1.071.068 2.224.281 4.205 1.412 5.578 3.184l11.93 15.388c1.539 1.985 3.975 3.067 6.473 2.885 2.504-.182 4.751-1.606 5.985-3.792l23.279-41.22c2.276-4.029 7.407-5.457 11.436-3.181s5.456 7.405 3.181 11.435l-35.033 62.033c-1.385 2.452-3.89 4.039-6.699 4.243-2.794.204-5.539-1.032-7.242-3.228l-26.573-34.278c-2.837-3.659-2.168-8.941 1.488-11.776z"/></g></svg>