<svg xmlns="http://www.w3.org/2000/svg" width="56.511" height="56.225" viewBox="0 0 56.511 56.225"><g transform="translate(-0.001 -1.295)"><path d="M52.121,40.138a1.322,1.322,0,0,0,1.322-1.319V36.527h1.735a1.336,1.336,0,0,0,1.335-1.335V32.164a1.336,1.336,0,0,0-1.335-1.335H52.792v-9.1a2.954,2.954,0,0,0,.714.089,3.026,3.026,0,0,0,.786-.1,3,3,0,0,0,.72-5.492L29.864,1.7a3.363,3.363,0,0,0-3.214,0L1.5,16.224A3,3,0,0,0,3.723,21.73v9.1H1.338A1.336,1.336,0,0,0,0,32.164v3.029a1.336,1.336,0,0,0,1.335,1.335H3.072v2.291a1.32,1.32,0,0,0,1.319,1.319h1v8.074h-1a1.322,1.322,0,0,0-1.319,1.322v2.288H1.338A1.336,1.336,0,0,0,0,53.157v3.029A1.336,1.336,0,0,0,1.338,57.52H26.529a.828.828,0,1,0,0-1.656H1.659V53.478h53.2v2.387H30.349a.828.828,0,1,0,0,1.656H55.177a1.336,1.336,0,0,0,1.335-1.335V53.157a1.336,1.336,0,0,0-1.335-1.335H53.443V49.534a1.324,1.324,0,0,0-1.322-1.322h-1V40.137h1ZM3.671,19.984a1.348,1.348,0,0,1-1.835-.491h0a1.345,1.345,0,0,1,.492-1.834L27.48,3.136a1.591,1.591,0,0,1,.776-.185,1.57,1.57,0,0,1,.778.186l25.151,14.52a1.343,1.343,0,0,1-1.34,2.327L28.67,6.027a.828.828,0,0,0-.828,0Zm-2.012,12.5h24.87a.828.828,0,1,0,0-1.656H5.379v-9.92L28.256,7.7l22.88,13.21v9.92H30.211a.828.828,0,1,0,0,1.656H54.856v2.387H1.659Zm21.465,6V36.527H33.388v1.955Zm7.946,1.656v8.074H25.442V40.138ZM4.728,38.482V36.527H14.989v1.955Zm7.946,1.656v8.074H7.043V40.138Zm2.315,11.685H4.728V49.868H14.989Zm6.479-2.288v2.288H16.645V49.534a1.322,1.322,0,0,0-1.319-1.322h-1V40.138h1a1.32,1.32,0,0,0,1.319-1.319V36.527h4.824v2.291a1.322,1.322,0,0,0,1.322,1.319h1v8.074h-1A1.324,1.324,0,0,0,21.468,49.534Zm11.92,2.288H23.124V49.868H33.388Zm6.479-2.288v2.288H35.044V49.534a1.324,1.324,0,0,0-1.322-1.322h-1V40.138h1a1.322,1.322,0,0,0,1.322-1.319V36.527h4.824v2.291a1.322,1.322,0,0,0,1.322,1.319h1v8.074h-1A1.324,1.324,0,0,0,39.867,49.534Zm11.92.334v1.955H41.523V49.868Zm-7.946-1.656V40.138h5.628v8.074Zm-2.318-9.73V36.527H51.787v1.955Z" transform="translate(0 0)" fill="#fff"/><path d="M232.55,90.973a3.478,3.478,0,1,0-3.478,3.478A3.482,3.482,0,0,0,232.55,90.973Zm-5.3,0a1.822,1.822,0,1,1,1.822,1.822A1.824,1.824,0,0,1,227.251,90.973Z" transform="translate(-200.695 -76.686)" fill="#fff"/><g transform="translate(13.629 20.186)"><path d="M128.117,176.718a2.3,2.3,0,0,0-1.946-3.54H124.3a.828.828,0,0,0-.828.828v6.428a.828.828,0,0,0,.828.828h0s1.717-.008,2.19-.008a2.557,2.557,0,0,0,1.62-4.536Zm-1.946-1.885a.651.651,0,1,1,0,1.3l-1.04,0v-1.3h1.04Zm.326,4.765-1.366,0V177.8H126.5a.9.9,0,0,1,0,1.805Z" transform="translate(-123.476 -173.098)" fill="#fff"/><path d="M191.525,173.8l-.009-.022a.97.97,0,0,0-.9-.6h0a.97.97,0,0,0-.9.6l-.007.019-2.414,6.338a.828.828,0,0,0,1.547.589l.4-1.045h2.736l.394,1.043a.828.828,0,1,0,1.549-.585Zm-1.656,4.224.744-1.952.737,1.952Z" transform="translate(-180.202 -173.099)" fill="#fff"/><path d="M269.1,173.179h-.008a.828.828,0,0,0-.82.836l.037,3.839-2.973-4.3a.828.828,0,0,0-1.509.47v6.417a.828.828,0,0,0,1.656,0v-3.761l2.83,4.1a.912.912,0,0,0,1.031.379.945.945,0,0,0,.644-.94l-.06-6.212A.828.828,0,0,0,269.1,173.179Z" transform="translate(-248.338 -173.099)" fill="#fff"/><path d="M346.563,179.191l-2.891-2.79,2.646-2.432a.828.828,0,0,0-1.12-1.219l-2.113,1.943v-1.415a.828.828,0,0,0-1.656,0v6.509a.828.828,0,1,0,1.656,0v-1.652l2.33,2.248a.828.828,0,1,0,1.149-1.191Z" transform="translate(-317.372 -172.45)" fill="#fff"/></g></g></svg>