<?xml version="1.0"?>
<svg xmlns="http://www.w3.org/2000/svg" viewBox="0 0 64 64" width="512" height="512"><g id="Internet_Banking" data-name="Internet Banking"><path d="M59,24v1a1,1,0,0,0,2,0V24A1,1,0,0,0,59,24Z"/><path d="M58.87,7a7.26,7.26,0,0,0-5.09-2H35.41l-1-1a3.49,3.49,0,0,0-4.82,0l-1,1H10.22A7.12,7.12,0,0,0,3,12V42a7.11,7.11,0,0,0,7.22,7H23.67l-1.44,5.06C17.28,54.69,15.71,61,18,61H46c2.29,0,.73-6.31-4.23-6.94L40.33,49H53.78A7.12,7.12,0,0,0,61,42V29a1,1,0,0,0-2,0V42a5.12,5.12,0,0,1-5.22,5H10.22A5.12,5.12,0,0,1,5,42V12a5.12,5.12,0,0,1,5.22-5H26.59C14.35,19.24,15.23,18.31,15.1,18.58s-.1.9-.1,3.42a3,3,0,0,0,3,3V35H16a3,3,0,0,0-3,3v3a1,1,0,0,0,1,1H50a1,1,0,0,0,1-1V38a3,3,0,0,0-3-3H46V25a3,3,0,0,0,3-3c0-3.11.1-3.32-.29-3.71L37.41,7H53.78a5.34,5.34,0,0,1,3.71,1.48C59.5,10.42,59,12.05,59,20a1,1,0,0,0,2,0C61,12,61.57,9.64,58.87,7Zm-14,52H19.13A4,4,0,0,1,23,56H41A4,4,0,0,1,44.87,59ZM38.25,49l1.42,5H24.33l1.42-5ZM20,25h2V35H20Zm9,0V35H24V25Zm11,0V35H35V25ZM33,35H31V25h2Zm16,3v2H15V38a1,1,0,0,1,1-1H48A1,1,0,0,1,49,38Zm-5-3H42V25h2Zm3-13a1,1,0,0,1-1,1H18a1,1,0,0,1-1-1V20H47ZM18.41,18,31,5.41a1.48,1.48,0,0,1,2,0L45.59,18Z"/><path d="M32,10a3,3,0,1,0,3,3A3,3,0,0,0,32,10Zm0,4a1,1,0,0,1,0-2A1,1,0,0,1,32,14Z"/></g></svg>
