<svg xmlns="http://www.w3.org/2000/svg" width="80.101" height="80.114" viewBox="0 0 80.101 80.114"><g transform="translate(-1 -0.989)"><path d="M61.039,67.82H16.716a5.558,5.558,0,0,1-5.546-5.558V33.546A5.558,5.558,0,0,1,16.716,28H61.039a5.559,5.559,0,0,1,5.546,5.546V62.261a5.559,5.559,0,0,1-5.546,5.559ZM16.716,30.427A3.119,3.119,0,0,0,13.6,33.546V62.261a3.131,3.131,0,0,0,3.119,3.131H61.039a3.131,3.131,0,0,0,3.119-3.131V33.546a3.119,3.119,0,0,0-3.119-3.119Z" transform="translate(2.173 5.771)" fill="#fff"/><path d="M14.556,58.2h-1.82A11.748,11.748,0,0,1,1,46.466a11.566,11.566,0,0,1,3.471-8.289,11.554,11.554,0,0,1,8.265-3.447h1.82a1.214,1.214,0,0,1,1.214,1.214V56.988A1.214,1.214,0,0,1,14.556,58.2Zm-1.82-21.045a9.309,9.309,0,1,0,0,18.617h.607V37.157Z" transform="translate(0 7.209)" fill="#fff"/><path d="M57.864,58.2h-1.82a1.214,1.214,0,0,1-1.214-1.214V35.944a1.214,1.214,0,0,1,1.214-1.214h1.82a11.736,11.736,0,0,1,0,23.472Zm-.607-2.427h.607a9.309,9.309,0,0,0,0-18.617h-.607Z" transform="translate(11.501 7.209)" fill="#fff"/><path d="M24.287,47.611A5.656,5.656,0,1,1,29.991,42a5.656,5.656,0,0,1-5.7,5.607Zm0-8.872a3.228,3.228,0,1,0,2.327.941,3.228,3.228,0,0,0-2.327-.941Z" transform="translate(3.777 7.544)" fill="#fff"/><path d="M45.7,47.611A5.656,5.656,0,1,1,51.341,42,5.656,5.656,0,0,1,45.7,47.611Zm0-8.872a3.228,3.228,0,1,0,2.288.963,3.228,3.228,0,0,0-2.288-.963Z" transform="translate(8.339 7.544)" fill="#fff"/><path d="M42.767,52.917h-14.5a1.214,1.214,0,1,1,0-2.427h14.5a1.214,1.214,0,1,1,0,2.427Z" transform="translate(5.565 10.576)" fill="#fff"/><path d="M44.7,32a1.214,1.214,0,0,1-1.214-1.214,7.707,7.707,0,1,0-15.413,0,1.214,1.214,0,0,1-2.427,0,10.134,10.134,0,0,1,20.268,0A1.214,1.214,0,0,1,44.7,32Z" transform="translate(5.266 4.2)" fill="#fff"/><path d="M34.214,24.878A1.214,1.214,0,0,1,33,23.665V13.434a1.214,1.214,0,0,1,2.427,0V23.665A1.214,1.214,0,0,1,34.214,24.878Z" transform="translate(6.837 2.399)" fill="#fff"/><path d="M42.973,24.62a1.208,1.208,0,0,1-.862-2.063,13.787,13.787,0,0,0-.049-19.491,1.214,1.214,0,0,1,1.711-1.723,16.226,16.226,0,0,1,0,22.926A1.214,1.214,0,0,1,42.973,24.62Z" transform="translate(8.696 0)" fill="#fff"/><path d="M39.463,19.666a1.214,1.214,0,0,1-.85-2.075,7.792,7.792,0,0,0,0-11.008,1.21,1.21,0,1,1,1.711-1.711,10.231,10.231,0,0,1,0,14.442A1.214,1.214,0,0,1,39.463,19.666Z" transform="translate(7.959 0.754)" fill="#fff"/><path d="M34.75,15.711a4.236,4.236,0,1,1,4.211-4.248,4.236,4.236,0,0,1-4.211,4.248Zm0-6.068a1.808,1.808,0,1,0,1.784,1.784A1.784,1.784,0,0,0,34.75,9.679Z" transform="translate(6.3 1.335)" fill="#fff"/><path d="M48.144,68.752H24.454a1.214,1.214,0,0,1-1.214-1.214V60.014A1.214,1.214,0,0,1,24.454,58.8h23.69a1.214,1.214,0,0,1,1.214,1.214v7.525A1.214,1.214,0,0,1,48.144,68.752ZM25.667,66.325H46.93v-5.1H25.667Z" transform="translate(4.751 12.351)" fill="#fff"/></g></svg>