<svg xmlns="http://www.w3.org/2000/svg" width="80.284" height="80.425" viewBox="0 0 80.284 80.425"><g transform="translate(-0.449)"><path d="M79.555,10.369a1.178,1.178,0,0,0,1.178-1.178V6.684A6.691,6.691,0,0,0,74.049,0H49.419a6.691,6.691,0,0,0-6.684,6.684v10.29h-23.1a11.686,11.686,0,0,0-7.32,2.541,1.178,1.178,0,1,0,1.462,1.848,9.353,9.353,0,0,1,5.859-2.033h23.1v.47a6.691,6.691,0,0,0,6.684,6.684H53.39v4.263a2.757,2.757,0,0,0,1.621,2.529,2.8,2.8,0,0,0,1.173.26,2.761,2.761,0,0,0,1.8-.674l4.141-3.544V47.6a9.473,9.473,0,0,1-9.463,9.462H19.634A9.473,9.473,0,0,1,10.171,47.6v-18.8a9.367,9.367,0,0,1,.682-3.531,1.178,1.178,0,0,0-2.184-.884,11.714,11.714,0,0,0-.854,4.414V29.8H5.88A5.437,5.437,0,0,0,.449,35.234v7.161A5.437,5.437,0,0,0,5.88,47.826h1.94A11.83,11.83,0,0,0,19.634,59.414H30.612v1.773a11.806,11.806,0,0,0-9.753,6.5,1.178,1.178,0,1,0,2.1,1.061,9.469,9.469,0,0,1,8.5-5.23h.328a1.178,1.178,0,0,0,1.178-1.178V59.414H39.33v2.922a1.178,1.178,0,0,0,1.178,1.178h.327a9.569,9.569,0,0,1,9.312,7.537l1.24,5.835a.98.98,0,0,1-.957,1.184H21.87a.983.983,0,0,1-.961-1.184l.669-3.143a1.178,1.178,0,0,0-2.3-.491L18.605,76.4a3.339,3.339,0,0,0,3.265,4.03H50.429a3.337,3.337,0,0,0,3.262-4.031l-1.24-5.835a11.878,11.878,0,0,0-10.765-9.371V59.414H52.665A11.83,11.83,0,0,0,64.478,47.826h1.94a5.437,5.437,0,0,0,5.431-5.431V35.234A5.437,5.437,0,0,0,66.418,29.8H64.483v-1.01a11.908,11.908,0,0,0-.087-1.416l1.044-.893H74.05A6.691,6.691,0,0,0,80.733,19.8V14.685a1.178,1.178,0,1,0-2.356,0V19.8a4.332,4.332,0,0,1-4.328,4.328H65a1.178,1.178,0,0,0-.766.283l-7.785,6.662a.429.429,0,0,1-.707-.326V25.306a1.178,1.178,0,0,0-1.178-1.178H49.42A4.332,4.332,0,0,1,45.092,19.8V6.684A4.332,4.332,0,0,1,49.42,2.356H74.05a4.332,4.332,0,0,1,4.328,4.328V9.191a1.177,1.177,0,0,0,1.177,1.178ZM2.805,42.395V35.234A3.079,3.079,0,0,1,5.88,32.159H7.815V45.47H5.88a3.078,3.078,0,0,1-3.075-3.075ZM66.417,32.159a3.079,3.079,0,0,1,3.075,3.075v7.161a3.079,3.079,0,0,1-3.075,3.075H64.483V32.159h1.934Z" transform="translate(0)" fill="#fff"/><path d="M343.428,43.864H324.715a1.178,1.178,0,0,0,0,2.356h18.713a1.178,1.178,0,0,0,0-2.356Z" transform="translate(-272.337 -36.974)" fill="#fff"/><path d="M344.606,77.141a1.178,1.178,0,0,0-1.178-1.178H324.715a1.178,1.178,0,0,0,0,2.356h18.713A1.178,1.178,0,0,0,344.606,77.141Z" transform="translate(-272.337 -64.031)" fill="#fff"/><path d="M324.714,108.062a1.178,1.178,0,0,0,0,2.356h14.621a1.178,1.178,0,0,0,0-2.356Z" transform="translate(-272.336 -91.088)" fill="#fff"/><path d="M157.442,204.658v-5a1.178,1.178,0,0,0-2.356,0v5a1.178,1.178,0,0,0,2.356,0Z" transform="translate(-130.347 -167.306)" fill="#fff"/><path d="M287.709,204.658v-5a1.178,1.178,0,1,0-2.356,0v5a1.178,1.178,0,1,0,2.356,0Z" transform="translate(-240.151 -167.306)" fill="#fff"/><path d="M137.719,274.933a4.111,4.111,0,0,0,4.106,4.106h20.063a4.106,4.106,0,1,0,0-8.212H141.825A4.111,4.111,0,0,0,137.719,274.933Zm4.106-1.75h20.063a1.75,1.75,0,1,1,0,3.5H141.825a1.75,1.75,0,1,1,0-3.5Z" transform="translate(-115.708 -228.285)" fill="#fff"/><path d="M184.551,439.354a3.012,3.012,0,0,0,3.008-3.008v-2.018a3.012,3.012,0,0,0-3.008-3.008H172.171a3.012,3.012,0,0,0-3.008,3.008v2.018a3.012,3.012,0,0,0,3.008,3.008Zm-13.031-3.008v-2.018a.653.653,0,0,1,.652-.652h12.379a.653.653,0,0,1,.652.652v2.018a.653.653,0,0,1-.652.652H172.172A.653.653,0,0,1,171.519,436.346Z" transform="translate(-142.212 -363.568)" fill="#fff"/></g></svg>