<svg xmlns="http://www.w3.org/2000/svg" width="80.582" height="80.581" viewBox="0 0 80.582 80.581"><g transform="translate(0 0)"><g transform="translate(0)"><path d="M75.21,36.265H73.868V30.893a9.412,9.412,0,0,0-9.4-9.4H41.634V13.3a6.715,6.715,0,1,0-2.686,0v8.193H16.117a9.412,9.412,0,0,0-9.4,9.4v5.372H5.372A5.372,5.372,0,0,0,0,41.637V49.7a5.372,5.372,0,0,0,5.372,5.372H6.715v5.372a9.412,9.412,0,0,0,9.4,9.4v9.4A1.343,1.343,0,0,0,18.2,80.359L33.65,70.065a1.342,1.342,0,0,1,.739-.224H64.466a9.412,9.412,0,0,0,9.4-9.4V55.067H75.21a5.372,5.372,0,0,0,5.372-5.372V41.637a5.372,5.372,0,0,0-5.372-5.372ZM36.262,6.718a4.029,4.029,0,1,1,4.029,4.029,4.029,4.029,0,0,1-4.029-4.029ZM5.372,52.381A2.686,2.686,0,0,1,2.686,49.7V41.637a2.686,2.686,0,0,1,2.686-2.686H6.715v13.43H5.372ZM71.181,60.44a6.723,6.723,0,0,1-6.715,6.715H34.389a4.006,4.006,0,0,0-2.235.672L18.8,76.732V69.841a2.686,2.686,0,0,0-2.686-2.686A6.723,6.723,0,0,1,9.4,60.44V30.893a6.723,6.723,0,0,1,6.715-6.715h48.35a6.723,6.723,0,0,1,6.715,6.715ZM77.9,49.7a2.686,2.686,0,0,1-2.686,2.686H73.867V38.951H75.21A2.686,2.686,0,0,1,77.9,41.637Z" transform="translate(0 -0.004)" fill="#fff"/><path d="M117.648,221.862a6.715,6.715,0,1,0,6.715,6.715A6.715,6.715,0,0,0,117.648,221.862Zm0,10.744a4.029,4.029,0,1,1,4.029-4.029A4.029,4.029,0,0,1,117.648,232.606Z" transform="translate(-93.473 -186.944)" fill="#fff"/><path d="M322.448,221.862a6.715,6.715,0,1,0,6.715,6.715A6.715,6.715,0,0,0,322.448,221.862Zm0,10.744a4.029,4.029,0,1,1,4.029-4.029A4.029,4.029,0,0,1,322.448,232.606Z" transform="translate(-266.04 -186.944)" fill="#fff"/><path d="M220.344,324.561a1.355,1.355,0,0,0-1.852.385c-.056.085-1.45,2.074-5.588,2.074-4.1,0-5.507-1.956-5.587-2.071a1.343,1.343,0,0,0-2.267,1.44c.085.134,2.14,3.317,7.854,3.317s7.769-3.182,7.854-3.317a1.334,1.334,0,0,0-.414-1.828Z" transform="translate(-172.612 -273.3)" fill="#fff"/></g></g></svg>