<svg xmlns="http://www.w3.org/2000/svg" width="73.258" height="74" viewBox="0 0 73.258 74"><g transform="translate(-1050 -1819.598)"><circle cx="21.5" cy="21.5" r="21.5" transform="translate(1050 1850.598)" fill="#969" opacity="0.5"/><g transform="translate(1054.742 1763.598)" style="isolation:isolate"><path d="M65.1,56H11.416A3.42,3.42,0,0,0,8,59.416V93.579A3.42,3.42,0,0,0,11.416,97H30.96l-1.171,2.928h-5.2a.976.976,0,0,0-.976.976v1.952H17.761a.976.976,0,0,0,0,1.952h41a.976.976,0,0,0,0-1.952H52.9V100.9a.976.976,0,0,0-.976-.976h-5.2L45.557,97H65.1a3.42,3.42,0,0,0,3.416-3.416V59.416A3.42,3.42,0,0,0,65.1,56ZM50.947,101.875v.976H25.569v-.976ZM31.892,99.923,33.063,97h10.39l1.171,2.928Zm34.673-6.344A1.465,1.465,0,0,1,65.1,95.043H11.416a1.465,1.465,0,0,1-1.464-1.464v-2.44H66.564Zm0-4.392H9.952V59.416a1.465,1.465,0,0,1,1.464-1.464H65.1a1.465,1.465,0,0,1,1.464,1.464Z" fill="#0f3764"/><path d="M213.856,171.713A5.856,5.856,0,1,0,208,165.856,5.856,5.856,0,0,0,213.856,171.713Zm0-9.761a3.9,3.9,0,1,1-3.9,3.9A3.9,3.9,0,0,1,213.856,161.952Z" transform="translate(-175.598 -91.311)" fill="#0f3764"/><path d="M109.528,136.392c4.332,3.325,8.833,5.082,13.018,5.082s8.686-1.757,13.018-5.082a33.873,33.873,0,0,0,5.312-5.042.976.976,0,0,0,0-1.225,33.874,33.874,0,0,0-5.312-5.042c-4.332-3.325-8.833-5.082-13.018-5.082s-8.686,1.757-13.018,5.082a33.872,33.872,0,0,0-5.312,5.042.976.976,0,0,0,0,1.225A33.873,33.873,0,0,0,109.528,136.392Zm13.018-14.439c7.731,0,14.39,6.7,16.276,8.785-1.887,2.087-8.545,8.785-16.276,8.785s-14.39-6.7-16.276-8.785C108.156,128.649,114.814,121.952,122.545,121.952Z" transform="translate(-84.287 -56.191)" fill="#0f3764"/></g></g></svg>