<svg xmlns="http://www.w3.org/2000/svg" width="81.59" height="81.164" viewBox="0 0 81.59 81.164"><path d="M79.547,67.273H11.48a6.769,6.769,0,0,1-6.761-6.761v-47.4A6.769,6.769,0,0,1,11.48,6.347H79.547a6.769,6.769,0,0,1,6.761,6.761v47.4A6.769,6.769,0,0,1,79.547,67.273ZM11.48,8.2a4.913,4.913,0,0,0-4.907,4.907v47.4a4.913,4.913,0,0,0,4.907,4.907H79.547a4.913,4.913,0,0,0,4.907-4.907v-47.4A4.913,4.913,0,0,0,79.547,8.2Z" transform="translate(-4.719 -6.347)" fill="#fff"/><path d="M102.917,85.394H35.035a1.516,1.516,0,0,1-1.514-1.514V36.66a1.516,1.516,0,0,1,1.514-1.514h67.882a1.516,1.516,0,0,1,1.514,1.514V83.879A1.516,1.516,0,0,1,102.917,85.394ZM35.375,83.54h67.2V37h-67.2ZM102.917,37h0Z" transform="translate(-28.181 -29.807)" fill="#fff"/><path d="M178.815,340.622a.927.927,0,0,1-.906-.735l-2.917-13.8a.927.927,0,0,1,1.814-.384l2.917,13.8a.927.927,0,0,1-.715,1.1A.916.916,0,0,1,178.815,340.622Zm-24.672,0a.928.928,0,0,1-.908-1.119l2.917-13.8a.927.927,0,1,1,1.814.384l-2.917,13.8A.928.928,0,0,1,154.143,340.622Z" transform="translate(-125.684 -265.899)" fill="#fff"/><path d="M166.236,407.682H134.147a.927.927,0,0,1-.927-.927v-6.442a.927.927,0,0,1,.927-.927h32.089a.927.927,0,0,1,.927.927v6.442A.927.927,0,0,1,166.236,407.682Zm-31.162-1.854h30.235V401.24H135.074Z" transform="translate(-109.396 -326.518)" fill="#fff"/><path d="M289.118,112.4h-3.041a2.719,2.719,0,0,1-2.716-2.716V99.016a.927.927,0,1,1,1.854,0V109.68a.863.863,0,0,0,.862.862h3.041a.863.863,0,0,0,.862-.862V99.016a.927.927,0,1,1,1.854,0V109.68a2.719,2.719,0,0,1-2.716,2.716Zm1.789-20.03a.927.927,0,0,1-.927-.927V80.776a.863.863,0,0,0-.862-.862h-3.041a.863.863,0,0,0-.862.862V91.439a.927.927,0,1,1-1.854,0V80.776a2.719,2.719,0,0,1,2.716-2.716h3.041a2.719,2.719,0,0,1,2.716,2.716V91.439A.927.927,0,0,1,290.906,92.366Z" transform="translate(-231.702 -64.765)" fill="#fff"/><path d="M281.023,154.656h-7.139a2.978,2.978,0,0,1-2.975-2.975V148.2a2.978,2.978,0,0,1,2.975-2.975h7.139A2.978,2.978,0,0,1,284,148.2v3.481A2.978,2.978,0,0,1,281.023,154.656Zm-7.139-7.577a1.122,1.122,0,0,0-1.121,1.121v3.481a1.122,1.122,0,0,0,1.121,1.121h7.139a1.122,1.122,0,0,0,1.121-1.121V148.2a1.122,1.122,0,0,0-1.121-1.121Z" transform="translate(-221.558 -119.477)" fill="#fff"/><path d="M207.667,112.4h-3.041a2.719,2.719,0,0,1-2.716-2.716v-16.7a.927.927,0,0,1,1.854,0v16.7a.863.863,0,0,0,.862.862h3.041a.863.863,0,0,0,.862-.862v-16.7a.927.927,0,0,1,1.854,0v16.7a2.719,2.719,0,0,1-2.716,2.716Zm1.789-26.069a.927.927,0,0,1-.927-.927V80.776a.863.863,0,0,0-.862-.862h-3.041a.863.863,0,0,0-.862.862V85.4a.927.927,0,0,1-1.854,0V80.776a2.719,2.719,0,0,1,2.716-2.716h3.041a2.719,2.719,0,0,1,2.716,2.716V85.4A.927.927,0,0,1,209.456,86.326Z" transform="translate(-165.351 -64.765)" fill="#fff"/><path d="M199.575,122.079h-7.139a2.978,2.978,0,0,1-2.975-2.975v-3.481a2.978,2.978,0,0,1,2.975-2.975h7.139a2.978,2.978,0,0,1,2.975,2.975V119.1A2.978,2.978,0,0,1,199.575,122.079Zm-7.139-7.577a1.122,1.122,0,0,0-1.121,1.121V119.1a1.122,1.122,0,0,0,1.121,1.121h7.139A1.122,1.122,0,0,0,200.7,119.1v-3.481a1.122,1.122,0,0,0-1.121-1.121Z" transform="translate(-155.21 -92.94)" fill="#fff"/><path d="M126.218,112.4h-3.041a2.719,2.719,0,0,1-2.716-2.716v-4.211a.927.927,0,1,1,1.854,0v4.211a.863.863,0,0,0,.862.862h3.041a.863.863,0,0,0,.862-.862v-4.211a.927.927,0,0,1,1.854,0v4.211A2.719,2.719,0,0,1,126.218,112.4Zm1.789-13.578a.927.927,0,0,1-.927-.927V80.777a.863.863,0,0,0-.862-.862h-3.041a.863.863,0,0,0-.862.862V97.892a.927.927,0,0,1-1.854,0V80.777a2.719,2.719,0,0,1,2.716-2.716h3.041a2.719,2.719,0,0,1,2.716,2.716V97.892A.927.927,0,0,1,128.007,98.819Z" transform="translate(-99.003 -64.765)" fill="#fff"/><path d="M118.125,189.457h-7.139a2.978,2.978,0,0,1-2.975-2.975V183a2.978,2.978,0,0,1,2.975-2.975h7.139A2.978,2.978,0,0,1,121.1,183v3.481A2.978,2.978,0,0,1,118.125,189.457Zm-7.139-7.577A1.122,1.122,0,0,0,109.865,183v3.481a1.122,1.122,0,0,0,1.121,1.121h7.139a1.122,1.122,0,0,0,1.121-1.121V183a1.122,1.122,0,0,0-1.121-1.121Z" transform="translate(-88.861 -147.826)" fill="#fff"/></svg>