<svg id="Layer_1" enable-background="new 0 0 512 512" height="512" viewBox="0 0 512 512" width="512" xmlns="http://www.w3.org/2000/svg"><path d="m141.35 71.176c-38.694 0-70.173 31.479-70.173 70.174s31.479 70.174 70.173 70.174 70.174-31.479 70.174-70.174-31.48-70.174-70.174-70.174zm0 124.347c-29.871 0-54.173-24.302-54.173-54.174s24.302-54.174 54.173-54.174c29.872 0 54.174 24.302 54.174 54.174s-24.302 54.174-54.174 54.174zm88.405-8.027c2.73-5.218 4.987-10.66 6.747-16.268l31.462-5.035c3.881-.621 6.736-3.969 6.736-7.899v-33.888c0-3.93-2.855-7.278-6.735-7.899l-31.464-5.036c-1.761-5.609-4.017-11.051-6.745-16.267l18.692-25.817c2.305-3.184 1.956-7.569-.823-10.349l-23.962-23.962c-2.779-2.777-7.165-3.129-10.348-.822l-25.816 18.691c-5.217-2.729-10.66-4.986-16.268-6.747l-5.037-31.463c-.622-3.881-3.97-6.735-7.901-6.735h-33.887c-3.93 0-7.278 2.854-7.899 6.735l-5.036 31.463c-5.609 1.76-11.052 4.017-16.269 6.746l-25.815-18.69c-3.184-2.307-7.57-1.957-10.348.822l-23.963 23.962c-2.779 2.779-3.128 7.166-.823 10.349l18.692 25.816c-2.729 5.217-4.985 10.66-6.745 16.268l-31.465 5.036c-3.88.621-6.735 3.97-6.735 7.899v33.888c0 3.931 2.855 7.278 6.736 7.899l31.464 5.035c1.761 5.609 4.017 11.052 6.745 16.268l-18.692 25.817c-2.305 3.184-1.956 7.569.823 10.349l23.962 23.962c2.779 2.778 7.165 3.129 10.348.822l25.817-18.691c5.218 2.729 10.661 4.987 16.268 6.746l5.036 31.463c.621 3.881 3.969 6.735 7.899 6.735h33.887c3.93 0 7.278-2.854 7.899-6.735l5.037-31.465c5.608-1.761 11.05-4.017 16.267-6.745l25.817 18.692c3.184 2.305 7.57 1.955 10.349-.822l23.962-23.962c2.779-2.779 3.128-7.165.823-10.349zm-12.584 43.99-24.421-17.682c-2.584-1.871-6.031-2.028-8.772-.401-6.821 4.045-14.164 7.09-21.826 9.051-3.088.79-5.412 3.338-5.916 6.485l-4.764 29.76h-20.245l-4.764-29.759c-.504-3.148-2.829-5.696-5.918-6.486-7.656-1.957-14.998-5.002-21.824-9.05-2.742-1.626-6.189-1.47-8.772.401l-24.421 17.681-14.315-14.314 17.682-24.422c1.87-2.583 2.027-6.029.401-8.772-4.044-6.819-7.089-14.162-9.05-21.826-.791-3.088-3.339-5.412-6.486-5.916l-29.76-4.763v-20.245l29.761-4.764c3.148-.504 5.696-2.829 6.486-5.918 1.958-7.658 5.003-15.002 9.049-21.825 1.626-2.742 1.468-6.189-.401-8.771l-17.682-24.422 14.315-14.314 24.42 17.68c2.583 1.87 6.03 2.026 8.772.401 6.821-4.046 14.165-7.091 21.826-9.05 3.088-.79 5.413-3.339 5.917-6.486l4.765-29.759h20.245l4.764 29.759c.504 3.147 2.829 5.696 5.917 6.485 7.66 1.96 15.002 5.005 21.824 9.052 2.743 1.625 6.189 1.469 8.773-.401l24.421-17.681 14.315 14.314-17.682 24.422c-1.87 2.583-2.027 6.029-.401 8.772 4.044 6.819 7.089 14.162 9.05 21.825.79 3.088 3.338 5.412 6.485 5.916l29.76 4.764v20.245l-29.758 4.763c-3.148.504-5.697 2.829-6.486 5.918-1.958 7.656-5.003 14.999-9.051 21.824-1.626 2.743-1.469 6.189.401 8.772l17.682 24.421zm-47.933-76.465c.725 5.965-.893 11.431-4.677 15.807-3.543 4.096-8.971 7.048-15.21 8.408v1.676c0 4.418-3.582 8-8 8s-8-3.582-8-8v-1.813c-9.903-2.469-17.438-9.444-19.819-18.996-1.069-4.287 1.54-8.629 5.827-9.698 4.29-1.063 8.629 1.541 9.698 5.827 1.492 5.98 7.909 7.994 12.919 7.839 4.374-.104 8.685-1.629 10.484-3.71.568-.656 1.119-1.575.896-3.411-.214-1.757-.713-5.873-13.243-7.93-20.749-3.406-24.396-15.238-24.723-21.987-.53-10.916 6.631-20.105 17.962-23.282v-1.962c0-4.418 3.582-8 8-8s8 3.582 8 8v1.889c7.301 1.971 14.119 6.861 17.781 15.583 1.71 4.074-.205 8.763-4.279 10.474-4.072 1.711-8.763-.206-10.473-4.278-2.922-6.959-10.173-7.349-14-6.479-1.709.388-7.264 2.059-7.01 7.28.068 1.411.25 5.155 11.333 6.975 16.173 2.652 25.101 9.984 26.534 21.788zm211.762 102.979c-67.822 0-123 55.178-123 123s55.177 123 123 123 123-55.178 123-123-55.178-123-123-123zm0 230c-59 0-107-48-107-107s48-107 107-107 107 48 107 107-48 107-107 107zm35.978-86.229c-1.481 2.566-4.171 4.001-6.936 4.001-1.357 0-2.732-.346-3.993-1.073l-29.049-16.771c-2.475-1.429-4-4.069-4-6.928v-43.51c0-4.418 3.582-8 8-8s8 3.582 8 8v38.891l25.05 14.463c3.825 2.209 5.137 7.101 2.928 10.927zm-43.978-102.408v-9.925c0-4.418 3.582-8 8-8s8 3.582 8 8v9.925c0 4.418-3.582 8-8 8s-8-3.582-8-8zm78.4 11.236c3.124 3.124 3.125 8.189 0 11.313l-7.018 7.019c-1.562 1.562-3.61 2.344-5.657 2.344s-4.094-.781-5.657-2.343c-3.124-3.124-3.125-8.189 0-11.313l7.018-7.019c3.124-3.125 8.19-3.124 11.314-.001zm.001 129.489c3.124 3.124 3.124 8.189 0 11.313-1.562 1.562-3.609 2.343-5.657 2.343s-4.095-.781-5.657-2.344l-7.018-7.019c-3.124-3.124-3.124-8.189 0-11.313 3.125-3.124 8.19-3.123 11.314.001zm-122.47-7.02c3.124 3.124 3.125 8.189 0 11.313l-7.018 7.019c-1.562 1.562-3.61 2.344-5.657 2.344s-4.094-.781-5.657-2.343c-3.124-3.124-3.125-8.189 0-11.313l7.018-7.019c3.124-3.125 8.19-3.124 11.314-.001zm0-115.45c3.124 3.124 3.124 8.189 0 11.313-1.562 1.562-3.609 2.343-5.657 2.343s-4.095-.781-5.657-2.344l-7.018-7.019c-3.124-3.124-3.124-8.189 0-11.313 3.125-3.123 8.19-3.123 11.314.001zm151.631 63.382c0 4.418-3.582 8-8 8h-9.925c-4.418 0-8-3.582-8-8s3.582-8 8-8h9.925c4.418 0 8 3.582 8 8zm-91.562 81.637v9.925c0 4.418-3.582 8-8 8s-8-3.582-8-8v-9.925c0-4.418 3.582-8 8-8s8 3.582 8 8zm-81.637-81.637c0 4.418-3.582 8-8 8h-9.925c-4.418 0-8-3.582-8-8s3.582-8 8-8h9.925c4.419 0 8 3.582 8 8zm-78.672 35.551c-71.042 0-133.327-33.903-157.78-85.082 7.75-5.283 12.849-14.178 12.849-24.244 0-16.169-13.155-29.323-29.324-29.323-16.168 0-29.323 13.154-29.323 29.323s13.154 29.323 29.323 29.323c.393 0 .782-.014 1.17-.03 12.431 27.053 34.367 50.315 63.804 67.553 31.813 18.631 69.602 28.479 109.281 28.479 4.418 0 8-3.582 8-8s-3.581-7.999-8-7.999zm-187.577-109.325c0-7.347 5.977-13.323 13.323-13.323 7.347 0 13.324 5.977 13.324 13.323s-5.977 13.323-13.324 13.323-13.323-5.977-13.323-13.323zm246.03-217.589c68.441 8.372 124.083 49.825 138.331 102.035-10.407 4.508-17.708 14.875-17.708 26.919 0 16.168 13.154 29.322 29.323 29.322s29.323-13.154 29.323-29.322c0-14.677-10.839-26.868-24.933-28.994-7.172-28.596-24.69-54.478-50.975-75.172-27.805-21.892-62.875-35.955-101.418-40.669-4.385-.548-8.375 2.584-8.912 6.969s2.583 8.376 6.969 8.912zm163.268 128.954c0 7.346-5.977 13.322-13.323 13.322s-13.323-5.977-13.323-13.322c0-7.347 5.977-13.323 13.323-13.323 7.347 0 13.323 5.976 13.323 13.323z"/></svg>