<svg xmlns="http://www.w3.org/2000/svg" width="60.546" height="51.995" viewBox="0 0 60.546 51.995"><g transform="translate(0 -37.869)"><path d="M282.877,48.128,269.108,38.053a.946.946,0,0,0-.79-.156l-16.54,4.2a.946.946,0,0,0-.326,1.679l4.38,3.2-.946,4.8c-.516,2.677,3.784,6.915,9.578,8.041a16.174,16.174,0,0,0,3.084.293,14.764,14.764,0,0,0,4.673-.728c2.318-.771,3.864-2.058,4.134-3.434l.946-4.782,5.255-1.329a.946.946,0,0,0,.326-1.679Zm-8.367,7.445c-.109.553-1.135,1.419-2.881,2a13.825,13.825,0,0,1-6.811.369c-5.321-1.036-8.292-4.635-8.041-5.818l.762-3.921,7.681,5.638a.946.946,0,0,0,.558.184.822.822,0,0,0,.237-.033l9.252-2.341ZM266,52.054l-11.8-8.627,14.157-3.585,11.787,8.623Z" transform="translate(-222.722)" fill="#0f3764"/><path d="M201.163,235.29a.946.946,0,0,0-.473.809v16.876a.946.946,0,0,0,.473.809.918.918,0,0,0,.473.137.945.945,0,0,0,.44-.1l16.129-8.443a.946.946,0,0,0,0-1.674l-16.115-8.443A.946.946,0,0,0,201.163,235.29Zm1.419,2.365,13.144,6.882-13.13,6.877Z" transform="translate(-178.034 -175.011)" fill="#0f3764"/><path d="M57.7,195.429H52.847a2.72,2.72,0,0,0,.128-.818V172.726a.946.946,0,1,0-1.892,0v21.885a.832.832,0,0,1-.846.818H8.414a.832.832,0,0,1-.847-.818h0V165.976a.832.832,0,0,1,.846-.818H29.325a.946.946,0,1,0,0-1.892H8.414a2.729,2.729,0,0,0-2.739,2.71v28.635a2.719,2.719,0,0,0,.128.818H.946a.946.946,0,0,0-.946.946v.237c0,2.128,1.674,4.493,3.921,4.493H54.73c2.247,0,3.921-2.365,3.921-4.493v-.237a.946.946,0,0,0-.946-.946Zm-2.975,3.784H3.921c-.818,0-1.651-.87-1.93-1.892H56.659c-.279,1.022-1.112,1.892-1.93,1.892Z" transform="translate(0 -111.241)" fill="#0f3764"/></g></svg>