<svg xmlns="http://www.w3.org/2000/svg" width="62.824" height="69.509" viewBox="0 0 62.824 69.509"><path d="M84.35,64.635H79.1a.786.786,0,1,1,0-1.573H84.35a2.491,2.491,0,0,0,2.485-2.485V8.858A2.491,2.491,0,0,0,84.35,6.373H29.658a2.491,2.491,0,0,0-2.485,2.485V60.577a2.491,2.491,0,0,0,2.485,2.485h5.254a.786.786,0,0,1,0,1.573H29.658A4.058,4.058,0,0,1,25.6,60.577V8.858A4.058,4.058,0,0,1,29.658,4.8H84.35a4.058,4.058,0,0,1,4.058,4.058V60.577A4.048,4.048,0,0,1,84.35,64.635Z" transform="translate(-25.6 -4.8)" fill="#fff"/><path d="M87.637,84.973H26.386a.786.786,0,0,1,0-1.573H87.637a.779.779,0,0,1,.786.786A.789.789,0,0,1,87.637,84.973Z" transform="translate(-25.6 -71.037)" fill="#fff"/><path d="M71.271,33.441a3.571,3.571,0,1,1,3.571-3.571,3.578,3.578,0,0,1-3.571,3.571Zm0-5.553a2,2,0,1,0,2,2A2,2,0,0,0,71.271,27.889Z" transform="translate(-61.078 -22.918)" fill="#fff"/><path d="M127.371,33.441a3.571,3.571,0,1,1,3.571-3.571A3.578,3.578,0,0,1,127.371,33.441Zm0-5.553a2,2,0,1,0,2,2A2,2,0,0,0,127.371,27.889Z" transform="translate(-108.354 -22.918)" fill="#fff"/><path d="M183.471,33.441a3.571,3.571,0,1,1,3.571-3.571A3.578,3.578,0,0,1,183.471,33.441Zm0-5.553a2,2,0,1,0,2,2A2,2,0,0,0,183.471,27.889Z" transform="translate(-155.629 -22.918)" fill="#fff"/><path d="M284.091,45.673h-16.7a.786.786,0,0,1,0-1.573h16.689a.779.779,0,0,1,.786.786A.766.766,0,0,1,284.091,45.673Z" transform="translate(-228.692 -37.918)" fill="#fff"/><path d="M132.93,340.531a.884.884,0,0,1-.5-.173l-7.943-6.5a.761.761,0,0,1-.283-.613.836.836,0,0,1,.283-.613l7.943-6.5a.778.778,0,0,1,1.1.11.792.792,0,0,1-.11,1.1l-7.188,5.883,7.188,5.883a.777.777,0,0,1,.11,1.1.739.739,0,0,1-.6.315Z" transform="translate(-108.691 -275.442)" fill="#fff"/><path d="M266.552,340.7a.806.806,0,0,1-.613-.283.792.792,0,0,1,.11-1.1l7.188-5.883-7.188-5.883a.782.782,0,0,1,.991-1.211l7.943,6.5a.761.761,0,0,1,.283.613.836.836,0,0,1-.283.613l-7.928,6.449A.742.742,0,0,1,266.552,340.7Z" transform="translate(-227.983 -275.61)" fill="#fff"/><path d="M208.181,335.929a.92.92,0,0,1-.2-.031.769.769,0,0,1-.551-.96l4.058-15.132a.781.781,0,0,1,.96-.551.769.769,0,0,1,.551.96l-4.058,15.132A.788.788,0,0,1,208.181,335.929Z" transform="translate(-178.798 -269.77)" fill="#fff"/><path d="M120,321.221H85.353a5.562,5.562,0,0,1-5.553-5.552V303.353a5.562,5.562,0,0,1,5.553-5.553h34.636a5.562,5.562,0,0,1,5.553,5.553v12.316A5.528,5.528,0,0,1,120,321.221ZM85.353,299.373a3.984,3.984,0,0,0-3.98,3.98v12.316a3.984,3.984,0,0,0,3.98,3.98h34.636a3.984,3.984,0,0,0,3.98-3.98V303.353a3.984,3.984,0,0,0-3.98-3.98Z" transform="translate(-71.275 -251.712)" fill="#fff"/><path d="M177.487,156.2a.779.779,0,0,1-.786-.786V141.852a.779.779,0,0,1,.786-.786h2a1.591,1.591,0,0,0,1.384-1.007,2.429,2.429,0,0,0-.283-2.517l-6.544-7.534a1.5,1.5,0,0,0-2.3,0l-6.543,7.534a2.426,2.426,0,0,0-.267,2.532,1.537,1.537,0,0,0,1.368.991h2.013a.779.779,0,0,1,.786.786v13.559a.786.786,0,0,1-1.573,0V142.639H166.3a3.078,3.078,0,0,1-2.8-1.919,3.992,3.992,0,0,1,.519-4.216l6.543-7.534a3.1,3.1,0,0,1,4.687,0L181.8,136.5a3.992,3.992,0,0,1,.519,4.216,3.09,3.09,0,0,1-2.816,1.935H178.29v12.772A.81.81,0,0,1,177.487,156.2Z" transform="translate(-141.498 -108.537)" fill="#fff"/><path d="M74.55,117.973H59.386a.786.786,0,1,1,0-1.573H74.55a.786.786,0,1,1,0,1.573Z" transform="translate(-53.409 -98.846)" fill="#fff"/><path d="M74.55,142.873H59.386a.786.786,0,0,1,0-1.573H74.55a.786.786,0,0,1,0,1.573Z" transform="translate(-53.409 -119.829)" fill="#fff"/><path d="M69.878,167.673H59.386a.786.786,0,1,1,0-1.573H69.878a.786.786,0,1,1,0,1.573Z" transform="translate(-53.409 -140.728)" fill="#fff"/><path d="M301.466,117.973H286.286a.786.786,0,0,1,0-1.573h15.179a.779.779,0,0,1,.786.786A.789.789,0,0,1,301.466,117.973Z" transform="translate(-244.619 -98.846)" fill="#fff"/><path d="M301.466,142.873H286.286a.786.786,0,0,1,0-1.573h15.179a.779.779,0,0,1,.786.786A.789.789,0,0,1,301.466,142.873Z" transform="translate(-244.619 -119.829)" fill="#fff"/><path d="M326.578,167.673H316.086a.786.786,0,0,1,0-1.573h10.492a.779.779,0,0,1,.786.786A.789.789,0,0,1,326.578,167.673Z" transform="translate(-269.731 -140.728)" fill="#fff"/><path d="M221.086,231.046a.779.779,0,0,1-.786-.786v-8.573a.786.786,0,0,1,1.573,0v8.573A.789.789,0,0,1,221.086,231.046Z" transform="translate(-189.675 -186.908)" fill="#fff"/></svg>