<svg xmlns="http://www.w3.org/2000/svg" width="76.305" height="67.62" viewBox="0 0 76.305 67.62"><g style="isolation:isolate"><path d="M73.327,7h-60.3A2.978,2.978,0,0,0,10.05,9.978V17.05H2.978A2.94,2.94,0,0,0,0,20.028V71.642A2.978,2.978,0,0,0,2.978,74.62h60.3a2.978,2.978,0,0,0,2.978-2.978V64.57h7.072A2.978,2.978,0,0,0,76.3,61.592V9.978A2.94,2.94,0,0,0,73.327,7Zm-60.3,2.481h60.3a.489.489,0,0,1,.5.5v8.561H12.531V9.978a.489.489,0,0,1,.5-.5ZM2.978,19.531H10.05v9.057H2.481V20.028A.489.489,0,0,1,2.978,19.531Zm60.8,52.111a.489.489,0,0,1-.5.5H2.978a.489.489,0,0,1-.5-.5V31.07H10.05V61.592a2.978,2.978,0,0,0,2.978,2.978H63.773Zm9.554-9.554h-60.3a.489.489,0,0,1-.5-.5V21.02H73.823V61.592a.489.489,0,0,1-.5.5Z" transform="translate(0 -7)" fill="#fff"/><path d="M33.531,18.381H28.941a1.241,1.241,0,0,1,0-2.481h4.591a1.241,1.241,0,1,1,0,2.481Z" transform="translate(-10.516 -10.379)" fill="#fff"/><path d="M50.431,18.381H45.841a1.241,1.241,0,1,1,0-2.481h4.591a1.241,1.241,0,1,1,0,2.481Z" transform="translate(-16.932 -10.379)" fill="#fff"/><path d="M38.9,58.193l11.787,6.08V61.915L41.63,57.386l9.057-4.529V50.5L38.9,56.518Z" transform="translate(-14.768 -23.514)" fill="#fff"/><path d="M62.1,62.891h2.233L71.281,44.9h-2.3Z" transform="translate(-23.575 -21.388)" fill="#fff"/><path d="M81,50.5v2.357l9.119,4.529L81,61.915v2.357l11.787-6.08V56.518Z" transform="translate(-30.75 -23.514)" fill="#fff"/></g></svg>