<svg id="Layer_3" height="512" viewBox="0 0 64 64" width="512" xmlns="http://www.w3.org/2000/svg" data-name="Layer 3"><path d="m58 11h-15v-9a1 1 0 0 0 -1-1h-40a1 1 0 0 0 -1 1v60a1 1 0 0 0 1 1h40a1 1 0 0 0 1-1v-9h15a5.006 5.006 0 0 0 5-5v-32a5.006 5.006 0 0 0 -5-5zm-17 50h-38v-58h38v8h-15a5.009 5.009 0 0 0 -4.9 4h-14.1v2h14v2h-14v2h14v2h-14v2h14v2h-14v2h14v2h-14v2h14v2h-14v2h14v4h-13a1 1 0 0 0 -1 1v16a1 1 0 0 0 1 1h28a1 1 0 0 0 1-1v-5h4zm-15-8h9v4h-26v-14h12v5a5.006 5.006 0 0 0 5 5zm35-5a3 3 0 0 1 -3 3h-32a3 3 0 0 1 -3-3v-32a3 3 0 0 1 3-3h32a3 3 0 0 1 3 3z"/><path d="m55 24v-4a1 1 0 0 0 -1-1h-24a1 1 0 0 0 -1 1v4a1 1 0 0 0 1 1h9v21a1 1 0 0 0 1 1h4a1 1 0 0 0 1-1v-21h9a1 1 0 0 0 1-1zm-2-1h-9a1 1 0 0 0 -1 1v21h-2v-21a1 1 0 0 0 -1-1h-9v-2h22z"/><path d="m27 17h4v-2h-5a1 1 0 0 0 -1 1v5h2z"/><path d="m58 15h-5v2h4v4h2v-5a1 1 0 0 0 -1-1z"/><path d="m27 43h-2v5a1 1 0 0 0 1 1h5v-2h-4z"/><path d="m57 47h-4v2h5a1 1 0 0 0 1-1v-5h-2z"/><path d="m11 7h20v2h-20z"/><path d="m33 7h6v2h-6z"/></svg>