<svg xmlns="http://www.w3.org/2000/svg" width="58.247" height="58.175" viewBox="0 0 58.247 58.175"><g transform="translate(-0.923 -1)"><circle cx="0.938" cy="0.938" r="0.938" transform="translate(14.131 16.013)" fill="#fff"/><circle cx="0.938" cy="0.938" r="0.938" transform="translate(21.638 16.013)" fill="#fff"/><path d="M17,26.753h3.753A3.757,3.757,0,0,0,24.506,23H22.63a1.878,1.878,0,0,1-1.877,1.877H17Z" transform="translate(-0.992 -1.357)" fill="#fff"/><path d="M20.478,13.966a5.434,5.434,0,0,1-1.6-3.868V9H17v1.1a7.3,7.3,0,0,0,2.152,5.194Z" transform="translate(-0.992 -0.494)" fill="#fff"/><path d="M49.948,36.655a3.565,3.565,0,0,0-2.54,1.053l-.825.824h-.55a2.818,2.818,0,0,0-2.815,2.815V41.8L37.885,45.53,35.1,40.276a6.431,6.431,0,0,0,.377-7.883l-3.206-4.57a6.906,6.906,0,0,1-.9-6.155l.879-2.64a12.5,12.5,0,0,0,0-7.907l-.193-.579a13.956,13.956,0,0,0-26.48,0l-.191.577a12.489,12.489,0,0,0,0,7.907l.88,2.641a6.884,6.884,0,0,1,.355,2.186,6.883,6.883,0,0,1-1.254,3.97l-3.206,4.57a6.438,6.438,0,0,0,.6,8.134,17.091,17.091,0,0,0-.748,3.879L.923,59.175H29.144v-7.73l.6.724a9.011,9.011,0,0,0,6.942,3.252,7.587,7.587,0,0,0,5.4-2.237l10.4-10.4a3.592,3.592,0,0,0-2.54-6.132ZM3.7,33.472,6.907,28.9A8.749,8.749,0,0,0,8.5,23.855a8.775,8.775,0,0,0-.45-2.779l-.88-2.641a10.613,10.613,0,0,1,0-6.721l.191-.577a12.08,12.08,0,0,1,22.92,0l.193.578a10.622,10.622,0,0,1,0,6.721L29.6,21.075A8.787,8.787,0,0,0,30.738,28.9l3.206,4.57a4.492,4.492,0,0,1,.172,4.941l-1.039-1.962a14,14,0,0,0-9.783-7.172l-.2-.59a6.573,6.573,0,0,0,4.17-6.107V16.318a3.959,3.959,0,0,0-2.711-3.761,4.265,4.265,0,0,1-2.919-4.051H19.761a6.14,6.14,0,0,0,4.2,5.831,2.085,2.085,0,0,1,1.427,1.981v6.263A4.7,4.7,0,0,1,20.7,27.272H16.946a4.7,4.7,0,0,1-4.692-4.692V14.136a1.878,1.878,0,0,1,1.877-1.877V10.383a3.757,3.757,0,0,0-3.753,3.753v8.445a6.576,6.576,0,0,0,4.169,6.108l-.212.637A16.944,16.944,0,0,0,3.558,38.511a4.58,4.58,0,0,1,.144-5.04Zm12.307,1.307v-4.54l.373-1.118c.187.017.375.029.566.029H20.7c.19,0,.379-.012.566-.029l.373,1.118v4.54Zm5.6,1.877a11.765,11.765,0,0,1-2.788,7.062,11.768,11.768,0,0,1-2.788-7.062ZM8.5,57.3H2.944l.876-11.84L8.5,48.383ZM27.268,40.409V57.3H10.378V40.409H8.5V46.17l-4.479-2.8A15.086,15.086,0,0,1,14.131,31.339v4.7a13.658,13.658,0,0,0,4.028,9.725l.663.663.663-.663a13.658,13.658,0,0,0,4.028-9.725v-4.8a12.123,12.123,0,0,1,7.905,6.093l2.972,5.614-5.247,3.279V40.409Zm23.894,1.053-10.4,10.4a5.725,5.725,0,0,1-4.073,1.687,7.141,7.141,0,0,1-5.5-2.577l-2.046-2.455v-.078l6.127-3.83,1.064,2.01-2.1,1.469,1.075,1.538L45.1,42.774V41.347a.939.939,0,0,1,.938-.938H47.36l1.375-1.375a1.716,1.716,0,0,1,2.928,1.214,1.707,1.707,0,0,1-.5,1.213Z" fill="#fff"/><path d="M53.862,21H51.047v9.383h1.877V26.63h.938a.939.939,0,0,1,.938.938v2.815h1.877V27.568a2.8,2.8,0,0,0-.732-1.877A2.8,2.8,0,0,0,53.862,21Zm0,3.753h-.938V22.877h.938a.938.938,0,0,1,0,1.877Z" transform="translate(-3.093 -1.234)" fill="#fff"/><path d="M46.753,24.753H44.877V21H43v9.383h1.877V26.63h1.877v3.753H48.63V21H46.753Z" transform="translate(-2.596 -1.234)" fill="#fff"/><path d="M58.581,17H39.815A2.818,2.818,0,0,0,37,19.815v11.26a2.818,2.818,0,0,0,2.815,2.815h3.753v1.488a2.265,2.265,0,0,0,3.867,1.6l3.09-3.09h8.056A2.818,2.818,0,0,0,61.4,31.075V19.815A2.818,2.818,0,0,0,58.581,17Zm.938,14.075a.939.939,0,0,1-.938.938H49.748l-3.641,3.64a.4.4,0,0,1-.662-.275V32.013h-5.63a.939.939,0,0,1-.938-.938V19.815a.939.939,0,0,1,.938-.938H58.581a.939.939,0,0,1,.938.938Z" transform="translate(-2.226 -0.987)" fill="#fff"/></g></svg>