<svg id="Layer_5" enable-background="new 0 0 64 64" height="512" viewBox="0 0 64 64" width="512" xmlns="http://www.w3.org/2000/svg"><path d="m52 41c-5.728 0-10.442 4.402-10.949 10h-16.567c-.296-1.019-.721-2-1.264-2.924l2.246-2.807c.989-1.237 1.534-2.79 1.534-4.373v-7.896h4.051c.507 5.598 5.221 10 10.949 10 6.065 0 11-4.935 11-11s-4.935-11-11-11c-5.728 0-10.442 4.402-10.949 10h-4.051v-.438c0-1.379-.935-2.576-2.272-2.91l-1.728-.432v-.001l-4-1-2-.5-2-.5v-6.219h11c1.654 0 3-1.346 3-3v-3h12.051c.507 5.598 5.221 10 10.949 10 6.065 0 11-4.935 11-11s-4.935-11-11-11c-5.728 0-10.442 4.402-10.949 10h-12.051v-3c0-1.654-1.346-3-3-3h-22c-1.654 0-3 1.346-3 3v8c0 1.654 1.346 3 3 3h5v10.23c-.927-.757-2.094-1.23-3.382-1.23-1.444 0-2.618 1.175-2.618 2.618 0 .404.096.81.276 1.171l1.196 2.392c.345.69.528 1.464.528 2.235v4.479c0 1.584.545 3.137 1.534 4.373l2.246 2.807c-1.163 1.981-1.78 4.222-1.78 6.53v8.395h18v-8.395c0-.54-.041-1.075-.107-1.605h16.158c.507 5.598 5.221 10 10.949 10 6.065 0 11-4.935 11-11s-4.935-11-11-11zm-15.632-1.991c.837-2.381 3.065-4.009 5.632-4.009s4.795 1.628 5.632 4.009c-1.544 1.243-3.501 1.991-5.632 1.991s-4.088-.748-5.632-1.991zm2.632-9.009c0-1.654 1.346-3 3-3s3 1.346 3 3-1.346 3-3 3-3-1.346-3-3zm3-7c4.962 0 9 4.037 9 9 0 2.045-.694 3.927-1.847 5.44-.822-1.661-2.184-2.97-3.841-3.723 1.027-.916 1.688-2.235 1.688-3.717 0-2.757-2.243-5-5-5s-5 2.243-5 5c0 1.482.661 2.801 1.688 3.717-1.657.753-3.019 2.062-3.841 3.723-1.153-1.513-1.847-3.395-1.847-5.44 0-4.963 4.038-9 9-9zm4.368-3.991c.837-2.381 3.065-4.009 5.632-4.009s4.795 1.628 5.632 4.009c-1.544 1.243-3.501 1.991-5.632 1.991s-4.088-.748-5.632-1.991zm2.632-9.009c0-1.654 1.346-3 3-3s3 1.346 3 3-1.346 3-3 3-3-1.346-3-3zm3-7c4.962 0 9 4.037 9 9 0 2.045-.694 3.927-1.847 5.44-.822-1.661-2.184-2.97-3.841-3.723 1.027-.916 1.688-2.235 1.688-3.717 0-2.757-2.243-5-5-5s-5 2.243-5 5c0 1.482.661 2.801 1.688 3.717-1.657.753-3.019 2.062-3.841 3.723-1.153-1.513-1.847-3.395-1.847-5.44 0-4.963 4.038-9 9-9zm-48 14c-.551 0-1-.448-1-1v-8c0-.552.449-1 1-1h22c.551 0 1 .448 1 1v8c0 .552-.449 1-1 1h-11v-1c0-1.654-1.346-3-3-3s-3 1.346-3 3v1zm3 23.896v-4.479c0-1.081-.255-2.163-.739-3.13l-1.196-2.392c-.043-.085-.065-.181-.065-.277 0-.341.277-.618.618-.618 1.865 0 3.382 1.518 3.382 3.382v1.618 3h2v-3-1.618-17.382c0-.552.449-1 1-1s1 .448 1 1v8.719 13.281h2v-10.719l2 .5v10.219h2v-9.719l2 .5v9.219h2v-8.72l1.242.311c.446.112.758.511.758.971v10.334c0 1.131-.389 2.24-1.096 3.123l-2.385 2.981h-11.038l-2.385-2.981c-.707-.883-1.096-1.993-1.096-3.123zm16 20.104h-14v-6.395c0-1.984.534-3.912 1.55-5.605h10.9c1.016 1.693 1.55 3.621 1.55 5.605zm23.368-1.991c.837-2.381 3.065-4.009 5.632-4.009s4.795 1.628 5.632 4.009c-1.544 1.243-3.501 1.991-5.632 1.991s-4.088-.748-5.632-1.991zm2.632-9.009c0-1.654 1.346-3 3-3s3 1.346 3 3-1.346 3-3 3-3-1.346-3-3zm10.153 7.44c-.822-1.661-2.184-2.97-3.841-3.723 1.027-.916 1.688-2.235 1.688-3.717 0-2.757-2.243-5-5-5s-5 2.243-5 5c0 1.482.661 2.801 1.688 3.717-1.657.753-3.019 2.062-3.841 3.723-1.153-1.513-1.847-3.395-1.847-5.44 0-4.963 4.038-9 9-9s9 4.037 9 9c0 2.045-.694 3.927-1.847 5.44z"/></svg>