<svg xmlns="http://www.w3.org/2000/svg" width="56.057" height="61.958" viewBox="0 0 56.057 61.958"><g transform="translate(-6 -2)"><path d="M61.67,16.84,34.379,2.088a.739.739,0,0,0-.7,0L6.387,16.84A.758.758,0,0,0,6,17.489V48.468a.738.738,0,0,0,.387.649L33.678,63.869a.738.738,0,0,0,.351.089.843.843,0,0,0,.351-.089L61.67,49.117a.738.738,0,0,0,.387-.649V17.489a.76.76,0,0,0-.387-.649ZM17.558,24.177l5.65,3.054v9.508l-2.222-3.151a.738.738,0,0,0-.838-.274l-2.589.873Zm42.21-6.688L34.029,31.4,25.5,26.791l25.74-13.913ZM49.686,12.04,23.947,25.952l-5.575-3.013L44.111,9.026ZM34.029,3.576,42.56,8.188,16.82,22.1,8.289,17.489ZM7.475,18.727l8.608,4.653V35.214a.738.738,0,0,0,.973.7L20.1,34.888l3.245,4.6a.738.738,0,0,0,1.34-.425V28.028l8.608,4.653v29.3L7.475,48.029ZM34.766,61.983v-29.3L60.582,18.727v29.3Z" fill="#fff"/><path d="M20.732,63.506l-9.644-5.212a.738.738,0,0,0-.7,1.3L20.03,64.8a.738.738,0,0,0,.7-1.3Z" transform="translate(-1.05 -14.749)" fill="#fff"/><path d="M14.588,63.6l-3.5-1.891a.738.738,0,1,0-.7,1.3l3.5,1.891a.738.738,0,0,0,.7-1.3Z" transform="translate(-1.05 -15.643)" fill="#fff"/></g></svg>