<svg xmlns="http://www.w3.org/2000/svg" width="60.25" height="60.249" viewBox="0 0 60.25 60.249"><g transform="translate(-1 -1)"><path d="M62.433,51.705a1.675,1.675,0,0,0-.187-1.313L61,48.321a1.782,1.782,0,0,0-2.369-.624l-.364.2a7.7,7.7,0,0,0-1.511-.843v-.337A1.738,1.738,0,0,0,55,45H52.493a1.738,1.738,0,0,0-1.749,1.719v.337a7.728,7.728,0,0,0-1.511.843l-.363-.2a1.781,1.781,0,0,0-2.369.621l-1.256,2.074a1.672,1.672,0,0,0-.187,1.312,1.728,1.728,0,0,0,.835,1.061l.321.177a6.789,6.789,0,0,0,0,1.605l-.321.177a1.728,1.728,0,0,0-.835,1.061,1.675,1.675,0,0,0,.187,1.313L46.5,59.17a1.782,1.782,0,0,0,2.369.624l.364-.2a7.7,7.7,0,0,0,1.511.843v.337a1.737,1.737,0,0,0,1.752,1.719H55a1.738,1.738,0,0,0,1.749-1.719v-.337a7.728,7.728,0,0,0,1.511-.843l.363.2a1.779,1.779,0,0,0,2.369-.621L62.244,57.1a1.672,1.672,0,0,0,.187-1.312,1.728,1.728,0,0,0-.835-1.061l-.321-.177a6.79,6.79,0,0,0,0-1.605l.321-.177a1.728,1.728,0,0,0,.838-1.061Zm-3.051,2.041a5.125,5.125,0,0,1-.052.716,1.706,1.706,0,0,0,.875,1.716l.244.134-1.027,1.7-.317-.175a1.81,1.81,0,0,0-1.932.14,5.687,5.687,0,0,1-1.248.693,1.737,1.737,0,0,0-1.12,1.6v.275h-2.12v-.275a1.736,1.736,0,0,0-1.119-1.6,5.679,5.679,0,0,1-1.249-.695,1.819,1.819,0,0,0-1.934-.139l-.315.175-1.027-1.7.245-.135a1.705,1.705,0,0,0,.875-1.715,5.005,5.005,0,0,1,0-1.432,1.706,1.706,0,0,0-.875-1.716l-.244-.134,1.027-1.7.317.175a1.807,1.807,0,0,0,1.932-.14,5.687,5.687,0,0,1,1.248-.693,1.737,1.737,0,0,0,1.12-1.6v-.275h2.122v.275a1.736,1.736,0,0,0,1.119,1.6,5.679,5.679,0,0,1,1.249.695,1.813,1.813,0,0,0,1.934.139l.315-.175,1.026,1.7-.245.135a1.705,1.705,0,0,0-.875,1.715,5.124,5.124,0,0,1,.051.716Z" transform="translate(-1.243 -1.243)" fill="#0f3764"/><path d="M53.887,50a3.887,3.887,0,1,0,3.887,3.887A3.887,3.887,0,0,0,53.887,50Zm0,5.831a1.944,1.944,0,1,1,1.944-1.944A1.944,1.944,0,0,1,53.887,55.831Z" transform="translate(-1.384 -1.384)" fill="#0f3764"/><path d="M60.277,1H23.35a.972.972,0,0,0-.972.972v13.6H12.661a.972.972,0,0,0-.972.972V27.237H1.972A.972.972,0,0,0,1,28.209V47.644a.972.972,0,0,0,.972.972H29.181a.972.972,0,0,0,.972-.972V38.9h13.6a.972.972,0,0,0,.972-.972V28.209H60.277a.972.972,0,0,0,.972-.972V1.972A.972.972,0,0,0,60.277,1ZM28.209,46.673H2.944V29.181H28.209Zm14.576-9.718H30.153V28.209a.972.972,0,0,0-.972-.972H13.633V17.52H42.786Zm16.52-10.689H44.729V16.548a.972.972,0,0,0-.972-.972H24.322V2.944H59.306Z" fill="#0f3764"/><path d="M17.944,53H16v5.831a.972.972,0,0,0,.972.972H41.266V57.859H17.944Z" transform="translate(-0.424 -1.469)" fill="#0f3764"/><path d="M37.944,43H36v7.774a.972.972,0,0,0,.972.972h4.859V49.8H37.944Z" transform="translate(-0.988 -1.186)" fill="#0f3764"/><path d="M54,32h1.944v9.718H54Z" transform="translate(-1.497 -0.875)" fill="#0f3764"/><path d="M57,5h1.944V6.944H57Z" transform="translate(-1.582 -0.113)" fill="#0f3764"/><path d="M53,5h1.944V6.944H53Z" transform="translate(-1.469 -0.113)" fill="#0f3764"/><path d="M40,20h1.944v1.944H40Z" transform="translate(-1.101 -0.537)" fill="#0f3764"/><path d="M36,20h1.944v1.944H36Z" transform="translate(-0.988 -0.537)" fill="#0f3764"/><path d="M25,32h1.944v1.944H25Z" transform="translate(-0.678 -0.875)" fill="#0f3764"/><path d="M21,32h1.944v1.944H21Z" transform="translate(-0.565 -0.875)" fill="#0f3764"/></g></svg>