<svg id="Layer_1" enable-background="new 0 0 512 512" height="512" viewBox="0 0 512 512" width="512" xmlns="http://www.w3.org/2000/svg"><g><path d="m353.24 303.296h-19.438c-1.487-8.085-3.615-16.042-6.357-23.779l16.818-9.709c1.724-.994 2.98-2.633 3.495-4.554.516-1.922.245-3.969-.749-5.691l-20.869-36.141c-2.072-3.587-6.658-4.815-10.244-2.745l-16.854 9.729c-5.333-6.242-11.155-12.063-17.397-17.395l9.729-16.848c.995-1.723 1.264-3.771.75-5.692-.515-1.921-1.772-3.56-3.495-4.554l-36.147-20.866c-3.587-2.073-8.173-.843-10.245 2.744l-9.711 16.818c-7.741-2.744-15.701-4.871-23.786-6.358v-19.432c0-4.143-3.358-7.5-7.5-7.5h-41.739c-4.142 0-7.5 3.357-7.5 7.5v19.432c-8.084 1.487-16.045 3.614-23.786 6.358l-9.711-16.818c-2.072-3.586-6.66-4.813-10.245-2.744l-36.147 20.866c-1.723.994-2.98 2.633-3.495 4.554-.515 1.922-.245 3.97.75 5.692l9.729 16.848c-6.243 5.332-12.064 11.152-17.397 17.395l-16.854-9.729c-3.587-2.073-8.174-.843-10.245 2.744l-20.87 36.141c-.995 1.724-1.264 3.771-.75 5.692.515 1.921 1.772 3.56 3.495 4.554l16.82 9.709c-2.744 7.739-4.872 15.696-6.358 23.779h-19.437c-4.142 0-7.5 3.357-7.5 7.5v41.731c0 4.143 3.358 7.5 7.5 7.5h19.437c1.487 8.083 3.615 16.04 6.358 23.779l-16.82 9.709c-1.723.994-2.98 2.633-3.495 4.554-.515 1.922-.245 3.969.75 5.692l20.87 36.141c2.072 3.586 6.657 4.813 10.245 2.744l16.854-9.729c5.333 6.242 11.155 12.063 17.397 17.395l-9.729 16.848c-.995 1.724-1.264 3.771-.75 5.692.515 1.921 1.772 3.56 3.495 4.554l36.147 20.866c3.585 2.069 8.172.843 10.245-2.745l9.711-16.816c7.74 2.743 15.7 4.87 23.786 6.357v19.432c0 4.143 3.358 7.5 7.5 7.5h41.739c4.142 0 7.5-3.357 7.5-7.5v-19.432c8.086-1.487 16.046-3.614 23.786-6.357l9.711 16.816c2.072 3.588 6.66 4.815 10.245 2.745l36.147-20.866c1.723-.994 2.98-2.633 3.495-4.554.515-1.922.245-3.969-.75-5.692l-9.729-16.848c6.243-5.332 12.064-11.152 17.397-17.395l16.854 9.729c3.585 2.071 8.172.842 10.244-2.745l20.869-36.141c.994-1.723 1.265-3.77.749-5.691-.515-1.921-1.771-3.56-3.495-4.554l-16.818-9.709c2.742-7.737 4.87-15.694 6.357-23.779h19.438c4.143 0 7.5-3.357 7.5-7.5v-41.731c0-4.143-3.357-7.5-7.5-7.5zm-7.5 41.731h-18.316c-3.738 0-6.906 2.753-7.427 6.455-1.585 11.261-4.538 22.307-8.778 32.83-1.397 3.465-.029 7.431 3.207 9.298l15.843 9.146-13.369 23.151-15.874-9.163c-3.234-1.869-7.346-1.071-9.649 1.865-7.014 8.938-15.103 17.024-24.042 24.036-2.938 2.305-3.733 6.419-1.866 9.652l9.163 15.868-23.156 13.367-9.148-15.843c-1.869-3.234-5.834-4.601-9.297-3.206-10.527 4.24-21.575 7.193-32.836 8.777-3.702.521-6.456 3.688-6.456 7.427v18.313h-26.739v-18.312c0-3.738-2.753-6.906-6.456-7.427-11.262-1.584-22.31-4.537-32.836-8.777-3.466-1.396-7.429-.027-9.297 3.206l-9.148 15.843-23.156-13.367 9.164-15.868c1.867-3.233 1.071-7.348-1.866-9.652-8.938-7.012-17.027-15.099-24.042-24.036-2.304-2.936-6.417-3.731-9.649-1.865l-15.874 9.163-13.369-23.151 15.843-9.146c3.236-1.867 4.604-5.832 3.207-9.298-4.241-10.527-7.195-21.573-8.778-32.83-.521-3.702-3.688-6.455-7.427-6.455h-18.316v-26.731h18.316c3.738 0 6.906-2.753 7.427-6.455 1.583-11.257 4.537-22.303 8.778-32.83 1.396-3.466.029-7.431-3.207-9.298l-15.843-9.146 13.369-23.151 15.874 9.163c3.232 1.867 7.345 1.071 9.649-1.865 7.014-8.938 15.103-17.024 24.042-24.036 2.938-2.305 3.733-6.419 1.866-9.652l-9.164-15.868 23.156-13.367 9.148 15.842c1.868 3.236 5.832 4.603 9.296 3.207 10.531-4.241 21.579-7.194 32.837-8.777 3.702-.521 6.456-3.688 6.456-7.427v-18.312h26.739v18.312c0 3.738 2.753 6.906 6.456 7.427 11.258 1.583 22.306 4.536 32.837 8.777 3.464 1.397 7.429.029 9.297-3.207l9.148-15.842 23.156 13.367-9.163 15.868c-1.867 3.233-1.072 7.348 1.866 9.652 8.938 7.012 17.027 15.099 24.042 24.036 2.304 2.937 6.417 3.733 9.649 1.865l15.874-9.163 13.368 23.151-15.843 9.146c-3.236 1.867-4.604 5.833-3.207 9.298 4.24 10.523 7.193 21.569 8.778 32.83.521 3.702 3.688 6.455 7.427 6.455h18.316z"/><path d="m504.5 79.537h-13.853c-1.108-3.116-2.381-6.179-3.809-9.166l9.783-9.761c1.41-1.407 2.203-3.317 2.203-5.31s-.793-3.902-2.203-5.31l-34.735-34.655c-2.928-2.92-7.666-2.92-10.594 0l-9.8 9.777c-3.002-1.43-6.079-2.703-9.212-3.812v-13.8c0-4.143-3.357-7.5-7.5-7.5h-49.123c-4.143 0-7.5 3.357-7.5 7.5v13.802c-3.133 1.108-6.21 2.382-9.212 3.812l-9.8-9.777c-2.926-2.919-7.666-2.92-10.594 0l-34.736 34.655c-1.41 1.407-2.203 3.317-2.203 5.31s.792 3.902 2.203 5.31l9.784 9.761c-1.429 2.988-2.701 6.05-3.809 9.166h-13.853c-4.142 0-7.5 3.357-7.5 7.5v49.009c0 4.143 3.358 7.5 7.5 7.5h13.853c1.107 3.116 2.38 6.178 3.809 9.166l-9.784 9.761c-1.41 1.407-2.203 3.317-2.203 5.31s.792 3.902 2.203 5.31l34.736 34.655c2.928 2.92 7.666 2.92 10.594 0l9.8-9.777c3.002 1.43 6.079 2.703 9.212 3.812v13.802c0 4.143 3.357 7.5 7.5 7.5h49.123c4.143 0 7.5-3.357 7.5-7.5v-13.802c3.133-1.108 6.21-2.382 9.212-3.812l9.8 9.777c2.927 2.92 7.667 2.921 10.594 0l34.735-34.655c1.41-1.407 2.203-3.317 2.203-5.31s-.793-3.902-2.203-5.31l-9.783-9.761c1.428-2.987 2.7-6.05 3.809-9.166h13.853c4.143 0 7.5-3.357 7.5-7.5v-49.011c0-4.142-3.358-7.5-7.5-7.5zm-7.5 49.009h-11.813c-3.34 0-6.276 2.208-7.205 5.416-1.661 5.742-3.976 11.313-6.88 16.557-1.622 2.929-1.105 6.578 1.265 8.943l8.339 8.32-24.116 24.061-8.364-8.345c-2.361-2.357-5.997-2.87-8.918-1.258-5.256 2.897-10.842 5.208-16.603 6.867-3.212.925-5.424 3.864-5.424 7.207v11.769h-34.123v-11.769c0-3.343-2.212-6.282-5.424-7.207-5.761-1.659-11.347-3.97-16.603-6.867-2.922-1.613-6.557-1.1-8.918 1.258l-8.364 8.345-24.116-24.061 8.339-8.32c2.37-2.365 2.887-6.015 1.265-8.943-2.906-5.247-5.221-10.817-6.88-16.556-.928-3.208-3.865-5.417-7.205-5.417h-11.813v-34.009h11.813c3.34 0 6.277-2.208 7.205-5.417 1.659-5.738 3.974-11.309 6.88-16.556 1.622-2.929 1.105-6.578-1.265-8.943l-8.339-8.32 24.116-24.061 8.364 8.345c2.362 2.357 5.999 2.871 8.918 1.258 5.256-2.897 10.842-5.208 16.603-6.867 3.212-.925 5.424-3.864 5.424-7.207v-11.769h34.123v11.769c0 3.343 2.212 6.282 5.424 7.207 5.761 1.659 11.347 3.97 16.603 6.867 2.923 1.612 6.557 1.1 8.918-1.258l8.364-8.345 24.116 24.061-8.339 8.32c-2.37 2.365-2.887 6.015-1.265 8.943 2.904 5.243 5.219 10.814 6.88 16.557.929 3.208 3.865 5.416 7.205 5.416h11.813z"/><path d="m400.219 51.784c-9.851 0-19.621 2.441-28.255 7.06-3.652 1.953-5.03 6.498-3.076 10.15s6.496 5.032 10.15 3.076c6.466-3.458 13.79-5.286 21.181-5.286 24.746 0 44.878 20.078 44.878 44.757 0 24.68-20.132 44.758-44.878 44.758s-44.878-20.078-44.878-44.758c0-7.017 1.58-13.731 4.696-19.959 1.854-3.704.354-8.21-3.351-10.063-3.706-1.852-8.21-.354-10.063 3.351-4.169 8.33-6.282 17.304-6.282 26.672 0 32.95 26.861 59.758 59.878 59.758s59.878-26.808 59.878-59.758-26.861-59.758-59.878-59.758z"/><path d="m180.37 224.386c-59.162 0-107.294 48.124-107.294 107.276 0 14.479 2.838 28.528 8.435 41.759 1.613 3.814 6.014 5.598 9.829 3.985s5.599-6.015 3.985-9.829c-4.811-11.372-7.25-23.455-7.25-35.915 0-50.881 41.403-92.276 92.294-92.276s92.294 41.396 92.294 92.276-41.403 92.275-92.294 92.275c-27.278 0-53.015-11.974-70.61-32.851-2.669-3.167-7.4-3.571-10.568-.901-3.167 2.669-3.571 7.4-.901 10.567 20.452 24.267 50.369 38.185 82.08 38.185 59.163 0 107.294-48.124 107.294-107.275 0-59.152-48.132-107.276-107.294-107.276z"/><path d="m180.37 271.275c6.156 0 12.226.921 18.04 2.737 3.955 1.236 8.16-.969 9.395-4.923s-.969-8.16-4.922-9.396c-7.264-2.269-14.838-3.419-22.512-3.419-41.575 0-75.398 33.818-75.398 75.387 0 41.567 33.824 75.386 75.398 75.386 41.575 0 75.399-33.818 75.399-75.386 0-19.582-7.474-38.137-21.044-52.248-2.871-2.983-7.62-3.078-10.604-.206-2.986 2.871-3.078 7.619-.207 10.604 10.87 11.302 16.856 26.164 16.856 41.85 0 33.297-27.095 60.386-60.399 60.386s-60.398-27.089-60.398-60.386 27.092-60.386 60.396-60.386z"/><path d="m504.5 294.469h-6.13c-1.287-9.095-4.88-17.459-10.166-24.48l4.351-4.35c2.93-2.929 2.93-7.678.001-10.606s-7.678-2.93-10.606-.001l-4.352 4.352c-7.022-5.286-15.388-8.879-24.486-10.166v-6.128c0-4.143-3.357-7.5-7.5-7.5s-7.5 3.357-7.5 7.5v6.128c-9.097 1.287-17.464 4.88-24.486 10.166l-4.353-4.352c-2.931-2.93-7.68-2.929-10.606.001-2.929 2.93-2.929 7.678.001 10.606l4.352 4.351c-5.286 7.021-8.879 15.385-10.166 24.479h-6.131c-4.143 0-7.5 3.357-7.5 7.5s3.357 7.5 7.5 7.5h6.131c1.287 9.095 4.88 17.458 10.166 24.479l-4.351 4.35c-2.929 2.928-2.93 7.677-.001 10.606 1.464 1.465 3.384 2.197 5.304 2.197 1.919 0 3.838-.732 5.303-2.196l4.353-4.352c7.022 5.286 15.388 8.879 24.486 10.166v6.128c0 4.143 3.357 7.5 7.5 7.5s7.5-3.357 7.5-7.5v-6.128c9.097-1.287 17.463-4.879 24.485-10.165l4.352 4.352c1.465 1.464 3.384 2.196 5.303 2.196 1.92 0 3.84-.732 5.304-2.197 2.929-2.93 2.929-7.678-.001-10.606l-4.351-4.35c5.286-7.021 8.879-15.384 10.166-24.479h6.13c4.143 0 7.5-3.357 7.5-7.5s-3.36-7.501-7.502-7.501zm-58.889 45.776c-21.11 0-38.285-17.171-38.285-38.276 0-21.106 17.175-38.277 38.285-38.277s38.285 17.171 38.285 38.277c0 21.105-17.175 38.276-38.285 38.276z"/><path d="m445.611 277.116c-13.705 0-24.855 11.148-24.855 24.853 0 13.703 11.15 24.852 24.855 24.852s24.855-11.148 24.855-24.852c.001-13.704-11.15-24.853-24.855-24.853zm0 34.704c-5.435 0-9.855-4.419-9.855-9.852s4.421-9.853 9.855-9.853 9.855 4.42 9.855 9.853-4.42 9.852-9.855 9.852z"/></g></svg>