<svg xmlns="http://www.w3.org/2000/svg" width="60" height="60.001" viewBox="0 0 60 60.001"><g transform="translate(0 0)"><path d="M3,55H4v2.94a2.054,2.054,0,0,0,3.233,1.689L13.846,55H26a3,3,0,0,0,3-3V45.974c.33.016.685.027,1.062.027.3,0,.616-.007.938-.022V52a3,3,0,0,0,3,3H46.154l6.613,4.629A2.055,2.055,0,0,0,56,57.938V55h1a3,3,0,0,0,3-3V34a3,3,0,0,0-3-3H48.281a19.367,19.367,0,0,0,1.12-3.3l2.069-.829a2.255,2.255,0,0,0,1.436-1.892,20.974,20.974,0,0,0,0-3.956,2.25,2.25,0,0,0-1.425-1.892L49.4,18.3a19.642,19.642,0,0,0-2.355-5.688l.874-2.054a2.25,2.25,0,0,0-.338-2.366,22.325,22.325,0,0,0-2.758-2.758,2.243,2.243,0,0,0-2.375-.352l-2.058.875A19.642,19.642,0,0,0,34.7,3.6l-.829-2.071A2.261,2.261,0,0,0,31.98.094a20.763,20.763,0,0,0-3.955,0,2.258,2.258,0,0,0-1.894,1.425L25.3,3.6a19.642,19.642,0,0,0-5.69,2.355l-2.054-.874a2.245,2.245,0,0,0-2.366.339,22.385,22.385,0,0,0-2.758,2.757,2.249,2.249,0,0,0-.352,2.375l.875,2.058A19.642,19.642,0,0,0,10.6,18.3l-2.07.83a2.255,2.255,0,0,0-1.436,1.89,20.928,20.928,0,0,0,0,3.955,2.252,2.252,0,0,0,1.425,1.894l2.08.833a19.367,19.367,0,0,0,1.12,3.3H3a3,3,0,0,0-3,3V52a3,3,0,0,0,3,3ZM18.523,31A13.856,13.856,0,0,1,16,23a14,14,0,0,1,28,0,13.856,13.856,0,0,1-2.523,8H34a3,3,0,0,0-3,3v2.959a13.352,13.352,0,0,1-2,0V34a3,3,0,0,0-3-3ZM29,43.969v-5c.336.022.67.035,1,.035s.664-.013,1-.035v5.01A19.963,19.963,0,0,1,29,43.969ZM58,34V52a1,1,0,0,1-1,1H55a1,1,0,0,0-1,1v3.94l-.087.05-6.87-4.809A1,1,0,0,0,46.47,53H34a1,1,0,0,1-1-1V34a1,1,0,0,1,1-1H57A1,1,0,0,1,58,34ZM12.439,26.767a1,1,0,0,0-.607-.726L9.251,25.008a.266.266,0,0,1-.167-.223,19.118,19.118,0,0,1,0-3.59.266.266,0,0,1,.177-.207l2.569-1.03a.994.994,0,0,0,.606-.723,17.7,17.7,0,0,1,2.482-5.992,1,1,0,0,0,.08-.934L13.919,9.765a.266.266,0,0,1,.032-.288A20.852,20.852,0,0,1,16.5,6.928a.267.267,0,0,1,.266-.008L19.309,8a.991.991,0,0,0,.934-.08,17.7,17.7,0,0,1,5.992-2.482,1,1,0,0,0,.724-.606l1.033-2.58a.268.268,0,0,1,.223-.168,19.2,19.2,0,0,1,3.59,0,.267.267,0,0,1,.207.177L33.041,4.83a1,1,0,0,0,.724.606A17.7,17.7,0,0,1,39.757,7.92a.994.994,0,0,0,.934.08l2.544-1.081a.27.27,0,0,1,.288.032A20.647,20.647,0,0,1,46.072,9.5a.269.269,0,0,1,.008.266L45,12.309a1,1,0,0,0,.08.934,17.7,17.7,0,0,1,2.482,5.992.994.994,0,0,0,.606.723l2.581,1.035a.265.265,0,0,1,.167.222,19.036,19.036,0,0,1,0,3.59.264.264,0,0,1-.177.207L48.17,26.041a1,1,0,0,0-.607.726A17.5,17.5,0,0,1,46.07,31H43.846A15.838,15.838,0,0,0,46,23a16,16,0,0,0-32,0,15.838,15.838,0,0,0,2.154,8H13.93a17.5,17.5,0,0,1-1.491-4.233ZM2,34a1,1,0,0,1,1-1H26a1,1,0,0,1,1,1V52a1,1,0,0,1-1,1H13.53a1,1,0,0,0-.573.181L6.087,57.99l.573.82L6,57.938V54a1,1,0,0,0-1-1H3a1,1,0,0,1-1-1Z" fill="#0f3764"/><path d="M10,51a1,1,0,0,0,1-1V45h6v5a1,1,0,0,0,2,0V40A5,5,0,0,0,9,40V50A1,1,0,0,0,10,51Zm4-14a3,3,0,0,1,3,3v3H11V40a3,3,0,0,1,3-3Z" fill="#0f3764"/><path d="M41,40h1.053a12.513,12.513,0,0,0,2.609,6.933,11.469,11.469,0,0,1-3.056,2.148A1,1,0,0,0,42,51a.979.979,0,0,0,.394-.081A13.565,13.565,0,0,0,46,48.417a13.565,13.565,0,0,0,3.606,2.5A.978.978,0,0,0,50,51a1,1,0,0,0,.4-1.918,11.49,11.49,0,0,1-3.058-2.149A12.519,12.519,0,0,0,49.947,40H51a1,1,0,0,0,0-2H47V36a1,1,0,0,0-2,0v2H41a1,1,0,0,0,0,2Zm5,5.391A10.625,10.625,0,0,1,44.053,40h3.894A10.625,10.625,0,0,1,46,45.391Z" fill="#0f3764"/></g></svg>