<svg xmlns="http://www.w3.org/2000/svg" width="60.198" height="60.198" viewBox="0 0 60.198 60.198"><g style="isolation:isolate"><path d="M238.324,204.836a1.176,1.176,0,0,0-1.8-1.511,3.824,3.824,0,0,1-3.1,1.372,5.173,5.173,0,1,1,2.892-9.464,1.176,1.176,0,1,0,1.316-1.948,7.525,7.525,0,1,0-4.208,13.764,6.172,6.172,0,0,0,4.9-2.213Z" transform="translate(-199.339 -169.425)" fill="#0f3764"/><path d="M368.052,196.476A4.577,4.577,0,0,0,363.389,192h-3.378a1.176,1.176,0,0,0-1.176,1.176v12.7a1.176,1.176,0,1,0,2.351,0v-4.685l4.807,5.462a1.176,1.176,0,1,0,1.765-1.554l-3.691-4.193A4.545,4.545,0,0,0,368.052,196.476Zm-4.663,2.124c-.5,0-1.428,0-2.182.008,0-.742-.011-3.484-.013-4.257h2.195a2.132,2.132,0,1,1,0,4.249Z" transform="translate(-316.645 -169.426)" fill="#0f3764"/><path d="M82.3,192a7.525,7.525,0,1,0,7.525,7.525A7.533,7.533,0,0,0,82.3,192Zm0,12.7a5.173,5.173,0,1,1,5.173-5.173A5.179,5.179,0,0,1,82.3,204.7Z" transform="translate(-65.983 -169.426)" fill="#0f3764"/><path d="M1.176,22.1H6.819A1.176,1.176,0,0,0,8,20.922V8H20.922A1.176,1.176,0,0,0,22.1,6.819V1.176A1.176,1.176,0,0,0,20.922,0H17.166a1.176,1.176,0,0,0,0,2.351h2.58V5.644H6.819A1.176,1.176,0,0,0,5.644,6.819V19.746H2.351V4A1.648,1.648,0,0,1,4,2.351H6.584A1.176,1.176,0,1,0,6.584,0H4A4,4,0,0,0,0,4V20.922A1.176,1.176,0,0,0,1.176,22.1Z" fill="#0f3764"/><path d="M342.156,0H325.232a1.176,1.176,0,0,0-1.176,1.176V6.819A1.176,1.176,0,0,0,325.232,8h12.927V20.922a1.176,1.176,0,0,0,1.176,1.176h5.644a1.176,1.176,0,0,0,1.176-1.176V4A4,4,0,0,0,342.156,0ZM343.8,19.746H340.51V6.819a1.176,1.176,0,0,0-1.176-1.176H326.407V2.351h15.748A1.648,1.648,0,0,1,343.8,4Z" transform="translate(-285.955)" fill="#0f3764"/><path d="M20.922,338.158H8V325.232a1.176,1.176,0,0,0-1.176-1.176H1.176A1.176,1.176,0,0,0,0,325.232v16.924a4,4,0,0,0,4,4H20.922a1.176,1.176,0,0,0,1.176-1.176v-5.644A1.176,1.176,0,0,0,20.922,338.158ZM19.746,343.8H4a1.648,1.648,0,0,1-1.646-1.646V326.407H5.644v12.927a1.176,1.176,0,0,0,1.176,1.176H19.746Z" transform="translate(0 -285.955)" fill="#0f3764"/><path d="M344.978,324.056h-5.644a1.176,1.176,0,0,0-1.176,1.176v12.927H325.232a1.176,1.176,0,0,0-1.176,1.176v5.644a1.176,1.176,0,0,0,1.176,1.176h16.924a4,4,0,0,0,4-4V325.232A1.176,1.176,0,0,0,344.978,324.056Zm-1.176,18.1a1.648,1.648,0,0,1-1.646,1.646H326.407V340.51h12.927a1.176,1.176,0,0,0,1.176-1.176V326.407H343.8Z" transform="translate(-285.955 -285.955)" fill="#0f3764"/><circle cx="1" cy="1" r="1" transform="translate(11 0.198)" fill="#0f3764"/></g></svg>