<svg id="Layer_1" enable-background="new 0 0 124 124" height="512" viewBox="0 0 124 124" width="512" xmlns="http://www.w3.org/2000/svg"><g fill="#010101"><path d="m62.44 78.896c-9.274 0-16.819-7.598-16.819-16.936 0-9.339 7.545-16.937 16.819-16.937s16.819 7.598 16.819 16.937c0 9.338-7.545 16.936-16.819 16.936zm0-29.873c-7.069 0-12.819 5.803-12.819 12.937 0 7.133 5.75 12.936 12.819 12.936s12.819-5.803 12.819-12.936-5.75-12.937-12.819-12.937z"/><path d="m67.483 104.309h-10.086c-1.105 0-2.001-.895-2.001-2v-7.268c-3.967-.857-7.787-2.452-11.204-4.679l-5.09 5.128c-.769.775-2.071.775-2.841 0l-7.131-7.185c-.774-.78-.774-2.037 0-2.817l5.107-5.145c-2.218-3.449-3.807-7.305-4.657-11.309h-7.196c-1.105 0-2.001-.895-2.001-2v-10.162c0-1.104.896-2 2.001-2h7.196c.851-4.004 2.439-7.86 4.657-11.309l-5.107-5.145c-.774-.78-.774-2.037 0-2.817l7.131-7.185c.751-.757 2.089-.757 2.841 0l5.09 5.128c3.417-2.227 7.237-3.822 11.204-4.679v-7.268c0-1.104.896-2 2.001-2h10.086c1.105 0 2.001.895 2.001 2v7.268c3.967.857 7.787 2.452 11.204 4.679l5.09-5.128c.751-.757 2.089-.757 2.841 0l7.131 7.185c.774.78.774 2.037 0 2.817l-5.107 5.145c2.218 3.449 3.807 7.305 4.657 11.309h7.196c1.105 0 2.001.895 2.001 2v10.161c0 1.104-.896 2-2.001 2h-7.196c-.851 4.004-2.439 7.86-4.657 11.309l5.107 5.145c.774.78.774 2.037 0 2.817l-7.131 7.185c-.751.757-2.089.757-2.841 0l-5.09-5.128c-3.417 2.227-7.237 3.822-11.204 4.679v7.268c-.001 1.105-.896 2.001-2.001 2.001zm-8.085-4h6.085v-6.925c0-.981.712-1.818 1.681-1.974 4.512-.729 8.866-2.548 12.588-5.259.798-.58 1.902-.494 2.598.207l4.847 4.884 4.313-4.346-4.869-4.906c-.688-.693-.775-1.781-.205-2.574 2.694-3.754 4.5-8.145 5.225-12.697.154-.971.992-1.685 1.976-1.685h6.858v-6.162h-6.858c-.984 0-1.821-.715-1.976-1.685-.724-4.552-2.531-8.942-5.225-12.697-.569-.793-.483-1.881.205-2.574l4.869-4.906-4.313-4.346-4.847 4.884c-.696.703-1.8.79-2.598.207-3.723-2.712-8.076-4.53-12.588-5.259-.969-.157-1.681-.993-1.681-1.974v-6.925h-6.085v6.925c0 .981-.712 1.818-1.681 1.974-4.512.729-8.866 2.548-12.588 5.259-.798.582-1.901.495-2.598-.207l-4.847-4.884-4.313 4.346 4.869 4.906c.688.693.775 1.781.205 2.574-2.694 3.755-4.501 8.145-5.225 12.697-.154.971-.992 1.685-1.976 1.685h-6.858v6.162h6.858c.984 0 1.821.715 1.976 1.685.725 4.553 2.531 8.943 5.225 12.697.569.793.483 1.881-.205 2.574l-4.869 4.906 4.313 4.346 4.847-4.884c.697-.701 1.801-.789 2.598-.207 3.723 2.712 8.076 4.53 12.588 5.259.969.157 1.681.993 1.681 1.974z"/><path d="m116.401 21.244c-.022-2.565-4.022-2.55-4.001.032l.022 2.704c-12.013-14.535-31.249-23.98-49.703-23.98-19.088 0-36.752 8.687-48.461 23.835-1.574 2.038 1.587 4.485 3.166 2.446 10.946-14.16 27.455-22.281 45.295-22.281 17.962 0 36.722 9.555 47.869 24.091h-5.534c-2.576 0-2.581 4 0 4h9.417c1.092 0 2.01-.924 2.001-2.016z"/><path d="m124 61.452c0-7.596-1.366-15.012-4.06-22.041-.921-2.405-4.659-.979-3.736 1.431 2.518 6.571 3.795 13.505 3.795 20.61 0 22.333-15.301 43.774-37.099 52.989l1.543-2.4c1.393-2.166-1.97-4.331-3.366-2.162l-4.771 7.422c-.651 1.012-.234 2.414.864 2.905l8.038 3.604c2.355 1.056 3.988-2.596 1.637-3.649l-3.499-1.569c23.827-9.563 40.654-32.852 40.654-57.14z"/><path d="m65.091 118.856c-.786.032-1.577.048-2.371.048-31.584 0-57.279-25.773-57.279-57.452 0-5.61 2.316-12.617 4.523-18.533l1.759 3.957c1.046 2.35 4.705.734 3.656-1.625l-3.73-8.389c-.457-1.029-1.729-1.481-2.736-.97l-7.851 3.997c-2.295 1.169-.485 4.731 1.816 3.564l3.23-1.644c-2.29 6.161-4.669 13.476-4.669 19.643 0 33.885 27.49 61.452 61.28 61.452.849 0 1.694-.017 2.534-.051 2.573-.106 2.42-4.096-.162-3.997-.787.033 1.118-.043 0 0z"/></g></svg>