<svg id="Capa_1" enable-background="new 0 0 512 512" height="512" viewBox="0 0 512 512" width="512" xmlns="http://www.w3.org/2000/svg"><g><g><path d="m499.501 410.503h-22.9v-37.503c0-4.143-3.358-7.5-7.5-7.5s-7.5 3.357-7.5 7.5v37.503h-139.899v-21.486c1.889.174 3.799.275 5.732.275 26.463 0 49.101-16.638 58.037-39.998h45.32c6.985 0 12.668-5.683 12.668-12.668v-50.047h18.142v51.421c0 4.143 3.358 7.5 7.5 7.5s7.5-3.357 7.5-7.5v-53.921c0-6.893-5.607-12.5-12.5-12.5h-20.642v-209.881c0-6.985-5.683-12.668-12.668-12.668h-142.582c-.653-1.355-1.34-2.694-2.071-4.01-2.013-3.621-6.579-4.924-10.199-2.912-3.62 2.013-4.924 6.579-2.911 10.199 5.192 9.341 7.936 19.948 7.936 30.677 0 34.882-28.379 63.261-63.261 63.261s-63.261-28.379-63.261-63.261c0-34.883 28.378-63.262 63.261-63.262 12.007 0 23.704 3.395 33.824 9.815 3.496 2.22 8.131 1.183 10.351-2.315 2.219-3.497 1.183-8.132-2.315-10.351-12.528-7.948-27.003-12.149-41.86-12.149-43.153 0-78.261 35.108-78.261 78.262 0 41.033 31.749 74.767 71.969 77.985v9.151h-108.406v-70.6c0-15.162-12.335-27.497-27.497-27.497h-63.009c-6.892.001-12.499 5.609-12.499 12.5v22.055c0 6.892 5.607 12.499 12.499 12.499h46.017v337.921c0 9.649 7.851 17.5 17.5 17.5h43.119c1.15 18.267 16.369 32.779 34.922 32.779s33.772-14.512 34.922-32.779h17.021c4.142 0 7.5-3.357 7.5-7.5s-3.358-7.5-7.5-7.5h-19.369c-5.116-12.995-17.784-22.221-32.574-22.221s-27.457 9.226-32.574 22.221h-18.479v-33.995h393.996v33.995h-55.228c-5.116-12.995-17.784-22.221-32.574-22.221s-27.457 9.226-32.574 22.221h-135.624c-4.142 0-7.5 3.357-7.5 7.5s3.358 7.5 7.5 7.5h133.276c1.15 18.267 16.369 32.779 34.922 32.779s33.772-14.512 34.922-32.779h55.381c6.892 0 12.499-5.607 12.499-12.5v-38.996c0-6.892-5.607-12.499-12.499-12.499zm-411.496 48.995h-11.989c-1.378 0-2.5-1.121-2.5-2.5v-345.421c0-4.143-3.358-7.5-7.5-7.5h-51.016v-17.053h60.508c6.891 0 12.497 5.606 12.497 12.497zm66.052-7.221c11.028 0 20 8.972 20 20s-8.972 20-20 20-20-8.972-20-20 8.972-20 20-20zm173.377-77.985c-25.984 0-47.123-21.14-47.123-47.123 0-25.984 21.139-47.124 47.123-47.124s47.124 21.14 47.124 47.124c0 25.983-21.14 47.123-47.124 47.123zm101.024-310.262v26.343h-132.854c.229-2.434.359-4.896.359-7.389 0-6.406-.799-12.776-2.34-18.954zm-202.048 96.719c13.548-1.508 26.056-6.494 36.624-14.033h74.463c4.142 0 7.5-3.357 7.5-7.5s-3.358-7.5-7.5-7.5h-58.635c6.17-7.728 10.918-16.638 13.821-26.343h135.775v228.921h-39.322c.269-2.34.421-4.714.421-7.125 0-34.255-27.869-62.124-62.124-62.124s-62.123 27.869-62.123 62.124c0 2.411.152 4.785.421 7.125h-39.321zm42.988 188.545c6.482 16.944 20.171 30.343 37.305 36.428v24.781h-203.698v-123.924h67.097v35.173c0 5.79 4.71 10.5 10.5 10.5h30.809v4.374c0 6.985 5.683 12.668 12.668 12.668zm-84.296-62.715h26.309v30.673h-26.309zm-32.373-101.458h28.581v24.241h-28.581zm-15 0v28.741c0 5.79 4.71 10.5 10.5 10.5h37.581c5.79 0 10.5-4.71 10.5-10.5v-28.741h15.1v86.458h-108.405v-86.458zm271.469 307.156c-11.028 0-20-8.972-20-20s8.972-20 20-20 20 8.972 20 20-8.972 20-20 20z"/><path d="m346.819 309.152-22.854 22.855-15.915-15.915c-2.929-2.928-7.678-2.928-10.606 0-2.929 2.93-2.929 7.678 0 10.607l21.218 21.218c1.464 1.464 3.384 2.196 5.303 2.196s3.839-.732 5.303-2.196l28.158-28.158c2.929-2.93 2.929-7.678 0-10.607-2.929-2.927-7.678-2.927-10.607 0z"/><path d="m387.108 146.716h7.235c4.142 0 7.5-3.357 7.5-7.5s-3.358-7.5-7.5-7.5h-7.235c-4.142 0-7.5 3.357-7.5 7.5s3.358 7.5 7.5 7.5z"/><path d="m260.526 179.79h133.817c4.142 0 7.5-3.357 7.5-7.5s-3.358-7.5-7.5-7.5h-133.817c-4.142 0-7.5 3.357-7.5 7.5s3.358 7.5 7.5 7.5z"/><path d="m394.343 197.863h-76.484c-4.142 0-7.5 3.357-7.5 7.5s3.358 7.5 7.5 7.5h76.484c4.142 0 7.5-3.357 7.5-7.5s-3.358-7.5-7.5-7.5z"/><path d="m260.526 212.863h34.595c4.142 0 7.5-3.357 7.5-7.5s-3.358-7.5-7.5-7.5h-34.595c-4.142 0-7.5 3.357-7.5 7.5s3.358 7.5 7.5 7.5z"/><path d="m401.843 238.438c0-4.143-3.358-7.5-7.5-7.5h-133.817c-4.142 0-7.5 3.357-7.5 7.5s3.358 7.5 7.5 7.5h133.817c4.142 0 7.5-3.358 7.5-7.5z"/><path d="m217.702 129.408c4.142 0 7.5-3.357 7.5-7.5v-3.188h5.448c11.854 0 21.499-9.645 21.499-21.499s-9.645-21.499-21.499-21.499h-25.871c-3.597 0-6.524-2.927-6.524-6.523v-.427c0-1.743.679-3.382 1.911-4.614s2.871-1.911 4.614-1.911h31.105c4.142 0 7.5-3.357 7.5-7.5s-3.358-7.5-7.5-7.5h-10.682v-3.187c0-4.143-3.358-7.5-7.5-7.5s-7.5 3.357-7.5 7.5v3.188h-5.423c-5.75 0-11.155 2.239-15.22 6.305-4.066 4.065-6.305 9.472-6.304 15.221v.427c.001 11.868 9.656 21.523 21.524 21.523h25.871c3.583 0 6.499 2.915 6.499 6.499s-2.916 6.499-6.499 6.499h-31.37c-4.142 0-7.5 3.357-7.5 7.5s3.358 7.5 7.5 7.5h10.921v3.188c0 4.141 3.358 7.498 7.5 7.498z"/></g></g></svg>