<?xml version="1.0"?>
<svg xmlns="http://www.w3.org/2000/svg" viewBox="0 0 64 64" width="512" height="512"><g id="_9-productivity" data-name="9-productivity"><path d="M63.6772,21.26414a.99688.99688,0,0,0-.96045-.22315L46.76463,25.7534a.9997.9997,0,0,0-.42383,1.666l2.66992,2.66992L35,44.10059l-8.46435-8.46534a5.01391,5.01391,0,0,0-7.09716.02734L.26713,56.31984A.9999.9999,0,1,0,1.733,57.68019l19.14548-20.6299a3.0045,3.0045,0,0,1,4.24316-.00049L34.293,46.22168a1.02932,1.02932,0,0,0,1.41406,0L51.13181,30.79637a.99964.99964,0,0,0,0-1.41406l-2.1875-2.1875,12.73827-3.76319L58.85494,37.10546,56.789,35.03954a.99964.99964,0,0,0-1.41406,0L37.12157,53.29249a3.00449,3.00449,0,0,1-4.24315.00049L23.707,44.1211a.99952.99952,0,0,0-1.45751.04638l-16,18.1719a.99984.99984,0,1,0,1.501,1.32129L23.0464,46.28858l8.418,8.41895a5.00819,5.00819,0,0,0,7.07128-.00049L56.082,37.16064l2.66992,2.66992a1.00015,1.00015,0,0,0,1.68652-.50439l3.541-17.12355A1.00167,1.00167,0,0,0,63.6772,21.26414Z"/><path d="M17,56a1,1,0,0,0-1,1v6a1,1,0,0,0,2,0V57A1,1,0,0,0,17,56Z"/><path d="M5,49a1,1,0,0,0,1-1V34H16v1a1,1,0,0,0,2,0V33a1,1,0,0,0-1-1H5a1,1,0,0,0-1,1V48A1,1,0,0,0,5,49Z"/><path d="M47,48a1,1,0,0,0-1,1V63a1,1,0,0,0,2,0V49A1,1,0,0,0,47,48Z"/><path d="M47,24a1,1,0,0,0,1-1V2H58V19a1,1,0,0,0,2,0V1a1,1,0,0,0-1-1H47a1,1,0,0,0-1,1V23A1,1,0,0,0,47,24Z"/><path d="M59,42a1,1,0,0,0-1,1V63a1,1,0,0,0,2,0V43A1,1,0,0,0,59,42Z"/><path d="M38,57a1,1,0,0,0-1,1v5a1,1,0,0,0,2,0V58A1,1,0,0,0,38,57Z"/><path d="M26,33a1,1,0,0,0,1-1V22H37V38a1,1,0,0,0,2,0V21a1,1,0,0,0-1-1H26a1,1,0,0,0-1,1V32A1,1,0,0,0,26,33Z"/><path d="M26,51a1,1,0,0,0-1,1V63a1,1,0,0,0,2,0V52A1,1,0,0,0,26,51Z"/></g></svg>
