<svg id="Capa_1" enable-background="new 0 0 512 512" height="512" viewBox="0 0 512 512" width="512" xmlns="http://www.w3.org/2000/svg"><g><g><path d="m312.334 80.815c0-4.142-3.357-7.5-7.5-7.5h-250.5c-4.142 0-7.5 3.358-7.5 7.5s3.358 7.5 7.5 7.5h250.5c4.143 0 7.5-3.358 7.5-7.5z"/><path d="m140.146 239.41h-33.112c-4.142 0-7.5 3.358-7.5 7.5v52.491.085 61.417c0 4.136 3.355 7.5 7.5 7.5h.033c.305-.001 30.57-.135 38.862-.135 21.054 0 38.183-17.129 38.183-38.184 0-14.392-8.006-26.945-19.795-33.452 5.91-6.079 9.56-14.365 9.56-23.492-.001-18.598-15.132-33.73-33.731-33.73zm0 15c10.328 0 18.73 8.402 18.73 18.73s-8.402 18.73-18.73 18.73c-2.618 0 9.482-.016-25.612.031v-37.491zm5.783 98.858c-5.714 0-21.781.063-31.395.103v-46.417c24.602-.103 12.541-.028 31.395-.053 12.783 0 23.183 10.4 23.183 23.184s-10.4 23.183-23.183 23.183z"/><path d="m411.252 251.291c2.26-3.472 1.278-8.118-2.193-10.377-3.472-2.259-8.118-1.278-10.377 2.194l-29.838 45.834-30.121-46.132c-2.267-3.469-6.912-4.444-10.381-2.179-3.468 2.265-4.444 6.912-2.18 10.38l35.186 53.888-.137 55.986c-.01 4.142 3.34 7.508 7.481 7.519h.019c4.134 0 7.49-3.346 7.5-7.481l.137-56.014z"/><path d="m214.584 239.411c-4.142 0-7.5 3.358-7.5 7.5v78.439c0 14.957 6.982 26.688 21.346 35.864 14.287 9.128 32.959 9.276 47.253 2.079 16.755-8.438 25.61-21.587 25.61-38.026v-78.357c0-4.142-3.357-7.5-7.5-7.5s-7.5 3.358-7.5 7.5v78.357c0 10.691-5.678 18.747-17.356 24.628-9.625 4.847-22.672 4.914-32.431-1.322-10.108-6.458-14.421-13.403-14.421-23.224v-78.439c-.001-4.141-3.359-7.499-7.501-7.499z"/><path d="m483.377 28.463h-454.754c-15.783 0-28.623 12.84-28.623 28.623v397.828c0 15.783 12.84 28.623 28.623 28.623h454.754c15.783 0 28.623-12.84 28.623-28.623v-397.828c0-15.783-12.84-28.623-28.623-28.623zm-468.377 426.451v-321.747h32.472c4.142 0 7.5-3.358 7.5-7.5s-3.358-7.5-7.5-7.5h-32.472v-61.081c0-7.512 6.111-13.623 13.623-13.623h454.754c7.512 0 13.623 6.111 13.623 13.623v61.081h-414.462c-4.142 0-7.5 3.358-7.5 7.5s3.358 7.5 7.5 7.5h414.462v290.463l-30.11-30.11 16.159-16.159c3.672-3.672 4.761-9.144 2.774-13.942s-6.627-7.898-11.819-7.898h-77.236c-7.054 0-12.793 5.739-12.793 12.793v77.236c0 5.193 3.101 9.833 7.897 11.82 4.802 1.986 10.271.897 13.94-2.773l16.16-16.16 30.102 30.101h-423.451c-7.512-.001-13.623-6.112-13.623-13.624zm439.723-52.348 41.354 41.354-23.704 23.704-41.353-41.353c-5-5.002-13.092-5.002-18.094-.001l-13.952 13.952v-69.701h69.701l-13.953 13.953c-4.987 4.987-4.987 13.104.001 18.092z"/><path d="m437.909 106.56c14.178 0 25.713-11.535 25.713-25.713s-11.535-25.713-25.713-25.713-25.713 11.535-25.713 25.713 11.535 25.713 25.713 25.713zm0-36.426c5.907 0 10.713 4.806 10.713 10.713s-4.806 10.713-10.713 10.713-10.713-4.806-10.713-10.713 4.806-10.713 10.713-10.713z"/><path d="m364.876 106.56c14.178 0 25.713-11.535 25.713-25.713s-11.535-25.713-25.713-25.713-25.713 11.535-25.713 25.713 11.535 25.713 25.713 25.713zm0-36.426c5.907 0 10.713 4.806 10.713 10.713s-4.806 10.713-10.713 10.713-10.713-4.806-10.713-10.713 4.806-10.713 10.713-10.713z"/><path d="m356.362 418.209h-270.093c-8.144 0-14.769-6.625-14.769-14.769v-193.88c0-8.144 6.625-14.769 14.769-14.769h339.463c8.144 0 14.769 6.625 14.769 14.769v118.35c0 4.142 3.357 7.5 7.5 7.5s7.5-3.358 7.5-7.5v-118.35c0-16.415-13.354-29.769-29.769-29.769h-339.463c-16.415 0-29.769 13.354-29.769 29.769v193.88c0 16.415 13.354 29.769 29.769 29.769h270.094c4.143 0 7.5-3.358 7.5-7.5s-3.358-7.5-7.501-7.5z"/></g></g></svg>