<svg id="LineExpanded" enable-background="new 0 0 64 64" height="512" viewBox="0 0 64 64" width="512" xmlns="http://www.w3.org/2000/svg"><path d="m43 36c-1.317 0-2.588.2-3.787.566-1.66-3.794-4.447-7.083-7.958-9.321l-.386-.245.389-.246c5.817-3.704 9.391-9.914 9.711-16.754h1.031c1.654 0 3-1.346 3-3v-2c0-1.654-1.346-3-3-3h-30c-1.654 0-3 1.346-3 3v2c0 1.654 1.346 3 3 3h1.031c.32 6.84 3.894 13.047 9.712 16.749l.395.251-.394.251c-5.819 3.702-9.393 9.909-9.713 16.749h-1.031c-1.654 0-3 1.346-3 3v2c0 1.654 1.346 3 3 3h18.363c1.36 5.724 6.502 10 12.637 10 7.168 0 13-5.832 13-13s-5.832-13-13-13zm-32-29v-2c0-.552.449-1 1-1h30c.551 0 1 .448 1 1v2c0 .552-.449 1-1 1h-30c-.551 0-1-.448-1-1zm27.969 3c-.165 3.2-1.12 6.241-2.734 8.895-1.906-.07-4.161-1.324-6.539-2.646-4.107-2.283-9.141-5.069-13.941-1.947-.399-1.386-.646-2.827-.723-4.302zm-15.152 18.938 1.72-1.095c.288-.183.463-.501.463-.843s-.175-.66-.463-.844l-1.72-1.095c-3.376-2.148-5.915-5.231-7.382-8.796 3.92-2.908 7.99-.658 12.289 1.732 2.158 1.2 4.224 2.336 6.229 2.745-1.313 1.672-2.911 3.141-4.768 4.323l-1.72 1.09c-.29.184-.465.502-.465.845s.175.661.465.845l1.718 1.088c3.157 2.013 5.669 4.966 7.174 8.374-2.849 1.381-5.126 3.76-6.353 6.693h-15.973c.318-6.152 3.548-11.729 8.786-15.062zm-11.817 21.062c-.551 0-1-.448-1-1v-2c0-.552.449-1 1-1h18.363c-.229.965-.363 1.966-.363 3 0 .338.025.669.051 1zm31 10c-6.065 0-11-4.935-11-11s4.935-11 11-11 11 4.935 11 11-4.935 11-11 11z"/><path d="m49 50h-2v-8c0-.553-.448-1-1-1h-6c-.552 0-1 .447-1 1v8h-2c-.404 0-.769.243-.924.617s-.069.804.217 1.09l6 6c.195.195.451.293.707.293s.512-.098.707-.293l6-6c.286-.286.372-.716.217-1.09s-.52-.617-.924-.617zm-6 5.586-3.586-3.586h.586c.552 0 1-.447 1-1v-8h4v8c0 .553.448 1 1 1h.586z"/></svg>