<svg id="Layer_1" enable-background="new 0 0 512 512" height="512" viewBox="0 0 512 512" width="512" xmlns="http://www.w3.org/2000/svg"><path d="m363.829 255.051h-75.489c-4.418 0-8 3.582-8 8v240.948c0 4.418 3.582 8 8 8h75.489c4.418 0 8-3.582 8-8v-240.948c0-4.418-3.581-8-8-8zm-8 240.948h-59.489v-224.948h59.489zm-132.171-209.484h-75.489c-4.418 0-8 3.582-8 8v209.485c0 4.418 3.582 8 8 8h75.489c4.418 0 8-3.582 8-8v-209.485c0-4.419-3.581-8-8-8zm-8 209.485h-59.489v-193.485h59.489zm-132.169-339.972h-75.489c-4.418 0-8 3.582-8 8v339.97c0 4.418 3.582 8 8 8h75.489c4.418 0 8-3.582 8-8v-339.97c0-4.419-3.582-8-8-8zm-8 339.97h-59.489v-323.97h59.489zm428.511-147.483h-75.488c-4.418 0-8 3.582-8 8v147.483c0 4.418 3.582 8 8 8h75.488c4.418 0 8-3.582 8-8v-147.483c0-4.419-3.582-8-8-8zm-8 147.483h-59.488v-131.483h59.488zm-72.878-213.564c-4.4-.398-7.645-4.288-7.246-8.688.398-4.4 4.3-7.645 8.688-7.246l15.285 1.383-115.333-89.805-136.137 44.122c-2.872.931-6.022.166-8.147-1.978l-140.168-141.365c-3.111-3.138-3.089-8.203.048-11.313s8.203-3.09 11.313.048l136.703 137.871 135.49-43.914c2.523-.818 5.288-.332 7.382 1.298l120.218 93.609-6.362-20.829c-1.291-4.226 1.088-8.697 5.314-9.988 4.226-1.292 8.697 1.088 9.988 5.314l13.75 45.015c.778 2.547.237 5.314-1.442 7.381-1.527 1.879-3.813 2.956-6.208 2.956-.24 0-.48-.011-.722-.033zm-188.466-177.727c1.214-1.403 1.64-2.974 1.383-5.092-.449-3.698-2.755-8.237-16.723-10.529-22.234-3.651-27.432-15.35-27.876-24.52-.606-12.468 7.856-22.906 21.105-26.19v-3.403c0-4.418 3.582-8 8-8s8 3.582 8 8v3.312c8.59 2.027 16.72 7.561 21.001 17.759 1.71 4.074-.205 8.763-4.279 10.473-4.076 1.71-8.763-.206-10.473-4.279-3.319-7.903-11.455-9.93-18.049-8.436-1.62.368-9.685 2.576-9.325 9.987.095 1.966.348 7.185 14.487 9.507 18.316 3.006 28.415 11.212 30.014 24.39.802 6.606-.984 12.653-5.165 17.487-4.174 4.825-10.714 8.228-18.212 9.645v3.12c0 4.418-3.582 8-8 8s-8-3.582-8-8v-3.252c-11.655-2.541-20.576-10.503-23.327-21.537-1.069-4.287 1.54-8.629 5.827-9.698 4.291-1.07 8.629 1.54 9.698 5.827 1.952 7.828 10.142 10.421 16.571 10.272 5.591-.133 10.953-2.079 13.343-4.843zm-14.112 58.204c44.915 0 81.456-36.541 81.456-81.456s-36.541-81.455-81.456-81.455-81.456 36.541-81.456 81.456 36.542 81.455 81.456 81.455zm0-146.911c36.093 0 65.456 29.363 65.456 65.456s-29.363 65.456-65.456 65.456-65.456-29.363-65.456-65.456 29.364-65.456 65.456-65.456z"/></svg>