<svg xmlns="http://www.w3.org/2000/svg" width="68.75" height="35.435" viewBox="0 0 68.75 35.435"><g transform="translate(0 -124.053)"><g transform="translate(39.046 134.682)"><path d="M293.257,203.211h-1.464a1.008,1.008,0,0,0-1.008,1.008v5.36a1.008,1.008,0,0,0,1.008,1.008h1.464c4.078,0,4.518-2.6,4.518-3.716C297.775,205.77,297.335,203.211,293.257,203.211Zm-.456,5.36v-3.344c1.571,0,2.959.081,2.959,1.644C295.76,208.473,294.41,208.571,292.8,208.571Z" transform="translate(-290.785 -203.211)" fill="#fff"/></g><g transform="translate(22.616 136.84)"><g transform="translate(0 0)"><path d="M174.614,226.659l-2.065-6.672a1.036,1.036,0,0,0-1.964-.007l-2.11,6.651a1.008,1.008,0,0,0,.6,1.246A7.246,7.246,0,0,0,174,227.9,1.008,1.008,0,0,0,174.614,226.659Zm-3.9-.421.84-2.648.822,2.654A5.465,5.465,0,0,1,170.714,226.238Z" transform="translate(-168.428 -219.279)" fill="#fff"/></g></g><g transform="translate(0 124.053)"><g transform="translate(0 0)"><path d="M67.135,124.053H29.828a1.008,1.008,0,0,0,0,2.016H66.163L51.124,141.106c.707-2.375.613-6.556-2.327-8.814-1.717-1.318-4.225-1.959-7.669-1.959H34.473a1.008,1.008,0,0,0-1.008,1.008v10.143l-3.854-10.491a1.008,1.008,0,0,0-.946-.66H22.9a1.007,1.007,0,0,0-.943.654l-4.078,10.867c-2.452-3.315-7.833-3.461-9.251-5a2.815,2.815,0,0,1,1.911-.36,9.769,9.769,0,0,1,4.471,1.212,1.008,1.008,0,0,0,1.312-.4c2.5-4.342,2.574-4.264,2.409-4.817a1.008,1.008,0,0,0-.51-.611c-5.149-2.611-13.078-2.969-16.209,1.889v-7.688h23.11a1.008,1.008,0,1,0,0-2.016H1.613A1.615,1.615,0,0,0,0,125.666V158.48a1.008,1.008,0,0,0,1.008,1.008H25.126a1.008,1.008,0,0,0,0-2.016H2.016v-5.951c3.618,1.883,8.575,2.573,12.221.91a1.008,1.008,0,0,0,.913.582h6.04a1.008,1.008,0,0,0,.957-.693l.71-2.158a12.656,12.656,0,0,0,5.7.019l.685,2.133a1.008,1.008,0,0,0,.96.7h9.015l-4.459,4.459H29.829a1.008,1.008,0,0,0,0,2.016h5.095a1.624,1.624,0,0,0,1.14-.472l32.212-32.209A1.614,1.614,0,0,0,67.135,124.053ZM3.129,145.824l-1.113,2.208v-6.955c1.4,2.056,4.077,3.153,6.468,3.892.746.232,2.492.775,2.623,1.15-.011.618-.974.709-1.589.724a8.25,8.25,0,0,1-4.977-1.433A1.008,1.008,0,0,0,3.129,145.824Zm37.933,5.344v-4.536a14.761,14.761,0,0,0,5.15-.614Zm1.137-6.552H40.054a1.008,1.008,0,0,0-1.008,1.008V151h-8.11l-.755-2.351a1.008,1.008,0,0,0-1.267-.652,10.534,10.534,0,0,1-6.395-.021,1.008,1.008,0,0,0-1.274.642L20.461,151H16.6l.155-.414a1.008,1.008,0,0,0-.367-1.179c-1.416-.99-1.406,1.892-6.884,1.948a14.222,14.222,0,0,1-6.188-1.43l1.137-2.256a9.715,9.715,0,0,0,5.1,1.191c2.6-.063,3.538-1.422,3.562-2.7.071-4.1-10.256-2.251-10.14-8.844.073-4.833,6.659-6.8,13.36-4.084l-1.306,2.269c-4.06-1.75-8.42-1.27-8.466,1.347-.019,1.305,1.369,2.365,4.376,3.336,3.044.964,5.6,1.972,6,4.54a1.009,1.009,0,0,0,1.939.2L23.6,132.348h4.36L33.527,147.5a1.009,1.009,0,0,0,1.954-.348v-14.8c7.675,0,13.983-.743,13.983,6.2C49.464,142.4,46.816,144.616,42.2,144.616Z" transform="translate(0 -124.053)" fill="#fff"/></g></g></g></svg>