<?xml version="1.0"?>
<svg xmlns="http://www.w3.org/2000/svg" id="Icons" viewBox="0 0 60 60" width="512" height="512"><path d="M18,20V40a2,2,0,0,0,2,2H40a2,2,0,0,0,2-2V20a2,2,0,0,0-2-2H20A2,2,0,0,0,18,20Zm2,0H40l0,20H20Z"/><path d="M31,22H24a2,2,0,0,0-2,2v3a1,1,0,0,0,2,0V24h7a1,1,0,0,0,0-2Z"/><path d="M23,30a1,1,0,0,0-1,1v3a1,1,0,0,0,2,0V31A1,1,0,0,0,23,30Z"/><path d="M1,5A1,1,0,0,0,2,4V2H4A1,1,0,0,0,4,0H2A2,2,0,0,0,0,2V4A1,1,0,0,0,1,5Z"/><path d="M28,2a1,1,0,0,0,0-2H26a1,1,0,0,0,0,2Z"/><path d="M22,2a1,1,0,0,0,0-2H20a1,1,0,0,0,0,2Z"/><path d="M16,2a1,1,0,0,0,0-2H14a1,1,0,0,0,0,2Z"/><path d="M10,2a1,1,0,0,0,0-2H8A1,1,0,0,0,8,2Z"/><path d="M58,0H56a1,1,0,0,0,0,2h2V4a1,1,0,0,0,2,0V2A2,2,0,0,0,58,0Z"/><path d="M34,2a1,1,0,0,0,0-2H32a1,1,0,0,0,0,2Z"/><path d="M40,2a1,1,0,0,0,0-2H38a1,1,0,0,0,0,2Z"/><path d="M46,2a1,1,0,0,0,0-2H44a1,1,0,0,0,0,2Z"/><path d="M52,2a1,1,0,0,0,0-2H50a1,1,0,0,0,0,2Z"/><path d="M1,29a1,1,0,0,0,1-1V26a1,1,0,0,0-2,0v2A1,1,0,0,0,1,29Z"/><path d="M1,23a1,1,0,0,0,1-1V20a1,1,0,0,0-2,0v2A1,1,0,0,0,1,23Z"/><path d="M1,17a1,1,0,0,0,1-1V14a1,1,0,0,0-2,0v2A1,1,0,0,0,1,17Z"/><path d="M1,11a1,1,0,0,0,1-1V8A1,1,0,0,0,0,8v2A1,1,0,0,0,1,11Z"/><path d="M1,35a1,1,0,0,0,1-1V32a1,1,0,0,0-2,0v2A1,1,0,0,0,1,35Z"/><path d="M1,41a1,1,0,0,0,1-1V38a1,1,0,0,0-2,0v2A1,1,0,0,0,1,41Z"/><path d="M1,47a1,1,0,0,0,1-1V44a1,1,0,0,0-2,0v2A1,1,0,0,0,1,47Z"/><path d="M1,53a1,1,0,0,0,1-1V50a1,1,0,0,0-2,0v2A1,1,0,0,0,1,53Z"/><path d="M59,25a1,1,0,0,0-1,1v2a1,1,0,0,0,2,0V26A1,1,0,0,0,59,25Z"/><path d="M59,19a1,1,0,0,0-1,1v2a1,1,0,0,0,2,0V20A1,1,0,0,0,59,19Z"/><path d="M59,13a1,1,0,0,0-1,1v2a1,1,0,0,0,2,0V14A1,1,0,0,0,59,13Z"/><path d="M59,7a1,1,0,0,0-1,1v2a1,1,0,0,0,2,0V8A1,1,0,0,0,59,7Z"/><path d="M59,31a1,1,0,0,0-1,1v2a1,1,0,0,0,2,0V32A1,1,0,0,0,59,31Z"/><path d="M59,37a1,1,0,0,0-1,1v2a1,1,0,0,0,2,0V38A1,1,0,0,0,59,37Z"/><path d="M59,43a1,1,0,0,0-1,1v2a1,1,0,0,0,2,0V44A1,1,0,0,0,59,43Z"/><path d="M59,49a1,1,0,0,0-1,1v2a1,1,0,0,0,2,0V50A1,1,0,0,0,59,49Z"/><path d="M2,60H4a1,1,0,0,0,0-2H2V56a1,1,0,0,0-2,0v2A2,2,0,0,0,2,60Z"/><path d="M26,58a1,1,0,0,0,0,2h2a1,1,0,0,0,0-2Z"/><path d="M20,58a1,1,0,0,0,0,2h2a1,1,0,0,0,0-2Z"/><path d="M14,58a1,1,0,0,0,0,2h2a1,1,0,0,0,0-2Z"/><path d="M8,58a1,1,0,0,0,0,2h2a1,1,0,0,0,0-2Z"/><path d="M59,55a1,1,0,0,0-1,1v2H56a1,1,0,0,0,0,2h2a2,2,0,0,0,2-2V56A1,1,0,0,0,59,55Z"/><path d="M32,58a1,1,0,0,0,0,2h2a1,1,0,0,0,0-2Z"/><path d="M38,58a1,1,0,0,0,0,2h2a1,1,0,0,0,0-2Z"/><path d="M46,60a1,1,0,0,0,0-2H44a1,1,0,0,0,0,2Z"/><path d="M52,58H50a1,1,0,0,0,0,2h2a1,1,0,0,0,0-2Z"/><path d="M6,7v5a1,1,0,0,0,2,0V9.414l7.293,7.293a1,1,0,0,0,1.414-1.414L9.414,8H12a1,1,0,0,0,0-2H7A1,1,0,0,0,6,7Z"/><path d="M6,53a1,1,0,0,0,1,1h5a1,1,0,0,0,0-2H9.414l7.293-7.293a1,1,0,0,0-1.414-1.414L8,50.586V48a1,1,0,0,0-2,0Z"/><path d="M54,53V48a1,1,0,0,0-2,0v2.586l-7.293-7.293a1,1,0,0,0-1.414,1.414L50.586,52H48a1,1,0,0,0,0,2h5A1,1,0,0,0,54,53Z"/><path d="M54,7a1,1,0,0,0-1-1H48a1,1,0,0,0,0,2h2.586l-7.293,7.293a1,1,0,1,0,1.414,1.414L52,9.414V12a1,1,0,0,0,2,0Z"/></svg>
