<svg xmlns="http://www.w3.org/2000/svg" width="66.253" height="75.788" viewBox="0 0 66.253 75.788"><path d="M85.532,25.925a25.925,25.925,0,1,0-51.85,0c-3.7.461-7.2,2.881-7.2,8.5V47.962c0,6.337,4.436,8.642,8.642,8.642H39.3a1.44,1.44,0,0,0,1.44-1.44V27.279a1.44,1.44,0,0,0-1.44-1.44H36.562a23.045,23.045,0,0,1,46.089,0H79.915a1.44,1.44,0,0,0-1.44,1.44V55.12a1.44,1.44,0,0,0,1.44,1.44h2.737C82.248,66.455,77.5,68.774,68,69.191v-.965a2.88,2.88,0,0,0-2.881-2.881H56.064a2.88,2.88,0,0,0-2.881,2.881v4.681a2.88,2.88,0,0,0,2.881,2.881h9.088a2.88,2.88,0,0,0,2.881-2.881v-.835c9.131-.418,17.024-2.3,17.5-15.6,3.7-.461,7.2-2.881,7.2-8.5V34.437C92.733,28.791,89.248,26.386,85.532,25.925ZM37.858,28.619V53.68H35.05c-2.132,0-5.761-.749-5.761-5.761V34.38c0-4.969,3.586-5.761,5.761-5.761ZM65.152,70.733v2.189H56.064V68.241h9.088Zm24.7-22.771c0,4.969-3.586,5.761-5.761,5.761H81.355v-25h2.809c2.132,0,5.761.749,5.761,5.761Z" transform="translate(-26.48)" fill="#fff"/></svg>