<svg xmlns="http://www.w3.org/2000/svg" width="56.602" height="56.599" viewBox="0 0 56.602 56.599"><g transform="translate(0 -0.011)"><g transform="translate(27.195 37.261)"><path d="M247.887,337.286a1.1,1.1,0,1,0,.324.782A1.114,1.114,0,0,0,247.887,337.286Z" transform="translate(-246 -336.962)" fill="#fff"/></g><g transform="translate(54.391 15.327)"><path d="M493.887,138.875a1.1,1.1,0,1,0,.324.782A1.114,1.114,0,0,0,493.887,138.875Z" transform="translate(-492 -138.551)" fill="#fff"/></g><g transform="translate(0 0.011)"><g transform="translate(0 0)"><path d="M55.5,11.836A1.106,1.106,0,0,0,56.6,10.731V3.321A3.317,3.317,0,0,0,53.285.011H3.317A3.317,3.317,0,0,0,0,3.321V40.137a3.317,3.317,0,0,0,3.317,3.31H22.35v6A6.087,6.087,0,0,0,16.764,55.5,1.106,1.106,0,0,0,17.87,56.61H38.732A1.106,1.106,0,0,0,39.837,55.5a6.087,6.087,0,0,0-5.585-6.059v-6H53.285a3.317,3.317,0,0,0,3.317-3.31V21.053a1.106,1.106,0,0,0-2.211,0V33.289H10.871a1.106,1.106,0,0,0,0,2.211h43.52v4.637a1.1,1.1,0,0,1-1.106,1.1H3.317a1.1,1.1,0,0,1-1.106-1.1V3.321a1.1,1.1,0,0,1,1.106-1.1H53.285a1.1,1.1,0,0,1,1.106,1.1v7.409A1.106,1.106,0,0,0,55.5,11.836ZM24.561,43.566h7.48v5.859h-7.48Zm-1.106,8.07h10.3A3.877,3.877,0,0,1,37.466,54.4H19.136a3.877,3.877,0,0,1,3.709-2.764Z" transform="translate(0 -0.011)" fill="#fff"/></g></g><g transform="translate(5.085 33.289)"><path d="M47.887,301.355a1.1,1.1,0,1,0,.324.781A1.114,1.114,0,0,0,47.887,301.355Z" transform="translate(-46 -301.031)" fill="#fff"/></g><g transform="translate(40.497 4.322)"><path d="M369.373,42.54a.682.682,0,1,1,0-1.325h1.047a1.106,1.106,0,1,0,0-2.211h-1.047a2.879,2.879,0,1,0,0,5.747.682.682,0,1,1,0,1.325h-1.948a1.106,1.106,0,1,0,0,2.211h1.948a2.879,2.879,0,1,0,0-5.747Z" transform="translate(-366.32 -39.004)" fill="#fff"/></g><g transform="translate(9.01 4.433)"><path d="M86.993,40.011H82.606a1.106,1.106,0,1,0,0,2.211h1.088v5.854a1.106,1.106,0,1,0,2.211,0V42.222h1.088a1.106,1.106,0,0,0,0-2.211Z" transform="translate(-81.5 -40.011)" fill="#fff"/></g><g transform="translate(25.001 4.432)"><path d="M230.771,44.589,232.6,41.7a1.105,1.105,0,1,0-1.867-1.184l-1.275,2.01-1.275-2.01A1.105,1.105,0,1,0,226.32,41.7l1.833,2.89-1.833,2.89a1.105,1.105,0,1,0,1.867,1.184l1.275-2.01,1.275,2.01A1.105,1.105,0,1,0,232.6,47.48Z" transform="translate(-226.148 -40.001)" fill="#fff"/></g><g transform="translate(15.528 4.486)"><path d="M148.447,48.07l-2.934-6.908a1.105,1.105,0,0,0-2.035,0l-2.934,6.908a1.106,1.106,0,0,0,2.035.864l.205-.483h3.422l.205.483a1.105,1.105,0,0,0,2.035-.864Zm-4.723-1.83.772-1.818.772,1.818Z" transform="translate(-140.456 -40.489)" fill="#fff"/></g><g transform="translate(33.594 4.432)"><path d="M307.844,46.968h-1.753V45.7h.58a1.106,1.106,0,0,0,0-2.211h-.58V42.214h1.753a1.106,1.106,0,0,0,0-2.211h-2.858a1.106,1.106,0,0,0-1.106,1.106v6.965a1.106,1.106,0,0,0,1.106,1.106h2.858a1.106,1.106,0,0,0,0-2.211Z" transform="translate(-303.88 -40.003)" fill="#fff"/></g><g transform="translate(16.885 18.696)"><path d="M156.09,169.032h-2.252a1.106,1.106,0,0,0-1.106,1.106v7.075a1.106,1.106,0,1,0,2.211,0v-2.432h1.147a2.874,2.874,0,0,0,0-5.749Zm0,3.538h-1.147v-1.327h1.147a.663.663,0,0,1,0,1.327Z" transform="translate(-152.732 -169.032)" fill="#fff"/></g><g transform="translate(31.191 18.696)"><path d="M288.724,169.256a1.105,1.105,0,0,0-1.549.212l-1.522,2.006-1.523-2.006a1.106,1.106,0,0,0-1.761,1.337l2.178,2.869v3.508a1.106,1.106,0,1,0,2.211,0v-3.508l2.178-2.869A1.106,1.106,0,0,0,288.724,169.256Z" transform="translate(-282.144 -169.031)" fill="#fff"/></g><g transform="translate(23.232 18.696)"><path d="M218.294,176.764l-3.014-7.06a1.105,1.105,0,0,0-2.033,0l-2.379,5.573,0,.01-.63,1.477a1.106,1.106,0,0,0,2.034.868l.347-.814h3.3l.347.814a1.106,1.106,0,0,0,2.033-.868Zm-4.736-2.157.706-1.654.706,1.654Z" transform="translate(-210.144 -169.032)" fill="#fff"/></g><g transform="translate(9.01 15.601)"><path d="M115.771,141.032H84.816a3.32,3.32,0,0,0-3.316,3.316v8.845h0a3.32,3.32,0,0,0,3.316,3.316h30.955a3.32,3.32,0,0,0,3.316-3.316v-8.845A3.32,3.32,0,0,0,115.771,141.032Zm1.105,12.161a1.106,1.106,0,0,1-1.105,1.105H84.816a1.106,1.106,0,0,1-1.105-1.105v-8.845h0a1.106,1.106,0,0,1,1.105-1.1h30.955a1.106,1.106,0,0,1,1.105,1.1Z" transform="translate(-81.5 -141.032)" fill="#fff"/></g></g></svg>