<?xml version="1.0"?>
<svg xmlns="http://www.w3.org/2000/svg" xmlns:xlink="http://www.w3.org/1999/xlink" xmlns:svgjs="http://svgjs.com/svgjs" version="1.1" width="512" height="512" x="0" y="0" viewBox="0 0 512 512" style="enable-background:new 0 0 512 512" xml:space="preserve" class=""><g><g xmlns="http://www.w3.org/2000/svg"><path d="M476,56H36A28.031,28.031,0,0,0,8,84V364a28.031,28.031,0,0,0,28,28H196.18l-9.6,24H144a8,8,0,0,0-8,8v16H88a8,8,0,0,0,0,16H424a8,8,0,0,0,0-16H376V424a8,8,0,0,0-8-8H325.42l-9.6-24H476a28.031,28.031,0,0,0,28-28V84A28.031,28.031,0,0,0,476,56ZM360,432v8H152v-8ZM203.82,416l9.6-24h85.16l9.6,24ZM488,364a12.01,12.01,0,0,1-12,12H36a12.01,12.01,0,0,1-12-12V344H488Zm0-36H24V84A12.01,12.01,0,0,1,36,72H476a12.01,12.01,0,0,1,12,12Z" fill="#0f3764" data-original="#000000"/><path d="M256,256a48,48,0,1,0-48-48A48.053,48.053,0,0,0,256,256Zm0-80a32,32,0,1,1-32,32A32.036,32.036,0,0,1,256,176Z" fill="#0f3764" data-original="#000000"/><path d="M149.306,254.347C184.811,281.6,221.705,296,256,296s71.189-14.4,106.694-41.653a277.63,277.63,0,0,0,43.535-41.327,8,8,0,0,0,0-10.04,277.63,277.63,0,0,0-43.535-41.327C327.189,134.4,290.3,120,256,120s-71.189,14.4-106.694,41.653a277.63,277.63,0,0,0-43.535,41.327,8,8,0,0,0,0,10.04A277.63,277.63,0,0,0,149.306,254.347ZM256,136c63.367,0,117.938,54.892,133.4,72-15.464,17.108-70.035,72-133.4,72s-117.939-54.894-133.4-72C138.062,190.892,192.633,136,256,136Z" fill="#0f3764" data-original="#000000"/></g></g></svg>
