<svg height="682pt" viewBox="-21 -21 682 682.66535" width="682pt" xmlns="http://www.w3.org/2000/svg"><path d="m515.816406 45h-259.453125c-6.90625 0-12.5 5.59375-12.5 12.5 0 6.902344 5.59375 12.5 12.5 12.5h259.453125c6.902344 0 12.5-5.597656 12.5-12.5 0-6.90625-5.597656-12.5-12.5-12.5zm0 0"/><path d="m120.78125 45c-3.285156 0-6.511719 1.335938-8.835938 3.660156-2.324218 2.324219-3.664062 5.554688-3.664062 8.839844s1.339844 6.511719 3.664062 8.835938c2.324219 2.324218 5.550782 3.664062 8.835938 3.664062s6.515625-1.339844 8.839844-3.664062c2.324218-2.324219 3.660156-5.550782 3.660156-8.835938s-1.335938-6.515625-3.660156-8.839844c-2.324219-2.324218-5.554688-3.660156-8.839844-3.660156zm0 0"/><path d="m74.84375 45c-3.285156 0-6.511719 1.335938-8.835938 3.660156-2.324218 2.324219-3.664062 5.554688-3.664062 8.839844s1.339844 6.511719 3.664062 8.835938c2.324219 2.324218 5.550782 3.664062 8.835938 3.664062s6.515625-1.339844 8.839844-3.664062c2.324218-2.324219 3.660156-5.550782 3.660156-8.835938s-1.335938-6.515625-3.660156-8.839844c-2.324219-2.324218-5.554688-3.660156-8.839844-3.660156zm0 0"/><path d="m166.71875 45c-3.300781 0-6.511719 1.335938-8.835938 3.660156-2.339843 2.324219-3.664062 5.554688-3.664062 8.839844s1.324219 6.511719 3.664062 8.835938c2.324219 2.324218 5.535157 3.664062 8.835938 3.664062 3.285156 0 6.5-1.339844 8.839844-3.664062 2.324218-2.324219 3.660156-5.550782 3.660156-8.835938s-1.335938-6.515625-3.660156-8.839844c-2.339844-2.324218-5.554688-3.660156-8.839844-3.660156zm0 0"/><path d="m243.546875 471.160156c-2.324219-2.328125-5.554687-3.664062-8.839844-3.664062-3.285156 0-6.511719 1.335937-8.835937 3.664062-2.324219 2.324219-3.664063 5.546875-3.664063 8.835938 0 3.289062 1.339844 6.511718 3.664063 8.835937 2.324218 2.324219 5.550781 3.664063 8.835937 3.664063 3.285157 0 6.515625-1.339844 8.839844-3.664063s3.660156-5.546875 3.660156-8.835937c0-3.300782-1.335937-6.511719-3.660156-8.835938zm0 0"/><path d="m590.289062 337.710938c.019532-.285157.039063-.5625.039063-.851563v-294.359375c0-23.4375-19.0625-42.5-42.5-42.5h-504.996094c-23.433593 0-42.5 19.0625-42.5 42.5v407.496094c0 23.4375 19.066407 42.5 42.5 42.5h143.75c6.90625 0 12.5-5.597656 12.5-12.5s-5.59375-12.5-12.5-12.5h-143.75c-9.648437 0-17.5-7.847656-17.5-17.5v-335c.050781 0 .09375.003906.136719.003906h539.859375v197.695312l-69.683594-69.683593c-8.734375-8.734375-20.347656-13.542969-32.699219-13.542969-12.355468 0-23.972656 4.808594-32.707031 13.542969-5.84375 5.839843-9.925781 12.972656-11.996093 20.753906-6.679688-3.628906-14.195313-5.554687-22.011719-5.554687-12.355469 0-23.964844 4.816406-32.699219 13.550781-9.402344 9.394531-13.902344 21.867187-13.503906 34.210937-.507813-.019531-1.015625-.03125-1.527344-.03125-12.351562 0-23.96875 4.816406-32.703125 13.550782-5.3125 5.3125-9.175781 11.695312-11.386719 18.660156l-61.070312-61.066406c-18.03125-18.035157-47.371094-18.035157-65.40625 0-18.03125 18.03125-18.03125 47.371093 0 65.402343l160.09375 160.09375-32.773438-7.949219c-25.496094-6.1875-50.800781 8.816407-57.585937 34.167969-6.464844 24.113281 6.9375 49.433594 30.511719 57.65625l125.011718 43.589844c18.996094 6.621094 38.824219 9.953125 58.710938 9.953125 13.332031 0 26.679687-1.496094 39.820312-4.503906 32.746094-7.496094 62.601563-24.007813 86.351563-47.757813 68.808593-68.808593 69.542969-180.300781 2.214843-250.027343zm-564.820312-247.710938c-.042969 0-.085938.003906-.136719.003906v-47.503906c0-9.648438 7.851563-17.5 17.5-17.5h505c9.648438 0 17.5 7.851562 17.5 17.5v47.5zm544.929688 480.0625c-41.351563 41.351562-103.753907 55.628906-158.972657 36.375l-125.019531-43.585938c-11.273438-3.933593-17.683594-16.046874-14.59375-27.578124 2.753906-10.289063 11.878906-17.011719 22.027344-17.011719 1.820312 0 3.671875.214843 5.519531.664062l76.046875 18.449219c5.441406 1.328125 11.101562-1.136719 13.839844-6.023438 2.746094-4.882812 1.90625-10.996093-2.054688-14.960937l-191.582031-191.578125c-8.285156-8.285156-8.285156-21.765625 0-30.050781 8.289063-8.28125 21.769531-8.28125 30.054687 0l90.136719 90.136719c0 .003906.003907.003906.003907.007812l64.84375 64.84375c2.441406 2.4375 5.640624 3.65625 8.839843 3.65625 3.195313 0 6.398438-1.21875 8.839844-3.65625 4.878906-4.882812 4.878906-12.796875 0-17.679688l-64.84375-64.84375c-.003906-.003906-.003906-.003906-.007813-.003906-4.015624-4.015625-6.222656-9.351562-6.222656-15.03125 0-5.671875 2.207032-11.011718 6.222656-15.023437 4.011719-4.015625 9.351563-6.226563 15.027344-6.226563 5.675782 0 11.011719 2.210938 15.027344 6.226563l68.222656 68.21875c2.441406 2.441406 5.636719 3.660156 8.835938 3.660156 3.199218 0 6.398437-1.21875 8.839844-3.660156 4.882812-4.878907 4.882812-12.792969 0-17.675781l-68.21875-68.222657c-8.285157-8.289062-8.285157-21.769531 0-30.050781 4.011718-4.011719 9.351562-6.226562 15.023437-6.226562 5.675781 0 11.011719 2.214843 15.023437 6.226562l18.976563 18.976562c.003906 0 .003906.003907.007813.003907l49.863281 49.863281c2.441406 2.441406 5.640625 3.660156 8.839843 3.660156 3.199219 0 6.402344-1.21875 8.835938-3.660156 4.882812-4.878906 4.882812-12.792969 0-17.675781l-49.863281-49.867188c-4.011719-4.011719-6.222657-9.347656-6.222657-15.027343 0-5.675782 2.210938-11.007813 6.222657-15.023438 4.015625-4.011719 9.351562-6.226562 15.027343-6.226562 5.675782 0 11.015626 2.214843 15.027344 6.226562l92.433594 92.425781c59.804688 59.816407 59.804688 157.132813-.007812 216.949219zm0 0"/><path d="m218.753906 227.445312v-26.914062c0-6.902344-5.59375-12.5-12.5-12.5-6.902344 0-12.5 5.597656-12.5 12.5v26.914062c0 6.90625 5.597656 12.5 12.5 12.5 6.90625 0 12.5-5.59375 12.5-12.5zm0 0"/><path d="m100.023438 294.261719c-6.902344 0-12.5 5.597656-12.5 12.5 0 6.90625 5.597656 12.5 12.5 12.5h26.914062c6.90625 0 12.5-5.59375 12.5-12.5 0-6.902344-5.59375-12.5-12.5-12.5zm0 0"/><path d="m151.363281 264.371094c3.199219 0 6.394531-1.222656 8.835938-3.664063 4.882812-4.878906 4.882812-12.792969 0-17.675781l-46.707031-46.707031c-4.882813-4.882813-12.796876-4.882813-17.675782 0-4.882812 4.875-4.882812 12.792969 0 17.675781l46.707032 46.707031c2.441406 2.441407 5.640624 3.664063 8.839843 3.664063zm0 0"/></svg>