<?xml version="1.0" encoding="UTF-8"?>
<svg xmlns="http://www.w3.org/2000/svg" viewBox="0 0 64 64" width="512" height="512"><g id="Ikon"><path d="M60.38,23.55,53,19.73V9a3.0088,3.0088,0,0,0-3-3H14a3.0088,3.0088,0,0,0-3,3V19.73L3.62,23.55A2.9951,2.9951,0,0,0,2,26.22V55a3.0088,3.0088,0,0,0,3,3H59a3.0088,3.0088,0,0,0,3-3V26.22A2.9951,2.9951,0,0,0,60.38,23.55ZM23.33,41,4,54.8888V26.8128Zm6.92-2.51a3.0035,3.0035,0,0,1,3.5,0L58.1123,56H5.8965Zm10.44,2.53L60,27.01V54.8987ZM59.1327,25.1608,53,29.61V21.99ZM13,9a1.0029,1.0029,0,0,1,1-1H50a1.0029,1.0029,0,0,1,1,1V31.06L38.98,39.79l-4.06-2.92a4.9838,4.9838,0,0,0-5.84,0l-4.05,2.91L13,30.89ZM11,29.43,5.0188,25.0825,11,21.99Z"/><path d="M32,27.4443a5.5,5.5,0,1,1,5.5-5.5A5.5062,5.5062,0,0,1,32,27.4443Zm0-9a3.5,3.5,0,1,0,3.5,3.5A3.5042,3.5042,0,0,0,32,18.4443Z"/><path d="M41.7427,19.3076H41.08a9.3019,9.3019,0,0,0-.7525-1.8276l.4659-.4658a2.2611,2.2611,0,0,0-.0005-3.1919l-.6158-.6158a2.2606,2.2606,0,0,0-3.1918.0005l-.4541.4541a9.3562,9.3562,0,0,0-1.8389-.7666v-.6372A2.26,2.26,0,0,0,32.4351,10h-.87a2.26,2.26,0,0,0-2.2573,2.2573v.6372a9.3528,9.3528,0,0,0-1.8388.7666l-.4546-.4546a2.261,2.261,0,0,0-3.1914,0l-.6163.6163a2.261,2.261,0,0,0,.0005,3.1918l.4654.4654a9.3019,9.3019,0,0,0-.7525,1.8276h-.6626A2.26,2.26,0,0,0,20,21.5649v.87a2.26,2.26,0,0,0,2.2573,2.2573h.6812a9.3387,9.3387,0,0,0,.7558,1.8056l-.4878.4878a2.2617,2.2617,0,0,0,.0005,3.1924l.6158.6148a2.26,2.26,0,0,0,3.1918,0l.4986-.4986a9.3294,9.3294,0,0,0,1.7944.7442v.7041A2.26,2.26,0,0,0,31.5649,34h.87a2.26,2.26,0,0,0,2.2573-2.2573v-.7041a9.3294,9.3294,0,0,0,1.7944-.7442l.499.4991a2.2607,2.2607,0,0,0,3.1919-.0005l.6158-.6158a2.261,2.261,0,0,0-.0005-3.1918l-.4873-.4874a9.3387,9.3387,0,0,0,.7558-1.8056h.6812A2.26,2.26,0,0,0,44,22.4351v-.87A2.26,2.26,0,0,0,41.7427,19.3076ZM42,22.4351a.2574.2574,0,0,1-.2573.2573H40.2842a1,1,0,0,0-.979.7973,7.3805,7.3805,0,0,1-1.0928,2.607,1,1,0,0,0,.125,1.2617l1.041,1.0405a.2587.2587,0,0,1,.0005.3648l-.6147.6147a.2591.2591,0,0,1-.3648.0005L37.35,28.33a.9989.9989,0,0,0-1.2568-.1284,7.3843,7.3843,0,0,1-2.6,1.0771,1,1,0,0,0-.8008.98v1.4844A.2574.2574,0,0,1,32.4351,32h-.87a.2574.2574,0,0,1-.2573-.2573V30.2583a1,1,0,0,0-.8008-.98,7.3843,7.3843,0,0,1-2.6-1.0771A1,1,0,0,0,26.65,28.33l-1.0488,1.0488a.2576.2576,0,0,1-.3643,0l-.6152-.6142a.2581.2581,0,0,1-.0005-.3643l1.0415-1.0415a1,1,0,0,0,.125-1.2617,7.3805,7.3805,0,0,1-1.0928-2.607,1,1,0,0,0-.979-.7973H22.2573A.2574.2574,0,0,1,22,22.4351v-.87a.2574.2574,0,0,1,.2573-.2573h1.4458a1,1,0,0,0,.981-.8047,7.3825,7.3825,0,0,1,1.0815-2.63,1,1,0,0,0-.1284-1.2568l-1.0156-1.0151a.2581.2581,0,0,1-.0005-.3643l.6157-.6157a.2579.2579,0,0,1,.3638,0l1.0078,1.0078a1,1,0,0,0,1.2612.1255,7.3811,7.3811,0,0,1,2.6367-1.0991,1,1,0,0,0,.8013-.98v-1.418A.2574.2574,0,0,1,31.5649,12h.87a.2574.2574,0,0,1,.2573.2573v1.418a1,1,0,0,0,.8013.98A7.3811,7.3811,0,0,1,36.13,15.7544a1.001,1.001,0,0,0,1.2612-.1255l1.0073-1.0073a.2591.2591,0,0,1,.3648-.0005l.6147.6147a.2587.2587,0,0,1,.0005.3648l-1.0161,1.0161a1,1,0,0,0-.1284,1.2568,7.3735,7.3735,0,0,1,1.0815,2.6294,1,1,0,0,0,.981.8047h1.4458A.2574.2574,0,0,1,42,21.5649Z"/></g></svg>
