<svg id="Capa_1" enable-background="new 0 0 512 512" height="512" viewBox="0 0 512 512" width="512" xmlns="http://www.w3.org/2000/svg"><g><circle cx="205.5" cy="10" r="10"/><path d="m308.758 184.564c5.523 0 10-4.478 10-10 0-5.523-4.477-10-10-10h-33.588c-5.523 0-10 4.477-10 10v82.873c0 5.523 4.477 10 10 10s10-4.477 10-10v-32.222h20.92c5.523 0 10-4.477 10-10 0-5.522-4.477-10-10-10h-20.92v-20.651z"/><path d="m177.627 263.603c1.874 1.86 4.406 2.903 7.045 2.903h.038c.693-.003 17.053-.065 23.589-.18 24.261-.424 41.87-21.59 41.87-50.327 0-30.21-17.166-50.507-42.716-50.507h-22.945c-2.655 0-5.202 1.057-7.078 2.936-1.876 1.88-2.927 4.428-2.922 7.083.19 2.035-.368 79.793.197 81.657.162 2.423 1.188 4.715 2.922 6.435zm29.826-78.11c16.749 0 22.716 15.759 22.716 30.507 0 14.903-6.871 30.062-22.22 30.331-3.055.053-8.469.096-13.311.125-.084-23.234-.066-37.013-.112-60.963z"/><path d="m102.242 164.258c-5.373-.105-10.093 4.635-10 10v83.484c0 5.522 4.477 10 10 10s10-4.478 10-10v-26.317c4.801-.025 10.195-.048 13.246-.048 18.759 0 34.021-15.055 34.021-33.56s-15.262-33.56-34.021-33.56h-23.246zm37.266 33.559c0 7.35-6.42 13.56-14.021 13.56-3.04 0-8.363.023-13.139.048-.062-11.351-.041-15.49-.077-27.167h13.216c7.601 0 14.021 6.21 14.021 13.559z"/><path d="m390.5 292.37v-202.37c0-2.652-1.054-5.195-2.929-7.071l-80-80c-1.875-1.875-4.419-2.929-7.071-2.929h-49.99c-5.523 0-10 4.477-10 10s4.477 10 10 10h39.99v60c0 11.028 8.972 20 20 20h60v192.548c-55.509 5.537-99 52.51-99 109.452 0 6.829.631 13.512 1.827 20h-232.827v-402h119.99c5.523 0 10-4.477 10-10s-4.477-10-10-10h-119.99c-11.028 0-20 8.972-20 20v472c0 11.028 8.972 20 20 20h340c.068 0 .133-.009.201-.01.267.002.532.01.799.01 60.654 0 110-49.346 110-110 0-57.624-44.54-105.036-101-109.63zm-80-258.228 45.857 45.858h-45.857zm-270 457.858v-50h238.53c7.943 20.277 21.739 37.638 39.298 50zm341 0c-49.626 0-90-40.374-90-90s40.374-90 90-90 90 40.374 90 90-40.374 90-90 90z"/><path d="m402.482 416.875-10.982 10.982v-75.857c0-5.522-4.477-10-10-10s-10 4.478-10 10v75.857l-10.982-10.982c-3.906-3.903-10.237-3.904-14.142 0-3.905 3.905-3.906 10.237-.001 14.143l28.053 28.054c1.876 1.875 4.419 2.929 7.071 2.929s5.196-1.054 7.071-2.929l28.053-28.054c3.905-3.905 3.905-10.237 0-14.143-3.904-3.904-10.236-3.904-14.141 0z"/></g></svg>