<svg height="512" viewBox="0 0 128 128" width="512" xmlns="http://www.w3.org/2000/svg"><path d="m106.386 42.911a1.729 1.729 0 0 0 -.151-.424c-.017-.035-.035-.068-.054-.1a1.731 1.731 0 0 0 -.274-.37l-24.25-24.25a1.714 1.714 0 0 0 -.372-.275c-.032-.019-.063-.035-.1-.052a1.744 1.744 0 0 0 -.769-.186h-34.834a8.672 8.672 0 0 0 -8.662 8.662v33.664h-10.33a5.016 5.016 0 0 0 -5.01 5.01v29.32a5.016 5.016 0 0 0 5.01 5.01h10.33v3.168a8.672 8.672 0 0 0 8.662 8.662h52.176a8.672 8.672 0 0 0 8.662-8.662v-58.838a1.74 1.74 0 0 0 -.034-.339zm-5.941-1.411h-13.113a5.167 5.167 0 0 1 -5.162-5.162v-13.113l9.137 9.137zm-75.365 52.41v-29.32a1.512 1.512 0 0 1 1.51-1.51h50.57a1.512 1.512 0 0 1 1.51 1.51v29.32a1.512 1.512 0 0 1 -1.51 1.51h-50.57a1.512 1.512 0 0 1 -1.51-1.51zm72.678 13.34h-52.176a5.168 5.168 0 0 1 -5.162-5.162v-3.168h36.74a5.016 5.016 0 0 0 5.01-5.01v-29.32a5.016 5.016 0 0 0 -5.01-5.01h-36.74v-33.668a5.168 5.168 0 0 1 5.162-5.162h33.088v15.588a8.672 8.672 0 0 0 8.662 8.662h15.588v57.088a5.168 5.168 0 0 1 -5.162 5.162z"/><path d="m42.781 86.462h3.675l-5.291-7.243 5.291-7.181h-3.612l-3.464 4.724-3.464-4.724h-3.654l5.27 7.244-5.27 7.18h3.591l3.485-4.723z"/><path d="m58.426 83.67h-7.18v-11.632h-3.108v14.424h10.288z"/><path d="m66.008 84.09a7.122 7.122 0 0 1 -4.745-1.89l-1.785 2.121a9.268 9.268 0 0 0 6.4 2.393c3.527 0 5.606-1.827 5.606-4.577 0-2.666-2.058-3.59-5.165-4.283-2.226-.5-3.087-.84-3.087-1.89 0-.86.8-1.553 2.121-1.553a6.683 6.683 0 0 1 4.115 1.595l1.617-2.225a8.331 8.331 0 0 0 -5.648-2c-3.149 0-5.333 1.827-5.333 4.494 0 2.792 2.163 3.652 5.207 4.345 2.2.5 3.044.819 3.044 1.848.004.907-.793 1.622-2.347 1.622z"/></svg>