<svg id="Layer_1" enable-background="new 0 0 24 24" height="512" viewBox="0 0 24 24" width="512" xmlns="http://www.w3.org/2000/svg"><g><path d="m17 19c-3.859 0-7-3.141-7-7s3.141-7 7-7 7 3.141 7 7-3.141 7-7 7zm0-13c-3.309 0-6 2.691-6 6s2.691 6 6 6 6-2.691 6-6-2.691-6-6-6z"/></g><g><path d="m17 15c-1.654 0-3-1.346-3-3s1.346-3 3-3 3 1.346 3 3-1.346 3-3 3zm0-5c-1.103 0-2 .897-2 2s.897 2 2 2 2-.897 2-2-.897-2-2-2z"/></g><g><path d="m11.52 16h-7.52c-1.074 0-2.078-.419-2.826-1.18-.755-.742-1.174-1.746-1.174-2.82 0-2.206 1.794-4 4-4h7.52c.276 0 .5.224.5.5s-.224.5-.5.5h-7.52c-1.654 0-3 1.346-3 3 0 .805.312 1.555.881 2.113.564.575 1.314.887 2.119.887h7.52c.276 0 .5.224.5.5s-.224.5-.5.5z"/></g></svg>