<svg id="Capa_1" enable-background="new 0 0 511.982 511.982" height="512" viewBox="0 0 511.982 511.982" width="512" xmlns="http://www.w3.org/2000/svg"><g><g><path d="m273.063 387.013h-34.143c-4.143 0-7.5 3.358-7.5 7.5 0 4.143 3.358 7.5 7.5 7.5h34.144c4.143 0 7.5-3.357 7.5-7.5 0-4.142-3.358-7.5-7.501-7.5z"/><path d="m478.883 72.011h-163.102l-32.469-56.238c-5.702-9.876-15.915-15.773-27.319-15.773s-21.617 5.897-27.319 15.773l-7.27 12.591c-2.071 3.587-.842 8.174 2.745 10.245 3.585 2.07 8.174.842 10.245-2.745l7.27-12.591c2.99-5.18 8.347-8.273 14.329-8.273s11.338 3.093 14.329 8.273l134.845 233.559c2.99 5.18 2.99 11.366 0 16.544-2.99 5.18-8.347 8.273-14.329 8.273h-269.691c-5.982 0-11.338-3.093-14.329-8.273-2.99-5.179-2.99-11.365 0-16.544l110.309-191.06c2.072-3.587.842-8.174-2.745-10.245-3.589-2.07-8.176-.843-10.245 2.745l-7.933 13.74h-163.104c-18.1 0-32.825 14.725-32.825 32.825v296.537c0 18.099 14.725 32.824 32.825 32.824h166.779c-.558 17.122-2.264 46.736-6.11 62.783h-25.993c-4.143 0-7.5 3.357-7.5 7.5s3.358 7.5 7.5 7.5h176.431c4.143 0 7.5-3.357 7.5-7.5s-3.358-7.5-7.5-7.5h-25.992c-3.844-16.042-5.551-45.66-6.11-62.783h166.779c18.099 0 32.824-14.725 32.824-32.824v-296.537c0-18.101-14.726-32.826-32.825-32.826zm-463.608 32.826c0-9.829 7.996-17.825 17.825-17.825h154.444l-11.201 19.4h-126.224c-10.243 0-18.575 8.332-18.575 18.575v229.841h-16.269zm193.841 392.145c3.967-19.424 5.331-49.057 5.767-62.783h82.218c.436 13.726 1.8 43.36 5.767 62.783zm287.591-95.608c0 9.829-7.995 17.824-17.824 17.824h-445.783c-9.829 0-17.825-7.995-17.825-17.824v-31.546h323.01c4.143 0 7.5-3.357 7.5-7.5s-3.358-7.5-7.5-7.5h-291.74v-229.841c0-1.971 1.604-3.574 3.574-3.574h117.563l-73.854 127.919c-5.702 9.876-5.702 21.67 0 31.546 5.701 9.875 15.915 15.772 27.319 15.772h269.691c11.405 0 21.618-5.897 27.319-15.772 5.702-9.876 5.702-21.67 0-31.546l-73.854-127.919h117.561c1.971 0 3.574 1.604 3.574 3.574v229.841h-91.261c-4.143 0-7.5 3.357-7.5 7.5s3.357 7.5 7.5 7.5h122.53zm0-46.546h-16.268v-229.841c0-10.243-8.333-18.575-18.575-18.575h-126.222l-11.201-19.4h154.441c9.829 0 17.824 7.996 17.824 17.825v249.991z"/><path d="m255.993 261.434c14.36 0 26.042-11.682 26.042-26.042s-11.682-26.042-26.042-26.042-26.042 11.682-26.042 26.042 11.682 26.042 26.042 26.042zm0-37.083c6.088 0 11.042 4.953 11.042 11.041s-4.953 11.041-11.042 11.041-11.042-4.953-11.042-11.041 4.954-11.041 11.042-11.041z"/><path d="m256.155 196.526c13.487 0 24.46-10.972 24.46-24.459v-80.975c0-13.487-10.973-24.46-24.46-24.46s-24.46 10.973-24.46 24.46v80.975c0 13.487 10.973 24.459 24.46 24.459zm-9.459-105.434c0-5.216 4.243-9.459 9.459-9.459s9.459 4.243 9.459 9.459v80.975c0 5.215-4.243 9.458-9.459 9.458s-9.459-4.243-9.459-9.458z"/></g></g></svg>