<svg height="512" viewBox="0 0 64 64" width="512" xmlns="http://www.w3.org/2000/svg"><g id="shopping_&#xB7;_shop_&#xB7;_ecommerce_&#xB7;_bill_&#xB7;_online" data-name="shopping &#xB7; shop &#xB7; ecommerce &#xB7; bill &#xB7; online"><path d="m59 44.88v-29.88a3.009 3.009 0 0 0 -3-3h-4v-2h7a1 1 0 0 0 1-1v-2a5 5 0 0 0 -5-5h-34a5 5 0 0 0 -5 5v5h-8a3.009 3.009 0 0 0 -3 3v29.88l-2.97 11.88-.03 2.24a3.009 3.009 0 0 0 3 3h54a3.009 3.009 0 0 0 3-3v-2zm-7-37.88a3 3 0 1 1 6 0v1h-6zm0 11h1v22h-1zm2 24a1 1 0 0 0 1-1v-24a1 1 0 0 0 -1-1h-2v-2h4a1 1 0 0 1 1 1v29h-6.03a4.84 4.84 0 0 0 .93-2zm-36-35a3.009 3.009 0 0 1 3-3h30.03a4.924 4.924 0 0 0 -1.03 3v2c0 .01.01.02.01.03s-.01.02-.01.03v31.94a3 3 0 0 1 -6 0v-4a1 1 0 0 0 -1-1h-25zm24 31v3a4.985 4.985 0 0 0 1 3h-26a3.009 3.009 0 0 1 -3-3v-3zm-29-2a1 1 0 0 0 -1 1v3h-1v-22h5v18zm-6-21a1 1 0 0 1 1-1h8v2h-6a1 1 0 0 0 -1 1v24a1 1 0 0 0 1 1h2.1a4.84 4.84 0 0 0 .93 2h-6.03zm-.22 31h50.44l2.5 10h-19.94l-.81-3.24a1 1 0 0 0 -.97-.76h-12a1 1 0 0 0 -.97.76l-.81 3.24h-19.94zm30.94 10h-11.44l.5-2h10.44zm22.28 3a1 1 0 0 1 -1 1h-54a1 1 0 0 1 -1-1v-1h56z"/><path d="m37 48h2v2h-2z"/><path d="m9 48h2v2h-2z"/><path d="m13 48h2v2h-2z"/><path d="m17 48h2v2h-2z"/><path d="m21 48h2v2h-2z"/><path d="m41 48h2v2h-2z"/><path d="m45 48h2v2h-2z"/><path d="m49 48h2v2h-2z"/><path d="m25 48h2v2h-2z"/><path d="m29 48h2v2h-2z"/><path d="m33 48h2v2h-2z"/><path d="m53 48h2v2h-2z"/><path d="m41 52h6v2h-6z"/><path d="m49 52h2v2h-2z"/><path d="m53 52h2v2h-2z"/><path d="m9 52h2v2h-2z"/><path d="m13 52h2v2h-2z"/><path d="m17 52h6v2h-6z"/><path d="m34 16c-1.221 0-2-.592-2-1a1 1 0 0 0 -2 0c0 1.421 1.259 2.571 3 2.9v1.1a1 1 0 0 0 2 0v-1.1c1.741-.327 3-1.477 3-2.9 0-1.682-1.757-3-4-3-1.221 0-2-.592-2-1s.779-1 2-1 2 .592 2 1a1 1 0 0 0 2 0c0-1.421-1.259-2.571-3-2.9v-1.1a1 1 0 0 0 -2 0v1.1c-1.741.327-3 1.477-3 2.9 0 1.682 1.757 3 4 3 1.221 0 2 .592 2 1s-.779 1-2 1z"/><path d="m29 26h16a1 1 0 0 0 0-2h-16a1 1 0 0 0 0 2z"/><path d="m29 30h16a1 1 0 0 0 0-2h-16a1 1 0 0 0 0 2z"/><path d="m29 34h16a1 1 0 0 0 0-2h-16a1 1 0 0 0 0 2z"/><path d="m23 26h2a1 1 0 0 0 0-2h-2a1 1 0 0 0 0 2z"/><path d="m23 30h2a1 1 0 0 0 0-2h-2a1 1 0 0 0 0 2z"/><path d="m23 34h2a1 1 0 0 0 0-2h-2a1 1 0 0 0 0 2z"/></g></svg>