<svg id="Capa_1" enable-background="new 0 0 512 512" height="512" viewBox="0 0 512 512" width="512" xmlns="http://www.w3.org/2000/svg"><path d="m31.572 326.863c5.562 0 10.07-4.538 10.07-10.099s-4.509-10.071-10.07-10.071-10.07 4.509-10.07 10.071v.057c0 5.561 4.508 10.042 10.07 10.042z"/><path d="m474.959 353.014-57.914-31.262v-105.641c0-19.834-14.035-35.972-31.286-35.972h-9.191v-22.772c0-41.872-16.407-81.346-46.198-111.149-29.793-29.803-69.253-46.218-111.111-46.218-41.846 0-81.297 16.415-111.086 46.219s-46.194 69.277-46.194 111.148v22.772h-9.191c-17.251 0-31.286 16.137-31.286 35.972v55.767c0 5.562 4.509 10.071 10.07 10.071s10.07-4.509 10.07-10.071v-55.767c0-8.433 5.208-15.83 11.145-15.83h332.97c5.937 0 11.145 7.397 11.145 15.83v105.64l-57.999 31.295c-9.513 5.135-15.349 9.042-15.477 24.016-.211 23.724 6.55 49.075 19.552 73.314.823 1.533 1.658 3.037 2.5 4.522h-292.69c-5.937 0-11.145-7.397-11.145-15.83v-77.418c0-5.562-4.509-10.071-10.07-10.071s-10.07 4.509-10.07 10.071v77.417c0 19.834 14.035 35.972 31.286 35.972h305.844c10.411 13.818 21.959 24.579 34.53 32.092 5.423 3.246 9.617 4.87 13.813 4.869 4.194 0 8.39-1.623 13.81-4.868 19.302-11.552 36.179-30.65 50.158-56.759 13.001-24.237 19.761-49.589 19.551-73.308-.13-15.005-5.988-18.914-15.536-24.051zm-166.488-172.875h-178.395v-22.772c0-49.213 40.008-89.251 89.183-89.251 49.191 0 89.211 40.038 89.211 89.251v22.772zm47.955 0h-27.814v-22.772c0-29.069-11.419-56.498-32.153-77.237-20.732-20.736-48.148-32.156-77.2-32.156-29.048 0-56.46 11.424-77.188 32.168-20.723 20.74-32.136 48.165-32.136 77.224v22.772h-27.815v-22.772c0-75.666 61.52-137.225 137.139-137.225 75.634 0 137.167 61.559 137.167 137.225zm96.764 260.721c-12.064 22.533-26.847 39.473-42.75 48.99-1.943 1.164-2.953 1.666-3.466 1.883-.513-.217-1.523-.719-3.466-1.883-.002-.001-.005-.003-.007-.004-11.346-6.78-21.84-16.986-31.35-30.426-.053-.08-.109-.156-.164-.234-3.924-5.567-7.684-11.67-11.26-18.333-11.407-21.265-17.34-43.261-17.159-63.616.019-2.246.172-3.329.268-3.794.819-.613 2.834-1.701 4.635-2.673l58.502-31.567 58.169 31.401.275.147c1.813.976 3.842 2.067 4.669 2.684.096.47.247 1.556.267 3.805.181 20.351-5.753 42.348-17.163 63.62z"/><path d="m243.704 287.078h89.198c5.562 0 10.07-4.509 10.07-10.071s-4.509-10.071-10.07-10.071h-89.198c-5.562 0-10.07 4.509-10.07 10.071s4.508 10.071 10.07 10.071z"/><path d="m243.704 341.061h61.552c5.562 0 10.07-4.509 10.07-10.071s-4.509-10.071-10.07-10.071h-61.552c-5.562 0-10.07 4.509-10.07 10.071s4.508 10.071 10.07 10.071z"/><path d="m74.386 392.538c0 14.178 11.532 25.713 25.707 25.713h95.458c14.19 0 25.734-11.535 25.734-25.713 0-18.67-8.272-37.408-22.696-51.41-5.471-5.311-11.605-9.732-18.117-13.171 11.425-9.433 18.719-23.701 18.719-39.642 0-28.335-23.044-51.387-51.37-51.387-28.31 0-51.341 23.052-51.341 51.387 0 15.938 7.288 30.206 18.704 39.639-6.513 3.44-12.647 7.862-18.118 13.176-14.414 14-22.68 32.738-22.68 51.408zm73.435-135.469c17.22 0 31.229 14.016 31.229 31.245 0 17.228-14.009 31.244-31.229 31.244-17.204 0-31.2-14.016-31.2-31.244 0-17.229 13.996-31.245 31.2-31.245zm0 82.631c27.409 0 53.323 25.678 53.323 52.837 0 3.021-2.562 5.571-5.593 5.571h-95.458c-3.017 0-5.566-2.551-5.566-5.571 0-27.159 25.9-52.837 53.294-52.837z"/><path d="m428.712 389.503-28.773 29.517-9.989-9.351c-4.061-3.802-10.434-3.592-14.234.47-3.801 4.06-3.591 10.433.469 14.235l17.194 16.096c1.941 1.817 4.413 2.719 6.881 2.719 2.623 0 5.241-1.019 7.213-3.041l35.662-36.584c3.883-3.983 3.801-10.359-.182-14.241-3.983-3.884-10.36-3.801-14.241.18z"/></svg>