<svg id="Capa_1" enable-background="new 0 0 512 512" height="512" viewBox="0 0 512 512" width="512" xmlns="http://www.w3.org/2000/svg"><g><g id="Page-1_24_"><g id="_x30_25---Computer"><path id="Shape_45_" d="m34.133 426.667h145.067v29.679l-34.645 24.081c-6.49 4.022-9.519 11.866-7.416 19.207s8.825 12.391 16.461 12.366h204.8c7.532-.008 14.168-4.951 16.331-12.165s-.659-14.993-6.944-19.143l-34.987-24.346v-29.679h145.067c18.851 0 34.133-15.282 34.133-34.133v-358.4c0-18.852-15.282-34.134-34.133-34.134h-443.734c-18.851 0-34.133 15.282-34.133 34.133v358.4c0 18.852 15.282 34.134 34.133 34.134zm324.267 68.266-204.442-.23 36.454-25.37h131.174zm-42.667-42.666h-119.466v-25.6h119.467v25.6zm162.134-42.667h-443.734c-9.426 0-17.067-7.641-17.067-17.067v-34.133h477.867v34.133c0 9.426-7.641 17.067-17.066 17.067zm-460.8-375.467c0-9.426 7.641-17.067 17.067-17.067h443.733c9.426 0 17.067 7.641 17.067 17.067v307.2h-477.867z"/><path id="Path_45_" d="m273.067 375.467h-34.133c-4.713 0-8.533 3.821-8.533 8.533s3.821 8.533 8.533 8.533h34.133c4.713 0 8.533-3.82 8.533-8.533s-3.82-8.533-8.533-8.533z"/><path id="Path_44_" d="m327.219 130.039-113.493 97.28-28.553-28.57c-2.143-2.218-5.315-3.108-8.299-2.327s-5.313 3.111-6.094 6.094c-.781 2.984.109 6.156 2.327 8.299l34.133 34.133c3.152 3.148 8.196 3.341 11.58.444l119.467-102.4c2.449-1.942 3.64-5.067 3.105-8.147-.535-3.079-2.711-5.62-5.671-6.622s-6.232-.306-8.527 1.815h.025z"/><path id="Shape_44_" d="m256 34.133c-80.118 0-145.067 64.949-145.067 145.067s64.949 145.067 145.067 145.067 145.067-64.949 145.067-145.067c-.09-80.081-64.986-144.977-145.067-145.067zm0 273.067c-70.692 0-128-57.308-128-128s57.308-128 128-128 128 57.308 128 128c-.08 70.659-57.341 127.92-128 128z"/></g></g></g></svg>