<svg xmlns="http://www.w3.org/2000/svg" width="34.476" height="43.755" viewBox="0 0 34.476 43.755">
  <g id="invoice" transform="translate(-54.291)">
    <path id="Path_21609" data-name="Path 21609" d="M128.884,40.642a.641.641,0,0,0-1.168.364v3.6a.641.641,0,1,0,1.282,0V43.062l1.268,1.836a.694.694,0,0,0,.776.281.7.7,0,0,0,.486-.7l-.034-3.489a.641.641,0,0,0-.641-.635h-.006a.641.641,0,0,0-.635.647l.015,1.581Z" transform="translate(-67.15 -36.909)" fill="#f6fbff"/>
    <path id="Path_21610" data-name="Path 21610" d="M100.511,44.609V41a.641.641,0,1,0-1.282,0v3.61a.641.641,0,0,0,1.282,0Z" transform="translate(-41.098 -36.909)" fill="#f6fbff"/>
    <path id="Path_21611" data-name="Path 21611" d="M294.019,40.358a.641.641,0,0,0-.641.641v3.61a.641.641,0,1,0,1.282,0V41A.641.641,0,0,0,294.019,40.358Z" transform="translate(-218.655 -36.909)" fill="#f6fbff"/>
    <path id="Path_21612" data-name="Path 21612" d="M382.281,41.834a.641.641,0,1,0,0-1.282h-1.507a.641.641,0,0,0-.641.641V44.77a.641.641,0,0,0,.641.641h1.507a.641.641,0,1,0,0-1.282h-.866v-.507h.755a.641.641,0,0,0,0-1.282h-.755v-.507h.866Z" transform="translate(-297.996 -37.086)" fill="#f6fbff"/>
    <path id="Path_21613" data-name="Path 21613" d="M322.9,41.639a1.158,1.158,0,0,1,.65.2.641.641,0,0,0,.718-1.062,2.446,2.446,0,1,0-1.368,4.474,2.063,2.063,0,0,0,1.629-.739.641.641,0,0,0-.983-.823.794.794,0,0,1-.082.084.82.82,0,0,1-.564.2,1.164,1.164,0,1,1,0-2.328Z" transform="translate(-243.412 -36.908)" fill="#f6fbff"/>
    <path id="Path_21614" data-name="Path 21614" d="M180.736,45.248h0a.724.724,0,0,0,.681-.494l1.179-3.548a.641.641,0,0,0-1.216-.4l-.659,1.985-.694-2a.641.641,0,1,0-1.211.42l1.236,3.56A.723.723,0,0,0,180.736,45.248Z" transform="translate(-113.854 -36.907)" fill="#f6fbff"/>
    <path id="Path_21615" data-name="Path 21615" d="M228.861,42.8a2.446,2.446,0,1,0-2.446,2.446A2.449,2.449,0,0,0,228.861,42.8Zm-3.61,0a1.164,1.164,0,1,1,1.164,1.164A1.165,1.165,0,0,1,225.251,42.8Z" transform="translate(-155.178 -36.909)" fill="#f6fbff"/>
    <path id="Path_21616" data-name="Path 21616" d="M307.543,129.342a.641.641,0,0,0,.641.641h7.711a.641.641,0,0,0,0-1.282h-7.711A.641.641,0,0,0,307.543,129.342Z" transform="translate(-231.609 -117.702)" fill="#f6fbff"/>
    <path id="Path_21617" data-name="Path 21617" d="M363.172,161.838h-3.293a.641.641,0,0,0,0,1.282h3.293a.641.641,0,0,0,0-1.282Z" transform="translate(-278.887 -148.008)" fill="#f6fbff"/>
    <path id="Path_21618" data-name="Path 21618" d="M291.536,435.48c-.191,0-.311-.135-.6-.567a1.786,1.786,0,0,0-3.332,0c-.286.433-.406.567-.6.567s-.311-.135-.6-.568a1.786,1.786,0,0,0-3.332,0c-.287.433-.406.568-.6.568a.641.641,0,1,0,0,1.282,2.012,2.012,0,0,0,1.666-1.142c.287-.433.406-.568.6-.568s.311.135.6.568a1.786,1.786,0,0,0,3.332,0c.286-.433.406-.567.6-.567s.311.135.6.567a2.011,2.011,0,0,0,1.666,1.142.641.641,0,0,0,0-1.282Z" transform="translate(-208.105 -396.702)" fill="#f6fbff"/>
    <path id="Path_21619" data-name="Path 21619" d="M88.126,32.476a.641.641,0,0,0-.641.641V41a1.474,1.474,0,0,1-1.472,1.472H57.045A1.474,1.474,0,0,1,55.573,41V2.754a1.474,1.474,0,0,1,1.472-1.472h4.471a.641.641,0,1,0,0-1.282H57.045a2.757,2.757,0,0,0-2.754,2.754V41a2.757,2.757,0,0,0,2.754,2.754H86.012A2.757,2.757,0,0,0,88.767,41V33.117A.641.641,0,0,0,88.126,32.476Z" transform="translate(0 0)" fill="#f6fbff"/>
    <path id="Path_21620" data-name="Path 21620" d="M183.9,0H161.969a.641.641,0,1,0,0,1.282H183.9a1.474,1.474,0,0,1,1.472,1.472v27.8a.641.641,0,0,0,1.282,0V2.754A2.757,2.757,0,0,0,183.9,0Z" transform="translate(-97.89)" fill="#f6fbff"/>
    <path id="Path_21621" data-name="Path 21621" d="M109.908,205.244v13.313a1.507,1.507,0,0,0,1.505,1.505h6.307a.641.641,0,0,0,0-1.282h-6.307a.224.224,0,0,1-.224-.224v-3.319h16.2v3.542h-7.1a.641.641,0,1,0,0,1.282h13.089a1.507,1.507,0,0,0,1.505-1.505V205.244a1.507,1.507,0,0,0-1.505-1.505H111.413A1.507,1.507,0,0,0,109.908,205.244Zm1.505-.224h15.972v3.543h-16.2v-3.319A.224.224,0,0,1,111.413,205.021Zm-.224,8.935v-4.111h16.2v4.111Zm22.406,0h-4.929v-4.111H133.6Zm-.224,4.824h-4.705v-3.542H133.6v3.319A.224.224,0,0,1,133.372,218.781Zm.224-13.536v3.319h-4.929v-3.543h4.705A.224.224,0,0,1,133.6,205.244Z" transform="translate(-50.864 -186.328)" fill="#f6fbff"/>
  </g>
</svg>
