<?xml version="1.0" encoding="UTF-8"?>
<svg xmlns="http://www.w3.org/2000/svg" id="Layer_1" data-name="Layer 1" viewBox="0 0 64 64" width="512" height="512"><path d="M43.594,33.589c.02-.066.095-.112.2-.112a2.2,2.2,0,0,0,2.2-2.2v-2.55a2.2,2.2,0,0,0-2.2-2.2.22.22,0,0,1-.214-.139,12.117,12.117,0,0,0-.837-2.015.221.221,0,0,1,.052-.253l.032-.033A2.2,2.2,0,0,0,42.8,21L41,19.2a2.188,2.188,0,0,0-1.557-.645h0a2.18,2.18,0,0,0-1.522.614c-.012.01-.023.021-.034.032a.223.223,0,0,1-.253.052,12.117,12.117,0,0,0-2.015-.837.22.22,0,0,1-.139-.214,2.2,2.2,0,0,0-2.2-2.2H32a14,14,0,0,0,0,28h1.275a2.2,2.2,0,0,0,2.2-2.2.22.22,0,0,1,.139-.214,12.117,12.117,0,0,0,2.015-.837.223.223,0,0,1,.253.052l.033.032a2.187,2.187,0,0,0,1.523.614h0A2.188,2.188,0,0,0,41,40.8L42.8,39a2.2,2.2,0,0,0,.031-3.08c-.01-.012-.021-.023-.032-.034a.222.222,0,0,1-.052-.254A12.1,12.1,0,0,0,43.594,33.589ZM25.29,20.071c.343.086.686.171,1.053.244a16.729,16.729,0,0,0-1.181,2.956,20.717,20.717,0,0,1-2.586-.687A12.024,12.024,0,0,1,25.29,20.071ZM21.451,35.7a11.946,11.946,0,0,1-.008-11.4,21.6,21.6,0,0,0,3.235.915,25.29,25.29,0,0,0-.006,9.572A21.084,21.084,0,0,0,21.451,35.7Zm3.84,4.234a12.112,12.112,0,0,1-2.714-2.516,20.181,20.181,0,0,1,2.582-.684,16.387,16.387,0,0,0,1.182,2.953C25.971,39.755,25.633,39.843,25.291,39.93ZM31,41.959a11.9,11.9,0,0,1-2.712-.56c.86-.107,1.774-.168,2.712-.2ZM31,39.2c-.868.025-1.718.077-2.533.167A13.309,13.309,0,0,1,27.152,36.4,36.422,36.422,0,0,1,31,36.107Zm0-5.1a38.407,38.407,0,0,0-4.347.339,23.031,23.031,0,0,1,0-8.895,38.054,38.054,0,0,0,4.35.343Zm0-10.213a36.232,36.232,0,0,1-3.854-.292,13.41,13.41,0,0,1,1.324-2.976c.819.089,1.664.144,2.53.169Zm0-5.1c-.943-.029-1.865-.088-2.738-.2A11.972,11.972,0,0,1,31,18.041Zm2,5.295a5.993,5.993,0,0,1,0,11.82ZM41.684,33a10.187,10.187,0,0,1-.7,1.7,2.207,2.207,0,0,0,.375,2.567l.034.035a.2.2,0,0,1,.058.14.2.2,0,0,1-.059.143l-1.8,1.8a.2.2,0,0,1-.143.059.2.2,0,0,1-.14-.058l-.034-.034a2.21,2.21,0,0,0-2.568-.375,10.213,10.213,0,0,1-1.68.7A2.2,2.2,0,0,0,33.477,41.8a.2.2,0,0,1-.2.2H33V37.931a7.993,7.993,0,0,0,0-15.862V18h.275a.2.2,0,0,1,.2.2,2.2,2.2,0,0,0,1.542,2.122,10.213,10.213,0,0,1,1.68.7,2.205,2.205,0,0,0,2.567-.375l.035-.034a.175.175,0,0,1,.283,0l1.8,1.8a.2.2,0,0,1,.059.143.2.2,0,0,1-.058.14l-.034.034a2.208,2.208,0,0,0-.375,2.568,10.213,10.213,0,0,1,.7,1.68A2.2,2.2,0,0,0,43.8,28.523a.2.2,0,0,1,.2.2v2.55a.208.208,0,0,1-.227.2A2.167,2.167,0,0,0,41.684,33Z"/><path d="M58.94,32a2.506,2.506,0,0,0-2.255,1.394l-4.507,9.013-2.771,2.771-.9.451,1.472-2.577a2.918,2.918,0,0,0-4.868-3.2L40.2,46.4a.987.987,0,0,0-.148.284l-2,6a.906.906,0,0,0-.044.192l-1,8A1,1,0,0,0,38,62h9a1,1,0,0,0,1-1V57.07a1,1,0,0,1,.445-.832l5.11-3.406a1,1,0,0,0,.277-.277l4-6a.963.963,0,0,0,.124-.261l3.395-11.031A2.521,2.521,0,0,0,58.94,32Zm.5,2.675L56.087,45.566l-3.808,5.713-4.943,3.295A2.993,2.993,0,0,0,46,57.07V60H39.133l.847-6.777L41.9,47.47l4.814-6.417a.918.918,0,0,1,1.532,1.006L45.132,47.5A1,1,0,0,0,46.447,48.9l4-2a1,1,0,0,0,.26-.188l3-3a1,1,0,0,0,.188-.26l4.579-9.159A.516.516,0,0,1,58.94,34a.522.522,0,0,1,.5.675Z"/><path d="M10.445,52.832l5.11,3.406A1,1,0,0,1,16,57.07V61a1,1,0,0,0,1,1h9a1,1,0,0,0,.992-1.124l-1-8a.906.906,0,0,0-.044-.192l-2-6A.987.987,0,0,0,23.8,46.4l-4.911-6.548a2.918,2.918,0,0,0-4.868,3.2l1.472,2.578-.9-.451-2.771-2.771L7.315,33.394a2.522,2.522,0,0,0-4.666,1.869L6.044,46.294a.963.963,0,0,0,.124.261l4,6A1,1,0,0,0,10.445,52.832ZM4.562,34.675A.522.522,0,0,1,5.06,34a.516.516,0,0,1,.466.288l4.579,9.159a1,1,0,0,0,.188.26l3,3a1,1,0,0,0,.26.188l4,2A1,1,0,0,0,18.868,47.5l-3.111-5.446a.918.918,0,0,1,1.532-1.006L22.1,47.47l1.917,5.753L24.867,60H18V57.07a2.993,2.993,0,0,0-1.336-2.5l-4.943-3.295L7.913,45.566Z"/><rect x="31" y="10" width="2" height="4"/><path d="M29,5a3,3,0,1,0,3-3A3,3,0,0,0,29,5Zm4,0a1,1,0,1,1-1-1A1,1,0,0,1,33,5Z"/><path d="M40,12.414l1.707-1.707L40.293,9.293l-2,2A1,1,0,0,0,38,12v4h2Z"/><path d="M48,7a3,3,0,1,0-3,3A3,3,0,0,0,48,7ZM45,8a1,1,0,1,1,1-1A1,1,0,0,1,45,8Z"/><path d="M26,16V12a1,1,0,0,0-.293-.707l-2-2-1.414,1.414L24,12.414V16Z"/><path d="M22,7a3,3,0,1,0-3,3A3,3,0,0,0,22,7ZM19,8a1,1,0,1,1,1-1A1,1,0,0,1,19,8Z"/></svg>
