<svg clip-rule="evenodd" fill-rule="evenodd" height="512" stroke-linejoin="round" stroke-miterlimit="2" viewBox="0 0 64 64" width="512" xmlns="http://www.w3.org/2000/svg"><g id="ICON"><path d="m48.875 44.407v-2.407c0-.376.21-.719.545-.89.334-.171.736-.141 1.04.079l10.125 7.313c.261.188.415.489.415.811 0 .321-.154.622-.415.81l-10.125 7.313c-.304.22-.706.25-1.04.079-.335-.171-.545-.514-.545-.89v-2.375s-3.5 0-3.501 0c-3.991 0-7.594 2.381-9.162 6.044-.037.134-.099.243-.173.33-.313.425-.789.376-.789.376s-1-.059-1-1.001c0-4.144 1.646-8.118 4.576-11.048 2.694-2.693 6.27-4.302 10.049-4.544zm-11.939 11.325c.661-2.005 1.784-3.847 3.304-5.367 2.555-2.555 6.021-3.99 9.634-3.99h.001c.552 0 1-.448 1-1v-1.419s7.417 5.357 7.417 5.357c0-.001-7.417 5.356-7.417 5.356v-1.419c0-.552-.448-1-1-1h-4.501c-3.225 0-6.238 1.294-8.438 3.482zm-23.936-43.732h-7c-1.657 0-3 1.343-3 3v4c0 .552.448 1 1 1s1-.448 1-1v-4c0-.552.448-1 1-1h26c.552 0 1 .448 1 1v12.5c0 .552-.448 1-1 1-5.455 0-20.545 0-26 0-.265 0-.52-.105-.707-.293-.188-.187-.293-.442-.293-.707v-5c0-.552-.448-1-1-1s-1 .448-1 1v5c0 .796.316 1.559.879 2.121.562.563 1.325.879 2.121.879h7v17.5c0 2.761 2.239 5 5 5h15.5c.552 0 1-.448 1-1s-.448-1-1-1c0 0-9.794 0-15.5 0-1.657 0-3-1.343-3-3v-17.5h17c1.657 0 3-1.343 3-3v-12.5c0-1.657-1.343-3-3-3h-17v-4.621c0-1.314 1.065-2.379 2.379-2.379h22.621v9c0 1.657 1.343 3 3 3h10v24c0 .552.448 1 1 1s1-.448 1-1v-25.172c0-.281-.118-.548-.324-.738l-12.903-11.827c-.185-.169-.426-.263-.676-.263h-23.718c-2.418 0-4.379 1.961-4.379 4.379zm7 31h25.5c.552 0 1-.448 1-1s-.448-1-1-1h-25.5c-.552 0-1 .448-1 1s.448 1 1 1zm0-4h25.5c.552 0 1-.448 1-1s-.448-1-1-1h-25.5c-.552 0-1 .448-1 1s.448 1 1 1zm0-4h25.5c.552 0 1-.448 1-1s-.448-1-1-1h-25.5c-.552 0-1 .448-1 1s.448 1 1 1zm-10-12.5h1c1.657 0 3-1.343 3-3s-1.343-3-3-3h-2c-.552 0-1 .448-1 1v8c0 .552.448 1 1 1s1-.448 1-1zm6 3v-8c0-1.075 1.024-1 1.029-1 1.319 0 2.583.524 3.515 1.456s1.456 2.197 1.456 3.515v.058c0 1.318-.524 2.583-1.456 3.515s-2.197 1.456-3.515 1.456h-.029c-.552 0-1-.448-1-1zm10-3h3c.552 0 1-.448 1-1s-.448-1-1-1h-3v-2h3c.552 0 1-.448 1-1s-.448-1-1-1h-4c-.552 0-1 .448-1 1v8c0 .552.448 1 1 1s1-.448 1-1zm-8-3.837c.421.146.809.386 1.13.707.557.557.87 1.313.87 2.101v.058c0 .788-.313 1.544-.87 2.101-.321.321-.709.561-1.13.707zm-8 1.837h1c.552 0 1-.448 1-1s-.448-1-1-1h-1zm32-14.316v7.816c0 .552.448 1 1 1h8.617z"/></g></svg>