<svg id="_x33_0" enable-background="new 0 0 64 64" height="512" viewBox="0 0 64 64" width="512" xmlns="http://www.w3.org/2000/svg"><g><path d="m57 41.395v-.395h3c1.654 0 3-1.346 3-3v-34c0-1.654-1.346-3-3-3h-52c-1.654 0-3 1.346-3 3v22.807l-3.351 8.378c-.431 1.076-.649 2.21-.649 3.37 0 1.798.527 3.539 1.524 5.034l4.373 6.559-3.618 10.852h-2.279v2h62v-2h-7.069l-.911-12.751c1.292-2.058 1.98-4.418 1.98-6.854zm-18.5 5.605-.537-.716c-1.314-1.752-2.172-3.825-2.482-5.995-.336-2.354-.955-4.669-1.838-6.878l-.593-1.484c-.034-.079-.05-.163-.05-.309 0-.341.277-.618.618-.618 1.469 0 2.71 1.052 2.952 2.5l.293 1.76c.168 1.009 1.032 1.74 2.055 1.74 1.148 0 2.082-.935 2.082-2.083v-12.917c0-.551.449-1 1-1s1 .449 1 1v13h2v-5c0-.551.449-1 1-1s1 .449 1 1v5h2v-5c0-.551.449-1 1-1s1 .449 1 1v5h2v-3c0-.551.449-1 1-1s1 .449 1 1v9.395c0 1.986-.541 3.911-1.558 5.605zm-19.5 3.162 1.618-4.853c.254-.761.382-1.554.382-2.356 0-.666-.1-1.32-.272-1.953h12.848c.405 2.345 1.359 4.58 2.787 6.484l.613.817-.907 12.699h-17.069zm34-20.978c-.038.014-.079.021-.116.036-.345-1.275-1.501-2.22-2.884-2.22-.771 0-1.468.301-2 .78-.532-.48-1.229-.78-2-.78-.352 0-.686.072-1 .184v-5.184c0-1.302-.839-2.402-2-2.816v-5.184c0-.551.449-1 1-1s1 .449 1 1v4c0 1.654 1.346 3 3 3s3-1.346 3-3v-3h-2v3c0 .551-.449 1-1 1s-1-.449-1-1v-4c0-1.654-1.346-3-3-3-.771 0-1.468.301-2 .78-.532-.48-1.229-.78-2-.78-.395 0-.77.081-1.116.22-.345-1.275-1.501-2.22-2.884-2.22-1.654 0-3 1.346-3 3v11h2v-11c0-.551.449-1 1-1s1 .449 1 1v5h2v-3c0-.551.449-1 1-1s1 .449 1 1v5.184c-1.161.414-2 1.514-2 2.816v12.917c0 .086-.152.098-.165.015l-.293-1.76c-.402-2.418-2.473-4.172-4.924-4.172-1.444 0-2.618 1.174-2.618 2.677 0 .343.064.678.191.994l.593 1.482c.112.279.207.564.31.847h-14.892l-2.073-3.109c-.037-.056-.087-.099-.129-.15v-24.741h38zm-20.26 7.816c.185.661.351 1.327.487 2h-13.377c-.037-.059-.063-.122-.102-.18l-1.213-1.82zm-25.74-33c0-.551.449-1 1-1h52c.551 0 1 .449 1 1v34c0 .552-.449 1-1 1h-3v-7c0-1.302-.839-2.402-2-2.816v-24.184h-42v26.016c-2.218.086-4 1.905-4 4.145 0 .723.189 1.437.548 2.063l1.015 1.776h-2.563c-.551 0-1-.448-1-1zm-4 34.555c0-.904.17-1.788.506-2.628l1.494-3.734v5.807c0 1.654 1.346 3 3 3h3.706l1.426 2.496 1.736-.992-3.583-6.271c-.186-.327-.285-.697-.285-1.073 0-1.191.969-2.16 2.161-2.16h.304l4.62 6.93c.599.898.915 1.943.915 3.023 0 .587-.094 1.167-.28 1.724l-1.441 4.323h-8.744l-4.347-6.521c-.777-1.166-1.188-2.522-1.188-3.924zm5.721 12.445h8.279v10h-11.612zm29.353 10 .857-12h14.138l.857 12z"/><path d="m9 17h2v8h-2z"/><path d="m57 17h2v8h-2z"/><path d="m31 9h-14v6h14zm-2 4h-10v-2h10z"/><path d="m17 17h8v2h-8z"/><path d="m27 17h4v2h-4z"/><path d="m17 21h14v2h-14z"/><path d="m17 25h14v2h-14z"/><path d="m17 29h2v2h-2z"/><path d="m21 29h2v2h-2z"/><path d="m25 29h2v2h-2z"/></g></svg>