<svg id="Capa_1" enable-background="new 0 0 511.861 511.861" height="512" viewBox="0 0 511.861 511.861" width="512" xmlns="http://www.w3.org/2000/svg"><g><path d="m454.573 117.626c-36.941-36.942-86.059-57.287-138.304-57.287s-101.362 20.345-138.305 57.288c-1.115 1.115-2.213 2.241-3.297 3.378h-159.667c-8.284 0-15 6.716-15 15s6.716 15 15 15h136.129c-6.098 9.557-11.331 19.588-15.646 30h-79.483c-8.284 0-15 6.716-15 15s6.716 15 15 15h69.846c-2.293 9.799-3.844 19.82-4.607 30h-25.239c-8.284 0-15 6.716-15 15s6.716 15 15 15h25.251c3.526 46.564 23.347 89.863 56.715 123.23 36.941 36.942 86.059 57.287 138.304 57.287s101.362-20.345 138.305-57.288 57.287-86.06 57.287-138.304-20.345-101.361-57.289-138.304zm-21.212 255.395c-27.713 27.713-63.522 44.382-102.092 47.823v-12.341c0-8.284-6.716-15-15-15s-15 6.716-15 15v12.341c-38.57-3.441-74.378-20.11-102.091-47.823s-44.383-63.522-47.824-102.091h12.341c8.284 0 15-6.716 15-15s-6.716-15-15-15h-12.341c3.441-38.569 20.11-74.378 47.823-102.091s63.522-44.382 102.092-47.823v12.341c0 8.284 6.716 15 15 15s15-6.716 15-15v-12.34c38.57 3.441 74.378 20.11 102.091 47.823s44.383 63.522 47.824 102.091h-12.341c-8.284 0-15 6.716-15 15s6.716 15 15 15h12.341c-3.441 38.569-20.11 74.377-47.823 102.09z"/><path d="m294.413 268.822h-2.311c.191-32.746.292-67.915-.113-72.773-.892-10.716-7.322-19.453-16.38-22.259-8.982-2.782-18.547.708-25.584 9.34-7.723 9.476-43.47 73.921-54.242 93.447-2.564 4.647-2.482 10.302.217 14.872 2.698 4.57 7.61 7.374 12.917 7.374h52.983c-.064 8.872-.133 17.381-.198 25.054-.072 8.284 6.586 15.058 14.87 15.129h.132c8.223-.001 14.926-6.631 14.996-14.871.041-4.716.118-13.912.203-25.312h2.51c8.284 0 15-6.716 15-15s-6.716-15.001-15-15.001zm-32.315 0h-27.692c10.358-18.53 20.468-36.313 27.872-48.943-.002 13.083-.075 30.685-.18 48.943z"/><path d="m419.079 242.922c5.565-7.334 8.875-16.467 8.875-26.362 0-24.098-19.605-43.704-43.703-43.704s-43.703 19.605-43.703 43.704c0 9.895 3.31 19.029 8.875 26.363-11.934 9.982-19.542 24.972-19.542 41.711 0 29.98 24.391 54.371 54.37 54.371 29.981 0 54.371-24.391 54.371-54.371 0-16.739-7.608-31.73-19.543-41.712zm-48.531-26.362c0-7.556 6.148-13.704 13.703-13.704 7.556 0 13.703 6.147 13.703 13.704 0 7.556-6.147 13.703-13.703 13.703s-13.703-6.147-13.703-13.703zm13.703 92.445c-13.438 0-24.37-10.933-24.37-24.371s10.933-24.371 24.37-24.371c13.439 0 24.371 10.933 24.371 24.371s-10.933 24.371-24.371 24.371z"/></g></svg>