<?xml version="1.0" encoding="UTF-8"?>
<svg xmlns="http://www.w3.org/2000/svg" id="Layer_3" data-name="Layer 3" viewBox="0 0 24 24" width="512" height="512"><path d="M22,12.5H14A1.5017,1.5017,0,0,0,12.5,14v8A1.5017,1.5017,0,0,0,14,23.5h8A1.5017,1.5017,0,0,0,23.5,22V14A1.5017,1.5017,0,0,0,22,12.5Zm.5,9.5a.5006.5006,0,0,1-.5.5H14a.5006.5006,0,0,1-.5-.5V14a.5006.5006,0,0,1,.5-.5h8a.5006.5006,0,0,1,.5.5Z"/><path d="M22,.5H14A1.5017,1.5017,0,0,0,12.5,2v8A1.5017,1.5017,0,0,0,14,11.5h8A1.5017,1.5017,0,0,0,23.5,10V2A1.5017,1.5017,0,0,0,22,.5Zm-8,1h8a.5006.5006,0,0,1,.5.5V4.793L21.3535,3.6465a.5.5,0,0,0-.707,0L18,6.293,16.3535,4.6465a.5.5,0,0,0-.707,0L13.5,6.793V2A.5006.5006,0,0,1,14,1.5Zm8,9H14a.5006.5006,0,0,1-.5-.5V8.207l2.5-2.5,1.6465,1.6465a.5.5,0,0,0,.707,0L21,4.707l1.5,1.5V10A.5006.5006,0,0,1,22,10.5Z"/><path d="M2,23.5h8A1.5017,1.5017,0,0,0,11.5,22V14A1.5017,1.5017,0,0,0,10,12.5H2A1.5017,1.5017,0,0,0,.5,14v8A1.5017,1.5017,0,0,0,2,23.5Zm8-1H2a.5006.5006,0,0,1-.5-.5V20.207l2.5-2.5,1.6465,1.6465a.5.5,0,0,0,.707,0L9,16.707l1.5,1.5V22A.5006.5006,0,0,1,10,22.5Zm-8-9h8a.5006.5006,0,0,1,.5.5v2.793L9.3535,15.6465a.5.5,0,0,0-.707,0L6,18.293,4.3535,16.6465a.5.5,0,0,0-.707,0L1.5,18.793V14A.5006.5006,0,0,1,2,13.5Z"/><path d="M2,11.5h8A1.5017,1.5017,0,0,0,11.5,10V2A1.5017,1.5017,0,0,0,10,.5H2A1.5017,1.5017,0,0,0,.5,2v8A1.5017,1.5017,0,0,0,2,11.5ZM1.5,2A.5006.5006,0,0,1,2,1.5h8a.5006.5006,0,0,1,.5.5v8a.5006.5006,0,0,1-.5.5H2a.5006.5006,0,0,1-.5-.5Z"/><path d="M20,15.5H16a.5.5,0,0,0,0,1h1.5V20a.5.5,0,0,0,1,0V16.5H20a.5.5,0,0,0,0-1Z"/><path d="M4,4.5H5.5V8a.5.5,0,0,0,1,0V4.5H8a.5.5,0,0,0,0-1H4a.5.5,0,0,0,0,1Z"/></svg>
