<svg xmlns="http://www.w3.org/2000/svg" width="48.182" height="42.158" viewBox="0 0 48.182 42.158">
  <g id="user" transform="translate(0 -0.008)">
    <path id="Path_21605" data-name="Path 21605" d="M95.37,20.083a10.037,10.037,0,1,1,10.038-10.037A10.049,10.049,0,0,1,95.37,20.083Zm0-17.064a7.026,7.026,0,1,0,7.026,7.026A7.034,7.034,0,0,0,95.37,3.019Zm0,0" transform="translate(-77.302)" fill="#fff"/>
    <path id="Path_21606" data-name="Path 21606" d="M34.63,274.076H1.506A1.506,1.506,0,0,1,0,272.57v-7.026a9.547,9.547,0,0,1,9.536-9.536H26.6a9.547,9.547,0,0,1,9.536,9.536v7.026A1.506,1.506,0,0,1,34.63,274.076ZM3.011,271.064H33.124v-5.521a6.532,6.532,0,0,0-6.524-6.524H9.536a6.532,6.532,0,0,0-6.524,6.524Zm0,0" transform="translate(0 -231.91)" fill="#fff"/>
    <path id="Path_21607" data-name="Path 21607" d="M317.237,189.687H300.174a1.506,1.506,0,1,1,0-3.011h17.064a1.506,1.506,0,1,1,0,3.011Zm0,0" transform="translate(-270.563 -169.102)" fill="#fff"/>
    <path id="Path_21608" data-name="Path 21608" d="M396.177,120.38a1.507,1.507,0,0,1-1.064-2.572l6.966-6.966-6.966-6.966a1.506,1.506,0,1,1,2.13-2.13l8.03,8.03a1.506,1.506,0,0,1,0,2.13l-8.03,8.03a1.5,1.5,0,0,1-1.066.444Zm0,0" transform="translate(-357.533 -91.765)" fill="#fff"/>
  </g>
</svg>
