<?xml version="1.0" encoding="UTF-8"?>
<svg xmlns="http://www.w3.org/2000/svg" xmlns:xlink="http://www.w3.org/1999/xlink" width="28" height="28.042" viewBox="0 0 28 28.042">
  <defs>
    <clipPath id="clip-path">
      <rect id="Rectangle_2811" data-name="Rectangle 2811" width="28" height="28.042" transform="translate(0 0)" fill="#0f3764"></rect>
    </clipPath>
  </defs>
  <g id="Group_69729" data-name="Group 69729" transform="translate(0 0)">
    <rect id="Rectangle_2800" data-name="Rectangle 2800" width="0.933" height="0.933" transform="translate(11.667 4.2)" fill="#0f3764"></rect>
    <rect id="Rectangle_2801" data-name="Rectangle 2801" width="0.933" height="0.933" transform="translate(23.8 15.401)" fill="#0f3764"></rect>
    <rect id="Rectangle_2802" data-name="Rectangle 2802" width="0.933" height="0.933" transform="translate(15.4 22.867)" fill="#0f3764"></rect>
    <rect id="Rectangle_2803" data-name="Rectangle 2803" width="0.933" height="0.934" transform="translate(11.667 24.267)" fill="#0f3764"></rect>
    <rect id="Rectangle_2804" data-name="Rectangle 2804" width="0.933" height="0.933" transform="translate(4.2 13.534)" fill="#0f3764"></rect>
    <rect id="Rectangle_2805" data-name="Rectangle 2805" width="0.933" height="0.933" transform="translate(15.4 4.2)" fill="#0f3764"></rect>
    <rect id="Rectangle_2806" data-name="Rectangle 2806" width="0.933" height="0.934" transform="translate(22.866 11.667)" fill="#0f3764"></rect>
    <rect id="Rectangle_2807" data-name="Rectangle 2807" width="0.933" height="0.933" transform="translate(20.533 7)" fill="#0f3764"></rect>
    <rect id="Rectangle_2808" data-name="Rectangle 2808" width="0.933" height="0.933" transform="translate(6.533 7)" fill="#0f3764"></rect>
    <rect id="Rectangle_2809" data-name="Rectangle 2809" width="0.933" height="0.933" transform="translate(20.533 20.067)" fill="#0f3764"></rect>
    <rect id="Rectangle_2810" data-name="Rectangle 2810" width="0.933" height="0.933" transform="translate(6.533 20.067)" fill="#0f3764"></rect>
    <g id="Group_69728" data-name="Group 69728">
      <g id="Group_69727" data-name="Group 69727" clip-path="url(#clip-path)">
        <path id="Path_21505" data-name="Path 21505" d="M13.945,13.533a1.4,1.4,0,0,0-.411,2.717v1.017h.933v-1.02a1.4,1.4,0,0,0-.522-2.714m.522,1.382a.468.468,0,1,1-.485-.448H14A.466.466,0,0,1,14.467,14.915Z" fill="#0f3764"></path>
        <path id="Path_21506" data-name="Path 21506" d="M16.333,12.22v-.553a2.333,2.333,0,0,0-4.667,0v.553a1.4,1.4,0,0,0-.933,1.314v3.733a1.4,1.4,0,0,0,1.4,1.4h3.733a1.4,1.4,0,0,0,1.4-1.4V13.534a1.4,1.4,0,0,0-.933-1.314M12.6,11.667a1.4,1.4,0,0,1,2.8,0v.467H12.6Zm3.733,5.6a.467.467,0,0,1-.467.467H12.133a.467.467,0,0,1-.467-.467V13.534a.467.467,0,0,1,.467-.467h3.733a.467.467,0,0,1,.467.467Z" fill="#0f3764"></path>
        <path id="Path_21507" data-name="Path 21507" d="M26.6,18.2a1.386,1.386,0,0,0-.6.14l-1.073-1.073H20.533v-.933h2.334V15.4H20.533v-.933h2.444l2.654-1.327a1.557,1.557,0,1,0-.414-.837l-2.46,1.231H20.533V12.6h1.4v-.933h-1.4v-.933h2.06l1.54-1.54a1.416,1.416,0,1,0-.66-.661L22.207,9.8H20.533A2.336,2.336,0,0,0,18.2,7.467V6.26l2.667-2.666a1.4,1.4,0,1,0-.8-1.26,1.351,1.351,0,0,0,.14.6l-2.94,2.94V7.467h-.934v-1.4H15.4v1.4h-.933V4.114a1.4,1.4,0,1,0-.934,0V7.467H12.6v-1.4h-.933v1.4h-.934V4.007L8.727,2a1.383,1.383,0,0,0,.14-.6,1.4,1.4,0,1,0-1.4,1.4,1.351,1.351,0,0,0,.6-.14L9.8,4.394V7.467A2.336,2.336,0,0,0,7.467,9.8H5.793L4.527,8.533a1.379,1.379,0,0,0,.14-.6,1.4,1.4,0,1,0-1.4,1.4,1.379,1.379,0,0,0,.6-.14l1.54,1.54H7.467v.933H4.5L2.053,13.7a1.37,1.37,0,0,0-.653-.17,1.4,1.4,0,1,0,1.4,1.4,1.376,1.376,0,0,0-.111-.545L4.836,12.6H7.467v.934h-1.4v.933h1.4V15.4h-4.2v.934h4.2v.933H4.884L3,20.088a1.384,1.384,0,0,0-.2-.021,1.413,1.413,0,1,0,1.031.461L5.383,18.2H7.467A2.336,2.336,0,0,0,9.8,20.534v3.073L8.066,25.34a1.379,1.379,0,0,0-.6-.14,1.4,1.4,0,1,0,1.4,1.4,1.379,1.379,0,0,0-.14-.6l2.006-2.007v-3.46h.934v2.8H12.6v-2.8h.933v3.992L16.368,26.3a1.421,1.421,0,1,0,.5-.789l-2.4-1.5V20.534H15.4v1.4h.933v-1.4h.934v3.733h3.352a1.4,1.4,0,1,0,0-.933H18.2v-2.8A2.336,2.336,0,0,0,20.533,18.2H24.54l.8.8a1.379,1.379,0,0,0-.14.6,1.4,1.4,0,1,0,1.4-1.4Zm0-6.533a.467.467,0,1,1-.467.467.467.467,0,0,1,.467-.467m-1.867-4.2a.467.467,0,1,1-.466.467.467.467,0,0,1,.466-.467m-3.266-5.6A.467.467,0,1,1,21,2.334a.467.467,0,0,1,.467-.467M14,2.334a.467.467,0,1,1-.467.466A.467.467,0,0,1,14,2.334M7,1.4a.467.467,0,1,1,.467.467A.467.467,0,0,1,7,1.4M2.8,7.934a.467.467,0,1,1,.467.466A.467.467,0,0,1,2.8,7.934M1.4,15.4a.467.467,0,1,1,.467-.466A.467.467,0,0,1,1.4,15.4m1.4,6.534a.467.467,0,1,1,.467-.467.467.467,0,0,1-.467.467m4.667,5.133a.466.466,0,1,1,.466-.467.467.467,0,0,1-.466.467m10.266-.933a.466.466,0,1,1-.466.466.467.467,0,0,1,.466-.466m4.2-2.8a.467.467,0,1,1-.466.466.467.467,0,0,1,.466-.466M19.6,18.2a1.4,1.4,0,0,1-1.4,1.4H9.8a1.4,1.4,0,0,1-1.4-1.4V9.8A1.4,1.4,0,0,1,9.8,8.4h8.4a1.4,1.4,0,0,1,1.4,1.4Zm7,1.867a.466.466,0,1,1,.467-.467.467.467,0,0,1-.467.467" fill="#0f3764"></path>
      </g>
    </g>
  </g>
</svg>
