<?xml version="1.0" encoding="UTF-8"?>
<svg xmlns="http://www.w3.org/2000/svg" xmlns:xlink="http://www.w3.org/1999/xlink" width="44" height="44" viewBox="0 0 44 44">
  <defs>
    <clipPath id="clip-path">
      <rect id="Rectangle_2815" data-name="Rectangle 2815" width="44" height="44" transform="translate(0 0)" fill="#fff"></rect>
    </clipPath>
  </defs>
  <g id="Group_69737" data-name="Group 69737" transform="translate(0 0)">
    <g id="Group_69736" data-name="Group 69736" clip-path="url(#clip-path)">
      <path id="Path_21530" data-name="Path 21530" d="M14.767,21.3l.494-1.3h3.317l.489,1.3a.642.642,0,1,0,1.2-.453l-2.593-6.87-.007-.017a.8.8,0,0,0-.74-.5h0a.8.8,0,0,0-.74.5l0,.015-2.617,6.869a.643.643,0,0,0,1.2.457Zm2.16-5.671,1.166,3.089H15.751Z" fill="#fff"></path>
      <path id="Path_21531" data-name="Path 21531" d="M29.448,20.963V14a.643.643,0,1,0-1.285,0v6.967a.643.643,0,0,0,1.285,0Z" fill="#fff"></path>
      <path id="Path_21532" data-name="Path 21532" d="M22.289,21.708a.641.641,0,0,0,.642-.642V18.678c.44,0,1,0,1.3,0a2.609,2.609,0,1,0,0-5.217h-1.94a.649.649,0,0,0-.642.643v6.967a.641.641,0,0,0,.642.642m1.94-6.967a1.324,1.324,0,1,1,0,2.647c-.3,0-.849,0-1.288,0,0-.451,0-1.027,0-1.328,0-.255,0-.854,0-1.324Z" fill="#fff"></path>
      <path id="Path_21533" data-name="Path 21533" d="M26.115,38.085a.642.642,0,0,0-.642.642v3.319a.671.671,0,0,1-.67.67H19.2a.671.671,0,0,1-.67-.67V38.584a.9.9,0,0,0-.671-.87,16.123,16.123,0,0,1-4.036-1.673.9.9,0,0,0-1.09.14L10.281,38.63a.67.67,0,0,1-.947,0L5.37,34.666a.67.67,0,0,1,0-.947L7.819,31.27a.9.9,0,0,0,.14-1.09,16.169,16.169,0,0,1-1.673-4.035.9.9,0,0,0-.869-.672H1.954a.67.67,0,0,1-.669-.669V19.2a.67.67,0,0,1,.669-.669H5.417a.9.9,0,0,0,.869-.672,16.169,16.169,0,0,1,1.673-4.035.9.9,0,0,0-.14-1.09L5.37,10.282a.67.67,0,0,1,0-.947L9.334,5.371a.668.668,0,0,1,.947,0L12.73,7.82a.9.9,0,0,0,1.09.14,16.123,16.123,0,0,1,4.036-1.673.9.9,0,0,0,.671-.87V1.955a.671.671,0,0,1,.67-.67H24.8a.671.671,0,0,1,.67.67V5.417a.9.9,0,0,0,.671.87A16.12,16.12,0,0,1,30.18,7.959a.9.9,0,0,0,1.09-.139l2.449-2.45a.669.669,0,0,1,.947,0l.391.391a.642.642,0,1,0,.909-.908l-.392-.392a1.953,1.953,0,0,0-2.764,0L30.57,6.7a17.468,17.468,0,0,0-3.812-1.58V1.955A1.958,1.958,0,0,0,24.8,0H19.2a1.957,1.957,0,0,0-1.955,1.955V5.122A17.447,17.447,0,0,0,13.43,6.7l-2.24-2.24a1.953,1.953,0,0,0-2.764,0L4.461,8.426a1.956,1.956,0,0,0,0,2.764L6.7,13.431a17.4,17.4,0,0,0-1.58,3.812H1.954A1.956,1.956,0,0,0,0,19.2V24.8a1.957,1.957,0,0,0,1.954,1.954H5.122A17.4,17.4,0,0,0,6.7,30.57L4.461,32.811a1.956,1.956,0,0,0,0,2.764l3.965,3.964a1.953,1.953,0,0,0,2.764,0l2.24-2.24a17.447,17.447,0,0,0,3.812,1.58v3.167A1.957,1.957,0,0,0,19.2,44H24.8a1.957,1.957,0,0,0,1.955-1.955V38.728A.644.644,0,0,0,26.115,38.085Z" fill="#fff"></path>
      <path id="Path_21534" data-name="Path 21534" d="M9.639,24.227a.643.643,0,0,0-1.265.226A13.851,13.851,0,1,0,8.186,21.1a.642.642,0,0,0,1.282.082,12.558,12.558,0,1,1,21.426,9.673V26.8a1.266,1.266,0,1,0-1.285,0v5.19a12.569,12.569,0,0,1-2.089,1.293V31.165a1.267,1.267,0,1,0-1.285-.01v2.668a12.389,12.389,0,0,1-1.982.533V29.043l1.695-1.695a1.064,1.064,0,0,0,.314-.757V23.7a1.266,1.266,0,1,0-1.285,0v2.8l-1.7,1.7a1.063,1.063,0,0,0-.313.757v5.567c-.32.024-.642.037-.968.037s-.641-.013-.958-.037V29.07a1.267,1.267,0,1,0-1.285,0v5.289a12.641,12.641,0,0,1-1.75-.448v-2.02a1.067,1.067,0,0,0-.313-.758L16,29.438v-2.8a1.267,1.267,0,1,0-1.285,0v2.888a1.066,1.066,0,0,0,.314.757l1.695,1.695V33.4A12.523,12.523,0,0,1,9.639,24.227Z" fill="#fff"></path>
      <path id="Path_21535" data-name="Path 21535" d="M42.046,17.242H38.879A17.447,17.447,0,0,0,37.3,13.43l2.24-2.241a1.956,1.956,0,0,0,0-2.764L38.187,7.073a.643.643,0,0,0-.909.909L38.63,9.334a.668.668,0,0,1,0,.947L36.181,12.73a.9.9,0,0,0-.14,1.09,16.16,16.16,0,0,1,1.673,4.036.9.9,0,0,0,.869.671h3.463a.67.67,0,0,1,.669.669V24.8a.67.67,0,0,1-.669.669H38.583a.9.9,0,0,0-.869.672,16.154,16.154,0,0,1-1.673,4.035.9.9,0,0,0,.14,1.09l2.449,2.45a.666.666,0,0,1,0,.946L34.666,38.63a.67.67,0,0,1-.947,0L31.27,36.181a.9.9,0,0,0-1.09-.14c-.405.236-.826.458-1.251.658a.643.643,0,0,0,.549,1.162c.369-.174.735-.363,1.092-.563l2.24,2.24a1.953,1.953,0,0,0,2.764,0l3.965-3.964a1.956,1.956,0,0,0,0-2.764L37.3,30.569a17.4,17.4,0,0,0,1.58-3.812h3.168A1.957,1.957,0,0,0,44,24.8V19.2A1.956,1.956,0,0,0,42.046,17.242Z" fill="#fff"></path>
    </g>
  </g>
</svg>
