<?xml version="1.0" encoding="UTF-8"?>
<svg xmlns="http://www.w3.org/2000/svg" xmlns:xlink="http://www.w3.org/1999/xlink" id="Group_69723" data-name="Group 69723" width="28.072" height="26.317" viewBox="0 0 28.072 26.317">
  <defs>
    <clipPath id="clip-path">
      <rect id="Rectangle_2738" data-name="Rectangle 2738" width="28.071" height="26.317" fill="#0f3764"></rect>
    </clipPath>
  </defs>
  <g id="Group_69628" data-name="Group 69628" clip-path="url(#clip-path)">
    <path id="Path_21454" data-name="Path 21454" d="M13.928,10.128a.548.548,0,0,0,.775,0l1.974-1.973A.548.548,0,0,0,15.9,7.38L14.316,8.965l-.49-.489a.548.548,0,1,0-.775.775Z" transform="translate(-4.666 -2.613)" fill="#0f3764"></path>
    <path id="Path_21455" data-name="Path 21455" d="M13.928,15.285a.548.548,0,0,0,.775,0l1.974-1.974a.548.548,0,0,0-.775-.775l-1.586,1.586-.49-.489a.548.548,0,1,0-.775.775Z" transform="translate(-4.666 -4.48)" fill="#0f3764"></path>
    <path id="Path_21456" data-name="Path 21456" d="M13.928,20.441a.548.548,0,0,0,.775,0l1.974-1.974a.548.548,0,0,0-.775-.775l-1.586,1.586-.49-.489a.548.548,0,1,0-.775.775Z" transform="translate(-4.666 -6.346)" fill="#0f3764"></path>
    <path id="Path_21457" data-name="Path 21457" d="M13.928,25.6a.548.548,0,0,0,.775,0l1.974-1.974a.548.548,0,1,0-.775-.775l-1.586,1.586-.49-.489a.548.548,0,1,0-.775.775Z" transform="translate(-4.666 -8.213)" fill="#0f3764"></path>
    <path id="Path_21458" data-name="Path 21458" d="M19.97,11.409h6.58a.548.548,0,0,0,0-1.1H19.97a.548.548,0,0,0,0,1.1" transform="translate(-7.031 -3.733)" fill="#0f3764"></path>
    <path id="Path_21459" data-name="Path 21459" d="M19.97,16.566h6.58a.548.548,0,0,0,0-1.1H19.97a.548.548,0,0,0,0,1.1" transform="translate(-7.031 -5.6)" fill="#0f3764"></path>
    <path id="Path_21460" data-name="Path 21460" d="M19.97,21.722h6.58a.548.548,0,0,0,0-1.1H19.97a.548.548,0,0,0,0,1.1" transform="translate(-7.031 -7.466)" fill="#0f3764"></path>
    <path id="Path_21461" data-name="Path 21461" d="M19.97,26.878h6.58a.548.548,0,0,0,0-1.1H19.97a.548.548,0,0,0,0,1.1" transform="translate(-7.031 -9.333)" fill="#0f3764"></path>
    <path id="Path_21462" data-name="Path 21462" d="M21.689,39.531a.548.548,0,1,1-.548.548.548.548,0,0,1,.548-.548" transform="translate(-7.653 -14.311)" fill="#0f3764"></path>
    <path id="Path_21463" data-name="Path 21463" d="M27.523,23.028H25.878V11.514a1.646,1.646,0,0,0-1.645-1.645H22.259V4.934a.55.55,0,0,0-.16-.387L17.713.161A.557.557,0,0,0,17.325,0H6.359a.549.549,0,0,0-.548.549v9.32H3.837a1.647,1.647,0,0,0-1.645,1.645V23.028H.548A.548.548,0,0,0,0,23.576a2.744,2.744,0,0,0,2.741,2.741h8.827a.548.548,0,0,0,0-1.1H2.741a1.647,1.647,0,0,1-1.551-1.1H26.881a1.648,1.648,0,0,1-1.551,1.1H16.5a.548.548,0,0,0,0,1.1H25.33a2.744,2.744,0,0,0,2.741-2.741A.549.549,0,0,0,27.523,23.028ZM17.873,1.872l2.514,2.514H17.873ZM6.908,1.1h9.869V4.934a.548.548,0,0,0,.548.549h3.838V20.834H6.908ZM3.289,11.514a.549.549,0,0,1,.548-.548H5.811V21.383a.548.548,0,0,0,.548.548H21.711a.548.548,0,0,0,.548-.548V10.966h1.974a.549.549,0,0,1,.549.548V23.028H3.289Z" fill="#0f3764"></path>
  </g>
</svg>
