<?xml version="1.0" encoding="UTF-8"?>
<svg xmlns="http://www.w3.org/2000/svg" xmlns:xlink="http://www.w3.org/1999/xlink" id="Group_69797" data-name="Group 69797" width="350" height="340.259" viewBox="0 0 350 340.259">
  <defs>
    <clipPath id="clip-path">
      <rect id="Rectangle_2859" data-name="Rectangle 2859" width="350" height="340.259" fill="none"></rect>
    </clipPath>
    <clipPath id="clip-path-3">
      <rect id="Rectangle_2850" data-name="Rectangle 2850" width="213.114" height="293.717" transform="translate(136.886)" fill="none"></rect>
    </clipPath>
    <clipPath id="clip-path-4">
      <rect id="Rectangle_2851" data-name="Rectangle 2851" width="213.114" height="293.717" transform="translate(134.399)" fill="none"></rect>
    </clipPath>
    <clipPath id="clip-path-5">
      <rect id="Rectangle_2852" data-name="Rectangle 2852" width="129.648" height="10.11" transform="translate(188.208 42.214)" fill="none"></rect>
    </clipPath>
    <clipPath id="clip-path-6">
      <rect id="Rectangle_2853" data-name="Rectangle 2853" width="21.8" height="2.487" transform="translate(240.959 2.724)" fill="none"></rect>
    </clipPath>
    <clipPath id="clip-path-8">
      <rect id="Rectangle_2855" data-name="Rectangle 2855" width="12.988" height="53.076" transform="translate(60.91 176.86)" fill="none"></rect>
    </clipPath>
    <clipPath id="clip-path-9">
      <rect id="Rectangle_2856" data-name="Rectangle 2856" width="28.505" height="8.624" transform="translate(58.104 73.553)" fill="none"></rect>
    </clipPath>
    <clipPath id="clip-path-10">
      <rect id="Rectangle_2857" data-name="Rectangle 2857" width="49.042" height="64.437" transform="translate(49.001 78.528)" fill="none"></rect>
    </clipPath>
  </defs>
  <g id="Group_69796" data-name="Group 69796" clip-path="url(#clip-path)">
    <g id="Group_69784" data-name="Group 69784">
      <g id="Group_69783" data-name="Group 69783" clip-path="url(#clip-path)">
        <path id="Path_21572" data-name="Path 21572" d="M315.736,293.717h-167a11.717,11.717,0,0,1-11.816-12.791L157.382,12.791A14.087,14.087,0,0,1,171.15,0h167a11.717,11.717,0,0,1,11.815,12.791L329.5,280.926a14.087,14.087,0,0,1-13.767,12.791" fill="#407bff"></path>
        <g id="Group_69773" data-name="Group 69773" opacity="0.5">
          <g id="Group_69772" data-name="Group 69772">
            <g id="Group_69771" data-name="Group 69771" clip-path="url(#clip-path-3)">
              <path id="Path_21573" data-name="Path 21573" d="M315.736,293.717h-167a11.717,11.717,0,0,1-11.816-12.791L157.382,12.791A14.087,14.087,0,0,1,171.15,0h167a11.717,11.717,0,0,1,11.815,12.791L329.5,280.926a14.087,14.087,0,0,1-13.767,12.791" fill="#fff"></path>
            </g>
          </g>
        </g>
        <path id="Path_21574" data-name="Path 21574" d="M313.249,293.717h-167a11.717,11.717,0,0,1-11.816-12.791L154.9,12.791A14.088,14.088,0,0,1,168.663,0h167a11.717,11.717,0,0,1,11.815,12.791L327.016,280.926a14.087,14.087,0,0,1-13.767,12.791" fill="#407bff"></path>
        <g id="Group_69776" data-name="Group 69776" opacity="0.7">
          <g id="Group_69775" data-name="Group 69775">
            <g id="Group_69774" data-name="Group 69774" clip-path="url(#clip-path-4)">
              <path id="Path_21575" data-name="Path 21575" d="M313.249,293.717h-167a11.717,11.717,0,0,1-11.816-12.791L154.9,12.791A14.088,14.088,0,0,1,168.663,0h167a11.717,11.717,0,0,1,11.815,12.791L327.016,280.926a14.087,14.087,0,0,1-13.767,12.791" fill="#fff"></path>
            </g>
          </g>
        </g>
        <path id="Path_21576" data-name="Path 21576" d="M146.577,289.453a7.8,7.8,0,0,1-7.877-8.527L158.888,16.344a9.373,9.373,0,0,1,9.178-8.527h167a7.8,7.8,0,0,1,7.877,8.527L322.753,280.926a9.374,9.374,0,0,1-9.178,8.527Z" fill="#6fb2e4"></path>
        <g id="Group_69779" data-name="Group 69779" opacity="0.2">
          <g id="Group_69778" data-name="Group 69778">
            <g id="Group_69777" data-name="Group 69777" clip-path="url(#clip-path-5)">
              <path id="Path_21577" data-name="Path 21577" d="M312.4,52.324H192.893a4.631,4.631,0,0,1-4.669-5.055,5.567,5.567,0,0,1,5.44-5.055H313.172a4.631,4.631,0,0,1,4.669,5.055,5.567,5.567,0,0,1-5.44,5.055"></path>
            </g>
          </g>
        </g>
        <g id="Group_69782" data-name="Group 69782" opacity="0.3">
          <g id="Group_69781" data-name="Group 69781">
            <g id="Group_69780" data-name="Group 69780" clip-path="url(#clip-path-6)">
              <path id="Path_21578" data-name="Path 21578" d="M261.417,5.211h-19.3a1.14,1.14,0,0,1-1.149-1.244A1.368,1.368,0,0,1,242.3,2.724h19.306a1.138,1.138,0,0,1,1.148,1.243,1.369,1.369,0,0,1-1.338,1.244" fill="#407bff"></path>
            </g>
          </g>
        </g>
        <path id="Path_21579" data-name="Path 21579" d="M192.369,47.269a12.777,12.777,0,0,0-12.92-13.988H300.776A12.777,12.777,0,0,1,313.7,47.269Z" fill="#f0f0f0"></path>
        <path id="Path_21580" data-name="Path 21580" d="M179.448,33.281a15.358,15.358,0,0,0-15.055,13.988L151.96,210.215A15.358,15.358,0,0,1,136.9,224.2H258.232a15.358,15.358,0,0,0,15.055-13.988L285.72,47.269a15.358,15.358,0,0,1,15.055-13.988Z" fill="#fff"></path>
        <path id="Path_21581" data-name="Path 21581" d="M245.312,210.215A12.778,12.778,0,0,0,258.233,224.2H136.9a12.777,12.777,0,0,1-12.92-13.988Z" fill="#f0f0f0"></path>
        <path id="Path_21582" data-name="Path 21582" d="M174.295,207c.454-5.954-1.415-10.772-7.358-10.772h93.43c5.944,0,10.415,5.44,7.358,10.772Z" fill="#e0e0e0"></path>
        <path id="Path_21583" data-name="Path 21583" d="M245.312,210.215a15.358,15.358,0,0,1,15.055-13.988H139.04a15.358,15.358,0,0,0-15.055,13.988Z" fill="#f0f0f0"></path>
        <path id="Path_21584" data-name="Path 21584" d="M302.681,250.615H163.4a3.363,3.363,0,0,1-3.391-3.672,4.043,4.043,0,0,1,3.952-3.671H303.241a3.363,3.363,0,0,1,3.392,3.671,4.044,4.044,0,0,1-3.952,3.672" fill="#fff"></path>
        <path id="Path_21585" data-name="Path 21585" d="M232.344,268.262H162.051a3.363,3.363,0,0,1-3.391-3.672,4.043,4.043,0,0,1,3.952-3.671H232.9a3.363,3.363,0,0,1,3.392,3.671,4.044,4.044,0,0,1-3.952,3.672" fill="#fff"></path>
        <path id="Path_21586" data-name="Path 21586" d="M281.01,268.262H252.538a3.363,3.363,0,0,1-3.392-3.672,4.045,4.045,0,0,1,3.952-3.671H281.57a3.363,3.363,0,0,1,3.392,3.671,4.044,4.044,0,0,1-3.952,3.672" fill="#fff"></path>
        <path id="Path_21587" data-name="Path 21587" d="M309.484,198.438l-7.265,1.139a7.035,7.035,0,0,0-.831-1.9,4.288,4.288,0,0,0-1.355-1.071l-.426,5.583q5.748,1.564,7.582,3.3a7.066,7.066,0,0,1,2.153,5.929,8.558,8.558,0,0,1-1.23,3.863,10.718,10.718,0,0,1-5.845,4.644,15.715,15.715,0,0,1-4.061.628l-.28,3.648h-2.817l.278-3.648a16.96,16.96,0,0,1-4.533-.917,8.428,8.428,0,0,1-2.909-1.843,8.122,8.122,0,0,1-1.784-2.538,11.152,11.152,0,0,1-.791-3.29l7.866-.907a6.884,6.884,0,0,0,.725,2.76,4.391,4.391,0,0,0,1.825,1.5l.52-6.819a33.793,33.793,0,0,1-5.385-1.874,6.544,6.544,0,0,1-2.633-2.54,6.981,6.981,0,0,1-.873-4.258,8.3,8.3,0,0,1,2.842-5.746q2.577-2.307,7.345-2.559l.145-1.91h2.818l-.146,1.91q4.3.27,6.455,2.046a7.468,7.468,0,0,1,2.61,4.863m-12.261-1.93a3.994,3.994,0,0,0-1.8,1.009,2.365,2.365,0,0,0-.59,1.415,2.227,2.227,0,0,0,.375,1.484,3.281,3.281,0,0,0,1.632,1.055Zm1.367,19.01a4.9,4.9,0,0,0,2.495-1.21,2.969,2.969,0,0,0,.9-1.888,2.361,2.361,0,0,0-.517-1.674,5.328,5.328,0,0,0-2.41-1.421Z" fill="#fff"></path>
        <path id="Path_21588" data-name="Path 21588" d="M172.517,78.641h3.458l-.852,11.165h-3.458Z" fill="#0f3764"></path>
        <path id="Path_21589" data-name="Path 21589" d="M178.473,78.641h3.222l3.732,6.177.472-6.177h3.252L188.3,89.806h-3.252l-3.714-6.13-.467,6.13h-3.245Z" fill="#0f3764"></path>
        <path id="Path_21590" data-name="Path 21590" d="M190.346,78.641h3.606l1.9,8.035,3.093-8.035h3.5l-5,11.165h-3.739Z" fill="#0f3764"></path>
        <path id="Path_21591" data-name="Path 21591" d="M202.182,84.231a5.773,5.773,0,0,1,6.207-5.781,5.443,5.443,0,0,1,4.181,1.5,5.29,5.29,0,0,1,1.188,4.192,7.244,7.244,0,0,1-.9,3.211A5.248,5.248,0,0,1,210.8,89.3a6.6,6.6,0,0,1-3.157.7,6.831,6.831,0,0,1-3.081-.6,4.208,4.208,0,0,1-1.861-1.9,6.04,6.04,0,0,1-.521-3.259m3.449.015a3.566,3.566,0,0,0,.443,2.43,1.967,1.967,0,0,0,1.654.738,2.3,2.3,0,0,0,1.776-.723,4.384,4.384,0,0,0,.807-2.6,3.27,3.27,0,0,0-.46-2.3,2.01,2.01,0,0,0-1.669-.728,2.269,2.269,0,0,0-1.732.739,4,4,0,0,0-.819,2.445" fill="#0f3764"></path>
        <path id="Path_21592" data-name="Path 21592" d="M216.173,78.641h3.458l-.852,11.165h-3.458Z" fill="#0f3764"></path>
        <path id="Path_21593" data-name="Path 21593" d="M229.036,85.236l2.954.914a6.1,6.1,0,0,1-1.122,2.125,4.635,4.635,0,0,1-1.724,1.287,6.336,6.336,0,0,1-2.5.434,6.882,6.882,0,0,1-2.933-.529,4.22,4.22,0,0,1-1.85-1.861,6.029,6.029,0,0,1-.578-3.41,6.242,6.242,0,0,1,1.8-4.258,6.01,6.01,0,0,1,4.283-1.488,5.351,5.351,0,0,1,3.252.853,4.532,4.532,0,0,1,1.594,2.62l-3.1.678a2.42,2.42,0,0,0-.279-.747,1.769,1.769,0,0,0-.661-.609,1.943,1.943,0,0,0-.921-.213,2.2,2.2,0,0,0-1.869.943,4.23,4.23,0,0,0-.64,2.2,4,4,0,0,0,.369,2.545,1.786,1.786,0,0,0,1.532.689,2.068,2.068,0,0,0,1.539-.556,3.761,3.761,0,0,0,.858-1.615" fill="#0f3764"></path>
        <path id="Path_21594" data-name="Path 21594" d="M234.231,78.641h9.246l-.182,2.384h-5.788l-.136,1.774h5.37l-.174,2.278H237.2l-.168,2.2h5.956l-.193,2.528h-9.414Z" fill="#0f3764"></path>
        <path id="Path_21595" data-name="Path 21595" d="M270.857,104.225H170.565l.212-2.783H271.069Z" fill="#0f3764"></path>
        <path id="Path_21596" data-name="Path 21596" d="M270.857,104.225H170.565l-.65,8.516H270.207Z" fill="#f0f0f0"></path>
        <path id="Path_21597" data-name="Path 21597" d="M269.557,121.258H169.265l-.65,8.516H268.907Z" fill="#f0f0f0"></path>
        <path id="Path_21598" data-name="Path 21598" d="M268.258,138.291H167.966l-.65,8.516H267.608Z" fill="#f0f0f0"></path>
        <path id="Path_21599" data-name="Path 21599" d="M266.958,155.324H166.666l-.65,8.516H266.308Z" fill="#f0f0f0"></path>
        <path id="Path_21600" data-name="Path 21600" d="M265.446,175.14H165.154l.212-2.783H265.658Z" fill="#0f3764"></path>
        <path id="Path_21601" data-name="Path 21601" d="M253.973,52.324h20.844l-.948,12.436H253.024Z" fill="#f0f0f0"></path>
      </g>
    </g>
    <g id="Group_69795" data-name="Group 69795">
      <g id="Group_69794" data-name="Group 69794" clip-path="url(#clip-path)">
        <path id="Path_21602" data-name="Path 21602" d="M49.593,131.426l3.728,1.5a8.376,8.376,0,0,1,3.454,2.583l1.708,2.163a3.785,3.785,0,0,1-.125,4.842l-1.817,2.072a3.786,3.786,0,0,1-5.38.316l-1.738-1.565s-5.35-3.756-6.922-8.718l1.033-1.033a7.143,7.143,0,0,1,6.059-2.158" fill="#ffb573"></path>
        <path id="Path_21603" data-name="Path 21603" d="M59.8,95.346l-1.213.8-1.35.928c-.9.639-1.8,1.292-2.678,1.969-1.752,1.362-3.464,2.772-5.051,4.269A41.869,41.869,0,0,0,41.553,113q-.38.646-.7,1.308l-.168.329a3.344,3.344,0,0,0,.11-.418,1.571,1.571,0,0,0,.02-.521c-.1-.3-.108.475.125,1.237a32,32,0,0,0,2.461,5.7c2.117,4.051,4.775,8.214,7.277,12.32l.065.107a3.613,3.613,0,0,1-5.3,4.735A72.594,72.594,0,0,1,34.205,126.78a35.784,35.784,0,0,1-4.727-7.332,18.9,18.9,0,0,1-.962-2.53,12.473,12.473,0,0,1-.532-3.461,10.161,10.161,0,0,1,.251-2.365,10.329,10.329,0,0,1,.391-1.305l.2-.527q.388-1.065.845-2.084a48.155,48.155,0,0,1,9.8-14.081,63.165,63.165,0,0,1,6.177-5.523c1.084-.845,2.185-1.666,3.332-2.439.575-.386,1.146-.777,1.747-1.145l.914-.555,1.043-.6a7.188,7.188,0,0,1,7.572,12.213Z" fill="#ffb573"></path>
        <path id="Path_21604" data-name="Path 21604" d="M59.917,79.032c-6.01.035-12.587,2.6-21.021,13.056,0,6.241,13.176,14.538,13.176,14.538s21.6-27.674,7.845-27.594" fill="#0f3764"></path>
        <path id="Path_21605" data-name="Path 21605" d="M15.305,326.213a.938.938,0,0,1-.317-.056c-1.248-.438-2.419-3.61-2.495-5.37a.29.29,0,0,1,.472-.237c.132.108,3.233,2.646,3.379,4.355a1.2,1.2,0,0,1-.283.927,1,1,0,0,1-.756.381m-2.155-4.74c.282,1.673,1.235,3.859,2.029,4.138.115.041.259.053.446-.16a.635.635,0,0,0,.143-.5c-.087-1-1.612-2.576-2.618-3.481" fill="#fff"></path>
        <path id="Path_21606" data-name="Path 21606" d="M17.234,322.439a9.882,9.882,0,0,1-4.613-1.423.291.291,0,0,1,.086-.521c.165-.043,4.042-1.054,5.509-.164a1.2,1.2,0,0,1,.583.774.952.952,0,0,1-.37,1.06,2.155,2.155,0,0,1-1.2.274m-3.671-1.55c1.516.757,3.844,1.277,4.538.8.1-.07.2-.178.133-.455a.634.634,0,0,0-.317-.408c-.862-.52-3.03-.216-4.354.064" fill="#fff"></path>
        <path id="Path_21607" data-name="Path 21607" d="M1.844,320.1a48.654,48.654,0,0,0,7.672-10.89s9.537,2.347,7.664,5.1c-3.4,4.991-5.054,15.237-.675,20.732,2.5,3.136-1.454,3.655-4.066,2.314-4.155-2.135-3.979-2.929-6.137-6.459-1.846-3.018-2.574-4.2-5.114-5.493-2.12-1.079-1.09-3.173.656-5.3" fill="#3cb4e6"></path>
        <path id="Path_21608" data-name="Path 21608" d="M82.766,141.016S68.925,208.47,58.8,237.279c-10.629,30.255-39.983,76.94-41.11,78.944-4.173-1.112-7.9-2.573-10.374-5,0,0,13.778-50.64,27.215-83.494,5.1-68.579,16.339-86.716,16.339-86.716Z" fill="#9cc"></path>
        <g id="Group_69787" data-name="Group 69787" opacity="0.2">
          <g id="Group_69786" data-name="Group 69786">
            <g id="Group_69785" data-name="Group 69785" clip-path="url(#clip-path-8)">
              <path id="Path_21609" data-name="Path 21609" d="M61.651,177.1c-.628,13.049-1.06,30.991-.443,52.832,4.226-13.615,8.823-32.072,12.689-48.637-2.581-3.444-6.592-5.1-12.246-4.2"></path>
            </g>
          </g>
        </g>
        <path id="Path_21610" data-name="Path 21610" d="M62.484,58.3c1.453,5.865,2.871,15.433.56,20.526,0,0,8.656.383,19.722,9.218,5.21-7.652-.82-9.153-.82-9.153-4.6-1.08-4.373-7.205-4.367-11.568Z" fill="#ffb573"></path>
        <path id="Path_21611" data-name="Path 21611" d="M60.305,81.491c-4.319-.477-1.332-8.683.913-7.883,5.672,2.02,18.4-.229,22.337,1.942S86.5,82.177,86.5,82.177,64.96,82,60.305,81.491" fill="#407bff"></path>
        <g id="Group_69790" data-name="Group 69790" opacity="0.7">
          <g id="Group_69789" data-name="Group 69789">
            <g id="Group_69788" data-name="Group 69788" clip-path="url(#clip-path-9)">
              <path id="Path_21612" data-name="Path 21612" d="M60.305,81.491c-4.319-.477-1.332-8.683.913-7.883,5.672,2.02,18.4-.229,22.337,1.942S86.5,82.177,86.5,82.177,64.96,82,60.305,81.491" fill="#0f3764"></path>
            </g>
          </g>
        </g>
        <path id="Path_21613" data-name="Path 21613" d="M58.663,47.543c2.288,9.538,3.057,13.624,8.709,17.727,8.5,6.171,19.486,1.3,20.037-8.722.5-9.023-3.329-23.106-13.264-25.3C64.358,29.08,56.375,38,58.663,47.543" fill="#ffb573"></path>
        <path id="Path_21614" data-name="Path 21614" d="M77.15,49.3c5.617-7.424,9.281-13.423,6.509-19.994-2.316-5.492-8.718-3.884-9.613-1.143C57.013,26.708,50.9,32.877,54.414,43.086c2.239,6.5-6.459,3.131-4.341,11.391,1.624,6.335-4.105,8.748-1.2,12.39,4.2,5.255,12.85-1.6,22.733,2.342,8.085,3.225,20.235-1.657,5.541-19.91" fill="#263238"></path>
        <path id="Path_21615" data-name="Path 21615" d="M76.237,50.8A6.3,6.3,0,0,0,80.5,53.736c2.236.326,3.005-2.179,2.09-4.5-.822-2.093-2.977-4.785-5.081-4.037-2.072.736-2.54,3.606-1.274,5.6" fill="#ffb573"></path>
        <path id="Path_21616" data-name="Path 21616" d="M79.559,332.5a9.235,9.235,0,0,1-4.865-2.121.289.289,0,0,1-.081-.3.286.286,0,0,1,.243-.2c.167-.019,4.153-.452,5.473.64a1.2,1.2,0,0,1,.463.852.946.946,0,0,1-.519.993,1.631,1.631,0,0,1-.714.138m-3.914-2.109c1.39.971,3.621,1.823,4.372,1.452.111-.054.22-.147.2-.43a.632.632,0,0,0-.255-.45c-.776-.642-2.967-.655-4.316-.572" fill="#fff"></path>
        <path id="Path_21617" data-name="Path 21617" d="M74.888,330.455a.289.289,0,0,1-.251-.433c.084-.147,2.081-3.622,3.743-4.045a1.2,1.2,0,0,1,.96.128.95.95,0,0,1,.5,1c-.227,1.3-3.165,2.977-4.89,3.339a.3.3,0,0,1-.059.006m3.838-3.945a.844.844,0,0,0-.2.027c-.975.249-2.276,2.011-3.005,3.151,1.6-.552,3.605-1.849,3.75-2.678.021-.12.01-.264-.231-.413a.576.576,0,0,0-.31-.087" fill="#fff"></path>
        <path id="Path_21618" data-name="Path 21618" d="M87.2,336.113c-8.328-.645-13.939-6.363-13.351-12.423.324-3.34-10.354-3.639-10.354-3.639,1.689,10.36-.431,11.837-1.127,14.513s-.528,5.633,1.681,5.689c2.647.067,3.878-.439,7.165-.311,3.843.149,8,.3,14.832.311,2.731.005,4.858-3.853,1.154-4.14" fill="#3cb4e6"></path>
        <path id="Path_21619" data-name="Path 21619" d="M97.162,141.016s-.726,51.086-4.759,84.66-17.9,99.423-17.9,99.423a23.124,23.124,0,0,1-11.074-.1s-4.38-51.441,2.979-101.149c-5.407-52.1-8.787-82.832-8.787-82.832Z" fill="#9cc"></path>
        <path id="Path_21620" data-name="Path 21620" d="M99.053,93.756c-.172,3.947,6.059,13.074-1.632,18.364,1.438,3.213,2.652,25-.259,28.9-4.246,3.121-27.228,2.514-46.287,0-.805-7.878,3.531-24.2-1.782-49.64a10.145,10.145,0,0,1,8.914-12.169c1.6-.162,3.3-.3,5.037-.38a127.622,127.622,0,0,1,18.229,0c1.968.179,4,.429,5.946.7A13.774,13.774,0,0,1,99.053,93.756" fill="#6fb2e4"></path>
        <g id="Group_69793" data-name="Group 69793" opacity="0.3">
          <g id="Group_69792" data-name="Group 69792">
            <g id="Group_69791" data-name="Group 69791" clip-path="url(#clip-path-10)">
              <path id="Path_21621" data-name="Path 21621" d="M49.578,90c-.144.077-.286.157-.432.231l0,0,0,0a.265.265,0,0,0,.252.466c.157-.084.31-.174.466-.262,2.04.754,4.254,2.456,5.517,2.631-2.038-1.8-3.505-3.092-5.114-2.858.485-.282.961-.578,1.431-.882,1.875.7,3.906,2.257,5.067,2.418-1.89-1.672-3.248-2.864-4.742-2.629.353-.234.7-.472,1.05-.716.2-.138.39-.28.584-.422,1.69.734,3.484,2.288,4.545,2.5-1.7-1.686-2.9-2.875-4.344-2.645.451-.333.893-.677,1.33-1.026,1.553.679,3.2,2.1,4.173,2.3-1.562-1.551-2.67-2.645-3.995-2.438.375-.3.747-.609,1.113-.922.089-.075.176-.153.264-.23,1.37.718,2.728,2.139,3.621,2.4-1.294-1.555-2.195-2.63-3.557-2.452q.528-.458,1.044-.928c1.259.663,2.507,1.967,3.328,2.205-1.188-1.428-2.017-2.417-3.265-2.262q.546-.5,1.08-1.016c1.1.677,2.151,1.913,2.88,2.169-.989-1.351-1.684-2.294-2.8-2.243.194-.189.388-.378.579-.57.111-.111.219-.225.329-.337,1.014.623,1.983,1.763,2.654,2-.912-1.247-1.553-2.116-2.587-2.067q.45-.464.885-.941c.93.5,1.8,1.455,2.423,1.637-.819-1.054-1.391-1.784-2.381-1.684.053-.058.109-.115.161-.175q.315-.354.62-.718a26.3,26.3,0,0,0,2.206,1.494c-.744-.957-1.267-1.624-2.154-1.556a11.107,11.107,0,0,0,.684-.908.085.085,0,0,0-.022-.117.086.086,0,0,0-.118.021l0,0c-.2.287-.42.562-.649.83a1.915,1.915,0,0,0-.373-1.36c-.117.007-.236.013-.352.022a12.645,12.645,0,0,1,.562,1.525c-.184.209-.372.416-.561.621-.044.048-.091.094-.136.142.2-.741-.191-1.389-.791-2.219l-.19.017c.16.634.641,1.506.843,2.346q-.405.426-.824.839c.259-.945-.392-1.783-1.314-2.964.044.707.868,1.939,1.2,3.079-.1.1-.193.192-.291.287-.186.179-.375.355-.564.531.261-1.013-.441-1.917-1.432-3.185.048.762.932,2.087,1.292,3.318q-.489.453-.99.893c.216-1.024-.466-2.023-1.407-3.392.006.813.836,2.259,1.171,3.6-.268.234-.54.466-.813.694.24-1.115-.5-2.2-1.524-3.69.006.881.906,2.451,1.27,3.9l-.215.18c-.375.306-.755.605-1.137.9.3-1.136-.408-2.423-1.38-4.174-.075.95.771,2.8,1.045,4.432q-.645.489-1.306.954c.5-1.289-.3-2.739-1.424-4.757-.084,1.057.884,3.142,1.155,4.944-.129.089-.256.179-.386.267-.406.273-.817.537-1.232.8.571-1.3-.118-2.852-1.127-4.952-.047.074-.1.144-.145.22.079,1.237.792,3.213.952,4.931q-.688.42-1.4.808c.535-1.087.232-2.325-.428-3.871a10.011,10.011,0,0,0-.36,1.342,19.066,19.066,0,0,1,.5,2.684" fill="#263238"></path>
              <path id="Path_21622" data-name="Path 21622" d="M75.849,82.874c-1.553-.992-3.077-2.811-4.092-3.187,1.409,1.934,2.409,3.3,3.87,3.3-.5.258-.989.528-1.476.8-1.426-.917-2.824-2.582-3.756-2.928,1.3,1.778,2.217,3.035,3.557,3.041-.417.239-.833.483-1.244.733-.1.06-.2.124-.3.186-1.239-.926-2.354-2.544-3.2-2.941,1.031,1.74,1.751,2.945,3.124,2.985q-.594.368-1.178.75c-1.139-.853-2.164-2.339-2.937-2.7.947,1.6,1.609,2.706,2.866,2.751q-.619.408-1.228.832c-.979-.842-1.821-2.229-2.5-2.6.763,1.491,1.3,2.532,2.413,2.66-.221.155-.443.311-.662.47-.127.092-.251.187-.377.281-.9-.776-1.679-2.055-2.305-2.394.7,1.375,1.2,2.335,2.227,2.451q-.517.386-1.022.788c-.84-.639-1.549-1.722-2.134-2,.642,1.17,1.092,1.982,2.085,2.039-.062.05-.126.1-.187.148-.245.2-.488.4-.726.611-.763-.592-1.408-1.571-1.941-1.824.583,1.062.993,1.8,1.879,1.877a11.255,11.255,0,0,0-.819.788.085.085,0,0,0,0,.119.086.086,0,0,0,.12,0v0c.244-.251.5-.488.773-.717-.25.7.112,1.406.612,2.376a20.414,20.414,0,0,0-.421-2.534c.215-.178.433-.352.652-.524.051-.041.105-.079.157-.119-.353.793.051,1.584.619,2.687a25.039,25.039,0,0,0-.46-2.807q.468-.357.947-.7c-.407.892.1,1.822.827,3.134.068-.705-.55-2.052-.693-3.229.111-.079.221-.16.333-.237.212-.148.426-.291.64-.436-.417.96.132,1.963.91,3.373.074-.76-.589-2.209-.75-3.481q.555-.371,1.119-.725c-.375.977.14,2.07.851,3.572.124-.8-.467-2.363-.586-3.737q.455-.282.913-.556c-.414,1.063.146,2.251.92,3.885.134-.871-.506-2.563-.636-4.054l.242-.143c.418-.243.84-.478,1.265-.71-.478,1.074.018,2.457.7,4.34.225-.926-.318-2.887-.33-4.541q.714-.381,1.441-.736c-.694,1.195-.134,2.753.652,4.923.251-1.03-.375-3.242-.357-5.064.142-.068.282-.137.424-.2.444-.206.892-.4,1.342-.591-.805,1.253-.3,2.976.417,5.369.337-1.1-.2-3.537-.07-5.514q.747-.306,1.506-.577c-.969,1.367-.411,3.264.383,5.925.368-1.205-.226-3.878-.072-6.033.154-.053.308-.109.463-.159h0l0,0a.265.265,0,1,0-.174-.5c-.169.058-.334.123-.5.184a32.249,32.249,0,0,1-3.417-2.5c-.274-.009-.549-.013-.823-.019,1.34,1.587,2.44,2.66,3.805,2.68-.523.2-1.04.418-1.552.645-1.741-.986-3.5-2.848-4.62-3.19,1.6,1.949,2.753,3.342,4.265,3.346-.385.175-.769.354-1.149.54-.217.106-.43.216-.644.325" fill="#263238"></path>
              <path id="Path_21623" data-name="Path 21623" d="M63,102.1c-1.134-1.232-1.93-2.091-3.037-1.917.172-.209.344-.418.512-.63.1-.123.192-.248.289-.371,1.078.506,2.167,1.53,2.861,1.69-1.046-1.137-1.78-1.93-2.8-1.766q.4-.51.774-1.034c.981.391,1.953,1.246,2.592,1.357-.932-.956-1.582-1.617-2.555-1.407.047-.065.1-.127.141-.192.182-.259.362-.519.536-.783a25.934,25.934,0,0,0,2.359,1.238c-.846-.867-1.44-1.473-2.314-1.306A11.212,11.212,0,0,0,62.938,96a.085.085,0,0,0-.034-.114.086.086,0,0,0-.116.034v0c-.167.308-.355.605-.552.9.054-.74-.485-1.325-1.225-2.126a20.13,20.13,0,0,0,1.083,2.329c-.16.229-.323.455-.488.68-.039.052-.08.1-.12.156.128-.858-.473-1.513-1.315-2.424a25.293,25.293,0,0,0,1.194,2.583q-.355.468-.725.925c.152-.968-.588-1.728-1.636-2.8.123.7,1.079,1.829,1.532,2.926-.086.105-.171.212-.258.318-.164.2-.333.394-.5.59.145-1.036-.653-1.856-1.779-3.006.133.752,1.159,1.97,1.654,3.153q-.437.505-.885,1c.1-1.042-.688-1.958-1.775-3.215.1.807,1.082,2.153,1.564,3.444q-.362.393-.731.78c.115-1.135-.742-2.13-1.926-3.5.105.875,1.174,2.334,1.7,3.736-.065.067-.129.136-.195.2q-.507.519-1.029,1.023c.173-1.163-.675-2.363-1.836-3.994.031.952,1.078,2.7,1.532,4.287q-.585.558-1.191,1.094c.349-1.336-.607-2.688-1.945-4.569.034,1.06,1.228,3.024,1.7,4.785-.118.1-.234.207-.354.308-.372.317-.752.626-1.135.929.441-1.422-.51-2.947-1.838-5.062-.03,1.152,1.139,3.354,1.542,5.294q-.637.5-1.3.96a3.719,3.719,0,0,0-.389-2.9c.123,1.228.218,2.419.3,3.591l.142-.1c2.111.521,4.5,1.966,5.776,2-2.226-1.563-3.828-2.681-5.4-2.27.451-.334.891-.682,1.324-1.037,1.941.484,4.133,1.808,5.305,1.839-2.065-1.45-3.547-2.485-5.006-2.084.325-.272.647-.547.964-.828.18-.16.356-.323.533-.486,1.761.541,3.717,1.886,4.8,1.977-1.876-1.487-3.2-2.534-4.612-2.144.411-.382.812-.772,1.207-1.169,1.619.5,3.412,1.733,4.4,1.816-1.725-1.367-2.948-2.331-4.242-1.978.339-.343.674-.688,1-1.04.08-.084.158-.172.237-.258,1.442.561,2.949,1.821,3.866,1.979-1.459-1.4-2.475-2.369-3.809-2.041q.474-.513.934-1.038c1.326.518,2.712,1.675,3.554,1.82-1.34-1.287-2.275-2.177-3.5-1.883q.488-.559.96-1.131c1.169.55,2.351,1.661,3.1,1.834" fill="#263238"></path>
              <path id="Path_21624" data-name="Path 21624" d="M80.906,101.349c-.744.327-1.742,1.663-2.836,2.5q-.483-.231-.96-.471c1.119-.222,1.82-1.333,2.782-2.864-.807.356-1.89,1.805-3.077,2.715-.083-.042-.168-.083-.251-.126q-.644-.334-1.278-.685c1.162-.175,2.062-1.337,3.283-2.924-.9.308-2.264,1.819-3.652,2.718q-.707-.4-1.395-.82c1.38-.057,2.394-1.366,3.8-3.195-1,.342-2.533,2.058-4.079,3.022-.133-.083-.267-.163-.4-.248-.412-.264-.817-.537-1.219-.814,1.489.006,2.669-1.349,4.3-3.237-1.11.308-2.875,2.069-4.612,3.022q-.66-.466-1.3-.96c1.674.083,2.974-1.408,4.792-3.507-1.215.337-3.15,2.275-5.05,3.3-.127-.1-.257-.2-.383-.3l0,0,0,0a.265.265,0,1,0-.329.416c.14.111.284.216.426.324.118,2.171-.566,4.879-.225,6.108.845-2.586,1.446-4.444.593-5.828.452.333.912.652,1.378.962.1,2-.521,4.482-.208,5.611.784-2.4,1.34-4.118.531-5.4q.532.348,1.073.68c.205.126.413.246.62.368,0,1.843-.717,4.106-.489,5.164.873-2.228,1.487-3.805.7-5.037.485.281.976.55,1.471.813-.007,1.695-.661,3.77-.451,4.741.8-2.048,1.368-3.5.652-4.635.427.224.856.444,1.288.656.105.052.211.1.316.152-.115,1.542-.88,3.352-.763,4.274.913-1.805,1.542-3.059.839-4.238q.628.3,1.266.59c-.108,1.419-.81,3.082-.7,3.93.84-1.658,1.418-2.812.78-3.895q.677.3,1.361.588c-.183,1.279-.9,2.734-.847,3.5.848-1.445,1.437-2.457.946-3.464.251.1.5.205.752.305.147.057.294.111.44.168-.169,1.178-.83,2.519-.78,3.229.782-1.332,1.325-2.265.87-3.195.4.153.807.3,1.215.438-.088,1.052-.621,2.232-.541,2.875.642-1.17,1.085-1.985.6-2.854.075.026.149.054.225.078.3.1.6.195.9.284a25.888,25.888,0,0,0-.5,2.618c.582-1.063.988-1.808.573-2.594a11.309,11.309,0,0,0,1.1.267.085.085,0,0,0,.033-.167h0c-.342-.071-.682-.163-1.019-.267.722-.164,1.125-.85,1.675-1.792-.522.231-1.166,1.14-1.912,1.716-.265-.086-.529-.176-.791-.268-.063-.022-.123-.046-.185-.068.858-.129,1.309-.9,1.934-1.967-.578.256-1.292,1.274-2.121,1.9q-.552-.2-1.1-.424c.97-.136,1.481-1.066,2.2-2.382-.631.322-1.434,1.567-2.351,2.32-.126-.051-.253-.1-.379-.153-.238-.1-.474-.2-.711-.306,1.033-.164,1.585-1.166,2.355-2.58-.681.347-1.546,1.684-2.532,2.5q-.611-.269-1.213-.554c1.026-.208,1.671-1.23,2.555-2.637" fill="#263238"></path>
              <path id="Path_21625" data-name="Path 21625" d="M74.968,115.06a26.557,26.557,0,0,0,2.432,1.087c-.9-.813-1.53-1.379-2.391-1.157.186-.329.361-.664.515-1.013a.085.085,0,0,0-.042-.112.086.086,0,0,0-.113.041v0c-.147.317-.315.626-.494.93.007-.741-.567-1.292-1.357-2.044a20.3,20.3,0,0,0,1.228,2.256q-.218.358-.444.709c-.035.055-.073.109-.109.164.073-.865-.568-1.481-1.467-2.336a25.244,25.244,0,0,0,1.356,2.5q-.326.489-.666.969c.091-.976-.695-1.687-1.809-2.689.167.688,1.192,1.757,1.714,2.823-.08.111-.157.223-.237.334-.152.208-.308.414-.463.621.08-1.044-.768-1.812-1.965-2.888.18.742,1.281,1.893,1.85,3.042q-.4.532-.82,1.053c.035-1.047-.81-1.911-1.975-3.1.147.8,1.216,2.079,1.779,3.338q-.336.416-.68.825c.043-1.14-.876-2.079-2.143-3.369.159.867,1.319,2.256,1.93,3.621-.061.072-.12.144-.181.215-.315.367-.637.728-.962,1.085.1-1.171-.824-2.315-2.086-3.87.091.949,1.247,2.623,1.8,4.182q-.55.6-1.12,1.168c.264-1.356-.776-2.645-2.23-4.438.1,1.056,1.417,2.941,2,4.668-.111.11-.221.222-.333.33-.352.341-.711.672-1.075,1,.35-1.448-.7-2.909-2.154-4.935.043,1.151,1.348,3.275,1.874,5.186q-.606.534-1.234,1.039c.468-1.61-.682-3.219-2.3-5.473.047,1.26,1.485,3.59,2.046,5.676-.128.1-.255.2-.385.3l0,0,0,0a.265.265,0,1,0,.329.415c.14-.11.275-.225.413-.338,2.14.386,4.617,1.677,5.891,1.629-2.32-1.419-3.99-2.434-5.533-1.923.428-.363.845-.737,1.255-1.119,1.968.361,4.24,1.543,5.411,1.5-2.153-1.317-3.7-2.254-5.128-1.763.307-.292.611-.586.909-.887.17-.17.336-.344.5-.518,1.792.429,3.829,1.647,4.911,1.669-1.965-1.364-3.358-2.326-4.738-1.848.386-.407.761-.822,1.131-1.243,1.647.4,3.515,1.514,4.508,1.534-1.807-1.255-3.089-2.14-4.358-1.706q.476-.544.936-1.1c.074-.091.146-.183.22-.273,1.474.468,3.058,1.631,3.983,1.73-1.545-1.306-2.62-2.208-3.93-1.8q.439-.542.866-1.1c1.356.433,2.812,1.5,3.662,1.592-1.419-1.2-2.408-2.029-3.61-1.659q.452-.588.887-1.189c1.2.474,2.452,1.509,3.214,1.634-1.209-1.158-2.058-1.965-3.152-1.721.159-.219.317-.439.471-.661.09-.129.177-.26.265-.389,1.108.437,2.26,1.39,2.962,1.506-1.115-1.068-1.9-1.813-2.908-1.586.242-.356.479-.715.708-1.08,1,.329,2.028,1.12,2.672,1.19-.991-.9-1.681-1.514-2.638-1.242.042-.068.086-.133.128-.2.165-.27.328-.54.485-.815" fill="#263238"></path>
              <path id="Path_21626" data-name="Path 21626" d="M81.207,126.535c.211-.279.44-.546.679-.806-.163.723.283,1.382.9,2.283a20.126,20.126,0,0,0-.728-2.464c.191-.2.386-.4.582-.6l.142-.137c-.253.83.245,1.566.944,2.591a25.243,25.243,0,0,0-.8-2.73q.42-.411.854-.809c-.294.936.326,1.8,1.206,3.009-.019-.708-.8-1.968-1.085-3.12.1-.091.2-.185.3-.276.192-.172.387-.341.582-.51-.3,1,.372,1.932,1.317,3.235-.021-.764-.856-2.12-1.172-3.362q.505-.437,1.022-.858c-.253,1.016.392,2.038,1.283,3.441.024-.813-.754-2.288-1.041-3.636q.416-.338.838-.664c-.28,1.1.421,2.216,1.39,3.743.026-.882-.817-2.483-1.129-3.946.075-.057.148-.115.222-.172q.579-.438,1.169-.86c-.342,1.125.32,2.437,1.228,4.221.11-.946-.669-2.826-.884-4.466q.662-.465,1.339-.907c-.542,1.27.205,2.749,1.252,4.806.122-1.053-.77-3.172-.976-4.983.132-.084.262-.17.4-.253.415-.259.836-.507,1.26-.751-.646,1.342.071,2.99,1.073,5.277.2-1.135-.633-3.485-.746-5.463q.7-.4,1.424-.759c-.795,1.476-.008,3.291,1.106,5.835.218-1.242-.7-3.822-.811-5.979.146-.072.291-.146.439-.216h0l0,0a.265.265,0,1,0-.234-.475c-.16.079-.317.163-.475.245-2.012-.827-4.163-2.608-5.419-2.828,1.971,1.874,3.392,3.216,5.008,3.04-.5.265-.981.544-1.462.831-1.849-.765-3.822-2.4-4.977-2.6,1.829,1.738,3.143,2.979,4.645,2.8q-.543.33-1.075.677c-.2.131-.4.266-.6.4-1.663-.794-3.4-2.412-4.453-2.66,1.636,1.746,2.8,2.978,4.246,2.8-.462.317-.916.645-1.366.979-1.527-.735-3.12-2.217-4.087-2.444,1.5,1.6,2.573,2.739,3.9,2.58-.385.289-.768.582-1.145.88-.092.073-.181.148-.273.221-1.343-.766-2.648-2.235-3.531-2.526,1.236,1.6,2.1,2.708,3.466,2.579q-.544.438-1.077.889c-1.235-.707-2.435-2.055-3.247-2.323,1.136,1.47,1.93,2.488,3.182,2.378q-.564.481-1.116.976c-1.075-.715-2.081-1.988-2.8-2.27.94,1.385,1.6,2.353,2.721,2.343-.2.181-.4.363-.6.548-.114.107-.227.216-.34.325-.992-.659-1.918-1.833-2.581-2.093.867,1.278,1.476,2.17,2.511,2.159q-.466.445-.918.908c-.912-.531-1.748-1.519-2.363-1.723.781,1.083,1.327,1.832,2.319,1.768-.055.057-.113.112-.167.169-.218.229-.435.46-.646.695-.83-.493-1.59-1.386-2.15-1.572.709.983,1.207,1.669,2.1,1.632a11.3,11.3,0,0,0-.716.883.086.086,0,0,0,.017.118.085.085,0,0,0,.119-.017Z" fill="#263238"></path>
              <path id="Path_21627" data-name="Path 21627" d="M69.152,141.184c.41-.382.811-.772,1.207-1.169,1.619.5,3.412,1.733,4.4,1.816-1.725-1.366-2.948-2.33-4.242-1.978.338-.342.674-.688,1-1.039.08-.085.158-.173.237-.258,1.442.56,2.949,1.821,3.865,1.978-1.458-1.4-2.474-2.369-3.808-2.04q.474-.515.934-1.038c1.326.518,2.711,1.674,3.554,1.82-1.34-1.287-2.275-2.178-3.5-1.884q.489-.56.961-1.13c1.169.549,2.351,1.66,3.1,1.834-1.134-1.232-1.93-2.092-3.037-1.917.172-.21.344-.418.512-.63.1-.123.192-.248.289-.372,1.077.506,2.167,1.53,2.861,1.69-1.046-1.137-1.78-1.929-2.8-1.766q.4-.51.774-1.033c.981.391,1.953,1.246,2.592,1.357-.932-.957-1.583-1.618-2.555-1.408.046-.064.1-.127.141-.192.182-.259.362-.519.536-.783a26.382,26.382,0,0,0,2.358,1.239c-.846-.868-1.439-1.473-2.313-1.306a11.232,11.232,0,0,0,.578-.979.085.085,0,0,0-.15-.079v0c-.167.307-.355.6-.553.9.055-.739-.484-1.325-1.225-2.125a20.458,20.458,0,0,0,1.083,2.329c-.159.228-.322.455-.487.679-.039.053-.08.1-.12.157.128-.859-.473-1.514-1.316-2.424a25.331,25.331,0,0,0,1.195,2.582q-.355.469-.726.926c.153-.968-.587-1.729-1.635-2.8.123.7,1.079,1.83,1.532,2.926-.086.106-.171.213-.258.318-.165.2-.333.4-.5.59.146-1.035-.652-1.855-1.778-3.005.132.752,1.158,1.97,1.654,3.153q-.437.5-.885,1c.1-1.042-.688-1.958-1.776-3.214.1.807,1.083,2.152,1.565,3.443q-.362.395-.731.78c.115-1.134-.743-2.13-1.926-3.5.1.875,1.174,2.335,1.7,3.736-.066.068-.129.136-.195.2q-.507.519-1.029,1.022c.173-1.162-.675-2.362-1.836-3.994.03.952,1.078,2.7,1.532,4.288q-.586.558-1.191,1.094c.349-1.337-.607-2.689-1.946-4.569.034,1.06,1.229,3.024,1.7,4.784-.118.1-.234.207-.354.309-.372.317-.752.625-1.135.928.441-1.422-.511-2.947-1.838-5.061-.029,1.137,1.108,3.3,1.524,5.223l.792.055c.319-.268.636-.538.947-.814.18-.159.356-.323.533-.485a33.659,33.659,0,0,1,3.553,1.579l.78.033c-1.634-1.285-2.862-2.136-4.149-1.78" fill="#263238"></path>
              <path id="Path_21628" data-name="Path 21628" d="M63.464,138.019c-.026,1,.769,2.714,1.316,4.437.26.019.52.041.779.06-.085-1.274-.958-2.685-2.095-4.5" fill="#263238"></path>
              <path id="Path_21629" data-name="Path 21629" d="M67.544,142.654q.779.051,1.551.1a2.778,2.778,0,0,0-1.551-.1" fill="#263238"></path>
              <path id="Path_21630" data-name="Path 21630" d="M97.468,140.5c.03-.059.058-.125.087-.189-.126-.042-.253-.084-.378-.128-.062-.021-.123-.046-.185-.068a1.546,1.546,0,0,0,.787-.369c.094-.268.183-.554.263-.871a11.467,11.467,0,0,1-1.237,1.17q-.552-.2-1.1-.424c.97-.136,1.481-1.066,2.2-2.382-.631.322-1.434,1.567-2.35,2.321-.127-.052-.254-.1-.38-.154-.238-.1-.474-.2-.711-.306,1.033-.163,1.585-1.166,2.355-2.579-.68.346-1.545,1.683-2.532,2.5q-.611-.269-1.213-.553c1.026-.209,1.671-1.231,2.555-2.638-.744.328-1.742,1.664-2.836,2.5-.322-.155-.641-.311-.96-.471,1.119-.223,1.82-1.333,2.782-2.865-.807.356-1.89,1.805-3.077,2.715-.083-.042-.168-.083-.251-.126-.429-.222-.855-.452-1.278-.685,1.162-.175,2.062-1.336,3.284-2.924-.9.308-2.265,1.82-3.653,2.718q-.705-.4-1.395-.819c1.38-.057,2.394-1.367,3.8-3.2-1,.343-2.534,2.058-4.08,3.023-.133-.083-.267-.164-.4-.248-.413-.264-.818-.537-1.22-.815,1.489.006,2.669-1.349,4.3-3.237-1.11.309-2.875,2.069-4.612,3.022q-.66-.465-1.3-.96c1.674.083,2.974-1.407,4.792-3.507-1.214.337-3.15,2.275-5.05,3.3-.127-.1-.257-.2-.383-.305l0,0,0,0a.265.265,0,1,0-.328.417c.139.11.283.215.425.323.118,2.171-.566,4.88-.225,6.109.845-2.586,1.447-4.445.593-5.829.452.333.912.652,1.379.963.1,2-.522,4.481-.208,5.61.783-2.4,1.339-4.118.53-5.4q.533.348,1.073.68c.205.126.413.246.62.368,0,1.843-.717,4.106-.489,5.164.874-2.228,1.487-3.8.7-5.037q.728.422,1.471.813c-.007,1.695-.66,3.77-.451,4.741.8-2.048,1.368-3.5.653-4.634.426.223.855.443,1.287.655.105.052.211.1.316.152-.115,1.542-.88,3.352-.763,4.275.914-1.8,1.543-3.06.839-4.239q.63.3,1.266.59c-.105,1.376-.762,2.975-.7,3.844l.048-.007c.813-1.606,1.359-2.74.733-3.8q.677.3,1.362.588c-.15,1.038-.645,2.187-.8,3l.276-.053c.661-1.156,1.046-2.032.622-2.9.25.1.5.206.752.305.146.057.293.111.44.168a15.584,15.584,0,0,1-.581,2.141c.164-.045.326-.09.476-.137a2.149,2.149,0,0,0,.194-1.97c.4.153.807.3,1.215.439a6.706,6.706,0,0,1-.195,1.047,3.942,3.942,0,0,0,.452-.269,1.521,1.521,0,0,0-.2-.758c.075.026.149.054.225.079.12.039.241.075.361.113" fill="#263238"></path>
              <path id="Path_21631" data-name="Path 21631" d="M57.9,119.038h0l0,0a.265.265,0,0,0-.142-.51c-.172.048-.342.1-.512.152-1.822-1.186-3.6-3.338-4.8-3.789,1.588,2.209,2.733,3.792,4.353,3.921-.536.168-1.065.351-1.591.544-1.237-.811-2.451-2.1-3.443-2.88,0,.24,0,.465,0,.7,1.024,1.341,1.921,2.232,3.083,2.311-.4.148-.791.3-1.182.465-.222.091-.442.187-.663.282a12.176,12.176,0,0,1-1.246-1.086c0,.288-.008.573-.014.856a2.281,2.281,0,0,0,1.031.328c-.355.156-.7.323-1.054.488l-.012.434c.458-.206.918-.407,1.383-.6-.77,1.147-.312,2.739.333,4.955.316-1.012-.165-3.26-.029-5.077.145-.058.289-.119.435-.175.456-.177.916-.343,1.378-.5-.885,1.2-.488,2.953.069,5.386.408-1.078.029-3.542.287-5.507.51-.171,1.023-.332,1.54-.478-1.055,1.3-.621,3.231,0,5.937.445-1.178.025-3.885.318-6.025.157-.043.314-.089.472-.13" fill="#263238"></path>
              <path id="Path_21632" data-name="Path 21632" d="M51.545,125.486l.105.365a9.285,9.285,0,0,0,.006-2.686q-.049,1.189-.111,2.321" fill="#263238"></path>
              <path id="Path_21633" data-name="Path 21633" d="M55.189,140.528c-.126-.205-.256-.407-.386-.609.836-1.642,2.5-3.337,2.773-4.383-1.787,1.591-3.048,2.719-2.907,4.173-.305-.47-.621-.933-.943-1.391.773-1.508,2.295-3.062,2.548-4.023-1.644,1.463-2.8,2.5-2.68,3.837-.279-.393-.561-.783-.851-1.167-.07-.094-.142-.186-.213-.278.8-1.324,2.3-2.592,2.615-3.467-1.631,1.2-2.76,2.03-2.666,3.4q-.425-.554-.862-1.1c.739-1.217,2.117-2.382,2.4-3.187-1.5,1.1-2.536,1.865-2.458,3.12-.208-.257-.422-.51-.635-.764-.009.142-.019.289-.027.428.122.154.246.305.366.459a1.886,1.886,0,0,0-.391-.063c-.009.153-.015.3-.022.451.2-.054.4-.1.6-.14q.325.423.642.854a2.32,2.32,0,0,0-1.275.031c-.009.213-.02.433-.027.639a12.459,12.459,0,0,1,1.5-.4c.055.075.112.15.167.226.282.392.557.79.829,1.19a3.687,3.687,0,0,0-2.509.332c0,.189-.005.39,0,.572a24.146,24.146,0,0,1,2.747-.554q.45.673.873,1.362c-.981-.448-2.112-.11-3.551.53.011.133.012.283.025.412l.235.03a30.009,30.009,0,0,1,3.461-.692c.081.134.163.267.243.4.154.263.3.531.447.8l.577.065c-.211-.367-.426-.73-.648-1.089" fill="#263238"></path>
              <path id="Path_21634" data-name="Path 21634" d="M51.17,131.194c-.012.167-.023.317-.035.481a3.639,3.639,0,0,0,.72-.93c-.245.157-.471.3-.685.449" fill="#263238"></path>
              <path id="Path_21635" data-name="Path 21635" d="M57.216,141.766c.305.033.609.066.914.1a14.053,14.053,0,0,0,1.859-3.352,15.674,15.674,0,0,0-2.773,3.255" fill="#263238"></path>
              <path id="Path_21636" data-name="Path 21636" d="M56.178,141.655c.851-1.737,2.357-3.521,2.576-4.607-1.783,1.783-3.056,3.065-2.915,4.569l.339.038" fill="#263238"></path>
              <path id="Path_21637" data-name="Path 21637" d="M51.038,133.035c-.019.274-.037.547-.056.813a15.531,15.531,0,0,0,1.976-2.276,8.952,8.952,0,0,0-1.92,1.463" fill="#263238"></path>
            </g>
          </g>
        </g>
        <path id="Path_21638" data-name="Path 21638" d="M122.46,107.895l4.546-4.821,6.295,8.865s-5.315,3.772-10.407,3.621l-.583-1.3a7.13,7.13,0,0,1,.149-6.363" fill="#ffb573"></path>
        <path id="Path_21639" data-name="Path 21639" d="M134.291,103.538l1.778,3.35a3.15,3.15,0,0,1-1.282,4.246l-1.486.805-6.295-8.865,3.6-1.077a3.148,3.148,0,0,1,3.685,1.541" fill="#ffb573"></path>
        <path id="Path_21640" data-name="Path 21640" d="M98.439,90.587l.383,1.968.432,2.078c.309,1.386.612,2.777.961,4.151.671,2.757,1.465,5.457,2.329,8.069a54.382,54.382,0,0,0,3.048,7.309,19.635,19.635,0,0,0,3.769,5.248l-2.186-1.077c-.641-.087-.756.109-.424.1a4.734,4.734,0,0,0,1.559-.446,26.231,26.231,0,0,0,4.38-2.563c1.533-1.052,3.07-2.247,4.61-3.484,1.534-1.221,3.1-2.571,4.592-3.793l.158-.13a3.619,3.619,0,0,1,5.513,4.453,51.885,51.885,0,0,1-3.446,5.7,52.585,52.585,0,0,1-4.19,5.309,31.769,31.769,0,0,1-5.541,4.918,18.073,18.073,0,0,1-4.106,2.094,12.038,12.038,0,0,1-2.9.634,11.049,11.049,0,0,1-3.664-.263,5.615,5.615,0,0,1-1.938-.9l-.249-.183a29.749,29.749,0,0,1-7.824-8.732c-.94-1.532-1.778-3.075-2.536-4.621-.735-1.553-1.4-3.11-2.015-4.668a83.968,83.968,0,0,1-3.015-9.4c-.4-1.578-.786-3.156-1.1-4.751-.162-.8-.318-1.6-.457-2.4-.139-.831-.257-1.573-.389-2.537a7.2,7.2,0,0,1,14.187-2.374Z" fill="#ffb573"></path>
        <path id="Path_21641" data-name="Path 21641" d="M88.579,79.791c5.978.618,10.764,4.583,14.106,17.223-2.571,3.557-18.766,11.363-18.766,11.363s-9.017-30,4.66-28.586" fill="#0f3764"></path>
      </g>
    </g>
  </g>
</svg>
