<?xml version="1.0" encoding="UTF-8"?>
<svg xmlns="http://www.w3.org/2000/svg" xmlns:xlink="http://www.w3.org/1999/xlink" width="28" height="26.133" viewBox="0 0 28 26.133">
  <defs>
    <clipPath id="clip-path">
      <rect id="Rectangle_2889" data-name="Rectangle 2889" width="28" height="26.133" transform="translate(0 0)" fill="#0f3764"></rect>
    </clipPath>
  </defs>
  <g id="Group_69819" data-name="Group 69819" transform="translate(0 0)">
    <g id="Group_69818" data-name="Group 69818" clip-path="url(#clip-path)">
      <path id="Path_21664" data-name="Path 21664" d="M1.867,22.4H2.8v-.933H1.867a.933.933,0,0,1-.933-.934V1.867A.933.933,0,0,1,1.867.933H22.4a.934.934,0,0,1,.934.934V2.8h.933V1.867A1.867,1.867,0,0,0,22.4,0H1.867A1.867,1.867,0,0,0,0,1.867V20.533A1.867,1.867,0,0,0,1.867,22.4" fill="#0f3764"></path>
      <rect id="Rectangle_2879" data-name="Rectangle 2879" width="0.933" height="0.933" transform="translate(1.867 1.866)" fill="#0f3764"></rect>
      <rect id="Rectangle_2880" data-name="Rectangle 2880" width="0.933" height="0.933" transform="translate(3.733 1.866)" fill="#0f3764"></rect>
      <rect id="Rectangle_2881" data-name="Rectangle 2881" width="0.933" height="0.933" transform="translate(5.6 1.866)" fill="#0f3764"></rect>
      <path id="Path_21665" data-name="Path 21665" d="M3.734,24.267A1.865,1.865,0,0,0,5.6,26.133H26.134A1.865,1.865,0,0,0,28,24.267V5.6a1.866,1.866,0,0,0-1.866-1.867H5.6A1.866,1.866,0,0,0,3.734,5.6ZM4.667,5.6A.933.933,0,0,1,5.6,4.667H26.134a.933.933,0,0,1,.933.933V24.267a.933.933,0,0,1-.933.933H5.6a.933.933,0,0,1-.933-.933Z" fill="#0f3764"></path>
      <rect id="Rectangle_2882" data-name="Rectangle 2882" width="0.933" height="0.933" transform="translate(5.6 5.6)" fill="#0f3764"></rect>
      <rect id="Rectangle_2883" data-name="Rectangle 2883" width="0.933" height="0.933" transform="translate(7.467 5.6)" fill="#0f3764"></rect>
      <rect id="Rectangle_2884" data-name="Rectangle 2884" width="0.933" height="0.933" transform="translate(9.333 5.6)" fill="#0f3764"></rect>
      <rect id="Rectangle_2885" data-name="Rectangle 2885" width="20.533" height="0.933" transform="translate(5.6 7.466)" fill="#0f3764"></rect>
      <rect id="Rectangle_2886" data-name="Rectangle 2886" width="3.733" height="0.933" transform="translate(5.6 9.8)" fill="#0f3764"></rect>
      <rect id="Rectangle_2887" data-name="Rectangle 2887" width="2.8" height="0.933" transform="translate(5.6 11.666)" fill="#0f3764"></rect>
      <path id="Path_21666" data-name="Path 21666" d="M15.867,13.533A3.267,3.267,0,1,0,19.134,16.8a3.267,3.267,0,0,0-3.267-3.267m0,5.6A2.333,2.333,0,1,1,18.2,16.8a2.333,2.333,0,0,1-2.333,2.333" fill="#0f3764"></path>
      <path id="Path_21667" data-name="Path 21667" d="M23.333,15.4a.466.466,0,0,0-.466-.467H21.633a5.928,5.928,0,0,0-.369-.891l.872-.872a.467.467,0,0,0,0-.66l-1.98-1.98a.467.467,0,0,0-.66,0l-.871.872a5.983,5.983,0,0,0-.892-.369V9.8a.466.466,0,0,0-.466-.467h-2.8A.467.467,0,0,0,14,9.8v1.233a6.016,6.016,0,0,0-.891.369l-.872-.872a.467.467,0,0,0-.66,0L9.6,12.51a.467.467,0,0,0,0,.66l.872.872c-.039.076-.077.153-.112.23a6.024,6.024,0,0,0-.257.661H8.867A.467.467,0,0,0,8.4,15.4v2.8a.467.467,0,0,0,.467.466H10.1a5.983,5.983,0,0,0,.369.892l-.872.871a.467.467,0,0,0,0,.66l1.98,1.98a.467.467,0,0,0,.66,0l.872-.871a6.12,6.12,0,0,0,.891.368V23.8a.467.467,0,0,0,.467.466h2.8a.466.466,0,0,0,.466-.466V22.566a6.086,6.086,0,0,0,.892-.368l.871.871a.467.467,0,0,0,.66,0l1.98-1.98a.467.467,0,0,0,0-.66l-.872-.871a5.983,5.983,0,0,0,.369-.892h1.234a.466.466,0,0,0,.466-.466ZM22.4,17.733H21.283a.467.467,0,0,0-.452.35,5.1,5.1,0,0,1-.546,1.32.468.468,0,0,0,.072.567l.789.789-1.32,1.321-.789-.79a.466.466,0,0,0-.567-.072,5.112,5.112,0,0,1-1.32.546.467.467,0,0,0-.35.452v1.117H14.933V22.216a.467.467,0,0,0-.35-.452,5.092,5.092,0,0,1-1.319-.546.466.466,0,0,0-.567.072l-.79.79-1.32-1.321.789-.789a.466.466,0,0,0,.072-.567,5.133,5.133,0,0,1-.546-1.32.466.466,0,0,0-.451-.35H9.333V15.866h1.118a.466.466,0,0,0,.451-.35,5.085,5.085,0,0,1,.3-.855c.073-.16.154-.315.242-.467a.465.465,0,0,0-.072-.566l-.789-.79,1.32-1.32.79.79a.466.466,0,0,0,.567.071,5.092,5.092,0,0,1,1.319-.546.466.466,0,0,0,.35-.451V10.266H16.8v1.118a.466.466,0,0,0,.35.451,5.113,5.113,0,0,1,1.32.546.465.465,0,0,0,.567-.072l.789-.789,1.32,1.32-.789.79a.467.467,0,0,0-.072.567,5.092,5.092,0,0,1,.546,1.319.467.467,0,0,0,.452.35H22.4Z" fill="#0f3764"></path>
      <rect id="Rectangle_2888" data-name="Rectangle 2888" width="2.8" height="0.933" transform="translate(23.333 23.333)" fill="#0f3764"></rect>
    </g>
  </g>
</svg>
