<svg xmlns="http://www.w3.org/2000/svg" xmlns:xlink="http://www.w3.org/1999/xlink" width="281.3" height="60" viewBox="0 0 281.3 60">
  <defs>
    <clipPath id="clip-path">
      <rect id="Rectangle_2573" data-name="Rectangle 2573" width="281.247" height="40.819" fill="#fff"/>
    </clipPath>
    <clipPath id="clip-path-2">
      <rect id="Rectangle_2571" data-name="Rectangle 2571" width="266.768" height="37.133" fill="#fff"/>
    </clipPath>
  </defs>
  <g id="CygnetIRP" transform="translate(-5.5 -10.8)">
    <path id="IRP_00000139973054605641083590000013748986327502433462_" d="M480.892,103.237a4.319,4.319,0,0,1,1.069-.107c1.336,0,2.084.641,2.084,1.71,0,1.175-.855,1.923-2.244,1.923a3.8,3.8,0,0,1-.855-.053l-.053-3.473Zm-2.618,9.617h2.618v-4.167a4.607,4.607,0,0,0,.908.053,5.412,5.412,0,0,0,3.793-1.229,3.661,3.661,0,0,0,1.069-2.778,3.28,3.28,0,0,0-1.229-2.671,5.512,5.512,0,0,0-3.58-.962,27.693,27.693,0,0,0-3.58.214v11.541Zm-7.64-9.671a4.711,4.711,0,0,1,1.175-.107c1.229,0,1.923.534,1.923,1.6,0,1.015-.8,1.656-2.084,1.656h-1.015Zm-2.618,9.671h2.618v-4.595h.8c1.069,0,1.549.427,1.87,1.87a15.1,15.1,0,0,0,.8,2.725h2.671c-.214-.427-.588-1.977-.962-3.259a2.909,2.909,0,0,0-1.549-2.191v-.053a3.12,3.12,0,0,0,2.084-2.885,3.039,3.039,0,0,0-1.069-2.458,5.94,5.94,0,0,0-3.74-.908,29.587,29.587,0,0,0-3.526.214v11.541Zm-4.915,0h2.618V101.207H463.1Z" transform="translate(-213.112 -42.054)" fill="#fff"/>
    <g id="Cygnet_00000104669959219320439560000012768393687918590094_" transform="translate(5.5 11.815)" style="mix-blend-mode: normal;isolation: isolate">
      <path id="Path_21332" data-name="Path 21332" d="M25.91,39.147A17.255,17.255,0,0,1,18.8,40.429c-7.587,0-13.3-4.809-13.3-13.624C5.5,18.363,11.217,12.7,19.552,12.7a14.246,14.246,0,0,1,6.358,1.175l-.855,2.832a12.744,12.744,0,0,0-5.45-1.122c-6.3,0-10.472,4.007-10.472,11.113,0,6.572,3.793,10.793,10.312,10.793a13.516,13.516,0,0,0,5.663-1.122Z" transform="translate(-5.5 -12.7)" fill="#fff"/>
      <path id="Path_21333" data-name="Path 21333" d="M50.647,27.7l4.221,11.38c.427,1.282.908,2.778,1.229,3.954H56.2c.374-1.175.748-2.618,1.229-4.007L61.279,27.7h3.687L59.73,41.485c-2.565,6.572-4.274,9.991-6.679,12.075A8.946,8.946,0,0,1,48.723,55.8l-.855-2.939a10.128,10.128,0,0,0,3.1-1.71,10.771,10.771,0,0,0,2.939-3.9,2.491,2.491,0,0,0,.267-.855,3.09,3.09,0,0,0-.267-.908L46.8,27.7Z" transform="translate(-24.734 -19.686)" fill="#fff"/>
      <path id="Path_21334" data-name="Path 21334" d="M99.226,34.921A5.162,5.162,0,0,0,94.1,29.632c-3.366,0-5.77,2.832-5.77,7.32,0,3.793,1.923,6.946,5.717,6.946a5.11,5.11,0,0,0,4.862-3.58,5.661,5.661,0,0,0,.267-1.87l.053-3.526Zm3.633-7.64c-.107,1.389-.16,2.939-.16,5.289V43.79c0,4.435-.855,7.159-2.778,8.816a10.166,10.166,0,0,1-7,2.3,12.666,12.666,0,0,1-6.411-1.6l.855-2.671a10.843,10.843,0,0,0,5.663,1.5c3.58,0,6.251-1.87,6.251-6.732V43.256h-.107a6.824,6.824,0,0,1-6.144,3.206c-4.809,0-8.228-4.061-8.228-9.4,0-6.518,4.274-10.258,8.709-10.258a6.443,6.443,0,0,1,6.037,3.366h.107l.16-2.885Z" transform="translate(-42.431 -19.267)" fill="#fff"/>
      <path id="Path_21335" data-name="Path 21335" d="M130.06,32.563c0-1.977-.053-3.633-.16-5.236H133l.214,3.206h.053a7.148,7.148,0,0,1,6.358-3.633c2.671,0,6.839,1.6,6.839,8.228V46.668h-3.526V35.5c0-3.1-1.175-5.717-4.488-5.717a5.046,5.046,0,0,0-4.915,5.236V46.615h-3.526l.053-14.052Z" transform="translate(-63.435 -19.313)" fill="#fff"/>
      <path id="Path_21336" data-name="Path 21336" d="M184.124,35.081c.053-2.244-.908-5.717-4.862-5.717-3.526,0-5.129,3.259-5.4,5.717Zm-10.258,2.511c.053,4.755,3.1,6.679,6.625,6.679a12.272,12.272,0,0,0,5.343-1.015l.588,2.511a16.146,16.146,0,0,1-6.411,1.175c-5.931,0-9.51-3.9-9.51-9.724S173.919,26.8,179.529,26.8c6.3,0,7.961,5.557,7.961,9.083a12.175,12.175,0,0,1-.107,1.656C187.383,37.593,173.866,37.593,173.866,37.593Z" transform="translate(-82.343 -19.267)" fill="#fff"/>
      <path id="Path_21337" data-name="Path 21337" d="M214.311,17.3v5.557h5.022v2.671h-5.022V35.946c0,2.4.695,3.74,2.618,3.74a6.175,6.175,0,0,0,2.03-.267l.16,2.618a8.937,8.937,0,0,1-3.1.481,4.864,4.864,0,0,1-3.793-1.5c-1.015-1.015-1.336-2.778-1.336-5.022V25.528H207.9V22.857h2.992V18.208Z" transform="translate(-99.761 -14.842)" fill="#fff"/>
    </g>
    <g id="Tax_Tech_00000001622066959349184440000015367120643606696124_" transform="translate(135.812 10.8)" style="mix-blend-mode: normal;isolation: isolate">
      <path id="Path_21338" data-name="Path 21338" d="M258.162,15.1H249.4V13.5h19.448v1.6h-8.816V40.374h-1.87Z" transform="translate(-249.4 -12.057)" fill="#fff"/>
      <path id="Path_21339" data-name="Path 21339" d="M302.047,36.45c-4.167-.107-9.671.534-9.671,5.129a3.658,3.658,0,0,0,3.847,4.007,5.783,5.783,0,0,0,5.663-3.847,4.986,4.986,0,0,0,.214-1.175V36.45Zm.427,10.258-.267-2.778H302.1a7.143,7.143,0,0,1-6.091,3.206,5.213,5.213,0,0,1-5.61-5.289c0-4.435,3.9-7.106,11.7-7v-.481c0-1.923-.374-5.717-4.915-5.663a8.2,8.2,0,0,0-4.809,1.443l-.588-1.389A10.185,10.185,0,0,1,297.4,27.1c5.557,0,6.572,4.167,6.572,7.587v7.48a31.906,31.906,0,0,0,.267,4.541Z" transform="translate(-268.494 -18.391)" fill="#fff"/>
      <path id="Path_21340" data-name="Path 21340" d="M327.165,28l3.259,4.648a38.646,38.646,0,0,1,2.191,3.259h.053c.748-1.175,1.5-2.191,2.244-3.259L338.171,28h2.137l-6.679,9.35,6.892,9.831h-2.137l-3.419-4.862c-.855-1.175-1.6-2.351-2.4-3.58h-.053a41.981,41.981,0,0,1-2.4,3.58l-3.366,4.862H324.6l7-9.777L325.027,28Z" transform="translate(-284.422 -18.81)" fill="#fff"/>
      <path id="Path_21341" data-name="Path 21341" d="M366.362,15.1H357.6V13.5h19.448v1.6h-8.762V40.374h-1.923Z" transform="translate(-299.791 -12.057)" fill="#fff"/>
      <path id="Path_21342" data-name="Path 21342" d="M412.805,35.435c.053-2.671-1.069-6.732-5.717-6.732-4.221,0-6.091,3.793-6.358,6.732Zm-12.235,1.5c0,6.144,3.366,8.549,7.32,8.549a10.9,10.9,0,0,0,5.289-1.069l.481,1.5a12.468,12.468,0,0,1-6.037,1.175c-5.5,0-8.922-4.007-8.922-9.617,0-6.358,3.687-10.365,8.6-10.365,6.251,0,7.48,5.877,7.48,8.655a7.2,7.2,0,0,1-.053,1.175Z" transform="translate(-318.932 -18.391)" fill="#fff"/>
      <path id="Path_21343" data-name="Path 21343" d="M452.3,45.953a12.711,12.711,0,0,1-5.61,1.229c-5.557,0-9.19-4.007-9.19-9.777,0-6.091,4.167-10.2,9.884-10.2a10.337,10.337,0,0,1,5.022,1.175l-.695,1.549a9.029,9.029,0,0,0-4.541-1.122c-5.129,0-7.8,3.954-7.8,8.442,0,4.969,3.152,8.281,7.587,8.281a11.628,11.628,0,0,0,4.809-1.069Z" transform="translate(-337.001 -18.438)" fill="#fff"/>
      <path id="Path_21344" data-name="Path 21344" d="M476.3,10.8h1.87V23.409h.053a6.872,6.872,0,0,1,2.618-2.778,7.044,7.044,0,0,1,3.847-1.069c1.817,0,6.625.908,6.625,8.014V39.17H489.5V27.79c0-3.473-1.336-6.625-5.289-6.625a6.283,6.283,0,0,0-5.77,4.328,4.94,4.94,0,0,0-.267,1.87V39.117H476.3Z" transform="translate(-355.071 -10.8)" fill="#fff"/>
    </g>
    <g id="Artwork_23_00000143598164839010508590000005674924892476786607_" transform="translate(5.5 10.8)">
      <g id="Group_69392" data-name="Group 69392">
        <g id="Group_69374" data-name="Group 69374" clip-path="url(#clip-path)">
          <g id="Group_69372" data-name="Group 69372" clip-path="url(#clip-path-2)">
            <path id="Path_21345" data-name="Path 21345" d="M25.91,39.147A17.255,17.255,0,0,1,18.8,40.429c-7.587,0-13.3-4.809-13.3-13.624C5.5,18.363,11.217,12.7,19.552,12.7a14.744,14.744,0,0,1,6.411,1.175l-.855,2.832a12.744,12.744,0,0,0-5.45-1.122c-6.3,0-10.472,4.007-10.472,11.113,0,6.572,3.793,10.793,10.312,10.793a13.516,13.516,0,0,0,5.663-1.122Z" transform="translate(-5.5 -11.685)" fill="#fff"/>
          </g>
          <g id="Group_69373" data-name="Group 69373" clip-path="url(#clip-path-2)">
            <path id="Path_21346" data-name="Path 21346" d="M50.647,27.7l4.221,11.434c.427,1.282.908,2.778,1.229,3.954h.053c.374-1.175.748-2.618,1.229-4.007l3.847-11.327h3.687L59.623,41.538c-2.458,6.572-4.167,9.938-6.572,12.021a9.7,9.7,0,0,1-4.328,2.3l-.855-2.939a10.128,10.128,0,0,0,3.1-1.71,10.771,10.771,0,0,0,2.939-3.9,2.491,2.491,0,0,0,.267-.855,3.09,3.09,0,0,0-.267-.908L46.8,27.7Z" transform="translate(-24.734 -18.671)" fill="#fff"/>
          </g>
        </g>
        <g id="Group_69379" data-name="Group 69379" clip-path="url(#clip-path)">
          <g id="Group_69375" data-name="Group 69375" clip-path="url(#clip-path)">
            <path id="Path_21347" data-name="Path 21347" d="M102.959,27.281c-.053,1.389-.16,2.939-.16,5.289V43.79c0,4.435-.855,7.159-2.778,8.816a10.166,10.166,0,0,1-7,2.3,12.148,12.148,0,0,1-6.411-1.6l.855-2.671a10.843,10.843,0,0,0,5.663,1.5c3.58,0,6.251-1.87,6.251-6.732V43.256h-.107a6.824,6.824,0,0,1-6.144,3.206c-4.809,0-8.228-4.061-8.228-9.4,0-6.518,4.274-10.258,8.709-10.258a6.443,6.443,0,0,1,6.037,3.366H99.7l.16-2.939h3.1Zm-3.633,7.64A5.162,5.162,0,0,0,94.2,29.632c-3.366,0-5.77,2.832-5.77,7.32,0,3.793,1.923,6.946,5.717,6.946a5.11,5.11,0,0,0,4.862-3.58,5.661,5.661,0,0,0,.267-1.87V34.921Z" transform="translate(-42.478 -18.251)" fill="#fff"/>
          </g>
          <g id="Group_69376" data-name="Group 69376" clip-path="url(#clip-path)">
            <path id="Path_21348" data-name="Path 21348" d="M130.16,32.563c0-1.977-.053-3.633-.16-5.236h3.1l.214,3.206h.053a7.148,7.148,0,0,1,6.358-3.633c2.671,0,6.839,1.6,6.839,8.228V46.668h-3.526V35.5c0-3.1-1.175-5.717-4.488-5.717a5.046,5.046,0,0,0-4.915,5.236V46.615h-3.526V32.563Z" transform="translate(-63.482 -18.298)" fill="#fff"/>
          </g>
          <g id="Group_69377" data-name="Group 69377" clip-path="url(#clip-path)">
            <path id="Path_21349" data-name="Path 21349" d="M173.866,37.593c.053,4.755,3.1,6.679,6.625,6.679a12.272,12.272,0,0,0,5.343-1.015l.588,2.511a16.146,16.146,0,0,1-6.411,1.175c-5.931,0-9.51-3.9-9.51-9.724S173.919,26.8,179.583,26.8c6.3,0,7.961,5.557,7.961,9.083a12.177,12.177,0,0,1-.107,1.656H173.866Zm10.312-2.511c.053-2.244-.908-5.717-4.862-5.717-3.526,0-5.129,3.259-5.4,5.717Z" transform="translate(-82.343 -18.251)" fill="#fff"/>
          </g>
          <g id="Group_69378" data-name="Group 69378" clip-path="url(#clip-path)">
            <path id="Path_21350" data-name="Path 21350" d="M214.411,17.3v5.557h5.022v2.671h-5.022V35.946c0,2.4.695,3.74,2.618,3.74a8.641,8.641,0,0,0,2.03-.214l.16,2.618a8.937,8.937,0,0,1-3.1.481,4.864,4.864,0,0,1-3.793-1.5c-1.015-1.015-1.336-2.778-1.336-5.022V25.528H208V22.857h2.992V18.208Z" transform="translate(-99.808 -13.827)" fill="#fff"/>
          </g>
        </g>
        <g id="Group_69380" data-name="Group 69380" clip-path="url(#clip-path)">
          <path id="Path_21351" data-name="Path 21351" d="M258.262,15.1H249.5V13.5h19.448v1.6h-8.762V40.428h-1.923Z" transform="translate(-119.135 -12.057)" fill="#fff"/>
        </g>
        <g id="Group_69383" data-name="Group 69383" clip-path="url(#clip-path)">
          <g id="Group_69381" data-name="Group 69381" clip-path="url(#clip-path)">
            <path id="Path_21352" data-name="Path 21352" d="M302.675,46.808l-.267-2.778H302.3a7.143,7.143,0,0,1-6.091,3.206,5.213,5.213,0,0,1-5.61-5.289c0-4.435,3.9-7.106,11.7-7v-.481c0-1.923-.374-5.717-4.915-5.663a8.2,8.2,0,0,0-4.809,1.443l-.588-1.389A10.185,10.185,0,0,1,297.6,27.2c5.557,0,6.572,4.167,6.572,7.587v7.48a31.906,31.906,0,0,0,.267,4.541h-1.763Zm-.481-10.258c-4.167-.107-9.671.534-9.671,5.129a3.658,3.658,0,0,0,3.847,4.007,5.783,5.783,0,0,0,5.663-3.847,4.544,4.544,0,0,0,.214-1.175V36.55Z" transform="translate(-138.276 -18.438)" fill="#fff"/>
          </g>
          <g id="Group_69382" data-name="Group 69382" clip-path="url(#clip-path)">
            <path id="Path_21353" data-name="Path 21353" d="M327.365,28l3.259,4.648a38.661,38.661,0,0,1,2.191,3.259h.053c.748-1.175,1.5-2.191,2.244-3.259L338.371,28h2.137l-6.679,9.35,6.892,9.831h-2.137l-3.419-4.862c-.855-1.175-1.6-2.351-2.4-3.58h-.053a41.959,41.959,0,0,1-2.4,3.58l-3.366,4.862H324.8l7.053-9.777L325.227,28Z" transform="translate(-154.203 -18.81)" fill="#fff"/>
          </g>
        </g>
        <g id="Group_69384" data-name="Group 69384" clip-path="url(#clip-path)">
          <path id="Path_21354" data-name="Path 21354" d="M366.562,15.1H357.8V13.5h19.448v1.6h-8.762V40.428h-1.923Z" transform="translate(-169.572 -12.057)" fill="#fff"/>
        </g>
        <g id="Group_69386" data-name="Group 69386" clip-path="url(#clip-path)">
          <g id="Group_69385" data-name="Group 69385" clip-path="url(#clip-path)">
            <path id="Path_21355" data-name="Path 21355" d="M400.77,37.031c0,6.144,3.366,8.549,7.32,8.549a10.9,10.9,0,0,0,5.289-1.069l.481,1.5a13.178,13.178,0,0,1-6.037,1.175c-5.5,0-8.923-4.007-8.923-9.617,0-6.358,3.687-10.365,8.6-10.365,6.251,0,7.48,5.931,7.48,8.655a7.2,7.2,0,0,1-.053,1.175H400.77Zm12.235-1.549c.053-2.671-1.069-6.732-5.717-6.732-4.221,0-6.091,3.793-6.358,6.732Z" transform="translate(-188.713 -18.438)" fill="#fff"/>
          </g>
        </g>
        <g id="Group_69389" data-name="Group 69389" clip-path="url(#clip-path)">
          <g id="Group_69387" data-name="Group 69387" clip-path="url(#clip-path-2)">
            <path id="Path_21356" data-name="Path 21356" d="M452.453,45.953a12.711,12.711,0,0,1-5.61,1.229c-5.557,0-9.243-4.007-9.243-9.777,0-6.091,4.167-10.2,9.884-10.2a10.337,10.337,0,0,1,5.022,1.175l-.695,1.549a9.194,9.194,0,0,0-4.541-1.122c-5.129,0-7.8,3.954-7.8,8.442,0,4.969,3.152,8.281,7.587,8.281a11.627,11.627,0,0,0,4.809-1.069Z" transform="translate(-206.736 -18.438)" fill="#fff"/>
          </g>
          <g id="Group_69388" data-name="Group 69388" clip-path="url(#clip-path-2)">
            <path id="Path_21357" data-name="Path 21357" d="M476.453,10.8h1.87V23.409h.053a6.871,6.871,0,0,1,2.618-2.778,7.044,7.044,0,0,1,3.847-1.069c1.817,0,6.625.908,6.625,8.014V39.17H489.6V27.79c0-3.473-1.336-6.625-5.289-6.625a6.283,6.283,0,0,0-5.77,4.328,4.94,4.94,0,0,0-.267,1.87V39.117H476.4V10.8Z" transform="translate(-224.806 -10.8)" fill="#fff"/>
          </g>
        </g>
        <path id="Path_21358" data-name="Path 21358" d="M443.2,77.037c3.793,1.389,7.8.908,11.7.374,8.121-1.122,15.654-4.915,24.1-4.274a18.056,18.056,0,0,1,11.647,4.755,25.249,25.249,0,0,0-11.594-1.5c-8.068.588-15.6,4.381-23.882,4.221-4.167-.053-8.869-.588-11.968-3.58" transform="translate(-209.344 -39.798)" fill="#00aded"/>
      </g>
    </g>
  </g>
</svg>
