<?xml version="1.0" encoding="UTF-8"?>
<svg xmlns="http://www.w3.org/2000/svg" xmlns:xlink="http://www.w3.org/1999/xlink" id="Group_69825" data-name="Group 69825" width="19.6" height="28" viewBox="0 0 19.6 28">
  <defs>
    <clipPath id="clip-path">
      <rect id="Rectangle_2892" data-name="Rectangle 2892" width="19.6" height="28" fill="#0f3764"></rect>
    </clipPath>
  </defs>
  <g id="Group_69824" data-name="Group 69824" clip-path="url(#clip-path)">
    <path id="Path_21683" data-name="Path 21683" d="M8.867,3.267h1.867a.467.467,0,0,0,0-.933H8.867a.467.467,0,1,0,0,.933" fill="#0f3764"></path>
    <path id="Path_21684" data-name="Path 21684" d="M17.267,3.267H15.4a1.4,1.4,0,0,0-.585-1.126L12.18.259A1.4,1.4,0,0,0,11.368,0H8.232A1.4,1.4,0,0,0,7.42.26L4.787,2.141A1.405,1.405,0,0,0,4.2,3.267H2.334A2.337,2.337,0,0,0,0,5.6V25.667A2.336,2.336,0,0,0,2.334,28H17.267A2.335,2.335,0,0,0,19.6,25.667V5.6a2.336,2.336,0,0,0-2.333-2.333M5.134,3.281a.462.462,0,0,1,.2-.381L7.961,1.021A.456.456,0,0,1,8.232.934h3.136a.452.452,0,0,1,.27.086L14.27,2.9a.464.464,0,0,1,.2.381v.453A.467.467,0,0,1,14,4.2H5.6a.466.466,0,0,1-.466-.466ZM18.667,25.667a1.4,1.4,0,0,1-1.4,1.4H2.334a1.4,1.4,0,0,1-1.4-1.4V5.6a1.4,1.4,0,0,1,1.4-1.4H4.28a1.4,1.4,0,0,0,1.32.934H14A1.405,1.405,0,0,0,15.321,4.2h1.946a1.4,1.4,0,0,1,1.4,1.4Z" fill="#0f3764"></path>
    <path id="Path_21685" data-name="Path 21685" d="M3.267,12.6H7a.934.934,0,0,0,.934-.933v-.943a.467.467,0,1,0-.934,0v.943H3.267V7.933H5.53A.467.467,0,1,0,5.53,7H3.267a.933.933,0,0,0-.933.933v3.734a.933.933,0,0,0,.933.933" fill="#0f3764"></path>
    <path id="Path_21686" data-name="Path 21686" d="M8.1,7.112l-2.94,2.52L4.529,9a.467.467,0,0,0-.66.66L4.8,10.6a.466.466,0,0,0,.634.024L8.7,7.823a.468.468,0,0,0-.14-.809.463.463,0,0,0-.466.1Z" fill="#0f3764"></path>
    <path id="Path_21687" data-name="Path 21687" d="M3.267,19.133H7a.934.934,0,0,0,.934-.933v-.943a.467.467,0,0,0-.934,0V18.2H3.267V14.466H5.53a.467.467,0,1,0,0-.933H3.267a.933.933,0,0,0-.933.933V18.2a.933.933,0,0,0,.933.933" fill="#0f3764"></path>
    <path id="Path_21688" data-name="Path 21688" d="M8.1,13.646l-2.94,2.52-.628-.628a.467.467,0,0,0-.66.66l.933.934a.468.468,0,0,0,.634.024l3.266-2.8a.467.467,0,1,0-.606-.709Z" fill="#0f3764"></path>
    <path id="Path_21689" data-name="Path 21689" d="M7.467,23.324A.467.467,0,0,0,7,23.791v.942H3.267V21H5.53a.467.467,0,1,0,0-.933H3.267A.933.933,0,0,0,2.334,21v3.733a.934.934,0,0,0,.933.934H7a.934.934,0,0,0,.934-.934v-.942a.467.467,0,0,0-.467-.467" fill="#0f3764"></path>
    <path id="Path_21690" data-name="Path 21690" d="M8.1,20.179,5.157,22.7l-.628-.628a.467.467,0,0,0-.66.66l.933.934a.468.468,0,0,0,.634.024l3.266-2.8A.467.467,0,0,0,8.1,20.18Z" fill="#0f3764"></path>
    <path id="Path_21691" data-name="Path 21691" d="M16.333,7.467H11.666a.467.467,0,0,0,0,.933h4.667a.467.467,0,1,0,0-.933" fill="#0f3764"></path>
    <path id="Path_21692" data-name="Path 21692" d="M16.333,9.333H11.666a.467.467,0,0,0,0,.933h4.667a.467.467,0,1,0,0-.933" fill="#0f3764"></path>
    <path id="Path_21693" data-name="Path 21693" d="M11.667,12.133H14a.467.467,0,1,0,0-.933H11.667a.467.467,0,1,0,0,.933" fill="#0f3764"></path>
    <path id="Path_21694" data-name="Path 21694" d="M16.333,14H11.666a.467.467,0,0,0,0,.933h4.667a.467.467,0,1,0,0-.933" fill="#0f3764"></path>
    <path id="Path_21695" data-name="Path 21695" d="M16.333,15.867H11.666a.467.467,0,0,0,0,.933h4.667a.467.467,0,1,0,0-.933" fill="#0f3764"></path>
    <path id="Path_21696" data-name="Path 21696" d="M11.667,18.667H14a.467.467,0,1,0,0-.933H11.667a.467.467,0,1,0,0,.933" fill="#0f3764"></path>
    <path id="Path_21697" data-name="Path 21697" d="M16.333,20.533H11.666a.466.466,0,0,0,0,.933h4.667a.466.466,0,1,0,0-.933" fill="#0f3764"></path>
    <path id="Path_21698" data-name="Path 21698" d="M16.333,22.4H11.666a.467.467,0,0,0,0,.933h4.667a.467.467,0,1,0,0-.933" fill="#0f3764"></path>
    <path id="Path_21699" data-name="Path 21699" d="M14,24.267H11.667a.467.467,0,1,0,0,.933H14a.467.467,0,1,0,0-.933" fill="#0f3764"></path>
  </g>
</svg>
