<svg id="Group_69629" data-name="Group 69629" xmlns="http://www.w3.org/2000/svg" xmlns:xlink="http://www.w3.org/1999/xlink" width="44" height="41.25" viewBox="0 0 44 41.25">
  <defs>
    <clipPath id="clip-path">
      <rect id="Rectangle_2738" data-name="Rectangle 2738" width="44" height="41.25" fill="#fff"/>
    </clipPath>
  </defs>
  <g id="Group_69628" data-name="Group 69628" clip-path="url(#clip-path)">
    <path id="Path_21454" data-name="Path 21454" d="M14.517,11.779a.858.858,0,0,0,1.215,0l3.094-3.093a.859.859,0,1,0-1.215-1.215L15.125,9.956l-.768-.766A.859.859,0,1,0,13.142,10.4Z" fill="#fff"/>
    <path id="Path_21455" data-name="Path 21455" d="M14.517,16.936a.858.858,0,0,0,1.215,0l3.094-3.094a.859.859,0,0,0-1.215-1.215l-2.486,2.486-.768-.767a.859.859,0,1,0-1.215,1.215Z" fill="#fff"/>
    <path id="Path_21456" data-name="Path 21456" d="M14.517,22.092a.858.858,0,0,0,1.215,0L18.826,19a.859.859,0,0,0-1.215-1.215l-2.486,2.486-.768-.767a.859.859,0,1,0-1.215,1.215Z" fill="#fff"/>
    <path id="Path_21457" data-name="Path 21457" d="M14.517,27.248a.858.858,0,0,0,1.215,0l3.094-3.094a.859.859,0,0,0-1.215-1.215l-2.486,2.486-.768-.767a.859.859,0,0,0-1.215,1.215Z" fill="#fff"/>
    <path id="Path_21458" data-name="Path 21458" d="M20.281,12.031H30.594a.86.86,0,0,0,0-1.719H20.281a.86.86,0,0,0,0,1.719" fill="#fff"/>
    <path id="Path_21459" data-name="Path 21459" d="M20.281,17.188H30.594a.86.86,0,0,0,0-1.719H20.281a.86.86,0,0,0,0,1.719" fill="#fff"/>
    <path id="Path_21460" data-name="Path 21460" d="M20.281,22.344H30.594a.86.86,0,0,0,0-1.719H20.281a.86.86,0,0,0,0,1.719" fill="#fff"/>
    <path id="Path_21461" data-name="Path 21461" d="M20.281,27.5H30.594a.86.86,0,0,0,0-1.719H20.281a.86.86,0,0,0,0,1.719" fill="#fff"/>
    <path id="Path_21462" data-name="Path 21462" d="M22,39.531a.86.86,0,1,1-.859.859A.859.859,0,0,1,22,39.531" fill="#fff"/>
    <path id="Path_21463" data-name="Path 21463" d="M43.14,36.094H40.562V18.047a2.58,2.58,0,0,0-2.578-2.578H34.89V7.734a.862.862,0,0,0-.251-.607L27.764.252A.873.873,0,0,0,27.156,0H9.968a.86.86,0,0,0-.859.86V15.469H6.015a2.581,2.581,0,0,0-2.578,2.578V36.094H.859A.86.86,0,0,0,0,36.953a4.3,4.3,0,0,0,4.3,4.3H18.133a.86.86,0,0,0,0-1.719H4.3a2.581,2.581,0,0,1-2.431-1.719H42.134A2.583,2.583,0,0,1,39.7,39.531H25.867a.86.86,0,0,0,0,1.719H39.7a4.3,4.3,0,0,0,4.3-4.3A.86.86,0,0,0,43.14,36.094ZM28.015,2.934l3.941,3.941H28.015ZM10.828,1.719H26.3V7.734a.859.859,0,0,0,.859.86h6.016V32.656H10.828ZM5.156,18.047a.86.86,0,0,1,.859-.859H9.109V33.516a.86.86,0,0,0,.859.859H34.031a.859.859,0,0,0,.859-.859V17.188h3.094a.86.86,0,0,1,.86.859V36.094H5.156Z" fill="#fff"/>
  </g>
</svg>
