<?xml version="1.0" encoding="UTF-8"?>
<svg xmlns="http://www.w3.org/2000/svg" xmlns:xlink="http://www.w3.org/1999/xlink" width="28.088" height="28.193" viewBox="0 0 28.088 28.193">
  <defs>
    <clipPath id="clip-path">
      <rect id="Rectangle_2751" data-name="Rectangle 2751" width="28.088" height="28.193" fill="#0f3764"></rect>
    </clipPath>
  </defs>
  <g id="Group_69726" data-name="Group 69726" transform="translate(0 0)">
    <g id="Group_69652" data-name="Group 69652" transform="translate(0 0)" clip-path="url(#clip-path)">
      <path id="Path_21467" data-name="Path 21467" d="M19.25,7.761a.851.851,0,0,0-.614-.262.832.832,0,0,0-.62.255l-3.1,3.1V.869a.869.869,0,0,0-1.738,0V10.85L10.079,7.8a.862.862,0,0,0-.62-.261.869.869,0,0,0-.62,1.483l4.585,4.553a.875.875,0,0,0,1.235.006L19.25,8.988a.879.879,0,0,0,0-1.228m5.5,6.61H21.23a.869.869,0,0,0,0,1.738H24.7a1.585,1.585,0,0,1,1.64,1.509v7.309a1.58,1.58,0,0,1-1.659,1.528H3.383a1.571,1.571,0,0,1-1.639-1.508v-7.31A1.579,1.579,0,0,1,2.26,16.52,1.557,1.557,0,0,1,3.4,16.109H6.859a.869.869,0,0,0,0-1.738H3.344A3.345,3.345,0,0,0,0,17.644v7.283a3.342,3.342,0,0,0,3.338,3.266H24.744a3.345,3.345,0,0,0,3.344-3.272V17.637a3.347,3.347,0,0,0-3.338-3.266" transform="translate(0 0)" fill="#0f3764"></path>
    </g>
  </g>
</svg>
