<?xml version="1.0" encoding="UTF-8"?>
<svg xmlns="http://www.w3.org/2000/svg" xmlns:xlink="http://www.w3.org/1999/xlink" width="44" height="43.587" viewBox="0 0 44 43.587">
  <defs>
    <clipPath id="clip-path">
      <rect id="Rectangle_2816" data-name="Rectangle 2816" width="44" height="43.587" transform="translate(0 0.001)" fill="#fff"></rect>
    </clipPath>
  </defs>
  <g id="Group_69739" data-name="Group 69739" transform="translate(0 0)">
    <g id="Group_69738" data-name="Group 69738" clip-path="url(#clip-path)">
      <path id="Path_21536" data-name="Path 21536" d="M11.137,4.813a.688.688,0,1,0-.687-.687.647.647,0,0,0,.687.687" fill="#fff"></path>
      <path id="Path_21537" data-name="Path 21537" d="M14.575,4.813a.688.688,0,0,0,.687-.687.739.739,0,0,0-.687-.688.688.688,0,0,0,0,1.375" fill="#fff"></path>
      <path id="Path_21538" data-name="Path 21538" d="M18.013,4.813a.688.688,0,0,0,0-1.375.65.65,0,0,0-.687.688.689.689,0,0,0,.687.687" fill="#fff"></path>
      <path id="Path_21539" data-name="Path 21539" d="M22.825,4.813H33.069a.649.649,0,0,0,.687-.687.65.65,0,0,0-.687-.688H22.825a.65.65,0,0,0-.687.688A.649.649,0,0,0,22.825,4.813Z" fill="#fff"></path>
      <path id="Path_21540" data-name="Path 21540" d="M26.675,10.175a6.256,6.256,0,1,0,6.256,6.257A6.279,6.279,0,0,0,26.675,10.175Zm-.688,1.444V16.5l-3.231,2.887a4.965,4.965,0,0,1-1.031-2.956,4.889,4.889,0,0,1,4.262-4.813M23.719,20.35l2.887-2.612,2.888,2.612a4.707,4.707,0,0,1-2.888.963A4.855,4.855,0,0,1,23.719,20.35Zm6.806-.962L27.294,16.5V11.619a4.88,4.88,0,0,1,4.193,4.813A4.5,4.5,0,0,1,30.525,19.388Z" fill="#fff"></path>
      <path id="Path_21541" data-name="Path 21541" d="M19.181,20.213H16.637a.688.688,0,0,0,0,1.375h.894l-5.156,5.156a.681.681,0,0,0,.962.963l5.088-5.088v.825a.688.688,0,1,0,1.375,0V20.9A.569.569,0,0,0,19.181,20.213Z" fill="#fff"></path>
      <path id="Path_21542" data-name="Path 21542" d="M11.894,12.65h7.15a.688.688,0,0,0,0-1.375h-7.15a.649.649,0,0,0-.687.688.688.688,0,0,0,.687.687" fill="#fff"></path>
      <path id="Path_21543" data-name="Path 21543" d="M17.944,15.4a.649.649,0,0,0-.687-.687H11.963a.687.687,0,1,0,0,1.374h5.294A.739.739,0,0,0,17.944,15.4Z" fill="#fff"></path>
      <path id="Path_21544" data-name="Path 21544" d="M3.438,43.587H40.563A3.4,3.4,0,0,0,44,40.15V36.094a.65.65,0,0,0-.687-.688H41.938V12.168a2.759,2.759,0,0,0-2.75-2.75H37.125V2.75A2.758,2.758,0,0,0,34.375,0H9.762a2.758,2.758,0,0,0-2.75,2.75V9.418H5.225a2.758,2.758,0,0,0-2.75,2.75V35.406H.688A.65.65,0,0,0,0,36.094V40.15a3.4,3.4,0,0,0,3.438,3.437m35.75-32.794a1.379,1.379,0,0,1,1.375,1.375V35.406H32.931V24.75a.65.65,0,0,0-.687-.688H28.119a.65.65,0,0,0-.688.688V35.406H24.819V26.743a.65.65,0,0,0-.688-.687H20.006a.649.649,0,0,0-.687.687v8.663H16.706v-4.95a.65.65,0,0,0-.687-.688H11.894a.65.65,0,0,0-.688.688v4.95H8.319V8.25H35.75V32.518a.688.688,0,1,0,1.375,0V10.793ZM28.806,35.406V25.437h2.75v9.9h-2.75Zm-8.112-7.975h2.75v7.975h-2.75Zm-8.113,3.712h2.75V35.4h-2.75ZM9.762,1.375H34.444A1.379,1.379,0,0,1,35.819,2.75V6.875H8.387V2.75A1.379,1.379,0,0,1,9.762,1.375ZM3.85,12.168a1.379,1.379,0,0,1,1.375-1.375H7.012V35.406H3.85ZM1.375,36.781h41.25V40.15a2.026,2.026,0,0,1-2.062,2.062H3.438A2.026,2.026,0,0,1,1.375,40.15Z" fill="#fff"></path>
      <path id="Path_21545" data-name="Path 21545" d="M17.875,40.219h8.25a.688.688,0,1,0,0-1.375h-8.25a.649.649,0,0,0-.687.688.688.688,0,0,0,.687.687" fill="#fff"></path>
    </g>
  </g>
</svg>
