<svg id="Group_69585" data-name="Group 69585" xmlns="http://www.w3.org/2000/svg" xmlns:xlink="http://www.w3.org/1999/xlink" width="333.663" height="355.876" viewBox="0 0 333.663 355.876">
  <defs>
    <clipPath id="clip-path">
      <rect id="Rectangle_2698" data-name="Rectangle 2698" width="333.663" height="355.876" fill="none"/>
    </clipPath>
    <clipPath id="clip-path-3">
      <rect id="Rectangle_2679" data-name="Rectangle 2679" width="2.946" height="0.704" transform="translate(127.377 351.013)" fill="none"/>
    </clipPath>
    <clipPath id="clip-path-4">
      <rect id="Rectangle_2678" data-name="Rectangle 2678" width="2.945" height="0.704" transform="translate(127.378 351.013)" fill="none"/>
    </clipPath>
    <clipPath id="clip-path-5">
      <rect id="Rectangle_2680" data-name="Rectangle 2680" width="333.663" height="334.371" transform="translate(0 21.499)" fill="none"/>
    </clipPath>
    <clipPath id="clip-path-6">
      <rect id="Rectangle_2681" data-name="Rectangle 2681" width="267.759" height="99.517" transform="translate(46.856 256.358)" fill="none"/>
    </clipPath>
  </defs>
  <g id="Group_69598" data-name="Group 69598" clip-path="url(#clip-path)">
    <g id="Group_69597" data-name="Group 69597">
      <g id="Group_69596" data-name="Group 69596" clip-path="url(#clip-path)">
        <g id="Group_69589" data-name="Group 69589" opacity="0.3">
          <g id="Group_69588" data-name="Group 69588">
            <g id="Group_69587" data-name="Group 69587" clip-path="url(#clip-path-3)">
              <g id="Group_69586" data-name="Group 69586">
                <g id="Group_69585-2" data-name="Group 69585" clip-path="url(#clip-path-4)">
                  <path id="Path_21426" data-name="Path 21426" d="M130.322,351.717c-.44-.1-.877-.214-1.316-.319-.543-.128-1.088-.251-1.629-.385.979.241,1.96.481,2.945.7" fill="#9cc"/>
                </g>
              </g>
            </g>
          </g>
        </g>
        <g id="Group_69592" data-name="Group 69592" opacity="0.3">
          <g id="Group_69591" data-name="Group 69591">
            <g id="Group_69590" data-name="Group 69590" clip-path="url(#clip-path-5)">
              <path id="Path_21427" data-name="Path 21427" d="M314.375,266.243a166.953,166.953,0,0,0-41.352-206.6c-.624-.512-1.256-1.031-1.887-1.537a166.854,166.854,0,0,0-217.3,253h.007q2.316,2.138,4.715,4.182a166.426,166.426,0,0,0,48.783,29.357c1.8.709,3.62,1.375,5.452,2.014,1.4.491,2.828.961,4.252,1.41q2.852.916,5.746,1.719c.049.021.1.028.14.042,2.009.56,4.04,1.074,6.08,1.561q6.14,1.453,12.444,2.46.568.091,1.138.176c.787.119,1.573.239,2.364.346q1.815.249,3.646.455.671.076,1.344.145,5.832.619,11.778.832c.629.022,1.257.051,1.887.065h.14c.288-.007.589-.014.877-.028a180.915,180.915,0,0,0,19.061-1.518A166.737,166.737,0,0,0,303.413,284.14a180.161,180.161,0,0,0,11.268-16.88.061.061,0,0,1-.007-.035c0-.007.007-.007.007-.014l-.3-.976" fill="#9cc"/>
            </g>
          </g>
        </g>
        <path id="Path_21428" data-name="Path 21428" d="M314.577,267.219c-.105-.323-.2-.653-.309-.975-.631-2.021-1.256-4.034-1.873-6.062q-.589-1.9-1.165-3.824a.007.007,0,0,1-.007.007A960.8,960.8,0,0,1,273.742,60.446a.117.117,0,0,1-.007-.049c0-.028-.007-.049-.007-.077q-1.031-12.072-1.754-24.192Q270.911,18.1,270.5,0q-17.2,6.661-34.289,13.773-4.431,1.842-8.862,3.712Q205.2,10.076,183.2,1.923q-21.639,9.114-43.1,18.93Q120.909,13.8,101.795,6.21c-1.972-.779-3.929-1.565-5.894-2.358q-21.628,9.829-43.06,20.362Q30.661,15.362,8.614,5.781q.747,34.162,3.41,68.185,1.651,21.27,4.069,42.442c.063.589.126,1.172.2,1.761.007.077.021.154.028.232a1222.024,1222.024,0,0,0,30.5,164.857c.225.884.449,1.768.681,2.645.028.112.056.224.084.33q.958,3.695,1.937,7.374c.042.147.077.3.119.442q1,3.736,2.021,7.472.968,3.547,1.958,7.087c.3,1.081.6,2.154.912,3.228,0,.007.007.021.007.028h.007a167.069,167.069,0,0,0,39,26.817q6.556,3.252,13.436,5.922c.884.344,1.768.681,2.659,1.01a2.3,2.3,0,0,0,.239.091q.852.316,1.7.61c.456.161.912.323,1.375.484q3.084,1.074,6.231,2.014a164.727,164.727,0,0,0,25.273,5.515c.126.014.26.035.386.049q.979.137,1.958.253c.246.035.5.07.744.1.316.042.631.07.947.105l1.34.147c.042.007.084.007.126.014,1.059.112,2.119.225,3.178.316.856.07,1.712.14,2.568.2.014-.007.028,0,.042,0q3.325.232,6.694.33c.274.014.554.021.828.028.077,0,.154.007.232.007h.14c.288-.007.589-.014.877-.028a177.926,177.926,0,0,0,18.972-1.509,166.736,166.736,0,0,0,119.756-70.115,180.508,180.508,0,0,0,11.324-16.959.062.062,0,0,1-.007-.035c0-.007.007-.007.007-.014" fill="#fff"/>
        <g id="Group_69595" data-name="Group 69595" opacity="0.3">
          <g id="Group_69594" data-name="Group 69594">
            <g id="Group_69593" data-name="Group 69593" clip-path="url(#clip-path-6)">
              <path id="Path_21429" data-name="Path 21429" d="M314.615,267.219c-.1-.323-.2-.653-.309-.975-.631-2.021-1.256-4.034-1.873-6.062q-.59-1.9-1.165-3.824a.007.007,0,0,1-.007.007A179.521,179.521,0,0,1,60.2,294.081q-6.833-5.047-13.165-10.724l-.168-.147-.007-.007q.338,1.326.688,2.652c.028.112.056.225.084.33q.958,3.695,1.937,7.374c.042.147.077.3.119.442q1,3.736,2.021,7.472.967,3.548,1.958,7.086c.3,1.088.61,2.175.919,3.256h.007c1.305,1.2,2.631,2.386,3.971,3.543q-2.021-1.727-3.985-3.522c0,.007.007.021.007.028h.007a167.09,167.09,0,0,0,39,26.817q6.557,3.252,13.436,5.922c.884.344,1.768.681,2.659,1.01a2.555,2.555,0,0,0,.239.091q.852.316,1.7.61c.456.161.912.323,1.375.484.926.323,1.859.638,2.793.933,1.137.379,2.287.737,3.438,1.081a163.844,163.844,0,0,0,25.27,5.516c.126.021.26.035.386.056s.246.035.372.049c.772.1,1.551.2,2.329.295.442.056.891.105,1.333.154.1.007.189.021.288.028.225.021.442.042.667.07,1.1.119,2.2.232,3.3.33.856.07,1.712.14,2.568.2.014-.007.028,0,.042,0,2.224.154,4.469.267,6.722.337.344.007.688.021,1.031.028h.14c.288-.007.589-.014.877-.028a179.52,179.52,0,0,0,19.071-1.516,166.748,166.748,0,0,0,119.657-70.108,180.508,180.508,0,0,0,11.324-16.959.062.062,0,0,1-.007-.035c0-.007.007-.007.007-.014" fill="#9cc"/>
            </g>
          </g>
        </g>
        <path id="Path_21430" data-name="Path 21430" d="M55.749,105.138A11,11,0,0,1,54.4,83.226L237.838,60.3a11,11,0,0,1,3.249,21.759c-.174.026-.348.047-.522.065L57.127,105.051a11.15,11.15,0,0,1-1.379.088" fill="#099"/>
        <path id="Path_21431" data-name="Path 21431" d="M66.26,158.642a11,11,0,0,1-1.494-21.893L244.383,111.91a11,11,0,1,1,3.553,21.711q-.27.045-.541.075L67.778,158.535a11.011,11.011,0,0,1-1.518.107" fill="#099"/>
        <path id="Path_21432" data-name="Path 21432" d="M115.4,200.713a26.061,26.061,0,0,1,8.7,12.5l17.2-3.049,1.882,10.622-17.354,3.075c.381,15.208-9.926,25.829-24.551,29.5,12.2,8.792,26.867,21.006,40.932,33.327l-24.535,4.348c-10.383-8.961-24.87-21.052-39.091-31.648l-2.731-15.408,9.275-1.644c12.716-2.253,18.381-7.732,19.009-14.632l-30.219,5.355-1.882-10.622,29.621-5.249c-3.295-4.662-9.563-6.946-19.736-5.144l-11.37,2.015L67.741,198.2l69.265-12.275,1.882,10.622Z" fill="#099"/>
        <path id="Path_21433" data-name="Path 21433" d="M169.495,188.706l4.761,26.168,26.167-4.761-4.761-26.168Zm23.651,16.37-13.853,2.52-2.521-13.853,13.854-2.52Z" fill="#0f3764"/>
        <rect id="Rectangle_2682" data-name="Rectangle 2682" width="6.258" height="6.258" transform="translate(181.321 196.891) rotate(-10.31)" fill="#0f3764"/>
        <path id="Path_21434" data-name="Path 21434" d="M222.138,179.128,226.9,205.3l26.167-4.761L248.3,174.367Zm23.651,16.37-13.853,2.52-2.521-13.853,13.854-2.52Z" fill="#0f3764"/>
        <rect id="Rectangle_2683" data-name="Rectangle 2683" width="6.258" height="6.258" transform="translate(233.964 187.313) rotate(-10.31)" fill="#0f3764"/>
        <path id="Path_21435" data-name="Path 21435" d="M179.073,241.349l4.761,26.168L210,262.756l-4.761-26.168Zm23.651,16.37-13.853,2.52-2.521-13.853,13.854-2.52Z" fill="#0f3764"/>
        <rect id="Rectangle_2684" data-name="Rectangle 2684" width="6.258" height="6.258" transform="translate(190.898 249.534) rotate(-10.31)" fill="#0f3764"/>
        <rect id="Rectangle_2685" data-name="Rectangle 2685" width="6.258" height="6.258" transform="translate(181.169 217.909) rotate(-10.31)" fill="#0f3764"/>
        <path id="Path_21436" data-name="Path 21436" d="M195.724,227.983l-1.12-6.157-6.157,1.12,1.12,6.157,6-1.092,1.12,6.157,6.157-1.12-1.12-6.157Z" fill="#0f3764"/>
        <rect id="Rectangle_2686" data-name="Rectangle 2686" width="6.258" height="6.258" transform="translate(214.751 192.717) rotate(-10.31)" fill="#0f3764"/>
        <rect id="Rectangle_2687" data-name="Rectangle 2687" width="6.258" height="12.047" transform="translate(201.401 189.262) rotate(-10.31)" fill="#0f3764"/>
        <rect id="Rectangle_2688" data-name="Rectangle 2688" width="6.258" height="6.258" transform="translate(206.438 181.985) rotate(-10.31)" fill="#0f3764"/>
        <path id="Path_21437" data-name="Path 21437" d="M209.714,199.994l1.12,6.157-6.157,1.12,1.12,6.157,12.314-2.24-2.24-12.314Z" fill="#0f3764"/>
        <path id="Path_21438" data-name="Path 21438" d="M222.536,235.509l-1.092-6-6.157,1.12-2.213-12.16-6.157,1.12,2.241,12.314,6.157-1.12,1.092,6,6.157-1.12,1.092,6,12.314-2.24-1.12-6.157Z" fill="#0f3764"/>
        <rect id="Rectangle_2689" data-name="Rectangle 2689" width="6.258" height="12.516" transform="translate(218.111 211.188) rotate(-10.31)" fill="#0f3764"/>
        <path id="Path_21439" data-name="Path 21439" d="M248.758,211.815l-1.092-6-11.237,2.044,1.12,6.157-6,1.092,1.12,6.157,6.157-1.12,1.092,6,17.24-3.136-2.24-12.314Zm1.12,6.157-11.083,2.016-1.092-6,11.083-2.016Z" fill="#0f3764"/>
        <rect id="Rectangle_2690" data-name="Rectangle 2690" width="6.258" height="12.516" transform="matrix(0.984, -0.179, 0.179, 0.984, 252.09, 230.132)" fill="#0f3764"/>
        <rect id="Rectangle_2691" data-name="Rectangle 2691" width="6.258" height="6.258" transform="translate(226.509 222.382) rotate(-10.31)" fill="#0f3764"/>
        <rect id="Rectangle_2692" data-name="Rectangle 2692" width="6.258" height="6.258" transform="translate(235.97 239.425) rotate(-10.31)" fill="#0f3764"/>
        <rect id="Rectangle_2693" data-name="Rectangle 2693" width="6.258" height="6.258" transform="translate(241.007 232.148) rotate(-10.31)" fill="#0f3764"/>
        <path id="Path_21440" data-name="Path 21440" d="M243.248,244.462l2.156,11.852,6.157-1.12-1.036-5.695,4.926-.9-1.12-6.157Z" fill="#0f3764"/>
        <rect id="Rectangle_2694" data-name="Rectangle 2694" width="6.258" height="11.89" transform="translate(210.25 237.903) rotate(-10.31)" fill="#0f3764"/>
        <path id="Path_21441" data-name="Path 21441" d="M231.97,252.4l-1.12-6.157-12.314,2.24,2.24,12.314,6.157-1.12-1.12-6.157,6-1.092,1.12,6.157,6.157-1.12-1.12-6.157Z" fill="#0f3764"/>
        <rect id="Rectangle_2695" data-name="Rectangle 2695" width="12.516" height="6.258" transform="translate(193.483 215.669) rotate(-10.31)" fill="#0f3764"/>
        <rect id="Rectangle_2696" data-name="Rectangle 2696" width="6.258" height="12.516" transform="translate(176.132 225.187) rotate(-10.31)" fill="#0f3764"/>
      </g>
    </g>
  </g>
</svg>
