<svg xmlns="http://www.w3.org/2000/svg" xmlns:xlink="http://www.w3.org/1999/xlink" width="44" height="44.164" viewBox="0 0 44 44.164">
  <defs>
    <clipPath id="clip-path">
      <rect id="Rectangle_2751" data-name="Rectangle 2751" width="44" height="44.164" transform="translate(0 0)" fill="#fff"/>
    </clipPath>
  </defs>
  <g id="Group_69653" data-name="Group 69653" transform="translate(0 0)">
    <g id="Group_69652" data-name="Group 69652" clip-path="url(#clip-path)">
      <path id="Path_21467" data-name="Path 21467" d="M30.155,12.157a1.334,1.334,0,0,0-.962-.41,1.3,1.3,0,0,0-.972.4l-4.86,4.861V1.361a1.361,1.361,0,0,0-2.722,0V17l-4.85-4.779a1.35,1.35,0,0,0-.972-.409,1.361,1.361,0,0,0-.972,2.323l7.183,7.132a1.371,1.371,0,0,0,1.934.01l7.193-7.194a1.376,1.376,0,0,0,0-1.923m8.616,10.355H33.256a1.361,1.361,0,0,0,0,2.722H38.7A2.483,2.483,0,0,1,41.268,27.6v11.45a2.476,2.476,0,0,1-2.6,2.394H5.3a2.462,2.462,0,0,1-2.568-2.363V27.628a2.473,2.473,0,0,1,.808-1.749,2.438,2.438,0,0,1,1.791-.645h5.413a1.361,1.361,0,0,0,0-2.722H5.239A5.239,5.239,0,0,0,0,27.639V39.048a5.235,5.235,0,0,0,5.229,5.116H38.761A5.24,5.24,0,0,0,44,39.038V27.628a5.243,5.243,0,0,0-5.229-5.116" fill="#fff"/>
    </g>
  </g>
</svg>
