<?xml version="1.0" encoding="UTF-8"?>
<svg xmlns="http://www.w3.org/2000/svg" xmlns:xlink="http://www.w3.org/1999/xlink" id="Group_69731" data-name="Group 69731" width="28" height="27.999" viewBox="0 0 28 27.999">
  <defs>
    <clipPath id="clip-path">
      <rect id="Rectangle_2812" data-name="Rectangle 2812" width="28" height="27.999" transform="translate(0 0)" fill="#0f3764"></rect>
    </clipPath>
  </defs>
  <g id="Group_69730" data-name="Group 69730" clip-path="url(#clip-path)">
    <path id="Path_21508" data-name="Path 21508" d="M15.084,21.343a.459.459,0,0,0,.352-.544,8.877,8.877,0,0,0-1.09-2.743l-.024-.04a6.123,6.123,0,0,1-.817-3.867.457.457,0,0,0-.736-.417.45.45,0,0,0-.172.3,7.03,7.03,0,0,0,.94,4.449l.025.042a7.979,7.979,0,0,1,.978,2.463.461.461,0,0,0,.448.362.447.447,0,0,0,.1-.01" fill="#0f3764"></path>
    <path id="Path_21509" data-name="Path 21509" d="M15.173,23.394a.46.46,0,0,0-.458.454L14.7,25.5a.46.46,0,0,0,.456.462h0a.459.459,0,0,0,.458-.454l.015-1.65a.459.459,0,0,0-.458-.462" fill="#0f3764"></path>
    <path id="Path_21510" data-name="Path 21510" d="M15.164,26.345h0a.46.46,0,0,0-.458.452l0,.358a.458.458,0,0,0,.454.463h0a.459.459,0,0,0,.458-.452l0-.358a.457.457,0,0,0-.13-.325.453.453,0,0,0-.323-.138m-.009,1.111Z" fill="#0f3764"></path>
    <path id="Path_21511" data-name="Path 21511" d="M19.373,1.587a.459.459,0,0,0,.458-.458V.458a.458.458,0,1,0-.916,0v.671a.459.459,0,0,0,.458.458" fill="#0f3764"></path>
    <path id="Path_21512" data-name="Path 21512" d="M13.509,3.77a.458.458,0,0,0,.649-.646l-.472-.475a.459.459,0,0,0-.648,0,.452.452,0,0,0-.135.323.458.458,0,0,0,.133.324Z" fill="#0f3764"></path>
    <path id="Path_21513" data-name="Path 21513" d="M11.281,6.79a.458.458,0,1,0,0,.916h.668a.458.458,0,0,0,0-.916Z" fill="#0f3764"></path>
    <path id="Path_21514" data-name="Path 21514" d="M26.823,7.678h.668a.458.458,0,1,0,0-.916h-.668a.458.458,0,1,0,0,.916" fill="#0f3764"></path>
    <path id="Path_21515" data-name="Path 21515" d="M24.921,3.885a.456.456,0,0,0,.325-.135l.472-.475a.458.458,0,0,0-.649-.646L24.6,3.1a.465.465,0,0,0,.325.781" fill="#0f3764"></path>
    <path id="Path_21516" data-name="Path 21516" d="M27.844,19.112a9.59,9.59,0,0,1-1.4-4.092,9.759,9.759,0,0,0-1.561-4.758,5.824,5.824,0,0,0,.447-2.244,5.958,5.958,0,1,0-11.874.7,7.837,7.837,0,0,0-2.6,5.055,8.974,8.974,0,0,0,1.192,5.67,6.181,6.181,0,0,1,.9,3.221l-.019,4.491a.453.453,0,0,0,.132.325.458.458,0,0,0,.783-.321l.019-4.491a7.081,7.081,0,0,0-1.029-3.7,7.685,7.685,0,0,1,.849-9.208,5.886,5.886,0,0,0,1.737,2.673A4.131,4.131,0,0,1,16.526,14a1.348,1.348,0,0,0,.372,2.482v.65A1.168,1.168,0,0,0,18.065,18.3h2.643a1.169,1.169,0,0,0,1.168-1.167v-.65a1.348,1.348,0,0,0,.341-2.5,4.134,4.134,0,0,1,1.105-1.547,5.9,5.9,0,0,0,1.066-1.24,8.989,8.989,0,0,1,1.137,3.879,9.369,9.369,0,0,0,1.525,4.491.336.336,0,0,1-.013.3.13.13,0,0,1-.12.076h-.928a.459.459,0,0,0-.458.458v2.853a1.91,1.91,0,0,1-1.908,1.908H22.76a.458.458,0,0,0-.457.457v1.924a.458.458,0,1,0,.915,0V26.075h.4a2.826,2.826,0,0,0,2.823-2.823v-2.4h.471a1.057,1.057,0,0,0,.92-.553,1.192,1.192,0,0,0,.007-1.192m-7.135-1.726H18.065a.252.252,0,0,1-.251-.252v-.615h3.147v.615a.251.251,0,0,1-.251.252m.591-3.565H17.436a5.029,5.029,0,0,0-1.417-2.07,5.043,5.043,0,1,1,6.7,0,5.029,5.029,0,0,0-1.417,2.07m.707,1.349a.433.433,0,0,1-.433.433H17.2a.433.433,0,1,1,0-.866h4.373a.433.433,0,0,1,.433.433" fill="#0f3764"></path>
    <path id="Path_21517" data-name="Path 21517" d="M21.08,8.28V8.272a1.323,1.323,0,0,0-1.339-1.3.459.459,0,0,0-.321.141.454.454,0,0,0-.127.327.46.46,0,0,0,.46.448h.015a.408.408,0,0,1,.4.406V8.3a.461.461,0,0,0,.458.448h.01a.459.459,0,0,0,.448-.469" fill="#0f3764"></path>
    <path id="Path_21518" data-name="Path 21518" d="M23.249,10.267,22.836,9.7a1.792,1.792,0,0,0,.433-2.184,2.1,2.1,0,0,0-.328-1.792,1.984,1.984,0,0,0-1.512-.835,2.1,2.1,0,0,0-1.741-.846,2.2,2.2,0,0,0-1.528.595,2.421,2.421,0,0,0-2.083.532A1.469,1.469,0,0,0,15.6,6.48a2.027,2.027,0,0,0-1.07,1.762A1.961,1.961,0,0,0,15.452,9.9a2.386,2.386,0,0,0,2.119.25A2.065,2.065,0,0,0,20.1,10.5a1.348,1.348,0,0,0,.731.59l.012,0a.872.872,0,0,1,.627.523l0,.01a.458.458,0,0,0,.321.227.552.552,0,0,0,.08.007.452.452,0,0,0,.3-.112l1-.866a.459.459,0,0,0,.07-.616M20.57,9.134a.481.481,0,0,0-.183-.036A.434.434,0,0,0,20,9.332a1.046,1.046,0,0,1-.937.535h-.011a1.053,1.053,0,0,1-.94-.523.945.945,0,0,1-.025-.853.454.454,0,0,0-.116-.55.454.454,0,0,0,.27.088.459.459,0,0,0,.35-.164.453.453,0,0,0,.1-.37,1.467,1.467,0,0,0-1.449-1.28.459.459,0,0,0-.447.469.459.459,0,0,0,.458.447h.011a.561.561,0,0,1,.524.517.458.458,0,0,0,.154.271.418.418,0,0,0-.068-.04.459.459,0,0,0-.612.21,1.852,1.852,0,0,0-.133,1.238,1.49,1.49,0,0,1-1.2-.2,1.049,1.049,0,0,1-.485-.883,1.163,1.163,0,0,1,.844-1.07.458.458,0,0,0,.275-.255.453.453,0,0,0,0-.373.589.589,0,0,1-.057-.251c0-.443.5-.8,1.1-.8.462,0,1.1.279,1.1.8a.458.458,0,0,0,.916,0,1.586,1.586,0,0,0-.558-1.19,1.373,1.373,0,0,1,.62-.142,1.116,1.116,0,0,1,1.055.573.457.457,0,0,0,.471.277A.914.914,0,0,1,21.33,5.8a1.124,1.124,0,0,1,1.1,1.141c0,.276-.119.744-.564.754a.458.458,0,0,0-.321.141.451.451,0,0,0-.127.327.461.461,0,0,0,.458.448h.01a1.44,1.44,0,0,0,.659-.177.823.823,0,0,1-.53.69.459.459,0,0,0-.222.7l.465.637-.279.241a1.758,1.758,0,0,0-.858-.486.449.449,0,0,1-.28-.551.441.441,0,0,0-.274-.537" fill="#0f3764"></path>
    <path id="Path_21519" data-name="Path 21519" d="M3.9,19.655H2.122a.458.458,0,0,0-.457.458v5.263a.458.458,0,0,0,.457.458H3.9a.458.458,0,0,0,.458-.458V20.113a.459.459,0,0,0-.458-.458m-.458,5.263H2.58V20.571h.859Z" fill="#0f3764"></path>
    <path id="Path_21520" data-name="Path 21520" d="M7.327,21.2H5.536a.458.458,0,0,0-.458.458v3.72a.459.459,0,0,0,.458.458H7.327a.458.458,0,0,0,.458-.458v-3.72a.458.458,0,0,0-.458-.458m-1.333.916H6.87v2.805H5.994Z" fill="#0f3764"></path>
    <path id="Path_21521" data-name="Path 21521" d="M10.74,19.655H8.966a.459.459,0,0,0-.458.458v5.263a.459.459,0,0,0,.458.458H10.74a.459.459,0,0,0,.458-.458V20.113a.459.459,0,0,0-.458-.458m-.457,5.263H9.424V20.571h.859Z" fill="#0f3764"></path>
    <path id="Path_21522" data-name="Path 21522" d="M3.62,17.243A.458.458,0,0,0,3.107,18l3.068,2.071.006,0a.461.461,0,0,0,.517-.011L9.142,18.24a.442.442,0,0,0,.07.1.492.492,0,0,0,.457.159.433.433,0,0,0,.325-.3l.316-.936a.458.458,0,0,0-.423-.6l-.954-.022h-.01a.46.46,0,0,0-.458.447.464.464,0,0,0,.184.378L6.418,19.132Z" fill="#0f3764"></path>
    <path id="Path_21523" data-name="Path 21523" d="M2.261,15.242l.564-.342c.08.037.162.071.245.1l.158.644a.456.456,0,0,0,.445.349h1.25a.456.456,0,0,0,.445-.349l.157-.641q.124-.047.246-.1l.567.345A.456.456,0,0,0,6.9,15.18l.884-.884a.456.456,0,0,0,.068-.561l-.342-.564q.056-.121.1-.246l.644-.157a.458.458,0,0,0,.349-.445V11.072a.456.456,0,0,0-.349-.444l-.641-.157q-.046-.125-.1-.246l.345-.567A.455.455,0,0,0,7.789,9.1l-.884-.884a.457.457,0,0,0-.562-.068l-.564.343c-.08-.038-.162-.072-.245-.1l-.158-.644a.457.457,0,0,0-.445-.349H3.681a.457.457,0,0,0-.445.349l-.157.641q-.124.047-.246.1l-.567-.345a.457.457,0,0,0-.561.068l-.884.884a.456.456,0,0,0-.068.561l.342.564q-.056.122-.1.246l-.644.158A.456.456,0,0,0,0,11.064v1.251a.456.456,0,0,0,.349.444l.641.157c.031.083.065.166.1.246l-.345.567a.455.455,0,0,0,.068.561l.884.884a.457.457,0,0,0,.562.068M6.6,9.967a.458.458,0,0,0-.009.46,2.613,2.613,0,0,1,.229.553.458.458,0,0,0,.332.32l.538.132v.531l-.541.133a.458.458,0,0,0-.331.319,2.612,2.612,0,0,1-.231.552.458.458,0,0,0,.009.461l.288.475-.376.376-.477-.29a.461.461,0,0,0-.46-.009,2.613,2.613,0,0,1-.553.229.458.458,0,0,0-.32.332l-.132.538H4.032L3.9,14.538a.458.458,0,0,0-.319-.331,2.6,2.6,0,0,1-.553-.231.458.458,0,0,0-.461.009l-.475.288L1.717,13.9l.289-.477a.458.458,0,0,0,.009-.46,2.644,2.644,0,0,1-.229-.553.458.458,0,0,0-.332-.32l-.538-.132v-.531l.541-.133a.459.459,0,0,0,.331-.318,2.6,2.6,0,0,1,.231-.553.46.46,0,0,0-.008-.461l-.289-.475L2.1,9.109l.477.289a.459.459,0,0,0,.46.009,2.666,2.666,0,0,1,.553-.229.459.459,0,0,0,.321-.331l.131-.539h.532l.132.541a.458.458,0,0,0,.319.332,2.6,2.6,0,0,1,.553.23A.46.46,0,0,0,6.037,9.4l.475-.289.375.376Z" fill="#0f3764"></path>
    <path id="Path_21524" data-name="Path 21524" d="M4.3,9.738a1.955,1.955,0,1,0,1.956,1.955A1.958,1.958,0,0,0,4.3,9.738m1.04,1.955a1.04,1.04,0,1,1-1.04-1.04,1.042,1.042,0,0,1,1.04,1.04" fill="#0f3764"></path>
    <path id="Path_21525" data-name="Path 21525" d="M8.679,7.066A3.533,3.533,0,1,0,5.145,3.533,3.537,3.537,0,0,0,8.679,7.066M6.061,3.533A2.617,2.617,0,1,1,8.679,6.15,2.62,2.62,0,0,1,6.061,3.533" fill="#0f3764"></path>
    <path id="Path_21526" data-name="Path 21526" d="M9.072,2.17a.894.894,0,0,1,.221.48H9.9v.374H9.288a1.023,1.023,0,0,1-1.017.859c.363.375.79.881,1.2,1.387H8.6C8.3,4.9,7.881,4.4,7.459,3.952V3.409h.327c.448,0,.675-.153.738-.385H7.459V2.65H8.5c-.085-.18-.285-.3-.643-.3h-.4V1.8H9.9V2.17Z" fill="#0f3764"></path>
  </g>
</svg>
