<?xml version="1.0" encoding="UTF-8"?>
<svg xmlns="http://www.w3.org/2000/svg" xmlns:xlink="http://www.w3.org/1999/xlink" id="Group_69823" data-name="Group 69823" width="26.385" height="28" viewBox="0 0 26.385 28">
  <defs>
    <clipPath id="clip-path">
      <rect id="Rectangle_2891" data-name="Rectangle 2891" width="26.385" height="28" fill="#0f3764"></rect>
    </clipPath>
  </defs>
  <g id="Group_69822" data-name="Group 69822" clip-path="url(#clip-path)">
    <path id="Path_21679" data-name="Path 21679" d="M26.234,7.577,19.1.165A.54.54,0,0,0,18.713,0H8.081A2.16,2.16,0,0,0,5.923,2.157V9.692H1.615A1.617,1.617,0,0,0,0,11.306v8.08A1.617,1.617,0,0,0,1.615,21H5.923v4.847A2.158,2.158,0,0,0,8.081,28H24.227a2.157,2.157,0,0,0,2.158-2.152V7.951a.54.54,0,0,0-.151-.374M18.847,1.454,24.7,7.538H18.847ZM1.615,19.923a.538.538,0,0,1-.538-.537v-8.08a.538.538,0,0,1,.538-.537h14.54a.538.538,0,0,1,.538.537v8.08a.538.538,0,0,1-.538.537Zm23.693,5.925a1.079,1.079,0,0,1-1.081,1.075H8.081A1.08,1.08,0,0,1,7,25.847V21h9.155a1.617,1.617,0,0,0,1.615-1.614v-8.08a1.617,1.617,0,0,0-1.615-1.614H7V2.157a1.081,1.081,0,0,1,1.081-1.08H17.77v7a.538.538,0,0,0,.538.538h7Z" fill="#0f3764"></path>
    <path id="Path_21680" data-name="Path 21680" d="M6.438,13.666a1.22,1.22,0,0,0-.666-.453,5.467,5.467,0,0,0-1.111-.069h-1.5v4.625H4.1V16.024h.609a5.35,5.35,0,0,0,.968-.066,1.369,1.369,0,0,0,.485-.219,1.283,1.283,0,0,0,.392-.456,1.5,1.5,0,0,0,.155-.716,1.434,1.434,0,0,0-.268-.9m-.8,1.273a.61.61,0,0,1-.292.227,2.388,2.388,0,0,1-.738.073H4.1V13.926h.451a4.482,4.482,0,0,1,.672.032.643.643,0,0,1,.375.2.6.6,0,0,1,.149.416.626.626,0,0,1-.106.36" fill="#0f3764"></path>
    <path id="Path_21681" data-name="Path 21681" d="M11.195,14.408a2.027,2.027,0,0,0-.442-.75,1.551,1.551,0,0,0-.7-.426,3.337,3.337,0,0,0-.881-.088H7.47v4.625H9.226a2.843,2.843,0,0,0,.827-.1,1.651,1.651,0,0,0,.656-.37,2.043,2.043,0,0,0,.5-.817,3.024,3.024,0,0,0,.142-.984,3.411,3.411,0,0,0-.151-1.093m-.909,1.9a.974.974,0,0,1-.245.446.85.85,0,0,1-.377.193,2.562,2.562,0,0,1-.564.044H8.4V13.927h.42a4.193,4.193,0,0,1,.767.044.9.9,0,0,1,.432.217,1.06,1.06,0,0,1,.265.448,2.769,2.769,0,0,1,.095.824,3.02,3.02,0,0,1-.095.847" fill="#0f3764"></path>
    <path id="Path_21682" data-name="Path 21682" d="M15.316,13.926v-.782H12.145v4.625h.934V15.8H15.01v-.782H13.079v-1.1Z" fill="#0f3764"></path>
  </g>
</svg>
