<?xml version="1.0" encoding="UTF-8"?>
<svg xmlns="http://www.w3.org/2000/svg" xmlns:xlink="http://www.w3.org/1999/xlink" id="Group_70268" data-name="Group 70268" width="36.667" height="44" viewBox="0 0 36.667 44">
  <defs>
    <clipPath id="clip-path">
      <rect id="Rectangle_3186" data-name="Rectangle 3186" width="36.667" height="44" fill="#0f3764"></rect>
    </clipPath>
  </defs>
  <g id="Group_70267" data-name="Group 70267" clip-path="url(#clip-path)">
    <path id="Path_21994" data-name="Path 21994" d="M36.667,3.667A3.672,3.672,0,0,0,33,0H.733A.734.734,0,0,0,0,.734V43.267A.733.733,0,0,0,.733,44h35.2a.734.734,0,0,0,.734-.733ZM35.2,42.534H1.467V1.467H29.333A1.469,1.469,0,0,1,30.8,2.934V6.6a.734.734,0,0,0,.733.734H35.2Zm0-36.667H32.267V2.934a2.927,2.927,0,0,0-.394-1.467H33a2.2,2.2,0,0,1,2.2,2.2Z" fill="#0f3764"></path>
    <path id="Path_21995" data-name="Path 21995" d="M3.667,5.867H11A.734.734,0,1,0,11,4.4H3.667a.734.734,0,0,0,0,1.467" fill="#0f3764"></path>
    <path id="Path_21996" data-name="Path 21996" d="M3.667,8.8H15.4a.734.734,0,1,0,0-1.467H3.667a.734.734,0,0,0,0,1.467" fill="#0f3764"></path>
    <path id="Path_21997" data-name="Path 21997" d="M30.8,38.133a.733.733,0,0,0,0-1.467H24.933a.733.733,0,0,0,0,1.467Z" fill="#0f3764"></path>
    <path id="Path_21998" data-name="Path 21998" d="M33,39.6H21.267a.734.734,0,1,0,0,1.467H33A.734.734,0,0,0,33,39.6" fill="#0f3764"></path>
    <path id="Path_21999" data-name="Path 21999" d="M11.733,38.133a.733.733,0,0,0,0-1.467H5.866a.733.733,0,0,0,0,1.467Z" fill="#0f3764"></path>
    <path id="Path_22000" data-name="Path 22000" d="M15.4,39.6H3.667a.734.734,0,1,0,0,1.467H15.4a.734.734,0,0,0,0-1.467" fill="#0f3764"></path>
    <path id="Path_22001" data-name="Path 22001" d="M2.933,12.467V33a.734.734,0,0,0,.734.733H33A.733.733,0,0,0,33.733,33V12.467A.734.734,0,0,0,33,11.733H3.667a.734.734,0,0,0-.734.734M4.4,16.133H7.333V32.266H4.4ZM14.667,13.2h13.2v1.467h-13.2Zm13.2,19.067h-13.2V16.134h13.2ZM13.2,14.667H8.8V13.2h4.4Zm0,17.6H8.8V16.134h4.4ZM29.333,16.133h2.933V32.266H29.333Zm2.934-1.466H29.334V13.2h2.933Zm-24.934,0H4.4V13.2H7.333Z" fill="#0f3764"></path>
    <path id="Path_22002" data-name="Path 22002" d="M21.267,24.933a.733.733,0,1,1-.733.733.734.734,0,0,0-1.467,0,2.2,2.2,0,0,0,1.467,2.074v.126a.733.733,0,1,0,1.466,0V27.74a2.2,2.2,0,0,0-.733-4.274A.733.733,0,1,1,22,22.733a.733.733,0,0,0,1.467,0A2.2,2.2,0,0,0,22,20.659v-.126a.733.733,0,1,0-1.466,0v.126a2.2,2.2,0,0,0,.733,4.274" fill="#0f3764"></path>
  </g>
</svg>
