<?xml version="1.0" encoding="UTF-8"?>
<svg xmlns="http://www.w3.org/2000/svg" xmlns:xlink="http://www.w3.org/1999/xlink" id="Group_69735" data-name="Group 69735" width="44" height="44" viewBox="0 0 44 44">
  <defs>
    <clipPath id="clip-path">
      <rect id="Rectangle_2814" data-name="Rectangle 2814" width="44" height="44" fill="#fff"></rect>
    </clipPath>
  </defs>
  <g id="Group_69734" data-name="Group 69734" clip-path="url(#clip-path)">
    <path id="Path_21528" data-name="Path 21528" d="M19.616,19.2a1.439,1.439,0,0,1-.072.327.789.789,0,0,1-.194.287l-7.03,7.04a.9.9,0,0,1-1.269-1.269l5.505-5.5H.9a.89.89,0,1,1,0-1.78H16.556L11.051,12.78a.857.857,0,0,1-.266-.634.891.891,0,0,1,.266-.635.9.9,0,0,1,1.269,0L19.3,18.5l.061.062a.836.836,0,0,1,.195.307,1.571,1.571,0,0,1,.061.327" fill="#fff"></path>
    <path id="Path_21529" data-name="Path 21529" d="M40.879.01,40.787,0H19.656a4.648,4.648,0,0,0-4.645,4.645V7.459a.9.9,0,0,0,.89.9.909.909,0,0,0,.9-.9V4.645a2.856,2.856,0,0,1,2.854-2.854H34.821L28.456,3.919a3.25,3.25,0,0,0-2.189,3.07V36.581H19.656A2.856,2.856,0,0,1,16.8,33.726V30.912a.909.909,0,0,0-.9-.9.9.9,0,0,0-.89.9v2.814a4.648,4.648,0,0,0,4.645,4.646h6.611v2.384A3.242,3.242,0,0,0,29.5,44a3.31,3.31,0,0,0,1.044-.164L41.81,40.081A3.251,3.251,0,0,0,44,37.011V3.244A3.252,3.252,0,0,0,40.879.01m1.33,37a1.477,1.477,0,0,1-.982,1.381L30,42.138a1.673,1.673,0,0,1-.44.061,1.534,1.534,0,0,1-.911-.3,1.411,1.411,0,0,1-.594-1.146V6.989a1.484,1.484,0,0,1,.972-1.382L40.265,1.862a1.489,1.489,0,0,1,1.944,1.382Z" fill="#fff"></path>
  </g>
</svg>
