<svg id="Group_69627" data-name="Group 69627" xmlns="http://www.w3.org/2000/svg" xmlns:xlink="http://www.w3.org/1999/xlink" width="38.672" height="44" viewBox="0 0 38.672 44">
  <defs>
    <clipPath id="clip-path">
      <rect id="Rectangle_2737" data-name="Rectangle 2737" width="38.672" height="44" fill="#fff"/>
    </clipPath>
  </defs>
  <g id="Group_69626" data-name="Group 69626" clip-path="url(#clip-path)">
    <path id="Path_21451" data-name="Path 21451" d="M32.656,22.59V18.477A13.345,13.345,0,0,0,23.2,5.73V3.868a3.867,3.867,0,1,0-7.734,0V5.73A13.343,13.343,0,0,0,6.016,18.477V22.59A20.245,20.245,0,0,1,.359,36.663a1.289,1.289,0,0,0,.93,2.181H13.021a6.445,6.445,0,0,0,12.63,0H37.382a1.289,1.289,0,0,0,.931-2.181A20.24,20.24,0,0,1,32.656,22.59M18.046,3.868a1.29,1.29,0,1,1,2.579,0V5.219q-.637-.061-1.288-.062c-.436,0-.865.021-1.291.062Zm1.291,37.554a3.871,3.871,0,0,1-3.646-2.578h7.29a3.872,3.872,0,0,1-3.644,2.578M4.068,36.266A22.8,22.8,0,0,0,8.594,22.59V18.477a10.742,10.742,0,0,1,21.484,0V22.59A22.79,22.79,0,0,0,34.6,36.266Z" fill="#fff"/>
    <path id="Path_21452" data-name="Path 21452" d="M36.094,18.477a1.289,1.289,0,1,0,2.578,0A19.21,19.21,0,0,0,33.009,4.8a1.289,1.289,0,0,0-1.823,1.823A16.65,16.65,0,0,1,36.094,18.477Z" fill="#fff"/>
    <path id="Path_21453" data-name="Path 21453" d="M1.289,19.766a1.289,1.289,0,0,0,1.289-1.289A16.651,16.651,0,0,1,7.486,6.627,1.289,1.289,0,0,0,5.663,4.8,19.21,19.21,0,0,0,0,18.477a1.289,1.289,0,0,0,1.289,1.289" fill="#fff"/>
  </g>
</svg>
