<?xml version="1.0" encoding="UTF-8"?>
<svg xmlns="http://www.w3.org/2000/svg" xmlns:xlink="http://www.w3.org/1999/xlink" id="Group_70266" data-name="Group 70266" width="43.986" height="44" viewBox="0 0 43.986 44">
  <defs>
    <clipPath id="clip-path">
      <rect id="Rectangle_3185" data-name="Rectangle 3185" width="43.986" height="44" fill="#0f3764"></rect>
    </clipPath>
  </defs>
  <g id="Group_70265" data-name="Group 70265" clip-path="url(#clip-path)">
    <path id="Path_21990" data-name="Path 21990" d="M20.22,29.843a.86.86,0,1,0-1.216,0,.861.861,0,0,0,1.216,0" fill="#0f3764"></path>
    <path id="Path_21991" data-name="Path 21991" d="M16.152,9.451A9.451,9.451,0,1,0,25.6,0a9.462,9.462,0,0,0-9.451,9.45m17.183,0A7.732,7.732,0,1,1,25.6,1.719a7.741,7.741,0,0,1,7.732,7.732" fill="#0f3764"></path>
    <path id="Path_21992" data-name="Path 21992" d="M9.9,43.746a.859.859,0,0,0,1.213.007l4.165-4.1a2.6,2.6,0,0,0,.612-2.666l.9-.864a2.561,2.561,0,0,1,1.789-.723H29.992a7.692,7.692,0,0,0,5.393-2.191c.06-.058-.453.547,7.792-9.308a3.437,3.437,0,0,0-5.23-4.46l-5.069,5.211a3.453,3.453,0,0,0-2.671-1.279H20.626a11.069,11.069,0,0,0-4.3-.86A10.629,10.629,0,0,0,6.636,28a2.565,2.565,0,0,0-2.3.712l-4.087,4.1a.859.859,0,0,0,0,1.212Zm6.428-19.518a9.366,9.366,0,0,1,3.782.787.869.869,0,0,0,.344.072h9.757a1.718,1.718,0,0,1,0,3.436H23.2a.86.86,0,0,0,0,1.719h7.01a3.44,3.44,0,0,0,3.436-3.437,3.527,3.527,0,0,0-.03-.449c4.9-5.041,5.6-5.75,5.625-5.785a1.719,1.719,0,1,1,2.624,2.22L34.156,32a5.983,5.983,0,0,1-4.164,1.674H18.571a4.27,4.27,0,0,0-2.983,1.2l-.73.7-6.731-6.73a8.871,8.871,0,0,1,8.2-4.629m-10.77,5.7a.858.858,0,0,1,1.064-.121c.149.091-.278-.3,7.441,7.411a.861.861,0,0,1,.005,1.211l-3.551,3.5L2.071,33.422Z" fill="#0f3764"></path>
    <path id="Path_21993" data-name="Path 21993" d="M24.571,4.3V5.3a2.577,2.577,0,0,0,.859,5.007.859.859,0,0,1,0,1.718,1.554,1.554,0,0,1-1.115-.65A.86.86,0,1,0,23,12.484,3.572,3.572,0,0,0,24.571,13.6v1a.859.859,0,1,0,1.718,0V13.6a2.577,2.577,0,0,0-.859-5.007.86.86,0,0,1,0-1.719,1.38,1.38,0,0,1,.929.449.859.859,0,1,0,1.2-1.234A3.313,3.313,0,0,0,26.289,5.3v-1a.859.859,0,0,0-1.718,0" fill="#0f3764"></path>
  </g>
</svg>
