<svg id="Group_69649" data-name="Group 69649" xmlns="http://www.w3.org/2000/svg" xmlns:xlink="http://www.w3.org/1999/xlink" width="44" height="44" viewBox="0 0 44 44">
  <defs>
    <clipPath id="clip-path">
      <rect id="Rectangle_2749" data-name="Rectangle 2749" width="44" height="44" transform="translate(0 0)" fill="#fff"/>
    </clipPath>
  </defs>
  <g id="Group_69648" data-name="Group 69648" clip-path="url(#clip-path)">
    <path id="Path_21464" data-name="Path 21464" d="M4.168,32.36a.687.687,0,1,1-1.188.691A22,22,0,0,1,35.045,4.286l-.477-1.671a.687.687,0,0,1,1.322-.377l1.079,3.781a.687.687,0,0,1-.637.875L32.4,7.035h-.025a.688.688,0,0,1-.024-1.375l2.131-.076A20.624,20.624,0,0,0,4.168,32.36ZM41.019,10.948a.687.687,0,1,0-1.188.692A20.623,20.623,0,0,1,9.514,38.414l2.131-.076a.687.687,0,1,0-.049-1.374L7.667,37.1a.687.687,0,0,0-.636.875l1.078,3.781a.687.687,0,0,0,1.322-.377l-.476-1.67A21.887,21.887,0,0,0,19.7,43.876,22.259,22.259,0,0,0,22.041,44,22,22,0,0,0,41.019,10.948ZM9.661,23.2c-.356-.138-4.072-1.811-4.129-1.836a.7.7,0,0,1-.364-.929l4.225-8.989a.687.687,0,0,1,.91-.332l4.045,1.866L14.4,13a3.539,3.539,0,0,0,2.669,0,6.277,6.277,0,0,1,5.1.438c2.757-1.691,4.873-.828,6.437-.189,1.151.471,1.835.719,2.517.365l3.1-1.657a.7.7,0,0,1,.965.358l3.668,9.462a.688.688,0,0,1-.371.881l-3.814,1.626a2.411,2.411,0,0,1-.272,1.514,2.437,2.437,0,0,1-1.482,1.177,2.379,2.379,0,0,1-.544.09,2.424,2.424,0,0,1-.279,1.478,2.45,2.45,0,0,1-2.15,1.268,2.417,2.417,0,0,1-.254-.014,2.409,2.409,0,0,1-.3,1.287,2.445,2.445,0,0,1-1.929,1.257,2.446,2.446,0,0,1-3.6,2.517l-.78-.429a2.446,2.446,0,0,1-4.245-.6,2.649,2.649,0,0,1-.262.1,2.48,2.48,0,0,1-2.09-.319,2.438,2.438,0,0,1-.841-1c.034.074-.842.278-.9.285a2.451,2.451,0,0,1-2.691-2.814l-.067,0a2.448,2.448,0,0,1-2.155-3.6l.59-1.1a4.955,4.955,0,0,1-.287-1.087C10.01,23.625,9.924,23.3,9.661,23.2Zm3.272,4.952,1.121-2.094a1.074,1.074,0,0,0-1.894-1.012l-1.118,2.091a1.073,1.073,0,0,0,1.891,1.015Zm2.483,2.826,1.516-2.833a1.074,1.074,0,0,0-1.891-1.017l-1.518,2.837a1.074,1.074,0,0,0,1.893,1.013Zm3.4,1.119L20.037,29.8a1.074,1.074,0,1,0-1.893-1.013L16.919,31.08a1.075,1.075,0,0,0,.44,1.453,1.088,1.088,0,0,0,1.453-.44m3.259,1.375,1.072-2A1.074,1.074,0,0,0,21.25,30.45l-1.073,2.005a1.074,1.074,0,0,0,1.894,1.013Zm3.487-1.7-.012-.006-.921-.506a2.425,2.425,0,0,1-.27.851l-.6,1.121.768.423a1.074,1.074,0,1,0,1.034-1.883M22.536,14.837A10.714,10.714,0,0,0,21.048,16.1a21.506,21.506,0,0,1-4.1,3.173c1.64,1.721,3.4,1.007,5.415.193a9.227,9.227,0,0,1,3.305-.9,3.307,3.307,0,0,1,1.676.434l6.09,3.471a2.487,2.487,0,0,1,.665.552l3.226-1.375-3.147-8.119-2.418,1.3c-1.287.669-2.5.173-3.679-.308C26.511,13.88,24.884,13.215,22.536,14.837ZM6.847,20.444c1.034.466,2.96,1.334,3.312,1.47a2.219,2.219,0,0,1,1.272,1.849,2.454,2.454,0,0,1,2.831-.374,2.425,2.425,0,0,1,1.185,1.447,2.368,2.368,0,0,1,.085.394,2.439,2.439,0,0,1,2.793,1.692c0,.015.008.031.013.046l.043-.014a2.44,2.44,0,0,1,3.049,1.629c0,.015.009.031.013.046l.044-.014a2.443,2.443,0,0,1,2.578.759l2.661,1.472a1.075,1.075,0,0,0,1.458-.424,1.086,1.086,0,0,0-.429-1.461L24,26.845a.688.688,0,1,1,.675-1.2L29.425,28.3a1.074,1.074,0,0,0,1.458-.423,1.085,1.085,0,0,0-.429-1.461l-3.759-2.126a.687.687,0,0,1,.676-1.2l4.367,2.466a1.037,1.037,0,0,0,.8.091,1.075,1.075,0,0,0,.654-.518,1.091,1.091,0,0,0-.433-1.463L26.666,20.2c-1.016-.579-2.3-.059-3.784.542a10.105,10.105,0,0,1-3.672.968A4.607,4.607,0,0,1,15.354,19.5a.686.686,0,0,1,.215-1,21,21,0,0,0,4.5-3.361q.422-.424.85-.788a5.279,5.279,0,0,0-3.539-.008,4.756,4.756,0,0,1-3.634-.126l-3.4-1.569L6.71,20.382Z" fill="#fff"/>
  </g>
</svg>
