<?xml version="1.0" encoding="UTF-8"?>
<svg xmlns="http://www.w3.org/2000/svg" xmlns:xlink="http://www.w3.org/1999/xlink" width="28" height="28" viewBox="0 0 28 28">
  <defs>
    <clipPath id="clip-path">
      <rect id="Rectangle_2749" data-name="Rectangle 2749" width="28" height="28" transform="translate(0 0)" fill="#0f3764"></rect>
    </clipPath>
  </defs>
  <g id="Group_69724" data-name="Group 69724" transform="translate(0 0)">
    <g id="Group_69648" data-name="Group 69648" transform="translate(0 0)" clip-path="url(#clip-path)">
      <path id="Path_21464" data-name="Path 21464" d="M2.633,20.446a.434.434,0,1,1-.751.437A13.9,13.9,0,0,1,22.142,2.708l-.3-1.056a.434.434,0,0,1,.835-.238L23.358,3.8a.434.434,0,0,1-.4.553l-2.482.089h-.016a.435.435,0,0,1-.015-.869l1.346-.048A13.031,13.031,0,0,0,2.633,20.446ZM25.917,6.917a.434.434,0,1,0-.751.437A13.03,13.03,0,0,1,6.011,24.271l1.346-.048a.434.434,0,1,0-.031-.868l-2.482.089a.434.434,0,0,0-.4.553l.681,2.389a.434.434,0,0,0,.835-.238l-.3-1.055a13.829,13.829,0,0,0,6.787,2.63,14.064,14.064,0,0,0,1.481.078A13.9,13.9,0,0,0,25.917,6.917ZM6.1,14.656c-.225-.087-2.573-1.144-2.609-1.16a.44.44,0,0,1-.23-.587l2.669-5.68a.434.434,0,0,1,.575-.21L9.065,8.2l.031.016a2.236,2.236,0,0,0,1.686,0,3.966,3.966,0,0,1,3.223.277,4.008,4.008,0,0,1,4.067-.119c.727.3,1.159.454,1.59.231l1.956-1.047a.442.442,0,0,1,.61.226l2.318,5.978a.434.434,0,0,1-.234.557L21.9,15.344a1.523,1.523,0,0,1-.172.957,1.54,1.54,0,0,1-.936.744,1.5,1.5,0,0,1-.344.057,1.532,1.532,0,0,1-.176.934,1.548,1.548,0,0,1-1.358.8,1.527,1.527,0,0,1-.16-.009,1.522,1.522,0,0,1-.187.813,1.545,1.545,0,0,1-1.219.794,1.546,1.546,0,0,1-2.273,1.59l-.493-.271a1.545,1.545,0,0,1-2.682-.378,1.673,1.673,0,0,1-.166.061,1.567,1.567,0,0,1-1.321-.2,1.54,1.54,0,0,1-.531-.629c.021.047-.532.176-.57.18a1.549,1.549,0,0,1-1.7-1.778H7.572A1.546,1.546,0,0,1,6.21,16.733l.373-.7A3.13,3.13,0,0,1,6.4,15.35C6.325,14.927,6.27,14.72,6.1,14.656Zm2.067,3.129.708-1.323a.678.678,0,0,0-1.2-.639l-.706,1.321a.678.678,0,0,0,1.195.641ZM9.74,19.57l.958-1.79A.678.678,0,0,0,9.5,17.138L8.544,18.93a.678.678,0,0,0,1.2.64Zm2.146.707.774-1.448a.678.678,0,1,0-1.2-.64l-.774,1.448a.679.679,0,0,0,.278.918.688.688,0,0,0,.918-.278m2.059.869.677-1.267a.678.678,0,0,0-1.2-.64l-.678,1.267a.679.679,0,0,0,1.2.64Zm2.2-1.072-.008,0-.582-.32a1.532,1.532,0,0,1-.171.538L15.01,21l.485.267a.679.679,0,1,0,.653-1.19m-1.909-10.7a6.77,6.77,0,0,0-.94.8,13.588,13.588,0,0,1-2.589,2c1.036,1.087,2.149.636,3.421.122a5.83,5.83,0,0,1,2.088-.566,2.089,2.089,0,0,1,1.059.274L21.126,14.2a1.571,1.571,0,0,1,.42.349l2.038-.869L21.6,8.552l-1.528.818a2.622,2.622,0,0,1-2.325-.195A3.159,3.159,0,0,0,14.239,9.374ZM4.326,12.917c.653.294,1.87.843,2.093.929a1.4,1.4,0,0,1,.8,1.168,1.551,1.551,0,0,1,1.789-.236,1.532,1.532,0,0,1,.749.914,1.5,1.5,0,0,1,.054.249,1.541,1.541,0,0,1,1.765,1.069c0,.009.005.02.008.029l.027-.009A1.542,1.542,0,0,1,13.54,18.06c0,.009.006.02.008.029l.028-.009a1.544,1.544,0,0,1,1.629.48l1.681.93a.679.679,0,0,0,.921-.268.686.686,0,0,0-.271-.923l-2.376-1.337a.434.434,0,1,1,.426-.757l3,1.679a.678.678,0,0,0,.921-.267.686.686,0,0,0-.271-.923L16.867,15.35a.434.434,0,0,1,.427-.756l2.759,1.558a.655.655,0,0,0,.5.057.679.679,0,0,0,.413-.327.69.69,0,0,0-.274-.924l-3.848-2.194c-.642-.366-1.453-.037-2.391.342a6.385,6.385,0,0,1-2.32.612,2.911,2.911,0,0,1-2.436-1.4.434.434,0,0,1,.136-.632,13.267,13.267,0,0,0,2.845-2.124q.266-.268.537-.5a3.336,3.336,0,0,0-2.236-.005,3,3,0,0,1-2.3-.08L6.537,7.989l-2.3,4.888Z" transform="translate(0 0)" fill="#0f3764"></path>
    </g>
  </g>
</svg>
