<?xml version="1.0" encoding="UTF-8"?>
<svg xmlns="http://www.w3.org/2000/svg" xmlns:xlink="http://www.w3.org/1999/xlink" id="Group_69733" data-name="Group 69733" width="42.305" height="44" viewBox="0 0 42.305 44">
  <defs>
    <clipPath id="clip-path">
      <rect id="Rectangle_2813" data-name="Rectangle 2813" width="42.305" height="44" fill="#fff"></rect>
    </clipPath>
  </defs>
  <g id="Group_69732" data-name="Group 69732" clip-path="url(#clip-path)">
    <path id="Path_21527" data-name="Path 21527" d="M40.78,34.67H36.185V30.075a1.488,1.488,0,0,0-.44-1.1,1.574,1.574,0,0,0-1.095-.45,1.52,1.52,0,0,0-1.514,1.545V34.67H28.449a1.494,1.494,0,0,0-1.341.788A1.72,1.72,0,0,0,27.18,37.1a1.42,1.42,0,0,0,1.34.624h4.616V42.3a1.525,1.525,0,0,0,3.049-.011V37.719H40.78a1.472,1.472,0,0,0,1.146-.46,1.669,1.669,0,0,0,.378-1.065A1.445,1.445,0,0,0,40.78,34.67M31.2,25.02A20.888,20.888,0,0,0,27.569,23.3l-.891-.328.768-.563a12.41,12.41,0,1,0-14.459.144l.767.542-.87.348A20.37,20.37,0,0,0,0,42.426a1.392,1.392,0,0,0,.685,1.351,1.712,1.712,0,0,0,1.689,0,1.4,1.4,0,0,0,.675-1.34A17.405,17.405,0,0,1,29.6,27.629a1.529,1.529,0,0,0,1.6-2.609M20.119,21.776a9.363,9.363,0,1,1,9.363-9.353,9.372,9.372,0,0,1-9.363,9.353" fill="#fff"></path>
  </g>
</svg>
