<svg id="Group_69651" data-name="Group 69651" xmlns="http://www.w3.org/2000/svg" xmlns:xlink="http://www.w3.org/1999/xlink" width="44" height="44" viewBox="0 0 44 44">
  <defs>
    <clipPath id="clip-path">
      <rect id="Rectangle_2750" data-name="Rectangle 2750" width="44" height="44" fill="#fff"/>
    </clipPath>
  </defs>
  <g id="Group_69650" data-name="Group 69650" clip-path="url(#clip-path)">
    <path id="Path_21465" data-name="Path 21465" d="M41.8,0H15.4a2.2,2.2,0,0,0-2.2,2.2V18.333H3.666a2.2,2.2,0,0,0-2.2,2.2V35.2H.733A.733.733,0,0,0,0,35.933,3.67,3.67,0,0,0,3.666,39.6H27.133A3.663,3.663,0,0,0,30.8,35.941v-.008a.734.734,0,0,0-.734-.733h-.733V27.133H37.4a.733.733,0,0,0,0-1.466H33.553L32.505,22H41.8A2.2,2.2,0,0,0,44,19.8V2.2A2.2,2.2,0,0,0,41.8,0M2.933,20.533a.733.733,0,0,1,.733-.733H27.133a.733.733,0,0,1,.733.733V35.2H17.6a.734.734,0,0,0-.734.733H13.933A.733.733,0,0,0,13.2,35.2H2.933ZM28.694,37.487a2.214,2.214,0,0,1-1.561.646H3.666a2.2,2.2,0,0,1-2.074-1.466H12.466a.734.734,0,0,0,.734.733h4.4a.733.733,0,0,0,.733-.733H29.208a2.254,2.254,0,0,1-.514.82m.639-11.82V22H30.98l1.047,3.667Zm13.2-5.867a.733.733,0,0,1-.733.733H29.333a2.2,2.2,0,0,0-2.2-2.2H14.666V2.2a.734.734,0,0,1,.734-.733H41.8a.733.733,0,0,1,.733.733Z" fill="#fff"/>
    <path id="Path_21466" data-name="Path 21466" d="M40.334,27.867H34.467a2.2,2.2,0,0,0-2.2,2.2V41.8a2.2,2.2,0,0,0,2.2,2.2h5.867a2.2,2.2,0,0,0,2.2-2.2V30.067a2.2,2.2,0,0,0-2.2-2.2M41.067,41.8a.733.733,0,0,1-.733.733H34.467a.733.733,0,0,1-.733-.733V30.067a.734.734,0,0,1,.733-.734h5.867a.734.734,0,0,1,.733.734Z" fill="#fff"/>
  </g>
</svg>
