<?xml version="1.0" encoding="UTF-8"?>
<svg xmlns="http://www.w3.org/2000/svg" xmlns:xlink="http://www.w3.org/1999/xlink" id="Group_69821" data-name="Group 69821" width="28.005" height="28" viewBox="0 0 28.005 28">
  <defs>
    <clipPath id="clip-path">
      <rect id="Rectangle_2890" data-name="Rectangle 2890" width="28.005" height="28" fill="#0f3764"></rect>
    </clipPath>
  </defs>
  <g id="Group_69820" data-name="Group 69820" clip-path="url(#clip-path)">
    <path id="Path_21668" data-name="Path 21668" d="M27.953,6.636A1.4,1.4,0,0,0,25.387,6.3l-.234.406a.466.466,0,0,0-.634.169L23.333,8.9l-.406-.233a.464.464,0,0,0-.355-.047.466.466,0,0,0-.111.854l.406.233L18.9,16.576l-.98,2.618-.467.873a1.4,1.4,0,0,0,.075,1.512l-1.05,1.288-.294-.737A.934.934,0,0,0,14.518,22l-.168.285-.159-1.867a.933.933,0,0,0-1.815-.219l-1.148,3.444a.467.467,0,0,0,.294.588.408.408,0,0,0,.145.037.466.466,0,0,0,.443-.317l1.143-3.444.164,1.894a.933.933,0,0,0,1.731.4l.173-.285.289.733a.933.933,0,0,0,1.6.238l1.087-1.377a1.442,1.442,0,0,0,.369.047,1.4,1.4,0,0,0,1.218-.691l.467-.779,1.778-2.161,4.008-6.958.406.233a.467.467,0,0,1,.173.64l-1.867,3.234a.463.463,0,1,0,.789.485L27.5,12.927a1.4,1.4,0,0,0-.514-1.913l-.406-.234,1.167-2.02a.468.468,0,0,0-.168-.635l.233-.406a1.4,1.4,0,0,0,.14-1.083m-1.759.131a.466.466,0,0,1,.285-.219.49.49,0,0,1,.354.046.47.47,0,0,1,.22.285.493.493,0,0,1-.047.355l-.233.406-.812-.467ZM19.833,19.8l-.233-.135-.691-.4.663-1.774,1.47.85Zm-1.4,1.349a.467.467,0,0,1-.14-.611l.234-.406.812.466L19.1,21a.467.467,0,0,1-.672.149m3.141-3.575-1.615-.933,3.734-6.468,1.614.933Zm4.2-7.275-1.615-.933.934-1.615,1.614.933Z" fill="#0f3764"></path>
    <path id="Path_21669" data-name="Path 21669" d="M7.364,20.911,5.712,22.558l-.989-.989a.467.467,0,0,0-.658.663l.989.989a.94.94,0,0,0,1.321,0l1.647-1.652a.467.467,0,0,0-.658-.658" fill="#0f3764"></path>
    <path id="Path_21670" data-name="Path 21670" d="M1.867,22.167a3.967,3.967,0,1,0,7.933,0,.467.467,0,1,0-.933,0A3.031,3.031,0,1,1,7.654,19.74a.466.466,0,1,0,.56-.746,3.967,3.967,0,0,0-6.347,3.173" fill="#0f3764"></path>
    <path id="Path_21671" data-name="Path 21671" d="M16.8,3.733a.467.467,0,1,0,0-.933H4.667a.467.467,0,0,0-.467.466V5.133a.467.467,0,0,0,.467.467H16.8a.467.467,0,1,0,0-.934H5.133V3.733Z" fill="#0f3764"></path>
    <path id="Path_21672" data-name="Path 21672" d="M6.067,6.533a.467.467,0,1,0,0,.933H15.4a.467.467,0,1,0,0-.933Z" fill="#0f3764"></path>
    <path id="Path_21673" data-name="Path 21673" d="M18.2,9.8H7.933a.467.467,0,0,0,0,.933H18.2a.467.467,0,1,0,0-.933" fill="#0f3764"></path>
    <path id="Path_21674" data-name="Path 21674" d="M13.533,13.067a.467.467,0,0,0-.467-.467H3.733a.467.467,0,0,0,0,.934h9.333a.467.467,0,0,0,.467-.467" fill="#0f3764"></path>
    <path id="Path_21675" data-name="Path 21675" d="M18.2,12.6H14.933a.467.467,0,0,0,0,.933H18.2a.467.467,0,1,0,0-.933" fill="#0f3764"></path>
    <path id="Path_21676" data-name="Path 21676" d="M8.4,15.867a.467.467,0,1,0,0-.933H3.733a.467.467,0,0,0,0,.933Z" fill="#0f3764"></path>
    <path id="Path_21677" data-name="Path 21677" d="M10.267,15.867h3.267a.467.467,0,0,0,0-.933H10.267a.467.467,0,1,0,0,.933" fill="#0f3764"></path>
    <path id="Path_21678" data-name="Path 21678" d="M21,21.467a.467.467,0,0,0-.467.467V26.6a.467.467,0,0,1-.466.467H1.4A.467.467,0,0,1,.933,26.6V1.4A.467.467,0,0,1,1.4.934H20.067a.466.466,0,0,1,.466.466v8.764a.467.467,0,1,0,.934,0V1.4a1.4,1.4,0,0,0-1.4-1.4H1.4A1.4,1.4,0,0,0,0,1.4V26.6A1.4,1.4,0,0,0,1.4,28H20.067a1.4,1.4,0,0,0,1.4-1.4V21.934A.467.467,0,0,0,21,21.467" fill="#0f3764"></path>
  </g>
</svg>
