<?xml version="1.0" encoding="UTF-8"?>
<svg xmlns="http://www.w3.org/2000/svg" xmlns:xlink="http://www.w3.org/1999/xlink" id="Group_69827" data-name="Group 69827" width="22.421" height="28" viewBox="0 0 22.421 28">
  <defs>
    <clipPath id="clip-path">
      <rect id="Rectangle_2893" data-name="Rectangle 2893" width="22.421" height="28" fill="#0f3764"></rect>
    </clipPath>
  </defs>
  <g id="Group_69826" data-name="Group 69826" clip-path="url(#clip-path)">
    <path id="Path_21700" data-name="Path 21700" d="M20.8,2.855H10.448a.807.807,0,0,1-.69-.392l-1-1.67A1.631,1.631,0,0,0,7.367,0H1.624A1.626,1.626,0,0,0,0,1.624V13.937a1.625,1.625,0,0,0,1.624,1.624H9.988v2.318h-1a.41.41,0,0,0-.409.376,1.651,1.651,0,0,1-.24.844,1.649,1.649,0,0,1-.817.5.408.408,0,0,0-.275.386v1.088H2.674a1.243,1.243,0,0,0,0,2.485h4.81a.411.411,0,1,0,0-.821H2.674a.423.423,0,0,1-.422-.422.422.422,0,0,1,.422-.422h4.57v2.2a2.226,2.226,0,0,0,.9,1.78l2.706,2.008a.612.612,0,0,0,.728,0l2.706-2.008a2.226,2.226,0,0,0,.9-1.78v-.531h4.57a1.245,1.245,0,0,0,1.243-1.243,1.244,1.244,0,0,0-1.243-1.243h-4.57V19.988A.409.409,0,0,0,14.9,19.6a1.648,1.648,0,0,1-.818-.5,1.67,1.67,0,0,1-.24-.844.409.409,0,0,0-.409-.376h-.962V15.561h4.115a.41.41,0,1,0,0-.82H1.624a.805.805,0,0,1-.8-.8V1.624a.805.805,0,0,1,.8-.8H7.367a.808.808,0,0,1,.691.393l1,1.67a1.63,1.63,0,0,0,1.395.792H20.8a.8.8,0,0,1,.8.8v9.458a.8.8,0,0,1-.8.8h-5.57a.41.41,0,0,0,0,.82H20.8a1.626,1.626,0,0,0,1.624-1.624V4.479A1.626,1.626,0,0,0,20.8,2.855ZM15.176,21.9h4.57a.422.422,0,1,1,0,.844h-4.57Zm-4.368-6.334h.844v2.317h-.844ZM13.074,18.7a2.081,2.081,0,0,0,.346.882,2.146,2.146,0,0,0,.936.688v3.823a1.4,1.4,0,0,1-.565,1.121L11.21,27.128,8.629,25.213a1.4,1.4,0,0,1-.564-1.121V20.269A2.143,2.143,0,0,0,9,19.581a2.068,2.068,0,0,0,.346-.882Z" fill="#0f3764"></path>
    <path id="Path_21701" data-name="Path 21701" d="M10.327,7a.41.41,0,1,0,0-.82H8.374a.41.41,0,0,0-.41.41v4.818a.411.411,0,0,0,.821,0V9.362h1.387a.41.41,0,0,0,0-.82H8.785V7Z" fill="#0f3764"></path>
    <path id="Path_21702" data-name="Path 21702" d="M5.26,11.032a1.888,1.888,0,0,1-1.388-.585A.41.41,0,0,0,3.264,11a2.722,2.722,0,0,0,2,.854,1.83,1.83,0,0,0,1.849-1.39A1.683,1.683,0,0,0,5.822,8.669c-.628-.232-1.211-.485-1.353-.548a.528.528,0,0,1-.213-.514.694.694,0,0,1,.524-.549A1.81,1.81,0,0,1,6.3,7.4a.41.41,0,0,0,.527-.629,2.618,2.618,0,0,0-2.28-.5,1.511,1.511,0,0,0-1.1,1.218,1.35,1.35,0,0,0,.6,1.334.391.391,0,0,0,.057.031c.027.012.691.307,1.436.583.548.2.827.522.762.879a1,1,0,0,1-1.04.714" fill="#0f3764"></path>
    <path id="Path_21703" data-name="Path 21703" d="M13.2,11.852a.41.41,0,0,0,.41-.41V7h.936a.41.41,0,0,0,0-.82H11.861a.41.41,0,0,0,0,.82h.925v4.443a.41.41,0,0,0,.41.41" fill="#0f3764"></path>
    <path id="Path_21704" data-name="Path 21704" d="M19.264,7.959a1.8,1.8,0,0,0-1.807-1.78H16.106a.427.427,0,0,0-.411.41v4.853a.411.411,0,0,0,.821,0v-1.7l.941,0a1.8,1.8,0,0,0,1.807-1.779m-1.807.959-.934,0c0-.32,0-.745,0-.963,0-.185,0-.627,0-.96h.94a.96.96,0,1,1,0,1.919" fill="#0f3764"></path>
    <path id="Path_21705" data-name="Path 21705" d="M10.442,23.954a.41.41,0,0,0,.58,0l1.893-1.893a.41.41,0,0,0-.58-.58l-1.6,1.6-.646-.646a.41.41,0,1,0-.58.58Z" fill="#0f3764"></path>
  </g>
</svg>
