<?xml version="1.0" encoding="UTF-8"?>
<svg xmlns="http://www.w3.org/2000/svg" xmlns:xlink="http://www.w3.org/1999/xlink" width="28" height="28" viewBox="0 0 28 28">
  <defs>
    <clipPath id="clip-path">
      <rect id="Rectangle_2736" data-name="Rectangle 2736" width="28" height="28" transform="translate(0.034 0.034)" fill="#0f3764"></rect>
    </clipPath>
  </defs>
  <g id="Group_69721" data-name="Group 69721" transform="translate(-0.034 -0.034)">
    <g id="Group_69624" data-name="Group 69624" clip-path="url(#clip-path)">
      <path id="Path_21444" data-name="Path 21444" d="M19.563,8.425a1.4,1.4,0,0,0-1.319-.94h-.468V6.549h.468a1.407,1.407,0,0,0,1.4-1.4V1.4a1.407,1.407,0,0,0-1.4-1.4H1.4A1.408,1.408,0,0,0,0,1.4V5.145a1.408,1.408,0,0,0,1.4,1.4h.468v.936H1.4A1.408,1.408,0,0,0,0,8.888V12.63a1.408,1.408,0,0,0,1.4,1.4h.468v.935H1.4a1.408,1.408,0,0,0-1.4,1.4v3.743a1.408,1.408,0,0,0,1.4,1.4h8.889v3.743c0,1.843,4.472,2.807,8.888,2.807s8.888-.964,8.888-2.807V11.227c0-1.792-4.215-2.746-8.5-2.8M1.4,5.614a.468.468,0,0,1-.468-.468V1.4A.468.468,0,0,1,1.4.935H18.244a.469.469,0,0,1,.468.468V5.145a.469.469,0,0,1-.468.468ZM16.841,7.484H14.97V6.549h1.871Zm-2.807,0H5.614V6.549h8.42Zm-9.355,0H2.807V6.549H4.678Zm5.614,13.1H1.4a.467.467,0,0,1-.468-.468V16.372A.467.467,0,0,1,1.4,15.9h8.889ZM2.807,14.034H4.678v.936H2.807Zm7.485.935H5.614v-.936h4.678Zm0-3.742V13.1H1.4a.467.467,0,0,1-.468-.468V8.888A.467.467,0,0,1,1.4,8.42H18.244a.287.287,0,0,1,.066.014c-4.116.117-8.018,1.071-8.018,2.793M27.132,25.261c0,.636-2.807,1.871-7.953,1.871s-7.953-1.235-7.953-1.871V21.9c1.539.978,4.753,1.488,7.953,1.488s6.413-.51,7.953-1.488Zm0-4.678c0,.637-2.807,1.872-7.953,1.872s-7.953-1.235-7.953-1.872V17.224c1.539.978,4.753,1.488,7.953,1.488s6.413-.51,7.953-1.488Zm0-4.678c0,.636-2.807,1.871-7.953,1.871s-7.953-1.235-7.953-1.871V12.546c1.539.977,4.753,1.488,7.953,1.488s6.413-.51,7.953-1.488ZM19.18,13.1c-5.146,0-7.953-1.235-7.953-1.871s2.807-1.872,7.953-1.872,7.953,1.235,7.953,1.872S24.326,13.1,19.18,13.1" fill="#0f3764"></path>
      <rect id="Rectangle_2729" data-name="Rectangle 2729" width="0.936" height="0.936" transform="translate(18.712 15.437)" fill="#0f3764"></rect>
      <rect id="Rectangle_2730" data-name="Rectangle 2730" width="0.936" height="0.936" transform="translate(18.712 20.583)" fill="#0f3764"></rect>
      <rect id="Rectangle_2731" data-name="Rectangle 2731" width="0.936" height="0.936" transform="translate(18.712 24.793)" fill="#0f3764"></rect>
      <path id="Path_21445" data-name="Path 21445" d="M5.272,14.667H3.4a.468.468,0,0,0-.468.468v1.871a.469.469,0,0,0,.468.468H5.272a.468.468,0,0,0,.468-.468V15.135a.467.467,0,0,0-.468-.468M4.8,16.538H3.869V15.6H4.8Z" transform="translate(-1.062 -5.311)" fill="#0f3764"></path>
      <path id="Path_21446" data-name="Path 21446" d="M11.139,14.667H9.268a.467.467,0,0,0-.468.468v1.871a.468.468,0,0,0,.468.468h1.872a.468.468,0,0,0,.468-.468V15.135a.467.467,0,0,0-.468-.468m-.468,1.871H9.735V15.6h.936Z" transform="translate(-3.186 -5.311)" fill="#0f3764"></path>
      <path id="Path_21447" data-name="Path 21447" d="M5.272,2.933H3.4a.469.469,0,0,0-.468.468V5.272A.468.468,0,0,0,3.4,5.74H5.272a.467.467,0,0,0,.468-.468V3.4a.468.468,0,0,0-.468-.468M4.8,4.8H3.869V3.869H4.8Z" transform="translate(-1.062 -1.062)" fill="#0f3764"></path>
      <path id="Path_21448" data-name="Path 21448" d="M11.139,2.933H9.268A.468.468,0,0,0,8.8,3.4V5.272a.467.467,0,0,0,.468.468h1.872a.467.467,0,0,0,.468-.468V3.4a.468.468,0,0,0-.468-.468M10.671,4.8H9.735V3.869h.936Z" transform="translate(-3.186 -1.062)" fill="#0f3764"></path>
      <rect id="Rectangle_2732" data-name="Rectangle 2732" width="6.549" height="0.936" transform="translate(9.356 1.871)" fill="#0f3764"></rect>
      <rect id="Rectangle_2733" data-name="Rectangle 2733" width="0.936" height="0.936" transform="translate(16.841 1.871)" fill="#0f3764"></rect>
      <rect id="Rectangle_2734" data-name="Rectangle 2734" width="6.549" height="0.936" transform="translate(9.356 3.743)" fill="#0f3764"></rect>
      <rect id="Rectangle_2735" data-name="Rectangle 2735" width="0.936" height="0.936" transform="translate(16.841 3.743)" fill="#0f3764"></rect>
      <path id="Path_21449" data-name="Path 21449" d="M5.272,26.4H3.4a.468.468,0,0,0-.468.468v1.872a.468.468,0,0,0,.468.468H5.272a.467.467,0,0,0,.468-.468V26.868a.467.467,0,0,0-.468-.468M4.8,28.271H3.869v-.936H4.8Z" transform="translate(-1.062 -9.559)" fill="#0f3764"></path>
      <path id="Path_21450" data-name="Path 21450" d="M11.139,26.4H9.268a.467.467,0,0,0-.468.468v1.872a.467.467,0,0,0,.468.468h1.872a.467.467,0,0,0,.468-.468V26.868a.467.467,0,0,0-.468-.468m-.468,1.871H9.735v-.936h.936Z" transform="translate(-3.186 -9.559)" fill="#0f3764"></path>
    </g>
  </g>
</svg>
