<svg id="Group_69625" data-name="Group 69625" xmlns="http://www.w3.org/2000/svg" xmlns:xlink="http://www.w3.org/1999/xlink" width="44" height="44" viewBox="0 0 44 44">
  <defs>
    <clipPath id="clip-path">
      <rect id="Rectangle_2736" data-name="Rectangle 2736" width="44" height="44" fill="#fff"/>
    </clipPath>
  </defs>
  <g id="Group_69624" data-name="Group 69624" clip-path="url(#clip-path)">
    <path id="Path_21444" data-name="Path 21444" d="M30.668,13.207A2.19,2.19,0,0,0,28.6,11.733h-.733V10.266H28.6a2.205,2.205,0,0,0,2.2-2.2V2.2A2.205,2.205,0,0,0,28.6,0H2.2A2.206,2.206,0,0,0,0,2.2V8.066a2.206,2.206,0,0,0,2.2,2.2h.734v1.467H2.2a2.207,2.207,0,0,0-2.2,2.2V19.8A2.208,2.208,0,0,0,2.2,22h.734v1.466H2.2a2.208,2.208,0,0,0-2.2,2.2v5.867a2.207,2.207,0,0,0,2.2,2.2H16.134V39.6c0,2.889,7.01,4.4,13.933,4.4S44,42.489,44,39.6v-22c0-2.809-6.607-4.305-13.332-4.393M2.2,8.8a.734.734,0,0,1-.733-.734V2.2A.734.734,0,0,1,2.2,1.466H28.6a.734.734,0,0,1,.734.734V8.066A.734.734,0,0,1,28.6,8.8Zm24.2,2.933H23.467V10.266H26.4Zm-4.4,0H8.8V10.266H22Zm-14.666,0H4.4V10.266H7.334Zm8.8,20.533H2.2a.733.733,0,0,1-.733-.733V25.666a.733.733,0,0,1,.733-.733H16.134ZM4.4,22H7.333v1.467H4.4Zm11.734,1.466H8.8V22h7.333Zm0-5.866v2.933H2.2a.733.733,0,0,1-.733-.733V13.933A.733.733,0,0,1,2.2,13.2H28.6a.45.45,0,0,1,.1.022C22.25,13.4,16.134,14.9,16.134,17.6m26.4,22c0,1-4.4,2.933-12.467,2.933S17.6,40.6,17.6,39.6V34.334c2.413,1.533,7.451,2.332,12.467,2.332s10.054-.8,12.467-2.332Zm0-7.334c0,1-4.4,2.934-12.467,2.934S17.6,33.264,17.6,32.266V27c2.413,1.533,7.451,2.332,12.467,2.332s10.054-.8,12.467-2.332Zm0-7.333c0,1-4.4,2.933-12.467,2.933S17.6,25.93,17.6,24.933V19.668C20.013,21.2,25.051,22,30.067,22s10.054-.8,12.467-2.332Zm-12.467-4.4C22,20.533,17.6,18.6,17.6,17.6s4.4-2.934,12.467-2.934S42.534,16.6,42.534,17.6s-4.4,2.933-12.467,2.933" fill="#fff"/>
    <rect id="Rectangle_2729" data-name="Rectangle 2729" width="1.467" height="1.467" transform="translate(29.333 24.2)" fill="#fff"/>
    <rect id="Rectangle_2730" data-name="Rectangle 2730" width="1.467" height="1.467" transform="translate(29.333 32.267)" fill="#fff"/>
    <rect id="Rectangle_2731" data-name="Rectangle 2731" width="1.467" height="1.467" transform="translate(29.333 38.867)" fill="#fff"/>
    <path id="Path_21445" data-name="Path 21445" d="M6.6,14.667H3.667a.734.734,0,0,0-.734.733v2.933a.734.734,0,0,0,.734.734H6.6a.734.734,0,0,0,.733-.734V15.4a.733.733,0,0,0-.733-.733M5.867,17.6H4.4V16.133H5.867Z" fill="#fff"/>
    <path id="Path_21446" data-name="Path 21446" d="M12.467,14.667H9.533A.733.733,0,0,0,8.8,15.4v2.933a.734.734,0,0,0,.733.734h2.934a.734.734,0,0,0,.733-.734V15.4a.733.733,0,0,0-.733-.733M11.733,17.6H10.266V16.133h1.467Z" fill="#fff"/>
    <path id="Path_21447" data-name="Path 21447" d="M6.6,2.933H3.667a.734.734,0,0,0-.734.734V6.6a.734.734,0,0,0,.734.733H6.6A.733.733,0,0,0,7.333,6.6V3.667A.734.734,0,0,0,6.6,2.933M5.867,5.867H4.4V4.4H5.867Z" fill="#fff"/>
    <path id="Path_21448" data-name="Path 21448" d="M12.467,2.933H9.533a.734.734,0,0,0-.733.734V6.6a.733.733,0,0,0,.733.733h2.934A.733.733,0,0,0,13.2,6.6V3.667a.734.734,0,0,0-.733-.734m-.734,2.934H10.266V4.4h1.467Z" fill="#fff"/>
    <rect id="Rectangle_2732" data-name="Rectangle 2732" width="10.267" height="1.467" transform="translate(14.667 2.933)" fill="#fff"/>
    <rect id="Rectangle_2733" data-name="Rectangle 2733" width="1.467" height="1.467" transform="translate(26.4 2.933)" fill="#fff"/>
    <rect id="Rectangle_2734" data-name="Rectangle 2734" width="10.267" height="1.467" transform="translate(14.667 5.867)" fill="#fff"/>
    <rect id="Rectangle_2735" data-name="Rectangle 2735" width="1.467" height="1.467" transform="translate(26.4 5.867)" fill="#fff"/>
    <path id="Path_21449" data-name="Path 21449" d="M6.6,26.4H3.667a.734.734,0,0,0-.734.733v2.934a.734.734,0,0,0,.734.733H6.6a.733.733,0,0,0,.733-.733V27.133A.733.733,0,0,0,6.6,26.4m-.733,2.933H4.4V27.866H5.867Z" fill="#fff"/>
    <path id="Path_21450" data-name="Path 21450" d="M12.467,26.4H9.533a.733.733,0,0,0-.733.733v2.934a.733.733,0,0,0,.733.733h2.934a.733.733,0,0,0,.733-.733V27.133a.733.733,0,0,0-.733-.733m-.734,2.933H10.266V27.866h1.467Z" fill="#fff"/>
  </g>
</svg>
