<svg xmlns="http://www.w3.org/2000/svg" xmlns:xlink="http://www.w3.org/1999/xlink" width="171.378" height="64.236" viewBox="0 0 171.378 64.236">
  <defs>
    <clipPath id="clip-path">
      <rect id="Rectangle_2829" data-name="Rectangle 2829" width="168.116" height="52.637" transform="translate(0 0)" fill="#80dbd1"/>
    </clipPath>
  </defs>
  <g id="Group_69742" data-name="Group 69742" transform="matrix(0.998, -0.07, 0.07, 0.998, 0, 11.727)">
    <g id="Group_69741" data-name="Group 69741" clip-path="url(#clip-path)">
      <path id="Path_21547" data-name="Path 21547" d="M0,40.406c13.04-20.9,36.34-34.94,61.22-39.17,26.07-4.42,52.09,3.37,73.13,17.77a110.744,110.744,0,0,1,30.86,31.46c.44.68-.61,1.45-1.05.77-13.54-21.18-35.33-37.86-60.12-45.69a90.472,90.472,0,0,0-37.05-3.84,95.4,95.4,0,0,0-36.18,11.56A81.728,81.728,0,0,0,1.14,41.026Z" fill="#80dbd1"/>
      <path id="Path_21548" data-name="Path 21548" d="M145.01,46.273c6.874,1.891,13.8,3.788,20.828,5.116-.249.18-.5.357-.751.535Q166,42.35,166.81,32.775c.068-.807,1.372-.624,1.3.176Q167.3,42.527,166.39,52.1a.671.671,0,0,1-.754.535c-7.136-1.347-14.173-3.284-21.154-5.2-.812-.224-.278-1.377.528-1.157" fill="#80dbd1"/>
    </g>
  </g>
</svg>
