<svg xmlns="http://www.w3.org/2000/svg" xmlns:xlink="http://www.w3.org/1999/xlink" width="553.332" height="360.058" viewBox="0 0 553.332 360.058">
  <defs>
    <clipPath id="clip-path">
      <rect id="Rectangle_2672" data-name="Rectangle 2672" width="412" height="205.161" fill="#80dbd1"/>
    </clipPath>
  </defs>
  <g id="Group_69762" data-name="Group 69762" transform="translate(-801.668 -572.188)">
    <g id="Group_69567" data-name="Group 69567" transform="translate(894.897 746.308) rotate(-25)">
      <g id="Group_69566" data-name="Group 69566" transform="translate(0 0)" clip-path="url(#clip-path)">
        <path id="Path_21416" data-name="Path 21416" d="M.875,125.946C24.412,135.782,50.02,140.7,75.5,137.8c.868-.1,1.821-1.1,1.144-1.991-16.221-21.489-27.46-48.933-24.591-76.25C54.626,35.052,70.958,12.182,95.03,4.8A45.194,45.194,0,0,1,128.271,7.1c9.577,4.728,17.169,12.743,22.293,22.029C161.9,49.669,160.1,73.905,147.5,93.4c-15.782,24.437-43.74,38.276-72,41.749-.863.106-1.816,1.091-1.138,1.991,30.991,41.341,81.433,65.334,132.616,67.8,52.962,2.552,102.837-20.456,141.193-56.011A232.722,232.722,0,0,0,401.911,75.1c.7-1.541-1.578-2.885-2.282-1.334-21.769,47.827-61.062,88.374-108.475,111.154a174.093,174.093,0,0,1-72.815,17.566,182.774,182.774,0,0,1-74.847-14.892c-26.2-11.3-49.685-28.9-66.848-51.781-.381.662-.762,1.329-1.144,1.991,26.7-3.277,52.644-15.183,69.622-36.571,15.035-18.942,20.313-43.66,11.059-66.409C147.621,13.754,127.689-2.2,104.136.249c-24.2,2.515-44.947,22.129-51.882,44.973-9.63,31.738,2.848,66.419,22.108,91.921.381-.662.762-1.329,1.138-1.991-25.279,2.88-50.569-2-73.921-11.758-1.572-.656-2.255,1.906-.7,2.552" transform="translate(-0.001 0.007)" fill="#80dbd1"/>
        <path id="Path_21417" data-name="Path 21417" d="M70.162,31.973c13.219-5.723,26.544-11.483,40.2-16.062-.54-.312-1.085-.619-1.625-.926q4.161,19.805,8.11,39.647c.334,1.673,2.885.964,2.552-.7q-3.971-19.837-8.111-39.647a1.337,1.337,0,0,0-1.631-.926C95.785,18.012,82.254,23.878,68.828,29.686c-1.562.678-.217,2.959,1.334,2.287" transform="translate(292.566 57.113)" fill="#80dbd1"/>
      </g>
    </g>
    <path id="Path_21442" data-name="Path 21442" d="M441.442-182.236s-102.249.043-146.785-52.14" transform="translate(508 1041)" fill="none" stroke="#80dbd1" stroke-width="2.6"/>
  </g>
</svg>
