<svg xmlns="http://www.w3.org/2000/svg" xmlns:xlink="http://www.w3.org/1999/xlink" width="349.195" height="252.156" viewBox="0 0 349.195 252.156">
  <defs>
    <clipPath id="clip-path">
      <rect id="Rectangle_2672" data-name="Rectangle 2672" width="317.081" height="148.38" fill="#80dbd1"/>
    </clipPath>
  </defs>
  <g id="Group_69662" data-name="Group 69662" transform="translate(61.292 28.002) rotate(21)">
    <g id="Group_69566" data-name="Group 69566" transform="translate(-17.613 -23.233)" clip-path="url(#clip-path)">
      <path id="Path_21416" data-name="Path 21416" d="M.674,57.274C18.788,50.16,38.5,46.6,58.106,48.7c.668.073,1.4.793.88,1.44C46.5,65.682,37.852,85.531,40.061,105.287c1.98,17.724,14.55,34.264,33.076,39.606a36.83,36.83,0,0,0,25.583-1.669,39.379,39.379,0,0,0,17.157-15.932c8.727-14.852,7.338-32.381-2.355-46.482C101.376,63.136,79.859,53.127,58.106,50.615c-.664-.077-1.4-.789-.876-1.44C81.082,19.276,119.9,1.924,159.293.139c40.76-1.845,79.145,14.795,108.664,40.509a169.219,169.219,0,0,1,41.359,53.4c.542,1.114-1.214,2.087-1.756.965-16.754-34.59-46.994-63.915-83.484-80.391a141.029,141.029,0,0,0-56.039-12.7,148.508,148.508,0,0,0-57.6,10.771c-20.16,8.175-38.238,20.9-51.447,37.45-.293-.479-.587-.961-.88-1.44,20.547,2.37,40.516,10.981,53.582,26.45,11.571,13.7,15.633,31.577,8.511,48.029-6.588,15.235-21.928,26.771-40.055,25-18.624-1.819-34.592-16-39.929-32.526C32.8,92.7,42.408,67.619,57.23,49.176c.293.479.587.961.876,1.44-19.455-2.083-38.918,1.447-56.891,8.5-1.21.475-1.736-1.378-.542-1.846" transform="translate(-0.001 0.012)" fill="#80dbd1"/>
      <path id="Path_21417" data-name="Path 21417" d="M1.562,17.078C11.735,21.217,21.991,25.383,32.5,28.7c-.416.226-.835.448-1.251.67q3.2-14.324,6.242-28.674c.257-1.21,2.221-.7,1.964.509Q36.4,15.547,33.216,29.874a1.038,1.038,0,0,1-1.255.67C21.282,27.175,10.868,22.933.535,18.732c-1.2-.49-.167-2.14,1.027-1.654" transform="translate(277.599 66.872)" fill="#80dbd1"/>
    </g>
  </g>
</svg>
