<svg xmlns="http://www.w3.org/2000/svg" xmlns:xlink="http://www.w3.org/1999/xlink" width="561.647" height="443.301" viewBox="0 0 561.647 443.301">
  <defs>
    <clipPath id="clip-path">
      <rect id="Rectangle_2672" data-name="Rectangle 2672" width="508.99" height="238.185" fill="#80dbd1"/>
    </clipPath>
  </defs>
  <g id="Group_69662" data-name="Group 69662" transform="matrix(0.891, 0.454, -0.454, 0.891, 113.28, 28.697)">
    <g id="Group_69566" data-name="Group 69566" transform="translate(-17.613 -23.233)" clip-path="url(#clip-path)">
      <path id="Path_21416" data-name="Path 21416" d="M1.081,91.938C30.16,80.518,61.8,74.808,93.274,78.176c1.073.117,2.25,1.272,1.413,2.311-20.04,24.948-33.925,56.81-30.38,88.524,3.179,28.451,23.356,55,53.095,63.577,13.545,3.9,28.294,3.245,41.067-2.68a63.213,63.213,0,0,0,27.541-25.574c14.009-23.841,11.779-51.979-3.78-74.615-19.5-28.371-54.036-44.437-88.955-48.469-1.066-.123-2.243-1.266-1.406-2.311,38.287-48,100.6-75.851,163.836-78.715,65.43-2.962,127.046,23.749,174.431,65.027,27.751,24.173,50.707,53.331,66.391,85.721.87,1.789-1.949,3.35-2.819,1.549C466.814,97,418.271,49.922,359.7,23.475A226.385,226.385,0,0,0,269.74,3.082a238.391,238.391,0,0,0-92.468,17.289C144.91,33.493,115.891,53.917,94.687,80.487c-.471-.768-.942-1.543-1.413-2.311,32.983,3.8,65.037,17.627,86.012,42.458,18.575,21.991,25.1,50.688,13.663,77.1-10.576,24.456-35.2,42.974-64.3,40.135-29.9-2.919-55.528-25.691-64.1-52.212-11.9-36.847,3.519-77.111,27.313-106.717.471.768.942,1.543,1.406,2.311C62.044,77.906,30.8,83.573,1.951,94.9c-1.942.762-2.786-2.213-.87-2.962" transform="translate(-0.002 0.02)" fill="#80dbd1"/>
      <path id="Path_21417" data-name="Path 21417" d="M2.507,27.415C18.838,34.059,35.3,40.746,52.174,46.062c-.667.363-1.341.719-2.008,1.076q5.141-22.993,10.02-46.029c.412-1.942,3.564-1.119,3.152.817q-4.905,23.03-10.02,46.029A1.666,1.666,0,0,1,51.3,49.031C34.162,43.622,17.445,36.812.859,30.07c-1.929-.787-.268-3.436,1.648-2.655" transform="translate(445.612 107.345)" fill="#80dbd1"/>
    </g>
  </g>
</svg>
