<svg xmlns="http://www.w3.org/2000/svg" xmlns:xlink="http://www.w3.org/1999/xlink" width="408.882" height="87.213" viewBox="0 0 408.882 87.213"><defs><clipPath id="a"><rect width="408.804" height="59.333" fill="#fff"/></clipPath><clipPath id="b"><rect width="387.758" height="53.974" fill="#fff"/></clipPath></defs><g transform="translate(-5.5 -10.8)"><path d="M488.961,104.206a6.279,6.279,0,0,1,1.553-.155c1.941,0,3.029.932,3.029,2.485,0,1.709-1.243,2.8-3.262,2.8a5.525,5.525,0,0,1-1.243-.078l-.078-5.048Zm-3.805,13.979h3.805v-6.058a6.7,6.7,0,0,0,1.32.078,7.867,7.867,0,0,0,5.514-1.786,5.321,5.321,0,0,0,1.553-4.038,4.768,4.768,0,0,0-1.786-3.883c-1.165-.932-2.8-1.4-5.2-1.4a40.254,40.254,0,0,0-5.2.311v16.775ZM474.05,104.129a6.848,6.848,0,0,1,1.708-.155c1.786,0,2.8.777,2.8,2.33,0,1.476-1.165,2.407-3.029,2.407H474.05Zm-3.805,14.057h3.805v-6.679h1.165c1.553,0,2.252.621,2.718,2.718a21.956,21.956,0,0,0,1.165,3.961h3.883c-.311-.621-.854-2.873-1.4-4.737a4.229,4.229,0,0,0-2.252-3.184v-.078a4.535,4.535,0,0,0,3.029-4.194,4.417,4.417,0,0,0-1.553-3.572c-1.165-.932-2.951-1.32-5.436-1.32a43,43,0,0,0-5.126.311v16.775Zm-7.145,0h3.805v-16.93H463.1Z" transform="translate(-102.226 -20.173)" fill="#fff"/><g transform="translate(5.5 12.276)" style="isolation:isolate"><path d="M35.166,51.142a25.081,25.081,0,0,1-10.329,1.864C13.81,53.006,5.5,46.016,5.5,33.2c0-12.27,8.31-20.5,20.425-20.5,4.893,0,7.921,1.01,9.242,1.709l-1.243,4.116A18.524,18.524,0,0,0,26,16.894c-9.164,0-15.221,5.825-15.221,16.153,0,9.552,5.514,15.687,14.988,15.687A19.646,19.646,0,0,0,34,47.1Z" transform="translate(-5.5 -12.7)" fill="#fff"/><path d="M52.392,27.7l6.135,16.542c.621,1.864,1.32,4.038,1.786,5.747h.155c.544-1.709,1.087-3.805,1.786-5.825L67.846,27.7H73.2L65.594,47.736c-3.728,9.552-6.213,14.522-9.708,17.551a13,13,0,0,1-6.29,3.262l-1.243-4.271a14.721,14.721,0,0,0,4.5-2.485,15.656,15.656,0,0,0,4.271-5.669,3.621,3.621,0,0,0,.388-1.243,4.491,4.491,0,0,0-.388-1.32L46.8,27.7Z" transform="translate(-14.726 -16.051)" fill="#fff"/><path d="M105.768,38.6a7.5,7.5,0,0,0-7.455-7.688c-4.893,0-8.387,4.116-8.387,10.639,0,5.514,2.8,10.1,8.31,10.1a7.427,7.427,0,0,0,7.067-5.2,8.228,8.228,0,0,0,.388-2.718l.078-5.126ZM111.049,27.5c-.155,2.019-.233,4.271-.233,7.688V51.5c0,6.446-1.243,10.407-4.038,12.814-2.718,2.563-6.679,3.339-10.174,3.339a18.411,18.411,0,0,1-9.319-2.33l1.243-3.883a15.761,15.761,0,0,0,8.232,2.174c5.2,0,9.086-2.718,9.086-9.785V50.719h-.155c-1.553,2.64-4.582,4.66-8.931,4.66-6.989,0-11.96-5.9-11.96-13.668,0-9.475,6.213-14.911,12.659-14.911,4.893,0,7.533,2.563,8.776,4.893h.155l.233-4.194Z" transform="translate(-23.215 -15.85)" fill="#fff"/><path d="M130.133,35.132c0-2.873-.078-5.281-.233-7.611h4.5l.311,4.66h.078a10.391,10.391,0,0,1,9.242-5.281c3.883,0,9.941,2.33,9.941,11.96V55.634h-5.126V39.4c0-4.5-1.709-8.31-6.523-8.31a7.335,7.335,0,0,0-7.145,7.611V55.557h-5.126l.078-20.425Z" transform="translate(-33.29 -15.872)" fill="#fff"/><path d="M190.3,38.837c.078-3.262-1.32-8.31-7.067-8.31-5.126,0-7.455,4.737-7.844,8.31Zm-14.911,3.65c.078,6.912,4.5,9.708,9.63,9.708a17.838,17.838,0,0,0,7.766-1.476l.854,3.65a23.468,23.468,0,0,1-9.319,1.709c-8.62,0-13.824-5.669-13.824-14.134S175.47,26.8,183.625,26.8c9.164,0,11.571,8.077,11.571,13.2a17.7,17.7,0,0,1-.155,2.407C195.041,42.487,175.393,42.487,175.393,42.487Z" transform="translate(-42.36 -15.85)" fill="#fff"/><path d="M217.219,17.3v8.077h7.3V29.26h-7.3V44.4c0,3.495,1.01,5.436,3.805,5.436a8.975,8.975,0,0,0,2.951-.388l.233,3.805a12.99,12.99,0,0,1-4.5.7,7.07,7.07,0,0,1-5.514-2.174c-1.476-1.476-1.942-4.038-1.942-7.3V29.26H207.9V25.377h4.349V18.62Z" transform="translate(-50.715 -13.728)" fill="#fff"/></g><g transform="translate(194.914 10.8)" style="isolation:isolate"><path d="M262.136,15.83H249.4V13.5h28.268v2.33H264.854V52.563h-2.718Z" transform="translate(-249.4 -11.403)" fill="#fff"/><path d="M307.33,40.691c-6.058-.155-14.057.777-14.057,7.455,0,4.038,2.64,5.825,5.592,5.825a8.406,8.406,0,0,0,8.232-5.592,7.246,7.246,0,0,0,.311-1.709v-5.98Zm.621,14.911-.388-4.038h-.155a10.382,10.382,0,0,1-8.853,4.66c-5.592,0-8.154-3.961-8.154-7.688,0-6.446,5.669-10.329,17.008-10.174v-.7c0-2.8-.544-8.31-7.145-8.232a11.926,11.926,0,0,0-6.989,2.1l-.854-2.019a14.8,14.8,0,0,1,8.154-2.407c8.077,0,9.552,6.058,9.552,11.028V49a46.377,46.377,0,0,0,.388,6.6Z" transform="translate(-258.559 -14.441)" fill="#fff"/><path d="M328.328,28l4.737,6.756a56.178,56.178,0,0,1,3.184,4.737h.078c1.087-1.709,2.174-3.184,3.262-4.737L344.326,28h3.106l-9.708,13.591,10.018,14.29h-3.106l-4.97-7.067c-1.243-1.709-2.33-3.417-3.495-5.2h-.078a61.023,61.023,0,0,1-3.495,5.2l-4.893,7.067H324.6l10.174-14.212L325.221,28Z" transform="translate(-266.199 -14.642)" fill="#fff"/><path d="M370.336,15.83H357.6V13.5h28.268v2.33H373.132V52.563h-2.8Z" transform="translate(-273.571 -11.403)" fill="#fff"/><path d="M419.2,39.215c.078-3.883-1.553-9.785-8.31-9.785-6.135,0-8.853,5.514-9.242,9.785ZM401.418,41.39c0,8.931,4.893,12.426,10.639,12.426a15.842,15.842,0,0,0,7.688-1.553l.7,2.174c-1.01.621-3.883,1.709-8.776,1.709-8,0-12.969-5.825-12.969-13.979,0-9.242,5.359-15.066,12.5-15.066,9.086,0,10.872,8.543,10.872,12.581A10.459,10.459,0,0,1,422,41.39Z" transform="translate(-282.753 -14.441)" fill="#fff"/><path d="M459.012,54.459a18.476,18.476,0,0,1-8.154,1.786c-8.077,0-13.358-5.825-13.358-14.212,0-8.853,6.057-14.833,14.367-14.833a15.025,15.025,0,0,1,7.3,1.709l-1.01,2.252a13.124,13.124,0,0,0-6.6-1.631c-7.455,0-11.338,5.747-11.338,12.27,0,7.222,4.582,12.037,11.028,12.037a16.9,16.9,0,0,0,6.989-1.553Z" transform="translate(-291.421 -14.464)" fill="#fff"/><path d="M476.3,10.8h2.718V29.128h.078A9.988,9.988,0,0,1,482.9,25.09a10.238,10.238,0,0,1,5.592-1.553c2.64,0,9.63,1.32,9.63,11.649V52.038h-2.64V35.5c0-5.048-1.942-9.63-7.688-9.63a9.132,9.132,0,0,0-8.387,6.29,7.181,7.181,0,0,0-.388,2.718V51.96H476.3Z" transform="translate(-300.089 -10.8)" fill="#fff"/></g><g transform="translate(5.5 10.8)"><g clip-path="url(#a)"><g clip-path="url(#b)"><path d="M35.166,51.142a25.081,25.081,0,0,1-10.329,1.864C13.81,53.006,5.5,46.016,5.5,33.2c0-12.27,8.31-20.5,20.425-20.5,4.893,0,7.921,1.01,9.319,1.709L34,18.525a18.524,18.524,0,0,0-7.921-1.631c-9.164,0-15.221,5.825-15.221,16.153,0,9.552,5.514,15.687,14.988,15.687A19.646,19.646,0,0,0,34.079,47.1Z" transform="translate(-5.5 -11.224)" fill="#fff"/></g><g clip-path="url(#b)"><path d="M52.392,27.7l6.135,16.619c.621,1.864,1.32,4.038,1.786,5.747h.078c.544-1.709,1.087-3.805,1.786-5.825l5.592-16.464h5.359L65.438,47.814c-3.572,9.552-6.058,14.445-9.552,17.474a14.1,14.1,0,0,1-6.29,3.339l-1.243-4.271a14.721,14.721,0,0,0,4.5-2.485A15.656,15.656,0,0,0,57.129,56.2a3.621,3.621,0,0,0,.388-1.243,4.491,4.491,0,0,0-.388-1.32L46.8,27.7Z" transform="translate(-14.726 -14.575)" fill="#fff"/></g></g><g clip-path="url(#a)"><g clip-path="url(#a)"><path d="M111.149,27.5c-.078,2.019-.233,4.271-.233,7.688V51.5c0,6.446-1.243,10.407-4.038,12.814-2.718,2.563-6.679,3.339-10.174,3.339-3.339,0-7.067-.777-9.319-2.33l1.243-3.883a15.761,15.761,0,0,0,8.232,2.174c5.2,0,9.086-2.718,9.086-9.785V50.719h-.155c-1.553,2.64-4.582,4.66-8.931,4.66-6.989,0-11.96-5.9-11.96-13.668,0-9.475,6.213-14.911,12.659-14.911,4.893,0,7.533,2.563,8.776,4.893h.078l.233-4.271h4.5ZM105.868,38.6a7.5,7.5,0,0,0-7.455-7.688c-4.893,0-8.387,4.116-8.387,10.639,0,5.514,2.8,10.1,8.31,10.1a7.427,7.427,0,0,0,7.067-5.2,8.228,8.228,0,0,0,.388-2.718V38.6Z" transform="translate(-23.238 -14.374)" fill="#fff"/></g><g clip-path="url(#a)"><path d="M130.233,35.132c0-2.873-.078-5.281-.233-7.611h4.5l.311,4.66h.078a10.391,10.391,0,0,1,9.242-5.281c3.883,0,9.941,2.33,9.941,11.96V55.634h-5.126V39.4c0-4.5-1.709-8.31-6.523-8.31a7.335,7.335,0,0,0-7.145,7.611V55.557h-5.126V35.132Z" transform="translate(-33.313 -14.397)" fill="#fff"/></g><g clip-path="url(#a)"><path d="M175.393,42.487c.078,6.912,4.5,9.708,9.63,9.708a17.838,17.838,0,0,0,7.766-1.476l.854,3.65a23.468,23.468,0,0,1-9.319,1.709c-8.62,0-13.824-5.669-13.824-14.134S175.47,26.8,183.7,26.8c9.164,0,11.571,8.077,11.571,13.2a17.7,17.7,0,0,1-.155,2.407H175.393Zm14.988-3.65c.078-3.262-1.32-8.31-7.067-8.31-5.126,0-7.455,4.737-7.844,8.31Z" transform="translate(-42.36 -14.374)" fill="#fff"/></g><g clip-path="url(#a)"><path d="M217.319,17.3v8.077h7.3V29.26h-7.3V44.4c0,3.495,1.01,5.436,3.805,5.436a12.56,12.56,0,0,0,2.951-.311l.233,3.805a12.99,12.99,0,0,1-4.5.7,7.07,7.07,0,0,1-5.514-2.174c-1.476-1.476-1.942-4.038-1.942-7.3V29.26H208V25.377h4.349V18.62Z" transform="translate(-50.738 -12.252)" fill="#fff"/></g></g><g clip-path="url(#a)"><path d="M262.236,15.83H249.5V13.5h28.268v2.33H265.032V52.641h-2.8Z" transform="translate(-60.009 -11.403)" fill="#fff"/></g><g clip-path="url(#a)"><g clip-path="url(#a)"><path d="M308.151,55.7l-.388-4.038h-.155a10.382,10.382,0,0,1-8.853,4.66c-5.592,0-8.154-3.961-8.154-7.688,0-6.446,5.669-10.329,17.008-10.174v-.7c0-2.8-.544-8.31-7.145-8.232a11.926,11.926,0,0,0-6.989,2.1l-.854-2.019a14.8,14.8,0,0,1,8.154-2.407c8.077,0,9.552,6.058,9.552,11.028V49.1a46.377,46.377,0,0,0,.388,6.6h-2.563Zm-.7-14.911c-6.058-.155-14.057.777-14.057,7.455,0,4.038,2.64,5.825,5.592,5.825a8.406,8.406,0,0,0,8.232-5.592,6.6,6.6,0,0,0,.311-1.709v-5.98Z" transform="translate(-69.19 -14.464)" fill="#fff"/></g><g clip-path="url(#a)"><path d="M328.528,28l4.737,6.756a56.2,56.2,0,0,1,3.184,4.737h.078c1.087-1.709,2.174-3.184,3.262-4.737L344.526,28h3.106l-9.708,13.591,10.018,14.29h-3.106l-4.97-7.067c-1.243-1.709-2.33-3.417-3.495-5.2h-.078a61,61,0,0,1-3.495,5.2l-4.893,7.067H324.8l10.251-14.212L325.421,28Z" transform="translate(-76.83 -14.642)" fill="#fff"/></g></g><g clip-path="url(#a)"><path d="M370.536,15.83H357.8V13.5h28.268v2.33H373.332V52.641h-2.8Z" transform="translate(-84.202 -11.403)" fill="#fff"/></g><g clip-path="url(#a)"><g clip-path="url(#a)"><path d="M401.618,41.49c0,8.931,4.893,12.426,10.639,12.426a15.842,15.842,0,0,0,7.688-1.553l.7,2.174c-1.01.544-3.883,1.709-8.776,1.709-8,0-12.969-5.825-12.969-13.979,0-9.242,5.359-15.066,12.5-15.066,9.086,0,10.872,8.62,10.872,12.581a10.459,10.459,0,0,1-.078,1.709h-20.58ZM419.4,39.237c.078-3.883-1.553-9.785-8.31-9.785-6.135,0-8.853,5.514-9.242,9.785Z" transform="translate(-93.384 -14.464)" fill="#fff"/></g></g><g clip-path="url(#a)"><g clip-path="url(#b)"><path d="M459.19,54.459a18.476,18.476,0,0,1-8.154,1.786c-8.077,0-13.435-5.825-13.435-14.212,0-8.853,6.057-14.833,14.367-14.833a15.025,15.025,0,0,1,7.3,1.709l-1.01,2.252a13.364,13.364,0,0,0-6.6-1.631c-7.455,0-11.338,5.747-11.338,12.27,0,7.222,4.582,12.037,11.028,12.037a16.9,16.9,0,0,0,6.989-1.553Z" transform="translate(-102.029 -14.464)" fill="#fff"/></g><g clip-path="url(#b)"><path d="M476.478,10.8H479.2V29.128h.078a9.988,9.988,0,0,1,3.805-4.038,10.238,10.238,0,0,1,5.592-1.553c2.64,0,9.63,1.32,9.63,11.649V52.038h-2.718V35.5c0-5.048-1.942-9.63-7.688-9.63a9.132,9.132,0,0,0-8.387,6.29,7.181,7.181,0,0,0-.388,2.718V51.96H476.4V10.8Z" transform="translate(-110.697 -10.8)" fill="#fff"/></g></g><path d="M443.2,78.839c5.514,2.019,11.338,1.32,17.008.544,11.8-1.631,22.754-7.145,35.025-6.213,6.135.311,12.5,2.563,16.93,6.912a36.7,36.7,0,0,0-16.852-2.174c-11.727.854-22.677,6.368-34.714,6.135-6.057-.078-12.892-.854-17.4-5.2" transform="translate(-103.28 -24.71)" fill="#00aded"/></g></g></svg>