<?xml version="1.0"?>
<svg xmlns="http://www.w3.org/2000/svg" xmlns:xlink="http://www.w3.org/1999/xlink" xmlns:svgjs="http://svgjs.com/svgjs" version="1.1" width="512" height="512" x="0" y="0" viewBox="0 0 512 512" style="enable-background:new 0 0 512 512" xml:space="preserve" class=""><g><g xmlns="http://www.w3.org/2000/svg"><g><path d="m505.877 98.739c-4.01-1.04-8.102 1.372-9.139 5.382-7.577 29.285-34.024 49.738-64.316 49.738-36.63 0-66.431-29.801-66.431-66.432 0-36.63 29.801-66.431 66.431-66.431 15.367 0 29.791 5.097 41.713 14.738 11.585 9.369 19.771 22.483 23.049 36.925.917 4.039 4.933 6.566 8.974 5.653 4.04-.917 6.571-4.935 5.654-8.974-4.021-17.713-14.052-33.789-28.245-45.268-14.412-11.656-32.576-18.075-51.145-18.075-44.901 0-81.431 36.529-81.431 81.431s36.53 81.432 81.431 81.432c37.129 0 69.548-25.076 78.837-60.98 1.038-4.01-1.372-8.102-5.382-9.139z" fill="#ffffff" data-original="#000000" class=""/><path d="m435.871 39.471c-2.162-1.119-4.735-1.119-6.897 0l-39.874 20.648c-2.489 1.289-4.051 3.857-4.051 6.66v41.298c0 2.803 1.562 5.371 4.051 6.66l39.873 20.648c1.081.56 2.265.84 3.449.84s2.368-.28 3.449-.84l39.873-20.648c2.489-1.289 4.051-3.857 4.051-6.66v-41.298c0-2.803-1.562-5.371-4.051-6.66zm-10.949 76.925-24.873-12.881v-24.405l24.873 12.881zm7.5-37.414-23.563-12.202 23.563-12.202 23.563 12.202zm32.373 24.533-24.873 12.881v-24.405l24.873-12.881z" fill="#ffffff" data-original="#000000" class=""/><path d="m124.753 397.263-39.873-20.649c-2.162-1.119-4.735-1.119-6.897 0l-39.873 20.648c-2.489 1.289-4.051 3.857-4.051 6.66v41.298c0 2.803 1.562 5.371 4.051 6.66l39.873 20.648c1.081.56 2.265.84 3.449.84s2.368-.28 3.449-.84l39.873-20.648c2.489-1.289 4.051-3.857 4.051-6.66v-41.298c-.001-2.802-1.563-5.37-4.052-6.659zm-50.822 56.276-24.873-12.881v-24.405l24.873 12.881zm7.5-37.414-23.563-12.202 23.563-12.202 23.563 12.202zm32.373 24.533-24.873 12.881v-24.406l24.873-12.881z" fill="#ffffff" data-original="#000000" class=""/><path d="m257.853 188.947c-29.989 0-56.548 20.167-64.586 49.041-1.111 3.991 1.223 8.126 5.214 9.237 3.991 1.114 8.126-1.225 9.236-5.214 6.239-22.412 26.855-38.064 50.136-38.064 28.702 0 52.053 23.351 52.053 52.053s-23.351 52.053-52.053 52.053c-22.371 0-42.195-14.244-49.33-35.445-1.321-3.926-5.575-6.036-9.5-4.716-3.926 1.321-6.038 5.575-4.716 9.501 9.191 27.311 34.729 45.66 63.547 45.66 36.973 0 67.053-30.08 67.053-67.053s-30.081-67.053-67.054-67.053z" fill="#ffffff" data-original="#000000" class=""/><path d="m257.853 293.156c20.488 0 37.157-16.668 37.157-37.156s-16.668-37.156-37.157-37.156-37.156 16.668-37.156 37.156 16.668 37.156 37.156 37.156zm0-59.312c12.217 0 22.157 9.939 22.157 22.156s-9.939 22.156-22.157 22.156-22.157-9.939-22.157-22.156 9.94-22.156 22.157-22.156z" fill="#ffffff" data-original="#000000" class=""/><path d="m457.941 278.561c.832-7.408 1.27-14.934 1.27-22.561 0-18.938-2.635-37.699-7.831-55.763-1.145-3.98-5.301-6.281-9.281-5.135-3.981 1.146-6.279 5.301-5.134 9.281 4.808 16.715 7.246 34.081 7.246 51.616 0 4.288-.168 8.536-.459 12.752-13.114-7.345-28.142-11.529-43.959-11.529-1.204 0-2.402.031-3.595.078v-17.846c0-7.156-5.822-12.978-12.978-12.978h-26.375c-2.021-6.794-4.746-13.375-8.115-19.602l18.646-18.647c2.452-2.451 3.802-5.71 3.802-9.177s-1.35-6.726-3.801-9.177l-23.399-23.398c-2.451-2.452-5.71-3.802-9.177-3.802-3.466 0-6.726 1.35-9.176 3.801l-18.647 18.647c-6.227-3.37-12.809-6.095-19.602-8.115v-26.375c0-7.156-5.822-12.978-12.978-12.978h-33.092c-7.156 0-12.978 5.821-12.978 12.978v26.375c-6.794 2.021-13.375 4.746-19.602 8.115l-18.647-18.646c-2.451-2.452-5.71-3.802-9.177-3.802s-6.726 1.35-9.177 3.801l-23.399 23.399c-2.452 2.451-3.802 5.71-3.802 9.177s1.35 6.726 3.801 9.176l18.647 18.648c-3.369 6.227-6.094 12.808-8.115 19.602h-26.375c-7.156 0-12.978 5.821-12.978 12.978v33.092c0 7.156 5.822 12.978 12.978 12.978h26.375c2.021 6.794 4.746 13.375 8.115 19.602l-18.646 18.647c-2.452 2.451-3.802 5.71-3.802 9.177s1.35 6.726 3.801 9.177l23.399 23.398c2.451 2.452 5.71 3.802 9.177 3.802 3.466 0 6.726-1.35 9.176-3.801l18.647-18.647c6.227 3.37 12.809 6.095 19.602 8.115v26.375c0 7.156 5.822 12.978 12.978 12.978h33.092c7.156 0 12.978-5.821 12.978-12.978v-26.375c6.794-2.021 13.375-4.746 19.602-8.115l2.273 2.273c.433 29.085 14.64 54.893 36.381 71.169-26.175 14.042-56.055 22.039-87.78 22.039-34.859 0-67.511-9.625-95.444-26.351-3.869-36.849-32.411-66.456-68.76-71.948-14.125-26.24-22.151-56.23-22.151-88.061 0-38.219 11.576-73.779 31.391-103.382 5.804 3.916 12.792 6.205 20.304 6.205 20.068 0 36.396-16.327 36.396-36.396 0-7.62-2.358-14.697-6.377-20.549 29.851-20.333 65.881-32.237 104.644-32.237 19.742 0 39.203 3.083 57.844 9.164 3.939 1.284 8.172-.865 9.457-4.804s-.867-8.172-4.804-9.456c-20.146-6.572-41.172-9.904-62.496-9.904-43.054 0-82.986 13.594-115.754 36.701-5.514-3.367-11.989-5.309-18.909-5.309-20.068 0-36.395 16.326-36.395 36.395 0 7.022 2.005 13.583 5.463 19.149-22.538 32.516-35.764 71.952-35.764 114.423 0 31.268 7.191 60.878 19.965 87.307-42.594 2.579-76.46 38.034-76.46 81.264 0 44.901 36.53 81.432 81.431 81.432 41.974 0 76.624-31.925 80.965-72.766 28.425 15.374 60.935 24.122 95.457 24.122 37.389 0 72.419-10.26 102.453-28.088 11.941 5.81 25.34 9.074 39.488 9.074 39.981 0 75.729-26.829 86.935-65.244 1.16-3.976-1.124-8.14-5.1-9.3-3.977-1.161-8.141 1.123-9.3 5.101-9.35 32.056-39.177 54.443-72.534 54.443-41.664 0-75.56-33.896-75.56-75.561s33.896-75.561 75.56-75.561c37.36 0 69.511 27.874 74.785 64.837.585 4.101 4.377 6.947 8.484 6.365 4.101-.585 6.95-4.384 6.365-8.484-3.231-22.648-14.892-42.433-31.488-56.38zm-334.75-177.528c11.797 0 21.396 9.598 21.396 21.395 0 11.798-9.598 21.396-21.396 21.396s-21.395-9.598-21.395-21.396c0-11.797 9.597-21.395 21.395-21.395zm-41.76 389.97c-36.63 0-66.431-29.801-66.431-66.432 0-36.63 29.801-66.431 66.431-66.431s66.431 29.801 66.431 66.431c0 36.631-29.8 66.432-66.431 66.432zm229.207-159.15c-3.19-.832-6.674-.466-9.691 1.223-6.01 3.365-12.425 6.021-19.068 7.894-5.595 1.578-9.502 6.719-9.502 12.5v25.876h-29.047v-25.876c0-5.781-3.907-10.922-9.504-12.501-6.641-1.871-13.056-4.527-19.065-7.893-5.074-2.84-11.473-1.969-15.562 2.119l-18.293 18.293-20.54-20.539 18.293-18.293c4.089-4.089 4.96-10.489 2.119-15.562-3.366-6.011-6.021-12.426-7.893-19.066-1.576-5.596-6.717-9.504-12.5-9.504h-25.876v-29.047h25.876c5.784 0 10.924-3.908 12.5-9.504 1.872-6.641 4.527-13.056 7.893-19.066 2.841-5.073 1.97-11.474-2.119-15.562l-18.293-18.294 20.54-20.539 18.293 18.293c4.09 4.089 10.489 4.96 15.562 2.119 6.01-3.365 12.425-6.021 19.068-7.894 5.595-1.578 9.502-6.719 9.502-12.5v-25.876h29.047v25.876c0 5.781 3.907 10.922 9.504 12.501 6.641 1.871 13.056 4.527 19.065 7.893 5.076 2.842 11.474 1.97 15.562-2.119l18.293-18.293 20.54 20.539-18.293 18.293c-4.089 4.089-4.96 10.489-2.119 15.562 3.366 6.011 6.021 12.426 7.893 19.066 1.576 5.596 6.717 9.504 12.5 9.504h25.876v17.669c-35.925 7.528-64.093 36.409-70.561 72.708z" fill="#ffffff" data-original="#000000" class=""/><path d="m399.795 287.979c-4.142 0-7.5 3.357-7.5 7.5v52.305c0 4.143 3.358 7.5 7.5 7.5h41.316c4.142 0 7.5-3.357 7.5-7.5s-3.358-7.5-7.5-7.5h-33.816v-44.805c0-4.143-3.358-7.5-7.5-7.5z" fill="#ffffff" data-original="#000000" class=""/></g></g></g></svg>
