<?xml version="1.0"?>
<svg xmlns="http://www.w3.org/2000/svg" xmlns:xlink="http://www.w3.org/1999/xlink" xmlns:svgjs="http://svgjs.com/svgjs" version="1.1" width="512" height="512" x="0" y="0" viewBox="0 0 60 60" style="enable-background:new 0 0 512 512" xml:space="preserve" class=""><g><path xmlns="http://www.w3.org/2000/svg" d="M46,32a13.884,13.884,0,0,0-2,.16V3a3,3,0,0,0-3-3H8.83A2.985,2.985,0,0,0,6.7.883L.883,6.7A2.985,2.985,0,0,0,0,8.83V55a3,3,0,0,0,3,3H38.826A13.992,13.992,0,1,0,46,32ZM7,3.414V6A1,1,0,0,1,6,7H3.414ZM3,56a1,1,0,0,1-1-1V9H6A3,3,0,0,0,9,6V2H41a1,1,0,0,1,1,1V32.59A14.05,14.05,0,0,0,33.37,40H23a1,1,0,0,0,0,2h9.59a13.834,13.834,0,0,0-.539,3H12a1,1,0,0,0,0,2H32.051a13.949,13.949,0,0,0,4.17,9Zm43,2A12,12,0,1,1,58,46,12.013,12.013,0,0,1,46,58Z" fill="#ffffff" data-original="#000000"/><path xmlns="http://www.w3.org/2000/svg" d="M51.5,40.136a1,1,0,0,0-1.368.36L43.79,51.376l-2.083-2.083a1,1,0,0,0-1.414,1.414l3,3A1,1,0,0,0,44,54a1.086,1.086,0,0,0,.128-.008,1,1,0,0,0,.736-.488l7-12A1,1,0,0,0,51.5,40.136Z" fill="#ffffff" data-original="#000000"/><path xmlns="http://www.w3.org/2000/svg" d="M9,12h2v7a1,1,0,0,0,2,0V12h2a1,1,0,0,0,0-2H9a1,1,0,0,0,0,2Z" fill="#ffffff" data-original="#000000"/><path xmlns="http://www.w3.org/2000/svg" d="M7,25H37a1,1,0,0,0,0-2H7a1,1,0,0,0,0,2Z" fill="#ffffff" data-original="#000000"/><path xmlns="http://www.w3.org/2000/svg" d="M37,30H36a1,1,0,0,0,0,2h1a1,1,0,0,0,0-2Z" fill="#ffffff" data-original="#000000"/><path xmlns="http://www.w3.org/2000/svg" d="M7,32H32a1,1,0,0,0,0-2H7a1,1,0,0,0,0,2Z" fill="#ffffff" data-original="#000000"/><path xmlns="http://www.w3.org/2000/svg" d="M32,35H12a1,1,0,0,0,0,2H32a1,1,0,0,0,0-2Z" fill="#ffffff" data-original="#000000"/><path xmlns="http://www.w3.org/2000/svg" d="M7,37H8a1,1,0,0,0,0-2H7a1,1,0,0,0,0,2Z" fill="#ffffff" data-original="#000000"/><path xmlns="http://www.w3.org/2000/svg" d="M7,42H19a1,1,0,0,0,0-2H7a1,1,0,0,0,0,2Z" fill="#ffffff" data-original="#000000"/><path xmlns="http://www.w3.org/2000/svg" d="M7,47H8a1,1,0,0,0,0-2H7a1,1,0,0,0,0,2Z" fill="#ffffff" data-original="#000000"/><path xmlns="http://www.w3.org/2000/svg" d="M20,50H7a1,1,0,0,0,0,2H20a1,1,0,0,0,0-2Z" fill="#ffffff" data-original="#000000"/><path xmlns="http://www.w3.org/2000/svg" d="M16.648,19.937a1,1,0,0,0,1.289-.585L18.818,17h4.364l.881,2.352A1,1,0,0,0,25,20a1.038,1.038,0,0,0,.352-.063,1,1,0,0,0,.585-1.289l-2.65-7.065a2.444,2.444,0,0,0-4.574,0l-2.65,7.065A1,1,0,0,0,16.648,19.937Zm4.766-7.651L22.432,15H19.568l1.018-2.714A.462.462,0,0,1,21.414,12.286Z" fill="#ffffff" data-original="#000000"/><path xmlns="http://www.w3.org/2000/svg" d="M28.4,19.8a1,1,0,0,0,1.4-.2L32,16.666,34.2,19.6a1,1,0,1,0,1.6-1.2L33.25,15l2.55-3.4a1,1,0,1,0-1.6-1.2L32,13.334,29.8,10.4a1,1,0,0,0-1.6,1.2L30.75,15,28.2,18.4A1,1,0,0,0,28.4,19.8Z" fill="#ffffff" data-original="#000000"/></g></svg>
