<?xml version="1.0"?>
<svg xmlns="http://www.w3.org/2000/svg" xmlns:xlink="http://www.w3.org/1999/xlink" xmlns:svgjs="http://svgjs.com/svgjs" version="1.1" width="512" height="512" x="0" y="0" viewBox="0 0 511.99 511.99" style="enable-background:new 0 0 512 512" xml:space="preserve" class=""><g><path xmlns="http://www.w3.org/2000/svg" d="m196.352 83.485c0-26.139-21.266-47.404-47.404-47.404s-47.404 21.265-47.404 47.404 21.266 47.404 47.404 47.404 47.404-21.265 47.404-47.404zm-79.809 0c0-17.868 14.537-32.404 32.404-32.404s32.404 14.536 32.404 32.404-14.537 32.404-32.404 32.404-32.404-14.536-32.404-32.404z" fill="#ffffff" data-original="#000000" class=""/><path xmlns="http://www.w3.org/2000/svg" d="m399.131 148.579c-32.01.002-59.177 19.839-69.21 50.536-4.121 12.604-6.211 25.776-6.211 39.151 0 24.331 6.954 47.946 20.111 68.29 12.809 19.807 30.831 35.59 52.117 45.642 1.014.479 2.107.718 3.202.718s2.188-.239 3.202-.718c15.466-7.303 29.084-17.515 40.477-30.354 2.75-3.098 2.467-7.838-.631-10.588-3.099-2.749-7.839-2.466-10.588.631-9.246 10.419-20.152 18.874-32.458 25.171-36.827-18.878-60.433-57.267-60.433-98.792 0-11.789 1.84-23.393 5.469-34.49 9.686-29.635 34.738-40.196 54.953-40.198 20.219-.001 45.277 10.558 54.968 40.193 3.624 11.112 5.461 22.718 5.461 34.495 0 17.9-4.137 34.989-12.294 50.789-1.9 3.681-.457 8.205 3.224 10.105 3.68 1.899 8.204.458 10.104-3.224 9.137-17.697 13.966-37.639 13.966-57.671 0-13.359-2.086-26.53-6.201-39.151-10.04-30.7-37.213-50.537-69.228-50.535z" fill="#ffffff" data-original="#000000" class=""/><path xmlns="http://www.w3.org/2000/svg" d="m399.137 178.619c-26.139 0-47.404 21.265-47.404 47.404s21.266 47.404 47.404 47.404 47.404-21.265 47.404-47.404-21.266-47.404-47.404-47.404zm0 79.809c-17.868 0-32.404-14.537-32.404-32.404s14.536-32.404 32.404-32.404 32.404 14.537 32.404 32.404-14.536 32.404-32.404 32.404z" fill="#ffffff" data-original="#000000" class=""/><path xmlns="http://www.w3.org/2000/svg" d="m155.054 237.209h20c4.142 0 7.5-3.358 7.5-7.5s-3.358-7.5-7.5-7.5h-20c-4.142 0-7.5 3.358-7.5 7.5s3.358 7.5 7.5 7.5z" fill="#ffffff" data-original="#000000" class=""/><path xmlns="http://www.w3.org/2000/svg" d="m271.166 273.491c-2.614 1.277-5.43 1.924-8.369 1.924h-.001-29.841c-4.142 0-7.5 3.358-7.5 7.5s3.358 7.5 7.5 7.5h29.841.002c5.239 0 10.271-1.16 14.952-3.446 3.722-1.818 5.265-6.309 3.447-10.031-1.818-3.721-6.307-5.266-10.031-3.447z" fill="#ffffff" data-original="#000000" class=""/><path xmlns="http://www.w3.org/2000/svg" d="m200.203 237.209h41.915c4.142 0 7.5-3.358 7.5-7.5s-3.358-7.5-7.5-7.5h-41.915c-4.142 0-7.5 3.358-7.5 7.5s3.358 7.5 7.5 7.5z" fill="#ffffff" data-original="#000000" class=""/><path xmlns="http://www.w3.org/2000/svg" d="m266 237.476c9.212 1.551 15.898 9.473 15.898 18.836 0 1.105-.094 2.209-.279 3.282-.705 4.082 2.032 7.962 6.114 8.667.432.074.861.111 1.285.111 3.582 0 6.751-2.575 7.382-6.225.33-1.914.498-3.877.498-5.835 0-16.714-11.947-30.857-28.408-33.628-4.089-.686-7.953 2.067-8.641 6.151s2.066 7.953 6.151 8.641z" fill="#ffffff" data-original="#000000" class=""/><path xmlns="http://www.w3.org/2000/svg" d="m158.392 282.915c0 4.142 3.358 7.5 7.5 7.5h41.915c4.142 0 7.5-3.358 7.5-7.5s-3.358-7.5-7.5-7.5h-41.915c-4.142 0-7.5 3.358-7.5 7.5z" fill="#ffffff" data-original="#000000" class=""/><path xmlns="http://www.w3.org/2000/svg" d="m310.623 351.233h-41.915c-4.143 0-7.5 3.358-7.5 7.5s3.357 7.5 7.5 7.5h41.915c4.143 0 7.5-3.358 7.5-7.5s-3.357-7.5-7.5-7.5z" fill="#ffffff" data-original="#000000" class=""/><path xmlns="http://www.w3.org/2000/svg" d="m243.56 351.233h-41.915c-4.142 0-7.5 3.358-7.5 7.5s3.358 7.5 7.5 7.5h41.915c4.142 0 7.5-3.358 7.5-7.5s-3.358-7.5-7.5-7.5z" fill="#ffffff" data-original="#000000" class=""/><path xmlns="http://www.w3.org/2000/svg" d="m176.496 351.233h-12.796c-7.923 0-15.424-3.03-21.121-8.532-2.979-2.877-7.727-2.794-10.605.185-2.877 2.979-2.794 7.728.185 10.605 8.508 8.217 19.71 12.742 31.541 12.742h12.795c4.142 0 7.5-3.358 7.5-7.5s-3.357-7.5-7.499-7.5z" fill="#ffffff" data-original="#000000" class=""/><path xmlns="http://www.w3.org/2000/svg" d="m133.584 325.073c-.195-1.397-.293-2.826-.293-4.248 0-9.971 4.901-19.322 13.109-25.012 3.404-2.36 4.25-7.033 1.89-10.437s-7.032-4.25-10.437-1.89c-12.249 8.492-19.562 22.451-19.563 37.339 0 2.113.147 4.239.437 6.319.523 3.751 3.736 6.465 7.419 6.465.345 0 .694-.024 1.045-.073 4.103-.572 6.965-4.361 6.393-8.463z" fill="#ffffff" data-original="#000000" class=""/><path xmlns="http://www.w3.org/2000/svg" d="m355.906 351.233h-20c-4.143 0-7.5 3.358-7.5 7.5s3.357 7.5 7.5 7.5h20c4.143 0 7.5-3.358 7.5-7.5s-3.357-7.5-7.5-7.5z" fill="#ffffff" data-original="#000000" class=""/><path xmlns="http://www.w3.org/2000/svg" d="m511.99 174.352c0-33.707-27.422-61.129-61.129-61.129h-227.706c.803-5.765 1.219-11.607 1.219-17.492 0-13.376-2.089-26.549-6.208-39.152-10.035-30.699-37.205-50.535-69.218-50.535-32.014 0-59.183 19.836-69.217 50.535-4.119 12.602-6.208 25.774-6.208 39.152 0 5.885.416 11.727 1.219 17.492h-6.112v-99.676c0-4.142-3.358-7.5-7.5-7.5-33.707 0-61.13 27.423-61.13 61.13v270.46c0 33.633 27.3 61.01 60.906 61.13.074.002.149.003.224.003h236.764v99.677c0 4.142 3.357 7.5 7.5 7.5h145.468c33.65 0 61.033-27.331 61.125-60.96 0-.029.004-.056.004-.085 0-.014-.001-.028-.001-.042s.001-.028.001-.042v-270.466zm-418.002-113.113c9.687-29.636 34.742-40.195 54.959-40.195 20.218 0 45.273 10.559 54.96 40.195 3.627 11.096 5.466 22.701 5.466 34.491 0 41.525-23.602 79.911-60.426 98.789-36.824-18.877-60.425-57.264-60.425-98.789 0-11.791 1.839-23.396 5.466-34.491zm356.873 429.707h-137.967v-92.176h137.966c25.422 0 46.107 20.672 46.13 46.089-.024 25.417-20.707 46.087-46.129 46.087zm-.002-107.176h-389.519c-.07-.002-.14-.003-.209-.003-25.437 0-46.13-20.694-46.13-46.13s20.694-46.13 46.13-46.13c4.142 0 7.5-3.358 7.5-7.5v-61.45c0-4.142-3.358-7.5-7.5-7.5s-7.5 3.358-7.5 7.5v54.407c-15.357 1.887-28.962 9.5-38.63 20.621v-230.408c0-22.882 16.749-41.927 38.63-45.521v171.201c0 4.142 3.358 7.5 7.5 7.5s7.5-3.358 7.5-7.5v-64.635h9.148c3.364 12.628 8.679 24.702 15.855 35.798 12.808 19.806 30.829 35.588 52.112 45.639 1.014.479 2.108.718 3.203.718s2.189-.24 3.203-.718c21.284-10.051 39.304-25.833 52.112-45.639 7.176-11.097 12.492-23.17 15.855-35.798h230.743c25.436 0 46.129 20.694 46.129 46.129v230.506c-11.217-12.904-27.731-21.087-46.132-21.087z" fill="#ffffff" data-original="#000000" class=""/></g></svg>
