<?xml version="1.0"?>
<svg xmlns="http://www.w3.org/2000/svg" xmlns:xlink="http://www.w3.org/1999/xlink" xmlns:svgjs="http://svgjs.com/svgjs" version="1.1" width="512" height="512" x="0" y="0" viewBox="0 0 512 512" style="enable-background:new 0 0 512 512" xml:space="preserve" class=""><g><g xmlns="http://www.w3.org/2000/svg"><path d="M496,400H464V156a28.031,28.031,0,0,0-28-28H416V96a48.087,48.087,0,0,0-38.28-47.01c-.13-.03-.27-.05-.4-.07A47.743,47.743,0,0,0,368,48H208a48.051,48.051,0,0,0-48,48v32H76a28.031,28.031,0,0,0-28,28V400H16a8,8,0,0,0-8,8v28a28.031,28.031,0,0,0,28,28H476a28.031,28.031,0,0,0,28-28V408A8,8,0,0,0,496,400ZM352,96a32.1,32.1,0,0,1,24-30.99A32.069,32.069,0,0,1,400,96v32H352ZM176,96a32.036,32.036,0,0,1,32-32H348.27A48,48,0,0,0,336,96V272H323.31l-13.65-13.66a8.015,8.015,0,0,0-11.32,0L288,268.69l-10.34-10.35a8.015,8.015,0,0,0-11.32,0L256,268.69l-10.34-10.35a8.015,8.015,0,0,0-11.32,0L224,268.69l-10.34-10.35a8.008,8.008,0,0,0-11.5.19L189.53,272H176Zm-8,192h25a8.037,8.037,0,0,0,5.84-2.53l9.35-9.97,10.15,10.16a8.015,8.015,0,0,0,11.32,0L240,275.31l10.34,10.35a8.015,8.015,0,0,0,11.32,0L272,275.31l10.34,10.35a8.015,8.015,0,0,0,11.32,0L304,275.31l10.34,10.35A8.008,8.008,0,0,0,320,288h24a8,8,0,0,0,8-8V168h72V376H88V168h72V280A8,8,0,0,0,168,288ZM64,156a12.01,12.01,0,0,1,12-12h84v8H80a8,8,0,0,0-8,8V384a8,8,0,0,0,8,8H432a8,8,0,0,0,8-8V160a8,8,0,0,0-8-8H352v-8h84a12.01,12.01,0,0,1,12,12V400H64ZM292.46,416l-3,8H221.77l-2.67-8ZM488,436a12.01,12.01,0,0,1-12,12H36a12.01,12.01,0,0,1-12-12V416H202.23l6.18,18.53A8,8,0,0,0,216,440h79a8.005,8.005,0,0,0,7.49-5.19L309.54,416H488Z" fill="#ffffff" data-original="#000000"/><path d="M200,144H312a8,8,0,0,0,8-8V104a8,8,0,0,0-8-8H200a8,8,0,0,0-8,8v32A8,8,0,0,0,200,144Zm8-32h96v16H208Z" fill="#ffffff" data-original="#000000"/><path d="M200,176H312a8,8,0,0,0,0-16H200a8,8,0,0,0,0,16Z" fill="#ffffff" data-original="#000000"/><path d="M200,208H312a8,8,0,0,0,0-16H200a8,8,0,0,0,0,16Z" fill="#ffffff" data-original="#000000"/><path d="M200,240h47a8,8,0,0,0,0-16H200a8,8,0,0,0,0,16Z" fill="#ffffff" data-original="#000000"/><path d="M280,224h-8a8,8,0,0,0,0,16h8a8,8,0,0,0,0-16Z" fill="#ffffff" data-original="#000000"/></g></g></svg>
